%TF.GenerationSoftware,KiCad,Pcbnew,10.0.1*%
%TF.CreationDate,2026-09-09T16:02:26-03:00*%
%TF.ProjectId,cd4017_secuenciador,63643430-3137-45f7-9365-6375656e6369,rev?*%
%TF.SameCoordinates,Original*%
%TF.FileFunction,Legend,Bot*%
%TF.FilePolarity,Positive*%
%FSLAX46Y46*%
G04 Gerber Fmt 4.6, Leading zero omitted, Abs format (unit mm)*
G04 Created by KiCad (PCBNEW 10.0.1) date 2026-09-09 16:02:26*
%MOMM*%
%LPD*%
G01*
G04 APERTURE LIST*
%ADD10C,0.300000*%
G04 APERTURE END LIST*
D10*
G36*
X212700091Y-106116776D02*
G01*
X212484211Y-106116776D01*
X212484211Y-105900896D01*
X212700091Y-105900896D01*
X212700091Y-106116776D01*
G37*
G36*
X213540073Y-106533974D02*
G01*
X213324193Y-106533974D01*
X213324193Y-106318185D01*
X213540073Y-106318185D01*
X213540073Y-106533974D01*
G37*
G36*
X213330054Y-106745000D02*
G01*
X212904156Y-106745000D01*
X212904156Y-106529211D01*
X213330054Y-106529211D01*
X213330054Y-106745000D01*
G37*
G36*
X213330054Y-106116776D02*
G01*
X213114174Y-106116776D01*
X213114174Y-105900896D01*
X213330054Y-105900896D01*
X213330054Y-106116776D01*
G37*
G36*
X213120036Y-106322948D02*
G01*
X212904156Y-106322948D01*
X212904156Y-106107159D01*
X213120036Y-106107159D01*
X213120036Y-106322948D01*
G37*
G36*
X213120036Y-105905751D02*
G01*
X212694229Y-105905751D01*
X212694229Y-105689870D01*
X213120036Y-105689870D01*
X213120036Y-105905751D01*
G37*
G36*
X212910018Y-106533974D02*
G01*
X212694229Y-106533974D01*
X212694229Y-106318185D01*
X212910018Y-106318185D01*
X212910018Y-106533974D01*
G37*
G36*
X211860201Y-106745000D02*
G01*
X211434303Y-106745000D01*
X211434303Y-106529211D01*
X211860201Y-106529211D01*
X211860201Y-106745000D01*
G37*
G36*
X212070219Y-106535073D02*
G01*
X211854339Y-106535073D01*
X211854339Y-106322948D01*
X211224376Y-106322948D01*
X211224376Y-106107159D01*
X211644321Y-106107159D01*
X211644321Y-105900896D01*
X211860201Y-105900896D01*
X211860201Y-106107159D01*
X212070219Y-106107159D01*
X212070219Y-106535073D01*
G37*
G36*
X211650183Y-105905751D02*
G01*
X211224376Y-105905751D01*
X211224376Y-105689870D01*
X211650183Y-105689870D01*
X211650183Y-105905751D01*
G37*
G36*
X211230238Y-106116776D02*
G01*
X211014357Y-106116776D01*
X211014357Y-105900896D01*
X211230238Y-105900896D01*
X211230238Y-106116776D01*
G37*
G36*
X209544504Y-105900896D02*
G01*
X209760384Y-105900896D01*
X209760384Y-106116776D01*
X209544504Y-106116776D01*
X209544504Y-105900896D01*
G37*
G36*
X210600366Y-106533974D02*
G01*
X210384486Y-106533974D01*
X210384486Y-106110915D01*
X210600366Y-106110915D01*
X210600366Y-106533974D01*
G37*
G36*
X210390348Y-106745000D02*
G01*
X209964449Y-106745000D01*
X209964449Y-106529211D01*
X210390348Y-106529211D01*
X210390348Y-106745000D01*
G37*
G36*
X210390348Y-106116776D02*
G01*
X210174467Y-106116776D01*
X210174467Y-105900896D01*
X210390348Y-105900896D01*
X210390348Y-106116776D01*
G37*
G36*
X210180329Y-105905751D02*
G01*
X209754522Y-105905751D01*
X209754522Y-105689870D01*
X210180329Y-105689870D01*
X210180329Y-105905751D01*
G37*
G36*
X209970311Y-106533974D02*
G01*
X209754522Y-106533974D01*
X209754522Y-106318185D01*
X209970311Y-106318185D01*
X209970311Y-106533974D01*
G37*
G36*
X208710476Y-106318185D02*
G01*
X208710476Y-106533974D01*
X208500457Y-106533974D01*
X208500457Y-106745000D01*
X208284669Y-106745000D01*
X208284669Y-106109907D01*
X208500457Y-106109907D01*
X208500457Y-106318185D01*
X208710476Y-106318185D01*
G37*
G36*
X209130512Y-106533974D02*
G01*
X208914632Y-106533974D01*
X208914632Y-106108167D01*
X209130512Y-106108167D01*
X209130512Y-106533974D01*
G37*
G36*
X208920494Y-106745000D02*
G01*
X208704614Y-106745000D01*
X208704614Y-106529211D01*
X208920494Y-106529211D01*
X208920494Y-106745000D01*
G37*
G36*
X208920494Y-106115769D02*
G01*
X208704614Y-106115769D01*
X208704614Y-105689870D01*
X208920494Y-105689870D01*
X208920494Y-106115769D01*
G37*
G36*
X208290531Y-106115769D02*
G01*
X208074651Y-106115769D01*
X208074651Y-105689870D01*
X208290531Y-105689870D01*
X208290531Y-106115769D01*
G37*
G36*
X207450641Y-106745000D02*
G01*
X207024742Y-106745000D01*
X207024742Y-106529211D01*
X207450641Y-106529211D01*
X207450641Y-106745000D01*
G37*
G36*
X207660659Y-106535073D02*
G01*
X207444779Y-106535073D01*
X207444779Y-106322948D01*
X206814815Y-106322948D01*
X206814815Y-106107159D01*
X207234760Y-106107159D01*
X207234760Y-105900896D01*
X207450641Y-105900896D01*
X207450641Y-106107159D01*
X207660659Y-106107159D01*
X207660659Y-106535073D01*
G37*
G36*
X207240622Y-105905751D02*
G01*
X206814815Y-105905751D01*
X206814815Y-105689870D01*
X207240622Y-105689870D01*
X207240622Y-105905751D01*
G37*
G36*
X206820677Y-106116776D02*
G01*
X206604797Y-106116776D01*
X206604797Y-105900896D01*
X206820677Y-105900896D01*
X206820677Y-106116776D01*
G37*
G36*
X205764907Y-106325054D02*
G01*
X205764907Y-106116776D01*
X205554889Y-106116776D01*
X205554889Y-105900896D01*
X205764907Y-105900896D01*
X205764907Y-105689870D01*
X205980787Y-105689870D01*
X205980787Y-106325054D01*
X205764907Y-106325054D01*
G37*
G36*
X206190806Y-106745000D02*
G01*
X205974925Y-106745000D01*
X205974925Y-106319193D01*
X206190806Y-106319193D01*
X206190806Y-106745000D01*
G37*
G36*
X205560751Y-106745000D02*
G01*
X205344962Y-106745000D01*
X205344962Y-106319193D01*
X205560751Y-106319193D01*
X205560751Y-106745000D01*
G37*
G36*
X205560751Y-105905751D02*
G01*
X205344962Y-105905751D01*
X205344962Y-105689870D01*
X205560751Y-105689870D01*
X205560751Y-105905751D01*
G37*
G36*
X205350824Y-106326795D02*
G01*
X205134944Y-106326795D01*
X205134944Y-105900896D01*
X205350824Y-105900896D01*
X205350824Y-106326795D01*
G37*
G36*
X203665090Y-105900896D02*
G01*
X203880970Y-105900896D01*
X203880970Y-106116776D01*
X203665090Y-106116776D01*
X203665090Y-105900896D01*
G37*
G36*
X204720952Y-106533974D02*
G01*
X204505072Y-106533974D01*
X204505072Y-106110915D01*
X204720952Y-106110915D01*
X204720952Y-106533974D01*
G37*
G36*
X204510934Y-106745000D02*
G01*
X204085035Y-106745000D01*
X204085035Y-106529211D01*
X204510934Y-106529211D01*
X204510934Y-106745000D01*
G37*
G36*
X204510934Y-106116776D02*
G01*
X204295054Y-106116776D01*
X204295054Y-105900896D01*
X204510934Y-105900896D01*
X204510934Y-106116776D01*
G37*
G36*
X204300915Y-105905751D02*
G01*
X203875109Y-105905751D01*
X203875109Y-105689870D01*
X204300915Y-105689870D01*
X204300915Y-105905751D01*
G37*
G36*
X204090897Y-106533974D02*
G01*
X203875109Y-106533974D01*
X203875109Y-106318185D01*
X204090897Y-106318185D01*
X204090897Y-106533974D01*
G37*
G36*
X203041080Y-106318185D02*
G01*
X203041080Y-106745000D01*
X202615182Y-106745000D01*
X202615182Y-106529211D01*
X202825200Y-106529211D01*
X202825200Y-106318185D01*
X203041080Y-106318185D01*
G37*
G36*
X202831062Y-106322948D02*
G01*
X202615182Y-106322948D01*
X202615182Y-106107159D01*
X202831062Y-106107159D01*
X202831062Y-106322948D01*
G37*
G36*
X202831062Y-105905751D02*
G01*
X202621044Y-105905751D01*
X202621044Y-106113021D01*
X202405255Y-106113021D01*
X202405255Y-105689870D01*
X202831062Y-105689870D01*
X202831062Y-105905751D01*
G37*
G36*
X202621044Y-106533974D02*
G01*
X202405255Y-106533974D01*
X202405255Y-106318185D01*
X202621044Y-106318185D01*
X202621044Y-106533974D01*
G37*
G36*
X202411117Y-105484706D02*
G01*
X202195237Y-105484706D01*
X202195237Y-105268918D01*
X202411117Y-105268918D01*
X202411117Y-105484706D01*
G37*
G36*
X201565365Y-106533974D02*
G01*
X201565365Y-106108167D01*
X201781245Y-106108167D01*
X201781245Y-106533974D01*
X201565365Y-106533974D01*
G37*
G36*
X201571227Y-106745000D02*
G01*
X201145328Y-106745000D01*
X201145328Y-106529211D01*
X201571227Y-106529211D01*
X201571227Y-106745000D01*
G37*
G36*
X201571227Y-106116776D02*
G01*
X201355347Y-106116776D01*
X201355347Y-105900896D01*
X201571227Y-105900896D01*
X201571227Y-106116776D01*
G37*
G36*
X201361209Y-105905751D02*
G01*
X200935402Y-105905751D01*
X200935402Y-105689870D01*
X201361209Y-105689870D01*
X201361209Y-105905751D01*
G37*
G36*
X201151190Y-106533974D02*
G01*
X200935402Y-106533974D01*
X200935402Y-106318185D01*
X201151190Y-106318185D01*
X201151190Y-106533974D01*
G37*
G36*
X200941263Y-106745000D02*
G01*
X200725383Y-106745000D01*
X200725383Y-106529211D01*
X200941263Y-106529211D01*
X200941263Y-106745000D01*
G37*
G36*
X200941263Y-106325970D02*
G01*
X200725383Y-106325970D01*
X200725383Y-105900896D01*
X200941263Y-105900896D01*
X200941263Y-106325970D01*
G37*
G36*
X200731245Y-105905751D02*
G01*
X200515365Y-105905751D01*
X200515365Y-105689870D01*
X200731245Y-105689870D01*
X200731245Y-105905751D01*
G37*
G36*
X200101373Y-106745000D02*
G01*
X199675475Y-106745000D01*
X199675475Y-106529211D01*
X200101373Y-106529211D01*
X200101373Y-106745000D01*
G37*
G36*
X200311392Y-106533974D02*
G01*
X200095512Y-106533974D01*
X200095512Y-106108167D01*
X200311392Y-106108167D01*
X200311392Y-106533974D01*
G37*
G36*
X200101373Y-106116776D02*
G01*
X199885493Y-106116776D01*
X199885493Y-105900896D01*
X200101373Y-105900896D01*
X200101373Y-106116776D01*
G37*
G36*
X199891355Y-105905751D02*
G01*
X199465548Y-105905751D01*
X199465548Y-105689870D01*
X199891355Y-105689870D01*
X199891355Y-105905751D01*
G37*
G36*
X199681337Y-106533974D02*
G01*
X199465548Y-106533974D01*
X199465548Y-106318185D01*
X199681337Y-106318185D01*
X199681337Y-106533974D01*
G37*
G36*
X199471410Y-106745000D02*
G01*
X199255530Y-106745000D01*
X199255530Y-106529211D01*
X199471410Y-106529211D01*
X199471410Y-106745000D01*
G37*
G36*
X199471410Y-106325970D02*
G01*
X199255530Y-106325970D01*
X199255530Y-105900896D01*
X199471410Y-105900896D01*
X199471410Y-106325970D01*
G37*
G36*
X199261392Y-105905751D02*
G01*
X199045512Y-105905751D01*
X199045512Y-105269925D01*
X199261392Y-105269925D01*
X199261392Y-105905751D01*
G37*
G36*
X198415640Y-105900896D02*
G01*
X198631520Y-105900896D01*
X198631520Y-106116776D01*
X198415640Y-106116776D01*
X198415640Y-105900896D01*
G37*
G36*
X198841538Y-106533974D02*
G01*
X198625658Y-106533974D01*
X198625658Y-106108167D01*
X198841538Y-106108167D01*
X198841538Y-106533974D01*
G37*
G36*
X198631520Y-106745000D02*
G01*
X198205621Y-106745000D01*
X198205621Y-106529211D01*
X198631520Y-106529211D01*
X198631520Y-106745000D01*
G37*
G36*
X198421502Y-105905751D02*
G01*
X197995695Y-105905751D01*
X197995695Y-105689870D01*
X198421502Y-105689870D01*
X198421502Y-105905751D01*
G37*
G36*
X198211483Y-106533974D02*
G01*
X197995695Y-106533974D01*
X197995695Y-106318185D01*
X198211483Y-106318185D01*
X198211483Y-106533974D01*
G37*
G36*
X198001557Y-106324047D02*
G01*
X197785676Y-106324047D01*
X197785676Y-105900896D01*
X198001557Y-105900896D01*
X198001557Y-106324047D01*
G37*
G36*
X197155805Y-106319193D02*
G01*
X197371685Y-106319193D01*
X197371685Y-106745000D01*
X197155805Y-106745000D01*
X197155805Y-106319193D01*
G37*
G36*
X197161666Y-106325054D02*
G01*
X196945786Y-106325054D01*
X196945786Y-106116776D01*
X196735768Y-106116776D01*
X196735768Y-105900896D01*
X196945786Y-105900896D01*
X196945786Y-105689870D01*
X197161666Y-105689870D01*
X197161666Y-106325054D01*
G37*
G36*
X196741630Y-105905751D02*
G01*
X196525841Y-105905751D01*
X196525841Y-105689870D01*
X196741630Y-105689870D01*
X196741630Y-105905751D01*
G37*
G36*
X196531703Y-106116776D02*
G01*
X196315823Y-106116776D01*
X196315823Y-105900896D01*
X196531703Y-105900896D01*
X196531703Y-106116776D01*
G37*
G36*
X194011941Y-105478845D02*
G01*
X194011941Y-105694725D01*
X193796061Y-105694725D01*
X193796061Y-105478845D01*
X194011941Y-105478845D01*
G37*
G36*
X194431978Y-106322948D02*
G01*
X194011941Y-106322948D01*
X194011941Y-106742984D01*
X193796061Y-106742984D01*
X193796061Y-106322948D01*
X193376116Y-106322948D01*
X193376116Y-106106060D01*
X193586134Y-106106060D01*
X193586134Y-105689870D01*
X193801923Y-105689870D01*
X193801923Y-106107159D01*
X194216098Y-106107159D01*
X194216098Y-105899889D01*
X194431978Y-105899889D01*
X194431978Y-106322948D01*
G37*
G36*
X194221960Y-105905751D02*
G01*
X194006079Y-105905751D01*
X194006079Y-105689870D01*
X194221960Y-105689870D01*
X194221960Y-105905751D01*
G37*
G36*
X193801923Y-105484706D02*
G01*
X193591996Y-105484706D01*
X193591996Y-105694725D01*
X193376116Y-105694725D01*
X193376116Y-105268918D01*
X193801923Y-105268918D01*
X193801923Y-105484706D01*
G37*
G36*
X192116281Y-105484706D02*
G01*
X192116281Y-105268918D01*
X192542088Y-105268918D01*
X192542088Y-105484706D01*
X192116281Y-105484706D01*
G37*
G36*
X193172051Y-106533974D02*
G01*
X192956263Y-106533974D01*
X192956263Y-105898515D01*
X193172051Y-105898515D01*
X193172051Y-106533974D01*
G37*
G36*
X192962124Y-106745000D02*
G01*
X192536226Y-106745000D01*
X192536226Y-106529211D01*
X192962124Y-106529211D01*
X192962124Y-106745000D01*
G37*
G36*
X192962124Y-105905751D02*
G01*
X192746244Y-105905751D01*
X192746244Y-105689870D01*
X192962124Y-105689870D01*
X192962124Y-105905751D01*
G37*
G36*
X192752106Y-105694725D02*
G01*
X192536226Y-105694725D01*
X192536226Y-105478845D01*
X192752106Y-105478845D01*
X192752106Y-105694725D01*
G37*
G36*
X192542088Y-106533974D02*
G01*
X192326208Y-106533974D01*
X192326208Y-106318185D01*
X192542088Y-106318185D01*
X192542088Y-106533974D01*
G37*
G36*
X192332069Y-106322948D02*
G01*
X192116281Y-106322948D01*
X192116281Y-106107159D01*
X192332069Y-106107159D01*
X192332069Y-106322948D01*
G37*
G36*
X192122143Y-106113021D02*
G01*
X191906263Y-106113021D01*
X191906263Y-105478845D01*
X192122143Y-105478845D01*
X192122143Y-106113021D01*
G37*
G36*
X190856354Y-106325787D02*
G01*
X190856354Y-105689870D01*
X191072234Y-105689870D01*
X191072234Y-106325787D01*
X190856354Y-106325787D01*
G37*
G36*
X191282253Y-106745000D02*
G01*
X191066372Y-106745000D01*
X191066372Y-106319193D01*
X191282253Y-106319193D01*
X191282253Y-106745000D01*
G37*
G36*
X191072234Y-105484706D02*
G01*
X190862216Y-105484706D01*
X190862216Y-105695732D01*
X190646427Y-105695732D01*
X190646427Y-105268918D01*
X191072234Y-105268918D01*
X191072234Y-105484706D01*
G37*
G36*
X189812399Y-105268918D02*
G01*
X189812399Y-105484706D01*
X189182436Y-105484706D01*
X189182436Y-105695732D01*
X188966556Y-105695732D01*
X188966556Y-105484706D01*
X188756537Y-105484706D01*
X188756537Y-105268918D01*
X189812399Y-105268918D01*
G37*
G36*
X190022418Y-106745000D02*
G01*
X189806537Y-106745000D01*
X189806537Y-106319193D01*
X190022418Y-106319193D01*
X190022418Y-106745000D01*
G37*
G36*
X189812399Y-106322948D02*
G01*
X189596519Y-106322948D01*
X189596519Y-106107159D01*
X189812399Y-106107159D01*
X189812399Y-106322948D01*
G37*
G36*
X189602381Y-106116776D02*
G01*
X189386501Y-106116776D01*
X189386501Y-105900896D01*
X189602381Y-105900896D01*
X189602381Y-106116776D01*
G37*
G36*
X189392363Y-105905751D02*
G01*
X189176574Y-105905751D01*
X189176574Y-105689870D01*
X189392363Y-105689870D01*
X189392363Y-105905751D01*
G37*
M02*
