M48
; DRILL file KiCad 10.0.1 date 2026-09-08T20:58:53
; FORMAT={-:-/ absolute / metric / decimal}
; #@! TF.CreationDate,2026-09-08T20:58:53-03:00
; #@! TF.GenerationSoftware,Kicad,Pcbnew,10.0.1
; #@! TF.FileFunction,Plated,1,2,PTH
FMAT,2
METRIC
; #@! TA.AperFunction,Plated,PTH,ViaDrill
T1C0.300
; #@! TA.AperFunction,Plated,PTH,ComponentDrill
T2C0.800
; #@! TA.AperFunction,Plated,PTH,ComponentDrill
T3C1.300
%
G90
G05
T1
X124.976Y-66.176
X125.4Y-61.812
T2
X90.045Y-71.0
X92.045Y-71.0
X96.545Y-71.0
X98.545Y-71.0
X103.045Y-71.0
X105.045Y-71.0
X109.192Y-71.0
X111.192Y-71.0
X115.34Y-71.0
X117.34Y-71.0
X121.836Y-61.212
X123.632Y-63.008
X125.428Y-64.804
X127.224Y-55.824
X127.224Y-66.6
X129.02Y-57.62
X129.02Y-68.396
X130.816Y-70.192
X130.816Y-59.416
X132.612Y-71.988
X132.612Y-61.212
X134.408Y-63.008
X136.204Y-64.804
X138.0Y-66.6
T3
X91.4Y-80.0
X96.4Y-80.0
X97.75Y-58.232
X102.75Y-58.232
X104.767Y-79.96
X109.767Y-79.96
X110.4Y-58.2
X115.4Y-58.2
X118.133Y-79.96
X123.133Y-79.96
X131.5Y-79.992
X136.5Y-79.992
M30
