%TF.GenerationSoftware,KiCad,Pcbnew,10.0.1*%
%TF.CreationDate,2026-09-09T16:12:35-03:00*%
%TF.ProjectId,cd4017_secuenciador,63643430-3137-45f7-9365-6375656e6369,rev?*%
%TF.SameCoordinates,Original*%
%TF.FileFunction,Legend,Top*%
%TF.FilePolarity,Positive*%
%FSLAX46Y46*%
G04 Gerber Fmt 4.6, Leading zero omitted, Abs format (unit mm)*
G04 Created by KiCad (PCBNEW 10.0.1) date 2026-09-09 16:12:35*
%MOMM*%
%LPD*%
G01*
G04 APERTURE LIST*
%ADD10C,0.150000*%
%ADD11C,0.120000*%
G04 APERTURE END LIST*
D10*
X155431905Y-119734819D02*
X155431905Y-118734819D01*
X155431905Y-118734819D02*
X155670000Y-118734819D01*
X155670000Y-118734819D02*
X155812857Y-118782438D01*
X155812857Y-118782438D02*
X155908095Y-118877676D01*
X155908095Y-118877676D02*
X155955714Y-118972914D01*
X155955714Y-118972914D02*
X156003333Y-119163390D01*
X156003333Y-119163390D02*
X156003333Y-119306247D01*
X156003333Y-119306247D02*
X155955714Y-119496723D01*
X155955714Y-119496723D02*
X155908095Y-119591961D01*
X155908095Y-119591961D02*
X155812857Y-119687200D01*
X155812857Y-119687200D02*
X155670000Y-119734819D01*
X155670000Y-119734819D02*
X155431905Y-119734819D01*
X156908095Y-118734819D02*
X156431905Y-118734819D01*
X156431905Y-118734819D02*
X156384286Y-119211009D01*
X156384286Y-119211009D02*
X156431905Y-119163390D01*
X156431905Y-119163390D02*
X156527143Y-119115771D01*
X156527143Y-119115771D02*
X156765238Y-119115771D01*
X156765238Y-119115771D02*
X156860476Y-119163390D01*
X156860476Y-119163390D02*
X156908095Y-119211009D01*
X156908095Y-119211009D02*
X156955714Y-119306247D01*
X156955714Y-119306247D02*
X156955714Y-119544342D01*
X156955714Y-119544342D02*
X156908095Y-119639580D01*
X156908095Y-119639580D02*
X156860476Y-119687200D01*
X156860476Y-119687200D02*
X156765238Y-119734819D01*
X156765238Y-119734819D02*
X156527143Y-119734819D01*
X156527143Y-119734819D02*
X156431905Y-119687200D01*
X156431905Y-119687200D02*
X156384286Y-119639580D01*
X150828095Y-120104819D02*
X150828095Y-119104819D01*
X151399523Y-120104819D02*
X150970952Y-119533390D01*
X151399523Y-119104819D02*
X150828095Y-119676247D01*
X207154761Y-127204819D02*
X206821428Y-126728628D01*
X206583333Y-127204819D02*
X206583333Y-126204819D01*
X206583333Y-126204819D02*
X206964285Y-126204819D01*
X206964285Y-126204819D02*
X207059523Y-126252438D01*
X207059523Y-126252438D02*
X207107142Y-126300057D01*
X207107142Y-126300057D02*
X207154761Y-126395295D01*
X207154761Y-126395295D02*
X207154761Y-126538152D01*
X207154761Y-126538152D02*
X207107142Y-126633390D01*
X207107142Y-126633390D02*
X207059523Y-126681009D01*
X207059523Y-126681009D02*
X206964285Y-126728628D01*
X206964285Y-126728628D02*
X206583333Y-126728628D01*
X207440476Y-126204819D02*
X207773809Y-127204819D01*
X207773809Y-127204819D02*
X208107142Y-126204819D01*
X208869047Y-126538152D02*
X208869047Y-127204819D01*
X208630952Y-126157200D02*
X208392857Y-126871485D01*
X208392857Y-126871485D02*
X209011904Y-126871485D01*
X197601905Y-109244819D02*
X197601905Y-108244819D01*
X197601905Y-108244819D02*
X197840000Y-108244819D01*
X197840000Y-108244819D02*
X197982857Y-108292438D01*
X197982857Y-108292438D02*
X198078095Y-108387676D01*
X198078095Y-108387676D02*
X198125714Y-108482914D01*
X198125714Y-108482914D02*
X198173333Y-108673390D01*
X198173333Y-108673390D02*
X198173333Y-108816247D01*
X198173333Y-108816247D02*
X198125714Y-109006723D01*
X198125714Y-109006723D02*
X198078095Y-109101961D01*
X198078095Y-109101961D02*
X197982857Y-109197200D01*
X197982857Y-109197200D02*
X197840000Y-109244819D01*
X197840000Y-109244819D02*
X197601905Y-109244819D01*
X198554286Y-108340057D02*
X198601905Y-108292438D01*
X198601905Y-108292438D02*
X198697143Y-108244819D01*
X198697143Y-108244819D02*
X198935238Y-108244819D01*
X198935238Y-108244819D02*
X199030476Y-108292438D01*
X199030476Y-108292438D02*
X199078095Y-108340057D01*
X199078095Y-108340057D02*
X199125714Y-108435295D01*
X199125714Y-108435295D02*
X199125714Y-108530533D01*
X199125714Y-108530533D02*
X199078095Y-108673390D01*
X199078095Y-108673390D02*
X198506667Y-109244819D01*
X198506667Y-109244819D02*
X199125714Y-109244819D01*
X168253333Y-110904819D02*
X167920000Y-110428628D01*
X167681905Y-110904819D02*
X167681905Y-109904819D01*
X167681905Y-109904819D02*
X168062857Y-109904819D01*
X168062857Y-109904819D02*
X168158095Y-109952438D01*
X168158095Y-109952438D02*
X168205714Y-110000057D01*
X168205714Y-110000057D02*
X168253333Y-110095295D01*
X168253333Y-110095295D02*
X168253333Y-110238152D01*
X168253333Y-110238152D02*
X168205714Y-110333390D01*
X168205714Y-110333390D02*
X168158095Y-110381009D01*
X168158095Y-110381009D02*
X168062857Y-110428628D01*
X168062857Y-110428628D02*
X167681905Y-110428628D01*
X168586667Y-109904819D02*
X169205714Y-109904819D01*
X169205714Y-109904819D02*
X168872381Y-110285771D01*
X168872381Y-110285771D02*
X169015238Y-110285771D01*
X169015238Y-110285771D02*
X169110476Y-110333390D01*
X169110476Y-110333390D02*
X169158095Y-110381009D01*
X169158095Y-110381009D02*
X169205714Y-110476247D01*
X169205714Y-110476247D02*
X169205714Y-110714342D01*
X169205714Y-110714342D02*
X169158095Y-110809580D01*
X169158095Y-110809580D02*
X169110476Y-110857200D01*
X169110476Y-110857200D02*
X169015238Y-110904819D01*
X169015238Y-110904819D02*
X168729524Y-110904819D01*
X168729524Y-110904819D02*
X168634286Y-110857200D01*
X168634286Y-110857200D02*
X168586667Y-110809580D01*
X204696905Y-109244819D02*
X204696905Y-108244819D01*
X204696905Y-108244819D02*
X204935000Y-108244819D01*
X204935000Y-108244819D02*
X205077857Y-108292438D01*
X205077857Y-108292438D02*
X205173095Y-108387676D01*
X205173095Y-108387676D02*
X205220714Y-108482914D01*
X205220714Y-108482914D02*
X205268333Y-108673390D01*
X205268333Y-108673390D02*
X205268333Y-108816247D01*
X205268333Y-108816247D02*
X205220714Y-109006723D01*
X205220714Y-109006723D02*
X205173095Y-109101961D01*
X205173095Y-109101961D02*
X205077857Y-109197200D01*
X205077857Y-109197200D02*
X204935000Y-109244819D01*
X204935000Y-109244819D02*
X204696905Y-109244819D01*
X205601667Y-108244819D02*
X206220714Y-108244819D01*
X206220714Y-108244819D02*
X205887381Y-108625771D01*
X205887381Y-108625771D02*
X206030238Y-108625771D01*
X206030238Y-108625771D02*
X206125476Y-108673390D01*
X206125476Y-108673390D02*
X206173095Y-108721009D01*
X206173095Y-108721009D02*
X206220714Y-108816247D01*
X206220714Y-108816247D02*
X206220714Y-109054342D01*
X206220714Y-109054342D02*
X206173095Y-109149580D01*
X206173095Y-109149580D02*
X206125476Y-109197200D01*
X206125476Y-109197200D02*
X206030238Y-109244819D01*
X206030238Y-109244819D02*
X205744524Y-109244819D01*
X205744524Y-109244819D02*
X205649286Y-109197200D01*
X205649286Y-109197200D02*
X205601667Y-109149580D01*
X154503333Y-114954819D02*
X154170000Y-114478628D01*
X153931905Y-114954819D02*
X153931905Y-113954819D01*
X153931905Y-113954819D02*
X154312857Y-113954819D01*
X154312857Y-113954819D02*
X154408095Y-114002438D01*
X154408095Y-114002438D02*
X154455714Y-114050057D01*
X154455714Y-114050057D02*
X154503333Y-114145295D01*
X154503333Y-114145295D02*
X154503333Y-114288152D01*
X154503333Y-114288152D02*
X154455714Y-114383390D01*
X154455714Y-114383390D02*
X154408095Y-114431009D01*
X154408095Y-114431009D02*
X154312857Y-114478628D01*
X154312857Y-114478628D02*
X153931905Y-114478628D01*
X154884286Y-114050057D02*
X154931905Y-114002438D01*
X154931905Y-114002438D02*
X155027143Y-113954819D01*
X155027143Y-113954819D02*
X155265238Y-113954819D01*
X155265238Y-113954819D02*
X155360476Y-114002438D01*
X155360476Y-114002438D02*
X155408095Y-114050057D01*
X155408095Y-114050057D02*
X155455714Y-114145295D01*
X155455714Y-114145295D02*
X155455714Y-114240533D01*
X155455714Y-114240533D02*
X155408095Y-114383390D01*
X155408095Y-114383390D02*
X154836667Y-114954819D01*
X154836667Y-114954819D02*
X155455714Y-114954819D01*
X160916666Y-103954819D02*
X160916666Y-104669104D01*
X160916666Y-104669104D02*
X160869047Y-104811961D01*
X160869047Y-104811961D02*
X160773809Y-104907200D01*
X160773809Y-104907200D02*
X160630952Y-104954819D01*
X160630952Y-104954819D02*
X160535714Y-104954819D01*
X161916666Y-104954819D02*
X161345238Y-104954819D01*
X161630952Y-104954819D02*
X161630952Y-103954819D01*
X161630952Y-103954819D02*
X161535714Y-104097676D01*
X161535714Y-104097676D02*
X161440476Y-104192914D01*
X161440476Y-104192914D02*
X161345238Y-104240533D01*
X172904761Y-127204819D02*
X172571428Y-126728628D01*
X172333333Y-127204819D02*
X172333333Y-126204819D01*
X172333333Y-126204819D02*
X172714285Y-126204819D01*
X172714285Y-126204819D02*
X172809523Y-126252438D01*
X172809523Y-126252438D02*
X172857142Y-126300057D01*
X172857142Y-126300057D02*
X172904761Y-126395295D01*
X172904761Y-126395295D02*
X172904761Y-126538152D01*
X172904761Y-126538152D02*
X172857142Y-126633390D01*
X172857142Y-126633390D02*
X172809523Y-126681009D01*
X172809523Y-126681009D02*
X172714285Y-126728628D01*
X172714285Y-126728628D02*
X172333333Y-126728628D01*
X173190476Y-126204819D02*
X173523809Y-127204819D01*
X173523809Y-127204819D02*
X173857142Y-126204819D01*
X174142857Y-126300057D02*
X174190476Y-126252438D01*
X174190476Y-126252438D02*
X174285714Y-126204819D01*
X174285714Y-126204819D02*
X174523809Y-126204819D01*
X174523809Y-126204819D02*
X174619047Y-126252438D01*
X174619047Y-126252438D02*
X174666666Y-126300057D01*
X174666666Y-126300057D02*
X174714285Y-126395295D01*
X174714285Y-126395295D02*
X174714285Y-126490533D01*
X174714285Y-126490533D02*
X174666666Y-126633390D01*
X174666666Y-126633390D02*
X174095238Y-127204819D01*
X174095238Y-127204819D02*
X174714285Y-127204819D01*
X155654761Y-127204819D02*
X155321428Y-126728628D01*
X155083333Y-127204819D02*
X155083333Y-126204819D01*
X155083333Y-126204819D02*
X155464285Y-126204819D01*
X155464285Y-126204819D02*
X155559523Y-126252438D01*
X155559523Y-126252438D02*
X155607142Y-126300057D01*
X155607142Y-126300057D02*
X155654761Y-126395295D01*
X155654761Y-126395295D02*
X155654761Y-126538152D01*
X155654761Y-126538152D02*
X155607142Y-126633390D01*
X155607142Y-126633390D02*
X155559523Y-126681009D01*
X155559523Y-126681009D02*
X155464285Y-126728628D01*
X155464285Y-126728628D02*
X155083333Y-126728628D01*
X155940476Y-126204819D02*
X156273809Y-127204819D01*
X156273809Y-127204819D02*
X156607142Y-126204819D01*
X157464285Y-127204819D02*
X156892857Y-127204819D01*
X157178571Y-127204819D02*
X157178571Y-126204819D01*
X157178571Y-126204819D02*
X157083333Y-126347676D01*
X157083333Y-126347676D02*
X156988095Y-126442914D01*
X156988095Y-126442914D02*
X156892857Y-126490533D01*
X211791905Y-109244819D02*
X211791905Y-108244819D01*
X211791905Y-108244819D02*
X212030000Y-108244819D01*
X212030000Y-108244819D02*
X212172857Y-108292438D01*
X212172857Y-108292438D02*
X212268095Y-108387676D01*
X212268095Y-108387676D02*
X212315714Y-108482914D01*
X212315714Y-108482914D02*
X212363333Y-108673390D01*
X212363333Y-108673390D02*
X212363333Y-108816247D01*
X212363333Y-108816247D02*
X212315714Y-109006723D01*
X212315714Y-109006723D02*
X212268095Y-109101961D01*
X212268095Y-109101961D02*
X212172857Y-109197200D01*
X212172857Y-109197200D02*
X212030000Y-109244819D01*
X212030000Y-109244819D02*
X211791905Y-109244819D01*
X213220476Y-108578152D02*
X213220476Y-109244819D01*
X212982381Y-108197200D02*
X212744286Y-108911485D01*
X212744286Y-108911485D02*
X213363333Y-108911485D01*
X201416666Y-103954819D02*
X201416666Y-104669104D01*
X201416666Y-104669104D02*
X201369047Y-104811961D01*
X201369047Y-104811961D02*
X201273809Y-104907200D01*
X201273809Y-104907200D02*
X201130952Y-104954819D01*
X201130952Y-104954819D02*
X201035714Y-104954819D01*
X201845238Y-104050057D02*
X201892857Y-104002438D01*
X201892857Y-104002438D02*
X201988095Y-103954819D01*
X201988095Y-103954819D02*
X202226190Y-103954819D01*
X202226190Y-103954819D02*
X202321428Y-104002438D01*
X202321428Y-104002438D02*
X202369047Y-104050057D01*
X202369047Y-104050057D02*
X202416666Y-104145295D01*
X202416666Y-104145295D02*
X202416666Y-104240533D01*
X202416666Y-104240533D02*
X202369047Y-104383390D01*
X202369047Y-104383390D02*
X201797619Y-104954819D01*
X201797619Y-104954819D02*
X202416666Y-104954819D01*
X207011905Y-119734819D02*
X207011905Y-118734819D01*
X207011905Y-118734819D02*
X207250000Y-118734819D01*
X207250000Y-118734819D02*
X207392857Y-118782438D01*
X207392857Y-118782438D02*
X207488095Y-118877676D01*
X207488095Y-118877676D02*
X207535714Y-118972914D01*
X207535714Y-118972914D02*
X207583333Y-119163390D01*
X207583333Y-119163390D02*
X207583333Y-119306247D01*
X207583333Y-119306247D02*
X207535714Y-119496723D01*
X207535714Y-119496723D02*
X207488095Y-119591961D01*
X207488095Y-119591961D02*
X207392857Y-119687200D01*
X207392857Y-119687200D02*
X207250000Y-119734819D01*
X207250000Y-119734819D02*
X207011905Y-119734819D01*
X208154762Y-119163390D02*
X208059524Y-119115771D01*
X208059524Y-119115771D02*
X208011905Y-119068152D01*
X208011905Y-119068152D02*
X207964286Y-118972914D01*
X207964286Y-118972914D02*
X207964286Y-118925295D01*
X207964286Y-118925295D02*
X208011905Y-118830057D01*
X208011905Y-118830057D02*
X208059524Y-118782438D01*
X208059524Y-118782438D02*
X208154762Y-118734819D01*
X208154762Y-118734819D02*
X208345238Y-118734819D01*
X208345238Y-118734819D02*
X208440476Y-118782438D01*
X208440476Y-118782438D02*
X208488095Y-118830057D01*
X208488095Y-118830057D02*
X208535714Y-118925295D01*
X208535714Y-118925295D02*
X208535714Y-118972914D01*
X208535714Y-118972914D02*
X208488095Y-119068152D01*
X208488095Y-119068152D02*
X208440476Y-119115771D01*
X208440476Y-119115771D02*
X208345238Y-119163390D01*
X208345238Y-119163390D02*
X208154762Y-119163390D01*
X208154762Y-119163390D02*
X208059524Y-119211009D01*
X208059524Y-119211009D02*
X208011905Y-119258628D01*
X208011905Y-119258628D02*
X207964286Y-119353866D01*
X207964286Y-119353866D02*
X207964286Y-119544342D01*
X207964286Y-119544342D02*
X208011905Y-119639580D01*
X208011905Y-119639580D02*
X208059524Y-119687200D01*
X208059524Y-119687200D02*
X208154762Y-119734819D01*
X208154762Y-119734819D02*
X208345238Y-119734819D01*
X208345238Y-119734819D02*
X208440476Y-119687200D01*
X208440476Y-119687200D02*
X208488095Y-119639580D01*
X208488095Y-119639580D02*
X208535714Y-119544342D01*
X208535714Y-119544342D02*
X208535714Y-119353866D01*
X208535714Y-119353866D02*
X208488095Y-119258628D01*
X208488095Y-119258628D02*
X208440476Y-119211009D01*
X208440476Y-119211009D02*
X208345238Y-119163390D01*
X202408095Y-120104819D02*
X202408095Y-119104819D01*
X202979523Y-120104819D02*
X202550952Y-119533390D01*
X202979523Y-119104819D02*
X202408095Y-119676247D01*
X180738095Y-108284819D02*
X180738095Y-109094342D01*
X180738095Y-109094342D02*
X180785714Y-109189580D01*
X180785714Y-109189580D02*
X180833333Y-109237200D01*
X180833333Y-109237200D02*
X180928571Y-109284819D01*
X180928571Y-109284819D02*
X181119047Y-109284819D01*
X181119047Y-109284819D02*
X181214285Y-109237200D01*
X181214285Y-109237200D02*
X181261904Y-109189580D01*
X181261904Y-109189580D02*
X181309523Y-109094342D01*
X181309523Y-109094342D02*
X181309523Y-108284819D01*
X182309523Y-109284819D02*
X181738095Y-109284819D01*
X182023809Y-109284819D02*
X182023809Y-108284819D01*
X182023809Y-108284819D02*
X181928571Y-108427676D01*
X181928571Y-108427676D02*
X181833333Y-108522914D01*
X181833333Y-108522914D02*
X181738095Y-108570533D01*
X168253333Y-114954819D02*
X167920000Y-114478628D01*
X167681905Y-114954819D02*
X167681905Y-113954819D01*
X167681905Y-113954819D02*
X168062857Y-113954819D01*
X168062857Y-113954819D02*
X168158095Y-114002438D01*
X168158095Y-114002438D02*
X168205714Y-114050057D01*
X168205714Y-114050057D02*
X168253333Y-114145295D01*
X168253333Y-114145295D02*
X168253333Y-114288152D01*
X168253333Y-114288152D02*
X168205714Y-114383390D01*
X168205714Y-114383390D02*
X168158095Y-114431009D01*
X168158095Y-114431009D02*
X168062857Y-114478628D01*
X168062857Y-114478628D02*
X167681905Y-114478628D01*
X169110476Y-114288152D02*
X169110476Y-114954819D01*
X168872381Y-113907200D02*
X168634286Y-114621485D01*
X168634286Y-114621485D02*
X169253333Y-114621485D01*
X189904761Y-127204819D02*
X189571428Y-126728628D01*
X189333333Y-127204819D02*
X189333333Y-126204819D01*
X189333333Y-126204819D02*
X189714285Y-126204819D01*
X189714285Y-126204819D02*
X189809523Y-126252438D01*
X189809523Y-126252438D02*
X189857142Y-126300057D01*
X189857142Y-126300057D02*
X189904761Y-126395295D01*
X189904761Y-126395295D02*
X189904761Y-126538152D01*
X189904761Y-126538152D02*
X189857142Y-126633390D01*
X189857142Y-126633390D02*
X189809523Y-126681009D01*
X189809523Y-126681009D02*
X189714285Y-126728628D01*
X189714285Y-126728628D02*
X189333333Y-126728628D01*
X190190476Y-126204819D02*
X190523809Y-127204819D01*
X190523809Y-127204819D02*
X190857142Y-126204819D01*
X191095238Y-126204819D02*
X191714285Y-126204819D01*
X191714285Y-126204819D02*
X191380952Y-126585771D01*
X191380952Y-126585771D02*
X191523809Y-126585771D01*
X191523809Y-126585771D02*
X191619047Y-126633390D01*
X191619047Y-126633390D02*
X191666666Y-126681009D01*
X191666666Y-126681009D02*
X191714285Y-126776247D01*
X191714285Y-126776247D02*
X191714285Y-127014342D01*
X191714285Y-127014342D02*
X191666666Y-127109580D01*
X191666666Y-127109580D02*
X191619047Y-127157200D01*
X191619047Y-127157200D02*
X191523809Y-127204819D01*
X191523809Y-127204819D02*
X191238095Y-127204819D01*
X191238095Y-127204819D02*
X191142857Y-127157200D01*
X191142857Y-127157200D02*
X191095238Y-127109580D01*
X190506905Y-109244819D02*
X190506905Y-108244819D01*
X190506905Y-108244819D02*
X190745000Y-108244819D01*
X190745000Y-108244819D02*
X190887857Y-108292438D01*
X190887857Y-108292438D02*
X190983095Y-108387676D01*
X190983095Y-108387676D02*
X191030714Y-108482914D01*
X191030714Y-108482914D02*
X191078333Y-108673390D01*
X191078333Y-108673390D02*
X191078333Y-108816247D01*
X191078333Y-108816247D02*
X191030714Y-109006723D01*
X191030714Y-109006723D02*
X190983095Y-109101961D01*
X190983095Y-109101961D02*
X190887857Y-109197200D01*
X190887857Y-109197200D02*
X190745000Y-109244819D01*
X190745000Y-109244819D02*
X190506905Y-109244819D01*
X192030714Y-109244819D02*
X191459286Y-109244819D01*
X191745000Y-109244819D02*
X191745000Y-108244819D01*
X191745000Y-108244819D02*
X191649762Y-108387676D01*
X191649762Y-108387676D02*
X191554524Y-108482914D01*
X191554524Y-108482914D02*
X191459286Y-108530533D01*
X154503333Y-110904819D02*
X154170000Y-110428628D01*
X153931905Y-110904819D02*
X153931905Y-109904819D01*
X153931905Y-109904819D02*
X154312857Y-109904819D01*
X154312857Y-109904819D02*
X154408095Y-109952438D01*
X154408095Y-109952438D02*
X154455714Y-110000057D01*
X154455714Y-110000057D02*
X154503333Y-110095295D01*
X154503333Y-110095295D02*
X154503333Y-110238152D01*
X154503333Y-110238152D02*
X154455714Y-110333390D01*
X154455714Y-110333390D02*
X154408095Y-110381009D01*
X154408095Y-110381009D02*
X154312857Y-110428628D01*
X154312857Y-110428628D02*
X153931905Y-110428628D01*
X155455714Y-110904819D02*
X154884286Y-110904819D01*
X155170000Y-110904819D02*
X155170000Y-109904819D01*
X155170000Y-109904819D02*
X155074762Y-110047676D01*
X155074762Y-110047676D02*
X154979524Y-110142914D01*
X154979524Y-110142914D02*
X154884286Y-110190533D01*
X172931905Y-119734819D02*
X172931905Y-118734819D01*
X172931905Y-118734819D02*
X173170000Y-118734819D01*
X173170000Y-118734819D02*
X173312857Y-118782438D01*
X173312857Y-118782438D02*
X173408095Y-118877676D01*
X173408095Y-118877676D02*
X173455714Y-118972914D01*
X173455714Y-118972914D02*
X173503333Y-119163390D01*
X173503333Y-119163390D02*
X173503333Y-119306247D01*
X173503333Y-119306247D02*
X173455714Y-119496723D01*
X173455714Y-119496723D02*
X173408095Y-119591961D01*
X173408095Y-119591961D02*
X173312857Y-119687200D01*
X173312857Y-119687200D02*
X173170000Y-119734819D01*
X173170000Y-119734819D02*
X172931905Y-119734819D01*
X174360476Y-118734819D02*
X174170000Y-118734819D01*
X174170000Y-118734819D02*
X174074762Y-118782438D01*
X174074762Y-118782438D02*
X174027143Y-118830057D01*
X174027143Y-118830057D02*
X173931905Y-118972914D01*
X173931905Y-118972914D02*
X173884286Y-119163390D01*
X173884286Y-119163390D02*
X173884286Y-119544342D01*
X173884286Y-119544342D02*
X173931905Y-119639580D01*
X173931905Y-119639580D02*
X173979524Y-119687200D01*
X173979524Y-119687200D02*
X174074762Y-119734819D01*
X174074762Y-119734819D02*
X174265238Y-119734819D01*
X174265238Y-119734819D02*
X174360476Y-119687200D01*
X174360476Y-119687200D02*
X174408095Y-119639580D01*
X174408095Y-119639580D02*
X174455714Y-119544342D01*
X174455714Y-119544342D02*
X174455714Y-119306247D01*
X174455714Y-119306247D02*
X174408095Y-119211009D01*
X174408095Y-119211009D02*
X174360476Y-119163390D01*
X174360476Y-119163390D02*
X174265238Y-119115771D01*
X174265238Y-119115771D02*
X174074762Y-119115771D01*
X174074762Y-119115771D02*
X173979524Y-119163390D01*
X173979524Y-119163390D02*
X173931905Y-119211009D01*
X173931905Y-119211009D02*
X173884286Y-119306247D01*
X168328095Y-120104819D02*
X168328095Y-119104819D01*
X168899523Y-120104819D02*
X168470952Y-119533390D01*
X168899523Y-119104819D02*
X168328095Y-119676247D01*
X189681905Y-119734819D02*
X189681905Y-118734819D01*
X189681905Y-118734819D02*
X189920000Y-118734819D01*
X189920000Y-118734819D02*
X190062857Y-118782438D01*
X190062857Y-118782438D02*
X190158095Y-118877676D01*
X190158095Y-118877676D02*
X190205714Y-118972914D01*
X190205714Y-118972914D02*
X190253333Y-119163390D01*
X190253333Y-119163390D02*
X190253333Y-119306247D01*
X190253333Y-119306247D02*
X190205714Y-119496723D01*
X190205714Y-119496723D02*
X190158095Y-119591961D01*
X190158095Y-119591961D02*
X190062857Y-119687200D01*
X190062857Y-119687200D02*
X189920000Y-119734819D01*
X189920000Y-119734819D02*
X189681905Y-119734819D01*
X190586667Y-118734819D02*
X191253333Y-118734819D01*
X191253333Y-118734819D02*
X190824762Y-119734819D01*
X185078095Y-120104819D02*
X185078095Y-119104819D01*
X185649523Y-120104819D02*
X185220952Y-119533390D01*
X185649523Y-119104819D02*
X185078095Y-119676247D01*
%TO.C,D5*%
D11*
X152430000Y-121750000D02*
X153450000Y-121750000D01*
X154230000Y-120280000D02*
X154230000Y-123220000D01*
X154350000Y-120280000D02*
X154350000Y-123220000D01*
X154470000Y-120280000D02*
X154470000Y-123220000D01*
X159910000Y-121750000D02*
X158890000Y-121750000D01*
X153450000Y-120280000D02*
X158890000Y-120280000D01*
X158890000Y-123220000D01*
X153450000Y-123220000D01*
X153450000Y-120280000D01*
%TO.C,RV4*%
X199880000Y-125597500D02*
X215620000Y-125597500D01*
X199880000Y-129217500D02*
X201120000Y-129217500D01*
X199880000Y-130217500D02*
X201120000Y-130217500D01*
X199880000Y-131517500D02*
X201120000Y-131517500D01*
X199880000Y-133637500D02*
X199880000Y-125597500D01*
X202700000Y-133637500D02*
X199880000Y-133637500D01*
X204880000Y-129217500D02*
X206188000Y-129217500D01*
X204880000Y-130217500D02*
X206188000Y-130217500D01*
X204880000Y-131517500D02*
X207457000Y-131517500D01*
X208543000Y-131517500D02*
X212457000Y-131517500D01*
X209812000Y-129217500D02*
X211188000Y-129217500D01*
X209812000Y-130217500D02*
X211188000Y-130217500D01*
X213543000Y-131517500D02*
X215620000Y-131517500D01*
X214812000Y-129217500D02*
X215620000Y-129217500D01*
X214812000Y-130217500D02*
X215620000Y-130217500D01*
X215620000Y-125597500D02*
X215620000Y-133637500D01*
X215620000Y-133637500D02*
X203300000Y-133637500D01*
X203440000Y-134247500D02*
X202560000Y-134247500D01*
X203000000Y-133637500D01*
X203440000Y-134247500D01*
G36*
X203440000Y-134247500D02*
G01*
X202560000Y-134247500D01*
X203000000Y-133637500D01*
X203440000Y-134247500D01*
G37*
%TO.C,D2*%
X195780000Y-111205000D02*
X195780000Y-114295000D01*
X195780000Y-111205170D02*
G75*
G02*
X201330000Y-112750000I2560000J-1544830D01*
G01*
X201330000Y-112750000D02*
G75*
G02*
X195780000Y-114294830I-2990000J0D01*
G01*
X200840000Y-112750000D02*
G75*
G02*
X195840000Y-112750000I-2500000J0D01*
G01*
X195840000Y-112750000D02*
G75*
G02*
X200840000Y-112750000I2500000J0D01*
G01*
%TO.C,R3*%
X164380000Y-110450000D02*
X165150000Y-110450000D01*
X172460000Y-110450000D02*
X171690000Y-110450000D01*
X165150000Y-109080000D02*
X171690000Y-109080000D01*
X171690000Y-111820000D01*
X165150000Y-111820000D01*
X165150000Y-109080000D01*
%TO.C,D3*%
X202875000Y-111205000D02*
X202875000Y-114295000D01*
X202875000Y-111205170D02*
G75*
G02*
X208425000Y-112750000I2560000J-1544830D01*
G01*
X208425000Y-112750000D02*
G75*
G02*
X202875000Y-114294830I-2990000J0D01*
G01*
X207935000Y-112750000D02*
G75*
G02*
X202935000Y-112750000I-2500000J0D01*
G01*
X202935000Y-112750000D02*
G75*
G02*
X207935000Y-112750000I2500000J0D01*
G01*
%TO.C,R2*%
X150630000Y-114500000D02*
X151400000Y-114500000D01*
X158710000Y-114500000D02*
X157940000Y-114500000D01*
X151400000Y-113130000D02*
X157940000Y-113130000D01*
X157940000Y-115870000D01*
X151400000Y-115870000D01*
X151400000Y-113130000D01*
%TO.C,J1*%
X153675000Y-97580000D02*
X165995000Y-97580000D01*
X153675000Y-105620000D02*
X153675000Y-97580000D01*
X154483000Y-101000000D02*
X153675000Y-101000000D01*
X154483000Y-102000000D02*
X153675000Y-102000000D01*
X155752000Y-99700000D02*
X153675000Y-99700000D01*
X159483000Y-101000000D02*
X158107000Y-101000000D01*
X159483000Y-102000000D02*
X158107000Y-102000000D01*
X160752000Y-99700000D02*
X156838000Y-99700000D01*
X164415000Y-99700000D02*
X161838000Y-99700000D01*
X164415000Y-101000000D02*
X163107000Y-101000000D01*
X164415000Y-102000000D02*
X163107000Y-102000000D01*
X166595000Y-97580000D02*
X169415000Y-97580000D01*
X169415000Y-97580000D02*
X169415000Y-105620000D01*
X169415000Y-99700000D02*
X168175000Y-99700000D01*
X169415000Y-101000000D02*
X168175000Y-101000000D01*
X169415000Y-102000000D02*
X168175000Y-102000000D01*
X169415000Y-105620000D02*
X153675000Y-105620000D01*
X166295000Y-97580000D02*
X165855000Y-96970000D01*
X166735000Y-96970000D01*
X166295000Y-97580000D01*
G36*
X166295000Y-97580000D02*
G01*
X165855000Y-96970000D01*
X166735000Y-96970000D01*
X166295000Y-97580000D01*
G37*
%TO.C,RV2*%
X165630000Y-125597500D02*
X181370000Y-125597500D01*
X165630000Y-129217500D02*
X166870000Y-129217500D01*
X165630000Y-130217500D02*
X166870000Y-130217500D01*
X165630000Y-131517500D02*
X166870000Y-131517500D01*
X165630000Y-133637500D02*
X165630000Y-125597500D01*
X168450000Y-133637500D02*
X165630000Y-133637500D01*
X170630000Y-129217500D02*
X171938000Y-129217500D01*
X170630000Y-130217500D02*
X171938000Y-130217500D01*
X170630000Y-131517500D02*
X173207000Y-131517500D01*
X174293000Y-131517500D02*
X178207000Y-131517500D01*
X175562000Y-129217500D02*
X176938000Y-129217500D01*
X175562000Y-130217500D02*
X176938000Y-130217500D01*
X179293000Y-131517500D02*
X181370000Y-131517500D01*
X180562000Y-129217500D02*
X181370000Y-129217500D01*
X180562000Y-130217500D02*
X181370000Y-130217500D01*
X181370000Y-125597500D02*
X181370000Y-133637500D01*
X181370000Y-133637500D02*
X169050000Y-133637500D01*
X169190000Y-134247500D02*
X168310000Y-134247500D01*
X168750000Y-133637500D01*
X169190000Y-134247500D01*
G36*
X169190000Y-134247500D02*
G01*
X168310000Y-134247500D01*
X168750000Y-133637500D01*
X169190000Y-134247500D01*
G37*
%TO.C,RV1*%
X148380000Y-125597500D02*
X164120000Y-125597500D01*
X148380000Y-129217500D02*
X149620000Y-129217500D01*
X148380000Y-130217500D02*
X149620000Y-130217500D01*
X148380000Y-131517500D02*
X149620000Y-131517500D01*
X148380000Y-133637500D02*
X148380000Y-125597500D01*
X151200000Y-133637500D02*
X148380000Y-133637500D01*
X153380000Y-129217500D02*
X154688000Y-129217500D01*
X153380000Y-130217500D02*
X154688000Y-130217500D01*
X153380000Y-131517500D02*
X155957000Y-131517500D01*
X157043000Y-131517500D02*
X160957000Y-131517500D01*
X158312000Y-129217500D02*
X159688000Y-129217500D01*
X158312000Y-130217500D02*
X159688000Y-130217500D01*
X162043000Y-131517500D02*
X164120000Y-131517500D01*
X163312000Y-129217500D02*
X164120000Y-129217500D01*
X163312000Y-130217500D02*
X164120000Y-130217500D01*
X164120000Y-125597500D02*
X164120000Y-133637500D01*
X164120000Y-133637500D02*
X151800000Y-133637500D01*
X151940000Y-134247500D02*
X151060000Y-134247500D01*
X151500000Y-133637500D01*
X151940000Y-134247500D01*
G36*
X151940000Y-134247500D02*
G01*
X151060000Y-134247500D01*
X151500000Y-133637500D01*
X151940000Y-134247500D01*
G37*
%TO.C,D4*%
X209970000Y-111205000D02*
X209970000Y-114295000D01*
X209970000Y-111205170D02*
G75*
G02*
X215520000Y-112750000I2560000J-1544830D01*
G01*
X215520000Y-112750000D02*
G75*
G02*
X209970000Y-114294830I-2990000J0D01*
G01*
X215030000Y-112750000D02*
G75*
G02*
X210030000Y-112750000I-2500000J0D01*
G01*
X210030000Y-112750000D02*
G75*
G02*
X215030000Y-112750000I2500000J0D01*
G01*
%TO.C,J2*%
X194022500Y-97580000D02*
X206342500Y-97580000D01*
X194022500Y-105620000D02*
X194022500Y-97580000D01*
X194830500Y-101000000D02*
X194022500Y-101000000D01*
X194830500Y-102000000D02*
X194022500Y-102000000D01*
X196099500Y-99700000D02*
X194022500Y-99700000D01*
X199830500Y-101000000D02*
X198454500Y-101000000D01*
X199830500Y-102000000D02*
X198454500Y-102000000D01*
X201099500Y-99700000D02*
X197185500Y-99700000D01*
X204762500Y-99700000D02*
X202185500Y-99700000D01*
X204762500Y-101000000D02*
X203454500Y-101000000D01*
X204762500Y-102000000D02*
X203454500Y-102000000D01*
X206942500Y-97580000D02*
X209762500Y-97580000D01*
X209762500Y-97580000D02*
X209762500Y-105620000D01*
X209762500Y-99700000D02*
X208522500Y-99700000D01*
X209762500Y-101000000D02*
X208522500Y-101000000D01*
X209762500Y-102000000D02*
X208522500Y-102000000D01*
X209762500Y-105620000D02*
X194022500Y-105620000D01*
X206642500Y-97580000D02*
X206202500Y-96970000D01*
X207082500Y-96970000D01*
X206642500Y-97580000D01*
G36*
X206642500Y-97580000D02*
G01*
X206202500Y-96970000D01*
X207082500Y-96970000D01*
X206642500Y-97580000D01*
G37*
%TO.C,D8*%
X204010000Y-121750000D02*
X205030000Y-121750000D01*
X205810000Y-120280000D02*
X205810000Y-123220000D01*
X205930000Y-120280000D02*
X205930000Y-123220000D01*
X206050000Y-120280000D02*
X206050000Y-123220000D01*
X211490000Y-121750000D02*
X210470000Y-121750000D01*
X205030000Y-120280000D02*
X210470000Y-120280000D01*
X210470000Y-123220000D01*
X205030000Y-123220000D01*
X205030000Y-120280000D01*
%TO.C,U1*%
X178790000Y-97760000D02*
X178790000Y-118200000D01*
X178790000Y-118200000D02*
X184090000Y-118200000D01*
X180440000Y-97760000D02*
X178790000Y-97760000D01*
X184090000Y-97760000D02*
X182440000Y-97760000D01*
X184090000Y-118200000D02*
X184090000Y-97760000D01*
X176300000Y-97700000D02*
X186580000Y-97700000D01*
X186580000Y-118260000D01*
X176300000Y-118260000D01*
X176300000Y-97700000D01*
X182440000Y-97760000D02*
G75*
G02*
X180440000Y-97760000I-1000000J0D01*
G01*
%TO.C,R4*%
X164380000Y-114500000D02*
X165150000Y-114500000D01*
X172460000Y-114500000D02*
X171690000Y-114500000D01*
X165150000Y-113130000D02*
X171690000Y-113130000D01*
X171690000Y-115870000D01*
X165150000Y-115870000D01*
X165150000Y-113130000D01*
%TO.C,RV3*%
X182630000Y-125597500D02*
X198370000Y-125597500D01*
X182630000Y-129217500D02*
X183870000Y-129217500D01*
X182630000Y-130217500D02*
X183870000Y-130217500D01*
X182630000Y-131517500D02*
X183870000Y-131517500D01*
X182630000Y-133637500D02*
X182630000Y-125597500D01*
X185450000Y-133637500D02*
X182630000Y-133637500D01*
X187630000Y-129217500D02*
X188938000Y-129217500D01*
X187630000Y-130217500D02*
X188938000Y-130217500D01*
X187630000Y-131517500D02*
X190207000Y-131517500D01*
X191293000Y-131517500D02*
X195207000Y-131517500D01*
X192562000Y-129217500D02*
X193938000Y-129217500D01*
X192562000Y-130217500D02*
X193938000Y-130217500D01*
X196293000Y-131517500D02*
X198370000Y-131517500D01*
X197562000Y-129217500D02*
X198370000Y-129217500D01*
X197562000Y-130217500D02*
X198370000Y-130217500D01*
X198370000Y-125597500D02*
X198370000Y-133637500D01*
X198370000Y-133637500D02*
X186050000Y-133637500D01*
X186190000Y-134247500D02*
X185310000Y-134247500D01*
X185750000Y-133637500D01*
X186190000Y-134247500D01*
G36*
X186190000Y-134247500D02*
G01*
X185310000Y-134247500D01*
X185750000Y-133637500D01*
X186190000Y-134247500D01*
G37*
%TO.C,D1*%
X188685000Y-111205000D02*
X188685000Y-114295000D01*
X188685000Y-111205170D02*
G75*
G02*
X194235000Y-112750000I2560000J-1544830D01*
G01*
X194235000Y-112750000D02*
G75*
G02*
X188685000Y-114294830I-2990000J0D01*
G01*
X193745000Y-112750000D02*
G75*
G02*
X188745000Y-112750000I-2500000J0D01*
G01*
X188745000Y-112750000D02*
G75*
G02*
X193745000Y-112750000I2500000J0D01*
G01*
%TO.C,R1*%
X150630000Y-110450000D02*
X151400000Y-110450000D01*
X158710000Y-110450000D02*
X157940000Y-110450000D01*
X151400000Y-109080000D02*
X157940000Y-109080000D01*
X157940000Y-111820000D01*
X151400000Y-111820000D01*
X151400000Y-109080000D01*
%TO.C,D6*%
X169930000Y-121750000D02*
X170950000Y-121750000D01*
X171730000Y-120280000D02*
X171730000Y-123220000D01*
X171850000Y-120280000D02*
X171850000Y-123220000D01*
X171970000Y-120280000D02*
X171970000Y-123220000D01*
X177410000Y-121750000D02*
X176390000Y-121750000D01*
X170950000Y-120280000D02*
X176390000Y-120280000D01*
X176390000Y-123220000D01*
X170950000Y-123220000D01*
X170950000Y-120280000D01*
%TO.C,D7*%
X186680000Y-121750000D02*
X187700000Y-121750000D01*
X188480000Y-120280000D02*
X188480000Y-123220000D01*
X188600000Y-120280000D02*
X188600000Y-123220000D01*
X188720000Y-120280000D02*
X188720000Y-123220000D01*
X194160000Y-121750000D02*
X193140000Y-121750000D01*
X187700000Y-120280000D02*
X193140000Y-120280000D01*
X193140000Y-123220000D01*
X187700000Y-123220000D01*
X187700000Y-120280000D01*
%TD*%
M02*
