%TF.GenerationSoftware,KiCad,Pcbnew,10.0.1*%
%TF.CreationDate,2026-09-09T16:12:35-03:00*%
%TF.ProjectId,cd4017_secuenciador,63643430-3137-45f7-9365-6375656e6369,rev?*%
%TF.SameCoordinates,Original*%
%TF.FileFunction,Copper,L2,Bot*%
%TF.FilePolarity,Positive*%
%FSLAX46Y46*%
G04 Gerber Fmt 4.6, Leading zero omitted, Abs format (unit mm)*
G04 Created by KiCad (PCBNEW 10.0.1) date 2026-09-09 16:12:35*
%MOMM*%
%LPD*%
G01*
G04 APERTURE LIST*
G04 Aperture macros list*
%AMRoundRect*
0 Rectangle with rounded corners*
0 $1 Rounding radius*
0 $2 $3 $4 $5 $6 $7 $8 $9 X,Y pos of 4 corners*
0 Add a 4 corners polygon primitive as box body*
4,1,4,$2,$3,$4,$5,$6,$7,$8,$9,$2,$3,0*
0 Add four circle primitives for the rounded corners*
1,1,$1+$1,$2,$3*
1,1,$1+$1,$4,$5*
1,1,$1+$1,$6,$7*
1,1,$1+$1,$8,$9*
0 Add four rect primitives between the rounded corners*
20,1,$1+$1,$2,$3,$4,$5,0*
20,1,$1+$1,$4,$5,$6,$7,0*
20,1,$1+$1,$6,$7,$8,$9,0*
20,1,$1+$1,$8,$9,$2,$3,0*%
G04 Aperture macros list end*
%TA.AperFunction,ComponentPad*%
%ADD10RoundRect,0.249999X-0.850001X-0.850001X0.850001X-0.850001X0.850001X0.850001X-0.850001X0.850001X0*%
%TD*%
%TA.AperFunction,ComponentPad*%
%ADD11C,2.200000*%
%TD*%
%TA.AperFunction,ComponentPad*%
%ADD12RoundRect,0.250001X-1.149999X-1.149999X1.149999X-1.149999X1.149999X1.149999X-1.149999X1.149999X0*%
%TD*%
%TA.AperFunction,ComponentPad*%
%ADD13C,2.800000*%
%TD*%
%TA.AperFunction,ComponentPad*%
%ADD14R,1.800000X1.800000*%
%TD*%
%TA.AperFunction,ComponentPad*%
%ADD15C,1.800000*%
%TD*%
%TA.AperFunction,ComponentPad*%
%ADD16C,1.600000*%
%TD*%
%TA.AperFunction,ComponentPad*%
%ADD17RoundRect,0.250001X1.149999X1.149999X-1.149999X1.149999X-1.149999X-1.149999X1.149999X-1.149999X0*%
%TD*%
%TA.AperFunction,ComponentPad*%
%ADD18RoundRect,0.250000X-0.550000X-0.550000X0.550000X-0.550000X0.550000X0.550000X-0.550000X0.550000X0*%
%TD*%
%TA.AperFunction,Conductor*%
%ADD19C,0.500000*%
%TD*%
G04 APERTURE END LIST*
D10*
%TO.P,D5,1,K_1*%
%TO.N,Net-(D5-K)*%
X151090000Y-121750000D03*
D11*
%TO.P,D5,2,A_2*%
%TO.N,Net-(D5-A)*%
X161250000Y-121750000D03*
%TD*%
D12*
%TO.P,RV4,1,1_1*%
%TO.N,/Q3*%
X203000000Y-129717500D03*
D13*
%TO.P,RV4,2,2_2*%
%TO.N,Net-(D8-A)*%
X208000000Y-129717500D03*
%TO.P,RV4,3,3_3*%
%TO.N,GND*%
X213000000Y-129717500D03*
%TD*%
D14*
%TO.P,D2,1,K_1*%
%TO.N,GND*%
X197070000Y-112750000D03*
D15*
%TO.P,D2,2,A_2*%
%TO.N,Net-(D2-A)*%
X199610000Y-112750000D03*
%TD*%
D16*
%TO.P,R3,1*%
%TO.N,Net-(D3-A)*%
X163340000Y-110450000D03*
%TO.P,R3,2*%
%TO.N,/Q2*%
X173500000Y-110450000D03*
%TD*%
D14*
%TO.P,D3,1,K_1*%
%TO.N,GND*%
X204165000Y-112750000D03*
D15*
%TO.P,D3,2,A_2*%
%TO.N,Net-(D3-A)*%
X206705000Y-112750000D03*
%TD*%
D16*
%TO.P,R2,1*%
%TO.N,Net-(D2-A)*%
X149590000Y-114500000D03*
%TO.P,R2,2*%
%TO.N,/Q1*%
X159750000Y-114500000D03*
%TD*%
D17*
%TO.P,J1,1,Pin_1_1*%
%TO.N,Net-(J1-Pin_1)*%
X166295000Y-101500000D03*
D13*
%TO.P,J1,2,Pin_2_2*%
%TO.N,VCC*%
X161295000Y-101500000D03*
%TO.P,J1,3,Pin_3_3*%
%TO.N,GND*%
X156295000Y-101500000D03*
%TD*%
D12*
%TO.P,RV2,1,1_1*%
%TO.N,/Q1*%
X168750000Y-129717500D03*
D13*
%TO.P,RV2,2,2_2*%
%TO.N,Net-(D6-A)*%
X173750000Y-129717500D03*
%TO.P,RV2,3,3_3*%
%TO.N,GND*%
X178750000Y-129717500D03*
%TD*%
D12*
%TO.P,RV1,1,1_1*%
%TO.N,/Q0*%
X151500000Y-129717500D03*
D13*
%TO.P,RV1,2,2_2*%
%TO.N,Net-(D5-A)*%
X156500000Y-129717500D03*
%TO.P,RV1,3,3_3*%
%TO.N,GND*%
X161500000Y-129717500D03*
%TD*%
D14*
%TO.P,D4,1,K_1*%
%TO.N,GND*%
X211260000Y-112750000D03*
D15*
%TO.P,D4,2,A_2*%
%TO.N,Net-(D4-A)*%
X213800000Y-112750000D03*
%TD*%
D17*
%TO.P,J2,1,Pin_1_1*%
%TO.N,Net-(D5-K)*%
X206642500Y-101500000D03*
D13*
%TO.P,J2,2,Pin_2_2*%
%TO.N,VCC*%
X201642500Y-101500000D03*
%TO.P,J2,3,Pin_3_3*%
%TO.N,GND*%
X196642500Y-101500000D03*
%TD*%
D10*
%TO.P,D8,1,K_1*%
%TO.N,Net-(D5-K)*%
X202670000Y-121750000D03*
D11*
%TO.P,D8,2,A_2*%
%TO.N,Net-(D8-A)*%
X212830000Y-121750000D03*
%TD*%
D18*
%TO.P,U1,1,Q5_1*%
%TO.N,unconnected-(U1-Q5-Pad1)*%
X177630000Y-99090000D03*
D16*
%TO.P,U1,2,Q1_2*%
%TO.N,/Q1*%
X177630000Y-101630000D03*
%TO.P,U1,3,Q0_3*%
%TO.N,/Q0*%
X177630000Y-104170000D03*
%TO.P,U1,4,Q2_4*%
%TO.N,/Q2*%
X177630000Y-106710000D03*
%TO.P,U1,5,Q6_5*%
%TO.N,unconnected-(U1-Q6-Pad5)*%
X177630000Y-109250000D03*
%TO.P,U1,6,Q7_6*%
%TO.N,unconnected-(U1-Q7-Pad6)*%
X177630000Y-111790000D03*
%TO.P,U1,7,Q3_7*%
%TO.N,/Q3*%
X177630000Y-114330000D03*
%TO.P,U1,8,VSS_8*%
%TO.N,GND*%
X177630000Y-116870000D03*
%TO.P,U1,9,Q8_9*%
%TO.N,unconnected-(U1-Q8-Pad9)*%
X185250000Y-116870000D03*
%TO.P,U1,10,Q4_10*%
%TO.N,Net-(U1-Q4)*%
X185250000Y-114330000D03*
%TO.P,U1,11,Q9_11*%
%TO.N,unconnected-(U1-Q9-Pad11)*%
X185250000Y-111790000D03*
%TO.P,U1,12,Cout_12*%
%TO.N,unconnected-(U1-Cout-Pad12)*%
X185250000Y-109250000D03*
%TO.P,U1,13,CKEN_13*%
%TO.N,GND*%
X185250000Y-106710000D03*
%TO.P,U1,14,CLK_14*%
%TO.N,Net-(J1-Pin_1)*%
X185250000Y-104170000D03*
%TO.P,U1,15,Reset_15*%
%TO.N,Net-(U1-Q4)*%
X185250000Y-101630000D03*
%TO.P,U1,16,VDD_16*%
%TO.N,VCC*%
X185250000Y-99090000D03*
%TD*%
%TO.P,R4,1*%
%TO.N,Net-(D4-A)*%
X163340000Y-114500000D03*
%TO.P,R4,2*%
%TO.N,/Q3*%
X173500000Y-114500000D03*
%TD*%
D12*
%TO.P,RV3,1,1_1*%
%TO.N,/Q2*%
X185750000Y-129717500D03*
D13*
%TO.P,RV3,2,2_2*%
%TO.N,Net-(D7-A)*%
X190750000Y-129717500D03*
%TO.P,RV3,3,3_3*%
%TO.N,GND*%
X195750000Y-129717500D03*
%TD*%
D14*
%TO.P,D1,1,K_1*%
%TO.N,GND*%
X189975000Y-112750000D03*
D15*
%TO.P,D1,2,A_2*%
%TO.N,Net-(D1-A)*%
X192515000Y-112750000D03*
%TD*%
D16*
%TO.P,R1,1*%
%TO.N,Net-(D1-A)*%
X149590000Y-110450000D03*
%TO.P,R1,2*%
%TO.N,/Q0*%
X159750000Y-110450000D03*
%TD*%
D10*
%TO.P,D6,1,K_1*%
%TO.N,Net-(D5-K)*%
X168590000Y-121750000D03*
D11*
%TO.P,D6,2,A_2*%
%TO.N,Net-(D6-A)*%
X178750000Y-121750000D03*
%TD*%
D10*
%TO.P,D7,1,K_1*%
%TO.N,Net-(D5-K)*%
X185340000Y-121750000D03*
D11*
%TO.P,D7,2,A_2*%
%TO.N,Net-(D7-A)*%
X195500000Y-121750000D03*
%TD*%
%TO.N,Net-(D5-K)*%
D19*
X185340000Y-121750000D02*
X186890000Y-120200000D01*
X170140000Y-120200000D02*
X183790000Y-120200000D01*
X183790000Y-120200000D02*
X185340000Y-121750000D01*
X209500000Y-104357500D02*
X206642500Y-101500000D01*
X186890000Y-120200000D02*
X201120000Y-120200000D01*
X209500000Y-114920000D02*
X209500000Y-104357500D01*
X151090000Y-121750000D02*
X152640000Y-120200000D01*
X167040000Y-120200000D02*
X168590000Y-121750000D01*
X152640000Y-120200000D02*
X167040000Y-120200000D01*
X201120000Y-120200000D02*
X202670000Y-121750000D01*
X202670000Y-121750000D02*
X209500000Y-114920000D01*
X168590000Y-121750000D02*
X170140000Y-120200000D01*
%TO.N,/Q3*%
X177460000Y-114500000D02*
X177630000Y-114330000D01*
X173500000Y-114500000D02*
X177460000Y-114500000D01*
%TO.N,Net-(D2-A)*%
X208750000Y-110000000D02*
X202360000Y-110000000D01*
X208750000Y-114680050D02*
X208750000Y-110000000D01*
X195630000Y-118120000D02*
X196500000Y-117250000D01*
X196500000Y-117250000D02*
X206180050Y-117250000D01*
X149590000Y-114500000D02*
X153210000Y-118120000D01*
X206180050Y-117250000D02*
X208750000Y-114680050D01*
X202360000Y-110000000D02*
X199610000Y-112750000D01*
X153210000Y-118120000D02*
X195630000Y-118120000D01*
%TO.N,Net-(D3-A)*%
X163340000Y-110450000D02*
X165930000Y-113040000D01*
X205355000Y-114100000D02*
X206705000Y-112750000D01*
X165930000Y-113040000D02*
X187565000Y-113040000D01*
X188625000Y-114100000D02*
X205355000Y-114100000D01*
X187565000Y-113040000D02*
X188625000Y-114100000D01*
%TO.N,/Q2*%
X173500000Y-110450000D02*
X177240000Y-106710000D01*
X177240000Y-106710000D02*
X177630000Y-106710000D01*
%TO.N,VCC*%
X199232500Y-99090000D02*
X185250000Y-99090000D01*
X178920000Y-105420000D02*
X162170000Y-105420000D01*
X161295000Y-104545000D02*
X161295000Y-101500000D01*
X201642500Y-101500000D02*
X199232500Y-99090000D01*
X162170000Y-105420000D02*
X161295000Y-104545000D01*
X185250000Y-99090000D02*
X178920000Y-105420000D01*
%TO.N,/Q0*%
X158950001Y-100049999D02*
X160000000Y-99000000D01*
X172460000Y-99000000D02*
X177630000Y-104170000D01*
X160000000Y-99000000D02*
X172460000Y-99000000D01*
X159750000Y-110450000D02*
X158950001Y-109650001D01*
X158950001Y-109650001D02*
X158950001Y-100049999D01*
%TD*%
%TA.AperFunction,Conductor*%
%TO.N,GND*%
G36*
X183954235Y-113810185D02*
G01*
X183999990Y-113862989D01*
X184009934Y-113932147D01*
X184005127Y-113952818D01*
X183981523Y-114025461D01*
X183981523Y-114025464D01*
X183949500Y-114227648D01*
X183949500Y-114432351D01*
X183981522Y-114634534D01*
X184044781Y-114829223D01*
X184108691Y-114954653D01*
X184131401Y-114999223D01*
X184137715Y-115011613D01*
X184258028Y-115177213D01*
X184402786Y-115321971D01*
X184557749Y-115434556D01*
X184568390Y-115442287D01*
X184659840Y-115488883D01*
X184661080Y-115489515D01*
X184711876Y-115537490D01*
X184728671Y-115605311D01*
X184706134Y-115671446D01*
X184661080Y-115710485D01*
X184568386Y-115757715D01*
X184402786Y-115878028D01*
X184258028Y-116022786D01*
X184137715Y-116188386D01*
X184044781Y-116370776D01*
X183981522Y-116565465D01*
X183949500Y-116767648D01*
X183949500Y-116972352D01*
X183952704Y-116992580D01*
X183981523Y-117174535D01*
X183981524Y-117174542D01*
X183992130Y-117207183D01*
X183994125Y-117277024D01*
X183958044Y-117336857D01*
X183895343Y-117367684D01*
X183874199Y-117369500D01*
X179005276Y-117369500D01*
X178938237Y-117349815D01*
X178892482Y-117297011D01*
X178882538Y-117227853D01*
X178887345Y-117207183D01*
X178897988Y-117174425D01*
X178897989Y-117174418D01*
X178930000Y-116972317D01*
X178930000Y-116767682D01*
X178897990Y-116565582D01*
X178834755Y-116370968D01*
X178741859Y-116188650D01*
X178709474Y-116144077D01*
X178709474Y-116144076D01*
X178030000Y-116823551D01*
X178030000Y-116817339D01*
X178002741Y-116715606D01*
X177950080Y-116624394D01*
X177875606Y-116549920D01*
X177784394Y-116497259D01*
X177682661Y-116470000D01*
X177676446Y-116470000D01*
X178355922Y-115790524D01*
X178355921Y-115790523D01*
X178311359Y-115758147D01*
X178311350Y-115758141D01*
X178218369Y-115710765D01*
X178167573Y-115662790D01*
X178150778Y-115594969D01*
X178173315Y-115528835D01*
X178218370Y-115489795D01*
X178218920Y-115489515D01*
X178311610Y-115442287D01*
X178371998Y-115398413D01*
X178477213Y-115321971D01*
X178477215Y-115321968D01*
X178477219Y-115321966D01*
X178621966Y-115177219D01*
X178621968Y-115177215D01*
X178621971Y-115177213D01*
X178674732Y-115104590D01*
X178742287Y-115011610D01*
X178835220Y-114829219D01*
X178898477Y-114634534D01*
X178930500Y-114432352D01*
X178930500Y-114227648D01*
X178898477Y-114025466D01*
X178898476Y-114025462D01*
X178898476Y-114025461D01*
X178874873Y-113952818D01*
X178872878Y-113882977D01*
X178908958Y-113823144D01*
X178971659Y-113792316D01*
X178992804Y-113790500D01*
X183887196Y-113790500D01*
X183954235Y-113810185D01*
G37*
%TD.AperFunction*%
%TA.AperFunction,Conductor*%
G36*
X207942539Y-110770185D02*
G01*
X207988294Y-110822989D01*
X207999500Y-110874500D01*
X207999500Y-111767418D01*
X207979815Y-111834457D01*
X207927011Y-111880212D01*
X207857853Y-111890156D01*
X207794297Y-111861131D01*
X207775186Y-111840309D01*
X207773247Y-111837640D01*
X207617363Y-111681756D01*
X207617358Y-111681752D01*
X207439025Y-111552187D01*
X207439024Y-111552186D01*
X207439022Y-111552185D01*
X207376096Y-111520122D01*
X207242606Y-111452104D01*
X207242603Y-111452103D01*
X207032952Y-111383985D01*
X206924086Y-111366742D01*
X206815222Y-111349500D01*
X206594778Y-111349500D01*
X206522201Y-111360995D01*
X206377047Y-111383985D01*
X206167396Y-111452103D01*
X206167393Y-111452104D01*
X205970974Y-111552187D01*
X205792641Y-111681752D01*
X205792636Y-111681756D01*
X205742075Y-111732317D01*
X205680752Y-111765801D01*
X205611060Y-111760816D01*
X205555127Y-111718945D01*
X205538213Y-111687968D01*
X205508354Y-111607913D01*
X205508350Y-111607906D01*
X205422190Y-111492812D01*
X205422187Y-111492809D01*
X205307093Y-111406649D01*
X205307086Y-111406645D01*
X205172379Y-111356403D01*
X205172372Y-111356401D01*
X205112844Y-111350000D01*
X204415000Y-111350000D01*
X204415000Y-112374722D01*
X204338694Y-112330667D01*
X204224244Y-112300000D01*
X204105756Y-112300000D01*
X203991306Y-112330667D01*
X203915000Y-112374722D01*
X203915000Y-111350000D01*
X203217155Y-111350000D01*
X203157627Y-111356401D01*
X203157620Y-111356403D01*
X203022913Y-111406645D01*
X203022906Y-111406649D01*
X202907812Y-111492809D01*
X202907809Y-111492812D01*
X202821649Y-111607906D01*
X202821645Y-111607913D01*
X202771403Y-111742620D01*
X202771401Y-111742627D01*
X202765000Y-111802155D01*
X202765000Y-112500000D01*
X203789722Y-112500000D01*
X203745667Y-112576306D01*
X203715000Y-112690756D01*
X203715000Y-112809244D01*
X203745667Y-112923694D01*
X203789722Y-113000000D01*
X202765000Y-113000000D01*
X202765000Y-113225500D01*
X202745315Y-113292539D01*
X202692511Y-113338294D01*
X202641000Y-113349500D01*
X201058456Y-113349500D01*
X200991417Y-113329815D01*
X200945662Y-113277011D01*
X200935718Y-113207853D01*
X200940525Y-113187183D01*
X200976014Y-113077954D01*
X200976013Y-113077954D01*
X200976015Y-113077951D01*
X201010500Y-112860222D01*
X201010500Y-112639778D01*
X200989084Y-112504566D01*
X200998038Y-112435276D01*
X201023873Y-112397493D01*
X202634548Y-110786819D01*
X202695871Y-110753334D01*
X202722229Y-110750500D01*
X207875500Y-110750500D01*
X207942539Y-110770185D01*
G37*
%TD.AperFunction*%
%TA.AperFunction,Conductor*%
G36*
X183870081Y-101633799D02*
G01*
X183926014Y-101675671D01*
X183949220Y-101730583D01*
X183981522Y-101934534D01*
X184044781Y-102129223D01*
X184137715Y-102311613D01*
X184258028Y-102477213D01*
X184402786Y-102621971D01*
X184510189Y-102700002D01*
X184568390Y-102742287D01*
X184622466Y-102769840D01*
X184661080Y-102789515D01*
X184711876Y-102837490D01*
X184728671Y-102905311D01*
X184706134Y-102971446D01*
X184661080Y-103010485D01*
X184568386Y-103057715D01*
X184402786Y-103178028D01*
X184258028Y-103322786D01*
X184137715Y-103488386D01*
X184044781Y-103670776D01*
X183981522Y-103865465D01*
X183949500Y-104067648D01*
X183949500Y-104272351D01*
X183981522Y-104474534D01*
X184044781Y-104669223D01*
X184137715Y-104851613D01*
X184258028Y-105017213D01*
X184402786Y-105161971D01*
X184568385Y-105282284D01*
X184568387Y-105282285D01*
X184568390Y-105282287D01*
X184661630Y-105329795D01*
X184712426Y-105377770D01*
X184729221Y-105445591D01*
X184706684Y-105511725D01*
X184661630Y-105550765D01*
X184568644Y-105598143D01*
X184524077Y-105630523D01*
X184524077Y-105630524D01*
X185203554Y-106310000D01*
X185197339Y-106310000D01*
X185095606Y-106337259D01*
X185004394Y-106389920D01*
X184929920Y-106464394D01*
X184877259Y-106555606D01*
X184850000Y-106657339D01*
X184850000Y-106663553D01*
X184170524Y-105984077D01*
X184170523Y-105984077D01*
X184138143Y-106028644D01*
X184045244Y-106210968D01*
X183982009Y-106405582D01*
X183950000Y-106607682D01*
X183950000Y-106812317D01*
X183982009Y-107014417D01*
X184045244Y-107209031D01*
X184138141Y-107391350D01*
X184138147Y-107391359D01*
X184170523Y-107435921D01*
X184170524Y-107435922D01*
X184850000Y-106756446D01*
X184850000Y-106762661D01*
X184877259Y-106864394D01*
X184929920Y-106955606D01*
X185004394Y-107030080D01*
X185095606Y-107082741D01*
X185197339Y-107110000D01*
X185203553Y-107110000D01*
X184524076Y-107789474D01*
X184568652Y-107821861D01*
X184661628Y-107869234D01*
X184712425Y-107917208D01*
X184729220Y-107985029D01*
X184706683Y-108051164D01*
X184661630Y-108090203D01*
X184568388Y-108137713D01*
X184402786Y-108258028D01*
X184258028Y-108402786D01*
X184137715Y-108568386D01*
X184044781Y-108750776D01*
X183981522Y-108945465D01*
X183949500Y-109147648D01*
X183949500Y-109352351D01*
X183981522Y-109554534D01*
X184044781Y-109749223D01*
X184137715Y-109931613D01*
X184258028Y-110097213D01*
X184402786Y-110241971D01*
X184548241Y-110347648D01*
X184568390Y-110362287D01*
X184659840Y-110408883D01*
X184661080Y-110409515D01*
X184711876Y-110457490D01*
X184728671Y-110525311D01*
X184706134Y-110591446D01*
X184661080Y-110630485D01*
X184568386Y-110677715D01*
X184402786Y-110798028D01*
X184258028Y-110942786D01*
X184137715Y-111108386D01*
X184044781Y-111290776D01*
X183981522Y-111485465D01*
X183949500Y-111687648D01*
X183949500Y-111892351D01*
X183981523Y-112094535D01*
X183981524Y-112094542D01*
X183992130Y-112127183D01*
X183994125Y-112197024D01*
X183958044Y-112256857D01*
X183895343Y-112287684D01*
X183874199Y-112289500D01*
X179005801Y-112289500D01*
X178938762Y-112269815D01*
X178893007Y-112217011D01*
X178883063Y-112147853D01*
X178887870Y-112127183D01*
X178898475Y-112094542D01*
X178898475Y-112094538D01*
X178898477Y-112094534D01*
X178930500Y-111892352D01*
X178930500Y-111687648D01*
X178917870Y-111607906D01*
X178898477Y-111485465D01*
X178848065Y-111330315D01*
X178835220Y-111290781D01*
X178835218Y-111290778D01*
X178835218Y-111290776D01*
X178801503Y-111224607D01*
X178742287Y-111108390D01*
X178734556Y-111097749D01*
X178621971Y-110942786D01*
X178477213Y-110798028D01*
X178311614Y-110677715D01*
X178297316Y-110670430D01*
X178218917Y-110630483D01*
X178168123Y-110582511D01*
X178151328Y-110514690D01*
X178173865Y-110448555D01*
X178218917Y-110409516D01*
X178311610Y-110362287D01*
X178408390Y-110291973D01*
X178477213Y-110241971D01*
X178477215Y-110241968D01*
X178477219Y-110241966D01*
X178621966Y-110097219D01*
X178621968Y-110097215D01*
X178621971Y-110097213D01*
X178688611Y-110005489D01*
X178742287Y-109931610D01*
X178835220Y-109749219D01*
X178898477Y-109554534D01*
X178930500Y-109352352D01*
X178930500Y-109147648D01*
X178898477Y-108945466D01*
X178897643Y-108942900D01*
X178835218Y-108750776D01*
X178801503Y-108684607D01*
X178742287Y-108568390D01*
X178734556Y-108557749D01*
X178621971Y-108402786D01*
X178477213Y-108258028D01*
X178311614Y-108137715D01*
X178305006Y-108134348D01*
X178218917Y-108090483D01*
X178168123Y-108042511D01*
X178151328Y-107974690D01*
X178173865Y-107908555D01*
X178218917Y-107869516D01*
X178311610Y-107822287D01*
X178356774Y-107789474D01*
X178477213Y-107701971D01*
X178477215Y-107701968D01*
X178477219Y-107701966D01*
X178621966Y-107557219D01*
X178621968Y-107557215D01*
X178621971Y-107557213D01*
X178674732Y-107484590D01*
X178742287Y-107391610D01*
X178835220Y-107209219D01*
X178898477Y-107014534D01*
X178930500Y-106812352D01*
X178930500Y-106607648D01*
X178898477Y-106405466D01*
X178898476Y-106405462D01*
X178898476Y-106405461D01*
X178874873Y-106332818D01*
X178872878Y-106262977D01*
X178908958Y-106203144D01*
X178971659Y-106172316D01*
X178992804Y-106170500D01*
X178993920Y-106170500D01*
X179091462Y-106151096D01*
X179138913Y-106141658D01*
X179275495Y-106085084D01*
X179360344Y-106028390D01*
X179398416Y-106002952D01*
X183739068Y-101662298D01*
X183800389Y-101628815D01*
X183870081Y-101633799D01*
G37*
%TD.AperFunction*%
%TA.AperFunction,Conductor*%
G36*
X214504043Y-97000765D02*
G01*
X214752895Y-97017075D01*
X214768953Y-97019190D01*
X214976105Y-97060395D01*
X215009535Y-97067045D01*
X215025202Y-97071243D01*
X215194947Y-97128863D01*
X215257481Y-97150091D01*
X215272458Y-97156294D01*
X215481799Y-97259529D01*
X215492460Y-97264787D01*
X215506506Y-97272897D01*
X215710460Y-97409174D01*
X215723329Y-97419048D01*
X215907749Y-97580781D01*
X215919218Y-97592250D01*
X216080951Y-97776670D01*
X216090825Y-97789539D01*
X216227102Y-97993493D01*
X216235212Y-98007539D01*
X216343702Y-98227534D01*
X216349909Y-98242520D01*
X216428756Y-98474797D01*
X216432954Y-98490464D01*
X216480807Y-98731035D01*
X216482925Y-98747116D01*
X216499235Y-98995956D01*
X216499500Y-99004066D01*
X216499500Y-132245933D01*
X216499235Y-132254043D01*
X216482925Y-132502883D01*
X216480807Y-132518964D01*
X216432954Y-132759535D01*
X216428756Y-132775202D01*
X216349909Y-133007479D01*
X216343702Y-133022465D01*
X216235212Y-133242460D01*
X216227102Y-133256506D01*
X216090825Y-133460460D01*
X216080951Y-133473329D01*
X215919218Y-133657749D01*
X215907749Y-133669218D01*
X215723329Y-133830951D01*
X215710460Y-133840825D01*
X215506506Y-133977102D01*
X215492460Y-133985212D01*
X215272465Y-134093702D01*
X215257479Y-134099909D01*
X215025202Y-134178756D01*
X215009535Y-134182954D01*
X214768964Y-134230807D01*
X214752883Y-134232925D01*
X214504043Y-134249235D01*
X214495933Y-134249500D01*
X149504067Y-134249500D01*
X149495957Y-134249235D01*
X149247116Y-134232925D01*
X149231035Y-134230807D01*
X148990464Y-134182954D01*
X148974797Y-134178756D01*
X148742520Y-134099909D01*
X148727534Y-134093702D01*
X148507539Y-133985212D01*
X148493493Y-133977102D01*
X148289539Y-133840825D01*
X148276670Y-133830951D01*
X148092250Y-133669218D01*
X148080781Y-133657749D01*
X147919048Y-133473329D01*
X147909174Y-133460460D01*
X147772897Y-133256506D01*
X147764787Y-133242460D01*
X147658855Y-133027652D01*
X147656294Y-133022458D01*
X147650090Y-133007479D01*
X147571243Y-132775202D01*
X147567045Y-132759535D01*
X147559186Y-132720026D01*
X147519190Y-132518953D01*
X147517075Y-132502895D01*
X147500765Y-132254043D01*
X147500500Y-132245933D01*
X147500500Y-128517484D01*
X149599500Y-128517484D01*
X149599500Y-130917515D01*
X149610000Y-131020295D01*
X149610001Y-131020296D01*
X149665186Y-131186835D01*
X149665187Y-131186837D01*
X149757286Y-131336151D01*
X149757289Y-131336155D01*
X149881344Y-131460210D01*
X149881348Y-131460213D01*
X150030662Y-131552312D01*
X150030664Y-131552313D01*
X150030666Y-131552314D01*
X150197203Y-131607499D01*
X150299992Y-131618000D01*
X150299997Y-131618000D01*
X152700003Y-131618000D01*
X152700008Y-131618000D01*
X152802797Y-131607499D01*
X152969334Y-131552314D01*
X153118655Y-131460211D01*
X153242711Y-131336155D01*
X153334814Y-131186834D01*
X153389999Y-131020297D01*
X153400500Y-130917508D01*
X153400500Y-129592941D01*
X154599500Y-129592941D01*
X154599500Y-129842058D01*
X154599501Y-129842075D01*
X154632017Y-130089061D01*
X154696498Y-130329707D01*
X154791830Y-130559861D01*
X154791837Y-130559876D01*
X154916400Y-130775626D01*
X155068060Y-130973274D01*
X155068066Y-130973281D01*
X155244218Y-131149433D01*
X155244225Y-131149439D01*
X155441873Y-131301099D01*
X155657623Y-131425662D01*
X155657638Y-131425669D01*
X155756825Y-131466753D01*
X155887793Y-131521002D01*
X156128435Y-131585482D01*
X156375435Y-131618000D01*
X156375442Y-131618000D01*
X156624558Y-131618000D01*
X156624565Y-131618000D01*
X156871565Y-131585482D01*
X157112207Y-131521002D01*
X157342373Y-131425664D01*
X157558127Y-131301099D01*
X157755776Y-131149438D01*
X157755781Y-131149433D01*
X157814750Y-131090465D01*
X157931933Y-130973281D01*
X157931938Y-130973276D01*
X158083599Y-130775627D01*
X158208164Y-130559873D01*
X158303502Y-130329707D01*
X158367982Y-130089065D01*
X158400500Y-129842065D01*
X158400500Y-129592966D01*
X159600000Y-129592966D01*
X159600000Y-129842033D01*
X159632508Y-130088963D01*
X159696973Y-130329549D01*
X159792283Y-130559648D01*
X159792288Y-130559659D01*
X159916813Y-130775341D01*
X159916819Y-130775349D01*
X159991400Y-130872545D01*
X160898958Y-129964987D01*
X160923978Y-130025390D01*
X160995112Y-130131851D01*
X161085649Y-130222388D01*
X161192110Y-130293522D01*
X161252511Y-130318541D01*
X160344953Y-131226098D01*
X160442150Y-131300680D01*
X160442158Y-131300686D01*
X160657840Y-131425211D01*
X160657851Y-131425216D01*
X160887950Y-131520526D01*
X161128536Y-131584991D01*
X161375466Y-131617500D01*
X161624534Y-131617500D01*
X161871463Y-131584991D01*
X162112049Y-131520526D01*
X162342148Y-131425216D01*
X162342159Y-131425211D01*
X162557855Y-131300678D01*
X162655045Y-131226100D01*
X162655045Y-131226097D01*
X161747488Y-130318541D01*
X161807890Y-130293522D01*
X161914351Y-130222388D01*
X162004888Y-130131851D01*
X162076022Y-130025390D01*
X162101041Y-129964989D01*
X163008597Y-130872545D01*
X163008600Y-130872545D01*
X163083178Y-130775355D01*
X163207711Y-130559659D01*
X163207716Y-130559648D01*
X163303026Y-130329549D01*
X163367491Y-130088963D01*
X163400000Y-129842033D01*
X163400000Y-129592966D01*
X163367491Y-129346036D01*
X163303026Y-129105450D01*
X163207716Y-128875351D01*
X163207711Y-128875340D01*
X163083186Y-128659658D01*
X163083174Y-128659640D01*
X163029600Y-128589822D01*
X163029599Y-128589821D01*
X163008598Y-128562453D01*
X162101041Y-129470010D01*
X162076022Y-129409610D01*
X162004888Y-129303149D01*
X161914351Y-129212612D01*
X161807890Y-129141478D01*
X161747487Y-129116457D01*
X162346461Y-128517484D01*
X166849500Y-128517484D01*
X166849500Y-130917515D01*
X166860000Y-131020295D01*
X166860001Y-131020296D01*
X166915186Y-131186835D01*
X166915187Y-131186837D01*
X167007286Y-131336151D01*
X167007289Y-131336155D01*
X167131344Y-131460210D01*
X167131348Y-131460213D01*
X167280662Y-131552312D01*
X167280664Y-131552313D01*
X167280666Y-131552314D01*
X167447203Y-131607499D01*
X167549992Y-131618000D01*
X167549997Y-131618000D01*
X169950003Y-131618000D01*
X169950008Y-131618000D01*
X170052797Y-131607499D01*
X170219334Y-131552314D01*
X170368655Y-131460211D01*
X170492711Y-131336155D01*
X170584814Y-131186834D01*
X170639999Y-131020297D01*
X170650500Y-130917508D01*
X170650500Y-129592941D01*
X171849500Y-129592941D01*
X171849500Y-129842058D01*
X171849501Y-129842075D01*
X171882017Y-130089061D01*
X171946498Y-130329707D01*
X172041830Y-130559861D01*
X172041837Y-130559876D01*
X172166400Y-130775626D01*
X172318060Y-130973274D01*
X172318066Y-130973281D01*
X172494218Y-131149433D01*
X172494225Y-131149439D01*
X172691873Y-131301099D01*
X172907623Y-131425662D01*
X172907638Y-131425669D01*
X173006825Y-131466753D01*
X173137793Y-131521002D01*
X173378435Y-131585482D01*
X173625435Y-131618000D01*
X173625442Y-131618000D01*
X173874558Y-131618000D01*
X173874565Y-131618000D01*
X174121565Y-131585482D01*
X174362207Y-131521002D01*
X174592373Y-131425664D01*
X174808127Y-131301099D01*
X175005776Y-131149438D01*
X175005781Y-131149433D01*
X175064750Y-131090465D01*
X175181933Y-130973281D01*
X175181938Y-130973276D01*
X175333599Y-130775627D01*
X175458164Y-130559873D01*
X175553502Y-130329707D01*
X175617982Y-130089065D01*
X175650500Y-129842065D01*
X175650500Y-129592966D01*
X176850000Y-129592966D01*
X176850000Y-129842033D01*
X176882508Y-130088963D01*
X176946973Y-130329549D01*
X177042283Y-130559648D01*
X177042288Y-130559659D01*
X177166813Y-130775341D01*
X177166819Y-130775349D01*
X177241400Y-130872545D01*
X178148958Y-129964987D01*
X178173978Y-130025390D01*
X178245112Y-130131851D01*
X178335649Y-130222388D01*
X178442110Y-130293522D01*
X178502511Y-130318541D01*
X177594953Y-131226098D01*
X177692150Y-131300680D01*
X177692158Y-131300686D01*
X177907840Y-131425211D01*
X177907851Y-131425216D01*
X178137950Y-131520526D01*
X178378536Y-131584991D01*
X178625466Y-131617500D01*
X178874534Y-131617500D01*
X179121463Y-131584991D01*
X179362049Y-131520526D01*
X179592148Y-131425216D01*
X179592159Y-131425211D01*
X179807855Y-131300678D01*
X179905045Y-131226100D01*
X179905045Y-131226097D01*
X178997488Y-130318541D01*
X179057890Y-130293522D01*
X179164351Y-130222388D01*
X179254888Y-130131851D01*
X179326022Y-130025390D01*
X179351041Y-129964989D01*
X180258597Y-130872545D01*
X180258600Y-130872545D01*
X180333178Y-130775355D01*
X180457711Y-130559659D01*
X180457716Y-130559648D01*
X180553026Y-130329549D01*
X180617491Y-130088963D01*
X180650000Y-129842033D01*
X180650000Y-129592966D01*
X180617491Y-129346036D01*
X180553026Y-129105450D01*
X180457716Y-128875351D01*
X180457711Y-128875340D01*
X180333186Y-128659658D01*
X180333174Y-128659640D01*
X180279600Y-128589822D01*
X180279599Y-128589821D01*
X180258598Y-128562453D01*
X179351041Y-129470010D01*
X179326022Y-129409610D01*
X179254888Y-129303149D01*
X179164351Y-129212612D01*
X179057890Y-129141478D01*
X178997487Y-129116457D01*
X179596461Y-128517484D01*
X183849500Y-128517484D01*
X183849500Y-130917515D01*
X183860000Y-131020295D01*
X183860001Y-131020296D01*
X183915186Y-131186835D01*
X183915187Y-131186837D01*
X184007286Y-131336151D01*
X184007289Y-131336155D01*
X184131344Y-131460210D01*
X184131348Y-131460213D01*
X184280662Y-131552312D01*
X184280664Y-131552313D01*
X184280666Y-131552314D01*
X184447203Y-131607499D01*
X184549992Y-131618000D01*
X184549997Y-131618000D01*
X186950003Y-131618000D01*
X186950008Y-131618000D01*
X187052797Y-131607499D01*
X187219334Y-131552314D01*
X187368655Y-131460211D01*
X187492711Y-131336155D01*
X187584814Y-131186834D01*
X187639999Y-131020297D01*
X187650500Y-130917508D01*
X187650500Y-129592941D01*
X188849500Y-129592941D01*
X188849500Y-129842058D01*
X188849501Y-129842075D01*
X188882017Y-130089061D01*
X188946498Y-130329707D01*
X189041830Y-130559861D01*
X189041837Y-130559876D01*
X189166400Y-130775626D01*
X189318060Y-130973274D01*
X189318066Y-130973281D01*
X189494218Y-131149433D01*
X189494225Y-131149439D01*
X189691873Y-131301099D01*
X189907623Y-131425662D01*
X189907638Y-131425669D01*
X190006825Y-131466753D01*
X190137793Y-131521002D01*
X190378435Y-131585482D01*
X190625435Y-131618000D01*
X190625442Y-131618000D01*
X190874558Y-131618000D01*
X190874565Y-131618000D01*
X191121565Y-131585482D01*
X191362207Y-131521002D01*
X191592373Y-131425664D01*
X191808127Y-131301099D01*
X192005776Y-131149438D01*
X192005781Y-131149433D01*
X192064750Y-131090465D01*
X192181933Y-130973281D01*
X192181938Y-130973276D01*
X192333599Y-130775627D01*
X192458164Y-130559873D01*
X192553502Y-130329707D01*
X192617982Y-130089065D01*
X192650500Y-129842065D01*
X192650500Y-129592966D01*
X193850000Y-129592966D01*
X193850000Y-129842033D01*
X193882508Y-130088963D01*
X193946973Y-130329549D01*
X194042283Y-130559648D01*
X194042288Y-130559659D01*
X194166813Y-130775341D01*
X194166819Y-130775349D01*
X194241400Y-130872545D01*
X195148958Y-129964987D01*
X195173978Y-130025390D01*
X195245112Y-130131851D01*
X195335649Y-130222388D01*
X195442110Y-130293522D01*
X195502511Y-130318541D01*
X194594953Y-131226098D01*
X194692150Y-131300680D01*
X194692158Y-131300686D01*
X194907840Y-131425211D01*
X194907851Y-131425216D01*
X195137950Y-131520526D01*
X195378536Y-131584991D01*
X195625466Y-131617500D01*
X195874534Y-131617500D01*
X196121463Y-131584991D01*
X196362049Y-131520526D01*
X196592148Y-131425216D01*
X196592159Y-131425211D01*
X196807855Y-131300678D01*
X196905045Y-131226100D01*
X196905045Y-131226097D01*
X195997488Y-130318541D01*
X196057890Y-130293522D01*
X196164351Y-130222388D01*
X196254888Y-130131851D01*
X196326022Y-130025390D01*
X196351041Y-129964988D01*
X197258597Y-130872545D01*
X197258600Y-130872545D01*
X197333178Y-130775355D01*
X197457711Y-130559659D01*
X197457716Y-130559648D01*
X197553026Y-130329549D01*
X197617491Y-130088963D01*
X197650000Y-129842033D01*
X197650000Y-129592966D01*
X197617491Y-129346036D01*
X197553026Y-129105450D01*
X197457716Y-128875351D01*
X197457711Y-128875340D01*
X197333186Y-128659658D01*
X197333174Y-128659640D01*
X197279600Y-128589822D01*
X197279599Y-128589821D01*
X197258598Y-128562453D01*
X196351041Y-129470010D01*
X196326022Y-129409610D01*
X196254888Y-129303149D01*
X196164351Y-129212612D01*
X196057890Y-129141478D01*
X195997487Y-129116457D01*
X196596461Y-128517484D01*
X201099500Y-128517484D01*
X201099500Y-130917515D01*
X201110000Y-131020295D01*
X201110001Y-131020296D01*
X201165186Y-131186835D01*
X201165187Y-131186837D01*
X201257286Y-131336151D01*
X201257289Y-131336155D01*
X201381344Y-131460210D01*
X201381348Y-131460213D01*
X201530662Y-131552312D01*
X201530664Y-131552313D01*
X201530666Y-131552314D01*
X201697203Y-131607499D01*
X201799992Y-131618000D01*
X201799997Y-131618000D01*
X204200003Y-131618000D01*
X204200008Y-131618000D01*
X204302797Y-131607499D01*
X204469334Y-131552314D01*
X204618655Y-131460211D01*
X204742711Y-131336155D01*
X204834814Y-131186834D01*
X204889999Y-131020297D01*
X204900500Y-130917508D01*
X204900500Y-129592941D01*
X206099500Y-129592941D01*
X206099500Y-129842058D01*
X206099501Y-129842075D01*
X206132017Y-130089061D01*
X206196498Y-130329707D01*
X206291830Y-130559861D01*
X206291837Y-130559876D01*
X206416400Y-130775626D01*
X206568060Y-130973274D01*
X206568066Y-130973281D01*
X206744218Y-131149433D01*
X206744225Y-131149439D01*
X206941873Y-131301099D01*
X207157623Y-131425662D01*
X207157638Y-131425669D01*
X207256825Y-131466753D01*
X207387793Y-131521002D01*
X207628435Y-131585482D01*
X207875435Y-131618000D01*
X207875442Y-131618000D01*
X208124558Y-131618000D01*
X208124565Y-131618000D01*
X208371565Y-131585482D01*
X208612207Y-131521002D01*
X208842373Y-131425664D01*
X209058127Y-131301099D01*
X209255776Y-131149438D01*
X209255781Y-131149433D01*
X209314750Y-131090465D01*
X209431933Y-130973281D01*
X209431938Y-130973276D01*
X209583599Y-130775627D01*
X209708164Y-130559873D01*
X209803502Y-130329707D01*
X209867982Y-130089065D01*
X209900500Y-129842065D01*
X209900500Y-129592966D01*
X211100000Y-129592966D01*
X211100000Y-129842033D01*
X211132508Y-130088963D01*
X211196973Y-130329549D01*
X211292283Y-130559648D01*
X211292288Y-130559659D01*
X211416813Y-130775341D01*
X211416819Y-130775349D01*
X211491400Y-130872545D01*
X212398958Y-129964987D01*
X212423978Y-130025390D01*
X212495112Y-130131851D01*
X212585649Y-130222388D01*
X212692110Y-130293522D01*
X212752511Y-130318541D01*
X211844953Y-131226098D01*
X211942150Y-131300680D01*
X211942158Y-131300686D01*
X212157840Y-131425211D01*
X212157851Y-131425216D01*
X212387950Y-131520526D01*
X212628536Y-131584991D01*
X212875466Y-131617500D01*
X213124534Y-131617500D01*
X213371463Y-131584991D01*
X213612049Y-131520526D01*
X213842148Y-131425216D01*
X213842159Y-131425211D01*
X214057855Y-131300678D01*
X214155045Y-131226100D01*
X214155045Y-131226097D01*
X213247488Y-130318541D01*
X213307890Y-130293522D01*
X213414351Y-130222388D01*
X213504888Y-130131851D01*
X213576022Y-130025390D01*
X213601041Y-129964989D01*
X214508597Y-130872545D01*
X214508600Y-130872545D01*
X214583178Y-130775355D01*
X214707711Y-130559659D01*
X214707716Y-130559648D01*
X214803026Y-130329549D01*
X214867491Y-130088963D01*
X214900000Y-129842033D01*
X214900000Y-129592966D01*
X214867491Y-129346036D01*
X214803026Y-129105450D01*
X214707716Y-128875351D01*
X214707711Y-128875340D01*
X214583186Y-128659658D01*
X214583180Y-128659650D01*
X214508598Y-128562453D01*
X213601041Y-129470010D01*
X213576022Y-129409610D01*
X213504888Y-129303149D01*
X213414351Y-129212612D01*
X213307890Y-129141478D01*
X213247487Y-129116457D01*
X214155045Y-128208900D01*
X214057849Y-128134319D01*
X214057841Y-128134313D01*
X213842159Y-128009788D01*
X213842148Y-128009783D01*
X213612049Y-127914473D01*
X213371463Y-127850008D01*
X213124534Y-127817500D01*
X212875466Y-127817500D01*
X212628536Y-127850008D01*
X212387950Y-127914473D01*
X212157851Y-128009783D01*
X212157847Y-128009785D01*
X211942143Y-128134323D01*
X211844953Y-128208899D01*
X211844953Y-128208900D01*
X212752511Y-129116458D01*
X212692110Y-129141478D01*
X212585649Y-129212612D01*
X212495112Y-129303149D01*
X212423978Y-129409610D01*
X212398958Y-129470011D01*
X211491400Y-128562453D01*
X211491399Y-128562453D01*
X211416823Y-128659643D01*
X211292285Y-128875347D01*
X211292283Y-128875351D01*
X211196973Y-129105450D01*
X211132508Y-129346036D01*
X211100000Y-129592966D01*
X209900500Y-129592966D01*
X209900500Y-129592935D01*
X209867982Y-129345935D01*
X209803502Y-129105293D01*
X209708257Y-128875351D01*
X209708169Y-128875138D01*
X209708162Y-128875123D01*
X209583599Y-128659373D01*
X209431939Y-128461725D01*
X209431933Y-128461718D01*
X209255781Y-128285566D01*
X209255774Y-128285560D01*
X209058126Y-128133900D01*
X208842376Y-128009337D01*
X208842361Y-128009330D01*
X208612207Y-127913998D01*
X208495349Y-127882686D01*
X208371565Y-127849518D01*
X208371564Y-127849517D01*
X208371561Y-127849517D01*
X208124575Y-127817001D01*
X208124570Y-127817000D01*
X208124565Y-127817000D01*
X207875435Y-127817000D01*
X207875429Y-127817000D01*
X207875424Y-127817001D01*
X207628438Y-127849517D01*
X207387792Y-127913998D01*
X207157638Y-128009330D01*
X207157623Y-128009337D01*
X206941873Y-128133900D01*
X206744225Y-128285560D01*
X206744218Y-128285566D01*
X206568066Y-128461718D01*
X206568060Y-128461725D01*
X206416400Y-128659373D01*
X206291837Y-128875123D01*
X206291830Y-128875138D01*
X206196498Y-129105292D01*
X206132017Y-129345938D01*
X206099501Y-129592924D01*
X206099500Y-129592941D01*
X204900500Y-129592941D01*
X204900500Y-128517492D01*
X204889999Y-128414703D01*
X204834814Y-128248166D01*
X204810594Y-128208900D01*
X204742713Y-128098848D01*
X204742710Y-128098844D01*
X204618655Y-127974789D01*
X204618651Y-127974786D01*
X204469337Y-127882687D01*
X204469335Y-127882686D01*
X204386065Y-127855093D01*
X204302797Y-127827501D01*
X204302795Y-127827500D01*
X204200015Y-127817000D01*
X204200008Y-127817000D01*
X201799992Y-127817000D01*
X201799984Y-127817000D01*
X201697204Y-127827500D01*
X201697203Y-127827501D01*
X201530664Y-127882686D01*
X201530662Y-127882687D01*
X201381348Y-127974786D01*
X201381344Y-127974789D01*
X201257289Y-128098844D01*
X201257286Y-128098848D01*
X201165187Y-128248162D01*
X201165186Y-128248164D01*
X201110001Y-128414703D01*
X201110000Y-128414704D01*
X201099500Y-128517484D01*
X196596461Y-128517484D01*
X196905045Y-128208900D01*
X196807849Y-128134319D01*
X196807841Y-128134313D01*
X196592159Y-128009788D01*
X196592148Y-128009783D01*
X196362049Y-127914473D01*
X196121463Y-127850008D01*
X195874534Y-127817500D01*
X195625466Y-127817500D01*
X195378536Y-127850008D01*
X195137950Y-127914473D01*
X194907851Y-128009783D01*
X194907847Y-128009785D01*
X194692143Y-128134323D01*
X194594953Y-128208899D01*
X194594953Y-128208900D01*
X195502511Y-129116458D01*
X195442110Y-129141478D01*
X195335649Y-129212612D01*
X195245112Y-129303149D01*
X195173978Y-129409610D01*
X195148958Y-129470011D01*
X194241400Y-128562453D01*
X194241399Y-128562453D01*
X194166823Y-128659643D01*
X194042285Y-128875347D01*
X194042283Y-128875351D01*
X193946973Y-129105450D01*
X193882508Y-129346036D01*
X193850000Y-129592966D01*
X192650500Y-129592966D01*
X192650500Y-129592935D01*
X192617982Y-129345935D01*
X192553502Y-129105293D01*
X192458257Y-128875351D01*
X192458169Y-128875138D01*
X192458162Y-128875123D01*
X192333599Y-128659373D01*
X192181939Y-128461725D01*
X192181933Y-128461718D01*
X192005781Y-128285566D01*
X192005774Y-128285560D01*
X191808126Y-128133900D01*
X191592376Y-128009337D01*
X191592361Y-128009330D01*
X191362207Y-127913998D01*
X191245349Y-127882686D01*
X191121565Y-127849518D01*
X191121564Y-127849517D01*
X191121561Y-127849517D01*
X190874575Y-127817001D01*
X190874570Y-127817000D01*
X190874565Y-127817000D01*
X190625435Y-127817000D01*
X190625429Y-127817000D01*
X190625424Y-127817001D01*
X190378438Y-127849517D01*
X190137792Y-127913998D01*
X189907638Y-128009330D01*
X189907623Y-128009337D01*
X189691873Y-128133900D01*
X189494225Y-128285560D01*
X189494218Y-128285566D01*
X189318066Y-128461718D01*
X189318060Y-128461725D01*
X189166400Y-128659373D01*
X189041837Y-128875123D01*
X189041830Y-128875138D01*
X188946498Y-129105292D01*
X188882017Y-129345938D01*
X188849501Y-129592924D01*
X188849500Y-129592941D01*
X187650500Y-129592941D01*
X187650500Y-128517492D01*
X187639999Y-128414703D01*
X187584814Y-128248166D01*
X187560594Y-128208900D01*
X187492713Y-128098848D01*
X187492710Y-128098844D01*
X187368655Y-127974789D01*
X187368651Y-127974786D01*
X187219337Y-127882687D01*
X187219335Y-127882686D01*
X187136065Y-127855093D01*
X187052797Y-127827501D01*
X187052795Y-127827500D01*
X186950015Y-127817000D01*
X186950008Y-127817000D01*
X184549992Y-127817000D01*
X184549984Y-127817000D01*
X184447204Y-127827500D01*
X184447203Y-127827501D01*
X184280664Y-127882686D01*
X184280662Y-127882687D01*
X184131348Y-127974786D01*
X184131344Y-127974789D01*
X184007289Y-128098844D01*
X184007286Y-128098848D01*
X183915187Y-128248162D01*
X183915186Y-128248164D01*
X183860001Y-128414703D01*
X183860000Y-128414704D01*
X183849500Y-128517484D01*
X179596461Y-128517484D01*
X179905045Y-128208900D01*
X179807849Y-128134319D01*
X179807841Y-128134313D01*
X179592159Y-128009788D01*
X179592148Y-128009783D01*
X179362049Y-127914473D01*
X179121463Y-127850008D01*
X178874534Y-127817500D01*
X178625466Y-127817500D01*
X178378536Y-127850008D01*
X178137950Y-127914473D01*
X177907851Y-128009783D01*
X177907847Y-128009785D01*
X177692143Y-128134323D01*
X177594953Y-128208899D01*
X177594953Y-128208900D01*
X178502511Y-129116458D01*
X178442110Y-129141478D01*
X178335649Y-129212612D01*
X178245112Y-129303149D01*
X178173978Y-129409610D01*
X178148958Y-129470011D01*
X177241400Y-128562453D01*
X177241399Y-128562453D01*
X177166823Y-128659643D01*
X177042285Y-128875347D01*
X177042283Y-128875351D01*
X176946973Y-129105450D01*
X176882508Y-129346036D01*
X176850000Y-129592966D01*
X175650500Y-129592966D01*
X175650500Y-129592935D01*
X175617982Y-129345935D01*
X175553502Y-129105293D01*
X175458257Y-128875351D01*
X175458169Y-128875138D01*
X175458162Y-128875123D01*
X175333599Y-128659373D01*
X175181939Y-128461725D01*
X175181933Y-128461718D01*
X175005781Y-128285566D01*
X175005774Y-128285560D01*
X174808126Y-128133900D01*
X174592376Y-128009337D01*
X174592361Y-128009330D01*
X174362207Y-127913998D01*
X174245349Y-127882686D01*
X174121565Y-127849518D01*
X174121564Y-127849517D01*
X174121561Y-127849517D01*
X173874575Y-127817001D01*
X173874570Y-127817000D01*
X173874565Y-127817000D01*
X173625435Y-127817000D01*
X173625429Y-127817000D01*
X173625424Y-127817001D01*
X173378438Y-127849517D01*
X173137792Y-127913998D01*
X172907638Y-128009330D01*
X172907623Y-128009337D01*
X172691873Y-128133900D01*
X172494225Y-128285560D01*
X172494218Y-128285566D01*
X172318066Y-128461718D01*
X172318060Y-128461725D01*
X172166400Y-128659373D01*
X172041837Y-128875123D01*
X172041830Y-128875138D01*
X171946498Y-129105292D01*
X171882017Y-129345938D01*
X171849501Y-129592924D01*
X171849500Y-129592941D01*
X170650500Y-129592941D01*
X170650500Y-128517492D01*
X170639999Y-128414703D01*
X170584814Y-128248166D01*
X170560594Y-128208900D01*
X170492713Y-128098848D01*
X170492710Y-128098844D01*
X170368655Y-127974789D01*
X170368651Y-127974786D01*
X170219337Y-127882687D01*
X170219335Y-127882686D01*
X170136065Y-127855093D01*
X170052797Y-127827501D01*
X170052795Y-127827500D01*
X169950015Y-127817000D01*
X169950008Y-127817000D01*
X167549992Y-127817000D01*
X167549984Y-127817000D01*
X167447204Y-127827500D01*
X167447203Y-127827501D01*
X167280664Y-127882686D01*
X167280662Y-127882687D01*
X167131348Y-127974786D01*
X167131344Y-127974789D01*
X167007289Y-128098844D01*
X167007286Y-128098848D01*
X166915187Y-128248162D01*
X166915186Y-128248164D01*
X166860001Y-128414703D01*
X166860000Y-128414704D01*
X166849500Y-128517484D01*
X162346461Y-128517484D01*
X162655045Y-128208900D01*
X162557849Y-128134319D01*
X162557841Y-128134313D01*
X162342159Y-128009788D01*
X162342148Y-128009783D01*
X162112049Y-127914473D01*
X161871463Y-127850008D01*
X161624534Y-127817500D01*
X161375466Y-127817500D01*
X161128536Y-127850008D01*
X160887950Y-127914473D01*
X160657851Y-128009783D01*
X160657847Y-128009785D01*
X160442143Y-128134323D01*
X160344953Y-128208899D01*
X160344953Y-128208900D01*
X161252511Y-129116458D01*
X161192110Y-129141478D01*
X161085649Y-129212612D01*
X160995112Y-129303149D01*
X160923978Y-129409610D01*
X160898958Y-129470011D01*
X159991400Y-128562453D01*
X159991399Y-128562453D01*
X159916823Y-128659643D01*
X159792285Y-128875347D01*
X159792283Y-128875351D01*
X159696973Y-129105450D01*
X159632508Y-129346036D01*
X159600000Y-129592966D01*
X158400500Y-129592966D01*
X158400500Y-129592935D01*
X158367982Y-129345935D01*
X158303502Y-129105293D01*
X158208257Y-128875351D01*
X158208169Y-128875138D01*
X158208162Y-128875123D01*
X158083599Y-128659373D01*
X157931939Y-128461725D01*
X157931933Y-128461718D01*
X157755781Y-128285566D01*
X157755774Y-128285560D01*
X157558126Y-128133900D01*
X157342376Y-128009337D01*
X157342361Y-128009330D01*
X157112207Y-127913998D01*
X156995349Y-127882686D01*
X156871565Y-127849518D01*
X156871564Y-127849517D01*
X156871561Y-127849517D01*
X156624575Y-127817001D01*
X156624570Y-127817000D01*
X156624565Y-127817000D01*
X156375435Y-127817000D01*
X156375429Y-127817000D01*
X156375424Y-127817001D01*
X156128438Y-127849517D01*
X155887792Y-127913998D01*
X155657638Y-128009330D01*
X155657623Y-128009337D01*
X155441873Y-128133900D01*
X155244225Y-128285560D01*
X155244218Y-128285566D01*
X155068066Y-128461718D01*
X155068060Y-128461725D01*
X154916400Y-128659373D01*
X154791837Y-128875123D01*
X154791830Y-128875138D01*
X154696498Y-129105292D01*
X154632017Y-129345938D01*
X154599501Y-129592924D01*
X154599500Y-129592941D01*
X153400500Y-129592941D01*
X153400500Y-128517492D01*
X153389999Y-128414703D01*
X153334814Y-128248166D01*
X153310594Y-128208900D01*
X153242713Y-128098848D01*
X153242710Y-128098844D01*
X153118655Y-127974789D01*
X153118651Y-127974786D01*
X152969337Y-127882687D01*
X152969335Y-127882686D01*
X152886065Y-127855093D01*
X152802797Y-127827501D01*
X152802795Y-127827500D01*
X152700015Y-127817000D01*
X152700008Y-127817000D01*
X150299992Y-127817000D01*
X150299984Y-127817000D01*
X150197204Y-127827500D01*
X150197203Y-127827501D01*
X150030664Y-127882686D01*
X150030662Y-127882687D01*
X149881348Y-127974786D01*
X149881344Y-127974789D01*
X149757289Y-128098844D01*
X149757286Y-128098848D01*
X149665187Y-128248162D01*
X149665186Y-128248164D01*
X149610001Y-128414703D01*
X149610000Y-128414704D01*
X149599500Y-128517484D01*
X147500500Y-128517484D01*
X147500500Y-114397648D01*
X148289500Y-114397648D01*
X148289500Y-114602351D01*
X148321522Y-114804534D01*
X148384781Y-114999223D01*
X148477715Y-115181613D01*
X148598028Y-115347213D01*
X148742786Y-115491971D01*
X148897749Y-115604556D01*
X148908390Y-115612287D01*
X149006960Y-115662511D01*
X149090776Y-115705218D01*
X149090778Y-115705218D01*
X149090781Y-115705220D01*
X149195137Y-115739127D01*
X149285465Y-115768477D01*
X149369564Y-115781797D01*
X149487648Y-115800500D01*
X149487649Y-115800500D01*
X149692350Y-115800500D01*
X149692352Y-115800500D01*
X149748027Y-115791681D01*
X149817319Y-115800635D01*
X149855106Y-115826473D01*
X152627049Y-118598416D01*
X152731583Y-118702950D01*
X152731585Y-118702952D01*
X152854498Y-118785080D01*
X152854511Y-118785087D01*
X152991082Y-118841656D01*
X152991087Y-118841658D01*
X152991091Y-118841658D01*
X152991092Y-118841659D01*
X153136079Y-118870500D01*
X153136082Y-118870500D01*
X195703920Y-118870500D01*
X195801462Y-118851096D01*
X195848913Y-118841658D01*
X195985495Y-118785084D01*
X196034729Y-118752186D01*
X196108416Y-118702952D01*
X196774549Y-118036819D01*
X196835872Y-118003334D01*
X196862230Y-118000500D01*
X205058770Y-118000500D01*
X205125809Y-118020185D01*
X205171564Y-118072989D01*
X205181508Y-118142147D01*
X205152483Y-118205703D01*
X205146451Y-118212181D01*
X203245451Y-120113181D01*
X203184128Y-120146666D01*
X203157770Y-120149500D01*
X202182230Y-120149500D01*
X202115191Y-120129815D01*
X202094549Y-120113181D01*
X201598421Y-119617052D01*
X201598414Y-119617046D01*
X201524729Y-119567812D01*
X201524729Y-119567813D01*
X201475491Y-119534913D01*
X201338917Y-119478343D01*
X201338907Y-119478340D01*
X201193920Y-119449500D01*
X201193918Y-119449500D01*
X186816082Y-119449500D01*
X186816080Y-119449500D01*
X186671092Y-119478340D01*
X186671086Y-119478342D01*
X186534508Y-119534914D01*
X186534496Y-119534921D01*
X186485269Y-119567813D01*
X186411588Y-119617044D01*
X186411580Y-119617050D01*
X185915451Y-120113181D01*
X185854128Y-120146666D01*
X185827770Y-120149500D01*
X184852230Y-120149500D01*
X184785191Y-120129815D01*
X184764549Y-120113181D01*
X184268421Y-119617052D01*
X184268414Y-119617046D01*
X184194729Y-119567812D01*
X184194729Y-119567813D01*
X184145491Y-119534913D01*
X184008917Y-119478343D01*
X184008907Y-119478340D01*
X183863920Y-119449500D01*
X183863918Y-119449500D01*
X170066082Y-119449500D01*
X170066080Y-119449500D01*
X169921092Y-119478340D01*
X169921086Y-119478342D01*
X169784508Y-119534914D01*
X169784496Y-119534921D01*
X169735269Y-119567813D01*
X169661588Y-119617044D01*
X169661580Y-119617050D01*
X169165451Y-120113181D01*
X169104128Y-120146666D01*
X169077770Y-120149500D01*
X168102230Y-120149500D01*
X168035191Y-120129815D01*
X168014549Y-120113181D01*
X167518421Y-119617052D01*
X167518414Y-119617046D01*
X167444729Y-119567812D01*
X167444729Y-119567813D01*
X167395491Y-119534913D01*
X167258917Y-119478343D01*
X167258907Y-119478340D01*
X167113920Y-119449500D01*
X167113918Y-119449500D01*
X152566082Y-119449500D01*
X152566080Y-119449500D01*
X152421092Y-119478340D01*
X152421086Y-119478342D01*
X152284508Y-119534914D01*
X152284496Y-119534921D01*
X152235269Y-119567813D01*
X152161588Y-119617044D01*
X152161580Y-119617050D01*
X151665451Y-120113181D01*
X151604128Y-120146666D01*
X151577770Y-120149500D01*
X150189982Y-120149500D01*
X150087203Y-120160000D01*
X150087202Y-120160001D01*
X150004669Y-120187349D01*
X149920667Y-120215185D01*
X149920662Y-120215187D01*
X149771342Y-120307289D01*
X149647289Y-120431342D01*
X149555187Y-120580662D01*
X149555186Y-120580665D01*
X149500001Y-120747202D01*
X149500001Y-120747203D01*
X149500000Y-120747203D01*
X149489500Y-120849982D01*
X149489500Y-122650017D01*
X149500000Y-122752796D01*
X149555185Y-122919332D01*
X149555186Y-122919335D01*
X149647288Y-123068656D01*
X149771344Y-123192712D01*
X149920665Y-123284814D01*
X150087202Y-123339999D01*
X150189990Y-123350500D01*
X150189995Y-123350500D01*
X151990005Y-123350500D01*
X151990010Y-123350500D01*
X152092798Y-123339999D01*
X152259335Y-123284814D01*
X152408656Y-123192712D01*
X152532712Y-123068656D01*
X152624814Y-122919335D01*
X152679999Y-122752798D01*
X152690500Y-122650010D01*
X152690500Y-121262229D01*
X152710185Y-121195191D01*
X152726819Y-121174549D01*
X152914549Y-120986819D01*
X152975872Y-120953334D01*
X153002230Y-120950500D01*
X159658733Y-120950500D01*
X159725772Y-120970185D01*
X159771527Y-121022989D01*
X159781471Y-121092147D01*
X159769217Y-121130797D01*
X159766760Y-121135617D01*
X159688910Y-121375214D01*
X159649500Y-121624038D01*
X159649500Y-121875961D01*
X159688910Y-122124785D01*
X159766760Y-122364383D01*
X159881132Y-122588848D01*
X160029201Y-122792649D01*
X160029205Y-122792654D01*
X160207345Y-122970794D01*
X160207350Y-122970798D01*
X160385117Y-123099952D01*
X160411155Y-123118870D01*
X160554184Y-123191747D01*
X160635616Y-123233239D01*
X160635618Y-123233239D01*
X160635621Y-123233241D01*
X160875215Y-123311090D01*
X161124038Y-123350500D01*
X161124039Y-123350500D01*
X161375961Y-123350500D01*
X161375962Y-123350500D01*
X161624785Y-123311090D01*
X161864379Y-123233241D01*
X162088845Y-123118870D01*
X162292656Y-122970793D01*
X162470793Y-122792656D01*
X162618870Y-122588845D01*
X162733241Y-122364379D01*
X162811090Y-122124785D01*
X162850500Y-121875962D01*
X162850500Y-121624038D01*
X162811090Y-121375215D01*
X162733241Y-121135621D01*
X162730782Y-121130796D01*
X162717886Y-121062128D01*
X162744161Y-120997387D01*
X162801267Y-120957129D01*
X162841267Y-120950500D01*
X166677770Y-120950500D01*
X166744809Y-120970185D01*
X166765451Y-120986819D01*
X166953181Y-121174549D01*
X166986666Y-121235872D01*
X166989500Y-121262230D01*
X166989500Y-122650017D01*
X167000000Y-122752796D01*
X167055185Y-122919332D01*
X167055186Y-122919335D01*
X167147288Y-123068656D01*
X167271344Y-123192712D01*
X167420665Y-123284814D01*
X167587202Y-123339999D01*
X167689990Y-123350500D01*
X167689995Y-123350500D01*
X169490005Y-123350500D01*
X169490010Y-123350500D01*
X169592798Y-123339999D01*
X169759335Y-123284814D01*
X169908656Y-123192712D01*
X170032712Y-123068656D01*
X170124814Y-122919335D01*
X170179999Y-122752798D01*
X170190500Y-122650010D01*
X170190500Y-121262229D01*
X170210185Y-121195191D01*
X170226819Y-121174549D01*
X170414549Y-120986819D01*
X170475872Y-120953334D01*
X170502230Y-120950500D01*
X177158733Y-120950500D01*
X177225772Y-120970185D01*
X177271527Y-121022989D01*
X177281471Y-121092147D01*
X177269217Y-121130797D01*
X177266760Y-121135617D01*
X177188910Y-121375214D01*
X177149500Y-121624038D01*
X177149500Y-121875961D01*
X177188910Y-122124785D01*
X177266760Y-122364383D01*
X177381132Y-122588848D01*
X177529201Y-122792649D01*
X177529205Y-122792654D01*
X177707345Y-122970794D01*
X177707350Y-122970798D01*
X177885117Y-123099952D01*
X177911155Y-123118870D01*
X178054184Y-123191747D01*
X178135616Y-123233239D01*
X178135618Y-123233239D01*
X178135621Y-123233241D01*
X178375215Y-123311090D01*
X178624038Y-123350500D01*
X178624039Y-123350500D01*
X178875961Y-123350500D01*
X178875962Y-123350500D01*
X179124785Y-123311090D01*
X179364379Y-123233241D01*
X179588845Y-123118870D01*
X179792656Y-122970793D01*
X179970793Y-122792656D01*
X180118870Y-122588845D01*
X180233241Y-122364379D01*
X180311090Y-122124785D01*
X180350500Y-121875962D01*
X180350500Y-121624038D01*
X180311090Y-121375215D01*
X180233241Y-121135621D01*
X180230782Y-121130796D01*
X180217886Y-121062128D01*
X180244161Y-120997387D01*
X180301267Y-120957129D01*
X180341267Y-120950500D01*
X183427770Y-120950500D01*
X183494809Y-120970185D01*
X183515451Y-120986819D01*
X183703181Y-121174549D01*
X183736666Y-121235872D01*
X183739500Y-121262230D01*
X183739500Y-122650017D01*
X183750000Y-122752796D01*
X183805185Y-122919332D01*
X183805186Y-122919335D01*
X183897288Y-123068656D01*
X184021344Y-123192712D01*
X184170665Y-123284814D01*
X184337202Y-123339999D01*
X184439990Y-123350500D01*
X184439995Y-123350500D01*
X186240005Y-123350500D01*
X186240010Y-123350500D01*
X186342798Y-123339999D01*
X186509335Y-123284814D01*
X186658656Y-123192712D01*
X186782712Y-123068656D01*
X186874814Y-122919335D01*
X186929999Y-122752798D01*
X186940500Y-122650010D01*
X186940500Y-121262229D01*
X186960185Y-121195191D01*
X186976819Y-121174549D01*
X187164549Y-120986819D01*
X187225872Y-120953334D01*
X187252230Y-120950500D01*
X193908733Y-120950500D01*
X193975772Y-120970185D01*
X194021527Y-121022989D01*
X194031471Y-121092147D01*
X194019217Y-121130797D01*
X194016760Y-121135617D01*
X193938910Y-121375214D01*
X193899500Y-121624038D01*
X193899500Y-121875961D01*
X193938910Y-122124785D01*
X194016760Y-122364383D01*
X194131132Y-122588848D01*
X194279201Y-122792649D01*
X194279205Y-122792654D01*
X194457345Y-122970794D01*
X194457350Y-122970798D01*
X194635117Y-123099952D01*
X194661155Y-123118870D01*
X194804184Y-123191747D01*
X194885616Y-123233239D01*
X194885618Y-123233239D01*
X194885621Y-123233241D01*
X195125215Y-123311090D01*
X195374038Y-123350500D01*
X195374039Y-123350500D01*
X195625961Y-123350500D01*
X195625962Y-123350500D01*
X195874785Y-123311090D01*
X196114379Y-123233241D01*
X196338845Y-123118870D01*
X196542656Y-122970793D01*
X196720793Y-122792656D01*
X196868870Y-122588845D01*
X196983241Y-122364379D01*
X197061090Y-122124785D01*
X197100500Y-121875962D01*
X197100500Y-121624038D01*
X197061090Y-121375215D01*
X196983241Y-121135621D01*
X196980782Y-121130796D01*
X196967886Y-121062128D01*
X196994161Y-120997387D01*
X197051267Y-120957129D01*
X197091267Y-120950500D01*
X200757770Y-120950500D01*
X200824809Y-120970185D01*
X200845451Y-120986819D01*
X201033181Y-121174549D01*
X201066666Y-121235872D01*
X201069500Y-121262230D01*
X201069500Y-122650017D01*
X201080000Y-122752796D01*
X201135185Y-122919332D01*
X201135186Y-122919335D01*
X201227288Y-123068656D01*
X201351344Y-123192712D01*
X201500665Y-123284814D01*
X201667202Y-123339999D01*
X201769990Y-123350500D01*
X201769995Y-123350500D01*
X203570005Y-123350500D01*
X203570010Y-123350500D01*
X203672798Y-123339999D01*
X203839335Y-123284814D01*
X203988656Y-123192712D01*
X204112712Y-123068656D01*
X204204814Y-122919335D01*
X204259999Y-122752798D01*
X204270500Y-122650010D01*
X204270500Y-121624038D01*
X211229500Y-121624038D01*
X211229500Y-121875961D01*
X211268910Y-122124785D01*
X211346760Y-122364383D01*
X211461132Y-122588848D01*
X211609201Y-122792649D01*
X211609205Y-122792654D01*
X211787345Y-122970794D01*
X211787350Y-122970798D01*
X211965117Y-123099952D01*
X211991155Y-123118870D01*
X212134184Y-123191747D01*
X212215616Y-123233239D01*
X212215618Y-123233239D01*
X212215621Y-123233241D01*
X212455215Y-123311090D01*
X212704038Y-123350500D01*
X212704039Y-123350500D01*
X212955961Y-123350500D01*
X212955962Y-123350500D01*
X213204785Y-123311090D01*
X213444379Y-123233241D01*
X213668845Y-123118870D01*
X213872656Y-122970793D01*
X214050793Y-122792656D01*
X214198870Y-122588845D01*
X214313241Y-122364379D01*
X214391090Y-122124785D01*
X214430500Y-121875962D01*
X214430500Y-121624038D01*
X214391090Y-121375215D01*
X214313241Y-121135621D01*
X214313239Y-121135617D01*
X214313239Y-121135616D01*
X214242807Y-120997387D01*
X214198870Y-120911155D01*
X214154425Y-120849982D01*
X214050798Y-120707350D01*
X214050794Y-120707345D01*
X213872654Y-120529205D01*
X213872649Y-120529201D01*
X213668848Y-120381132D01*
X213668847Y-120381131D01*
X213668845Y-120381130D01*
X213598747Y-120345413D01*
X213444383Y-120266760D01*
X213204785Y-120188910D01*
X212955962Y-120149500D01*
X212704038Y-120149500D01*
X212637738Y-120160001D01*
X212455214Y-120188910D01*
X212215616Y-120266760D01*
X211991151Y-120381132D01*
X211787350Y-120529201D01*
X211787345Y-120529205D01*
X211609205Y-120707345D01*
X211609201Y-120707350D01*
X211461132Y-120911151D01*
X211346760Y-121135616D01*
X211268910Y-121375214D01*
X211229500Y-121624038D01*
X204270500Y-121624038D01*
X204270500Y-121262229D01*
X204290185Y-121195190D01*
X204306819Y-121174548D01*
X210082949Y-115398418D01*
X210082952Y-115398415D01*
X210150038Y-115298013D01*
X210165084Y-115275495D01*
X210198056Y-115195894D01*
X210221659Y-115138912D01*
X210246981Y-115011610D01*
X210250500Y-114993918D01*
X210250500Y-114274000D01*
X210270185Y-114206961D01*
X210322989Y-114161206D01*
X210374500Y-114150000D01*
X211010000Y-114150000D01*
X211010000Y-113125277D01*
X211086306Y-113169333D01*
X211200756Y-113200000D01*
X211319244Y-113200000D01*
X211433694Y-113169333D01*
X211510000Y-113125277D01*
X211510000Y-114150000D01*
X212207828Y-114150000D01*
X212207844Y-114149999D01*
X212267372Y-114143598D01*
X212267379Y-114143596D01*
X212402086Y-114093354D01*
X212402093Y-114093350D01*
X212517187Y-114007190D01*
X212517190Y-114007187D01*
X212603350Y-113892093D01*
X212603354Y-113892086D01*
X212633213Y-113812031D01*
X212675084Y-113756097D01*
X212740548Y-113731680D01*
X212808821Y-113746531D01*
X212837076Y-113767683D01*
X212887636Y-113818243D01*
X212887641Y-113818247D01*
X213043192Y-113931260D01*
X213065978Y-113947815D01*
X213169915Y-114000774D01*
X213262393Y-114047895D01*
X213262396Y-114047896D01*
X213367221Y-114081955D01*
X213472049Y-114116015D01*
X213689778Y-114150500D01*
X213689779Y-114150500D01*
X213910221Y-114150500D01*
X213910222Y-114150500D01*
X214127951Y-114116015D01*
X214337606Y-114047895D01*
X214534022Y-113947815D01*
X214712365Y-113818242D01*
X214868242Y-113662365D01*
X214997815Y-113484022D01*
X215097895Y-113287606D01*
X215166015Y-113077951D01*
X215200500Y-112860222D01*
X215200500Y-112639778D01*
X215166015Y-112422049D01*
X215131955Y-112317221D01*
X215097896Y-112212396D01*
X215097895Y-112212393D01*
X215054477Y-112127183D01*
X214997815Y-112015978D01*
X214907996Y-111892352D01*
X214868247Y-111837641D01*
X214868243Y-111837636D01*
X214712363Y-111681756D01*
X214712358Y-111681752D01*
X214534025Y-111552187D01*
X214534024Y-111552186D01*
X214534022Y-111552185D01*
X214471096Y-111520122D01*
X214337606Y-111452104D01*
X214337603Y-111452103D01*
X214127952Y-111383985D01*
X214019086Y-111366742D01*
X213910222Y-111349500D01*
X213689778Y-111349500D01*
X213617201Y-111360995D01*
X213472047Y-111383985D01*
X213262396Y-111452103D01*
X213262393Y-111452104D01*
X213065974Y-111552187D01*
X212887641Y-111681752D01*
X212887636Y-111681756D01*
X212837075Y-111732317D01*
X212775752Y-111765801D01*
X212706060Y-111760816D01*
X212650127Y-111718945D01*
X212633213Y-111687968D01*
X212603354Y-111607913D01*
X212603350Y-111607906D01*
X212517190Y-111492812D01*
X212517187Y-111492809D01*
X212402093Y-111406649D01*
X212402086Y-111406645D01*
X212267379Y-111356403D01*
X212267372Y-111356401D01*
X212207844Y-111350000D01*
X211510000Y-111350000D01*
X211510000Y-112374722D01*
X211433694Y-112330667D01*
X211319244Y-112300000D01*
X211200756Y-112300000D01*
X211086306Y-112330667D01*
X211010000Y-112374722D01*
X211010000Y-111350000D01*
X210374500Y-111350000D01*
X210307461Y-111330315D01*
X210261706Y-111277511D01*
X210250500Y-111226000D01*
X210250500Y-104283579D01*
X210221659Y-104138592D01*
X210221658Y-104138591D01*
X210221658Y-104138587D01*
X210192274Y-104067647D01*
X210165087Y-104002011D01*
X210165080Y-104001998D01*
X210082952Y-103879085D01*
X210069332Y-103865465D01*
X209978416Y-103774549D01*
X209287045Y-103083178D01*
X208579319Y-102375451D01*
X208545834Y-102314128D01*
X208543000Y-102287770D01*
X208543000Y-100299997D01*
X208542999Y-100299984D01*
X208541831Y-100288555D01*
X208532499Y-100197203D01*
X208477314Y-100030666D01*
X208453094Y-99991400D01*
X208385213Y-99881348D01*
X208385210Y-99881344D01*
X208261155Y-99757289D01*
X208261151Y-99757286D01*
X208111837Y-99665187D01*
X208111835Y-99665186D01*
X208028565Y-99637593D01*
X207945297Y-99610001D01*
X207945295Y-99610000D01*
X207842515Y-99599500D01*
X207842508Y-99599500D01*
X205442492Y-99599500D01*
X205442484Y-99599500D01*
X205339704Y-99610000D01*
X205339703Y-99610001D01*
X205173164Y-99665186D01*
X205173162Y-99665187D01*
X205023848Y-99757286D01*
X205023844Y-99757289D01*
X204899789Y-99881344D01*
X204899786Y-99881348D01*
X204807687Y-100030662D01*
X204807686Y-100030664D01*
X204752501Y-100197203D01*
X204752500Y-100197204D01*
X204742000Y-100299984D01*
X204742000Y-102700015D01*
X204752500Y-102802795D01*
X204752501Y-102802797D01*
X204763245Y-102835220D01*
X204807686Y-102969335D01*
X204807687Y-102969337D01*
X204899786Y-103118651D01*
X204899789Y-103118655D01*
X205023844Y-103242710D01*
X205023848Y-103242713D01*
X205173162Y-103334812D01*
X205173164Y-103334813D01*
X205173166Y-103334814D01*
X205339703Y-103389999D01*
X205442492Y-103400500D01*
X207430270Y-103400500D01*
X207497309Y-103420185D01*
X207517951Y-103436819D01*
X208713181Y-104632048D01*
X208746666Y-104693371D01*
X208749500Y-104719729D01*
X208749500Y-109125500D01*
X208729815Y-109192539D01*
X208677011Y-109238294D01*
X208625500Y-109249500D01*
X202286080Y-109249500D01*
X202141092Y-109278340D01*
X202141082Y-109278343D01*
X202004511Y-109334912D01*
X202004498Y-109334919D01*
X201881584Y-109417048D01*
X201881580Y-109417051D01*
X199962508Y-111336122D01*
X199901185Y-111369607D01*
X199855429Y-111370914D01*
X199720227Y-111349500D01*
X199720222Y-111349500D01*
X199499778Y-111349500D01*
X199427201Y-111360995D01*
X199282047Y-111383985D01*
X199072396Y-111452103D01*
X199072393Y-111452104D01*
X198875974Y-111552187D01*
X198697641Y-111681752D01*
X198697636Y-111681756D01*
X198647075Y-111732317D01*
X198585752Y-111765801D01*
X198516060Y-111760816D01*
X198460127Y-111718945D01*
X198443213Y-111687968D01*
X198413354Y-111607913D01*
X198413350Y-111607906D01*
X198327190Y-111492812D01*
X198327187Y-111492809D01*
X198212093Y-111406649D01*
X198212086Y-111406645D01*
X198077379Y-111356403D01*
X198077372Y-111356401D01*
X198017844Y-111350000D01*
X197320000Y-111350000D01*
X197320000Y-112374722D01*
X197243694Y-112330667D01*
X197129244Y-112300000D01*
X197010756Y-112300000D01*
X196896306Y-112330667D01*
X196820000Y-112374722D01*
X196820000Y-111350000D01*
X196122155Y-111350000D01*
X196062627Y-111356401D01*
X196062620Y-111356403D01*
X195927913Y-111406645D01*
X195927906Y-111406649D01*
X195812812Y-111492809D01*
X195812809Y-111492812D01*
X195726649Y-111607906D01*
X195726645Y-111607913D01*
X195676403Y-111742620D01*
X195676401Y-111742627D01*
X195670000Y-111802155D01*
X195670000Y-112500000D01*
X196694722Y-112500000D01*
X196650667Y-112576306D01*
X196620000Y-112690756D01*
X196620000Y-112809244D01*
X196650667Y-112923694D01*
X196694722Y-113000000D01*
X195670000Y-113000000D01*
X195670000Y-113225500D01*
X195650315Y-113292539D01*
X195597511Y-113338294D01*
X195546000Y-113349500D01*
X193963456Y-113349500D01*
X193896417Y-113329815D01*
X193850662Y-113277011D01*
X193840718Y-113207853D01*
X193845525Y-113187183D01*
X193881014Y-113077954D01*
X193881013Y-113077954D01*
X193881015Y-113077951D01*
X193915500Y-112860222D01*
X193915500Y-112639778D01*
X193881015Y-112422049D01*
X193846955Y-112317221D01*
X193812896Y-112212396D01*
X193812895Y-112212393D01*
X193712815Y-112015978D01*
X193608018Y-111871736D01*
X193608017Y-111871735D01*
X193583243Y-111837636D01*
X193427363Y-111681756D01*
X193427358Y-111681752D01*
X193249025Y-111552187D01*
X193249024Y-111552186D01*
X193249022Y-111552185D01*
X193186096Y-111520122D01*
X193052606Y-111452104D01*
X193052603Y-111452103D01*
X192842952Y-111383985D01*
X192734086Y-111366742D01*
X192625222Y-111349500D01*
X192404778Y-111349500D01*
X192332201Y-111360995D01*
X192187047Y-111383985D01*
X191977396Y-111452103D01*
X191977393Y-111452104D01*
X191780974Y-111552187D01*
X191602641Y-111681752D01*
X191602636Y-111681756D01*
X191552075Y-111732317D01*
X191490752Y-111765801D01*
X191421060Y-111760816D01*
X191365127Y-111718945D01*
X191348213Y-111687968D01*
X191318354Y-111607913D01*
X191318350Y-111607906D01*
X191232190Y-111492812D01*
X191232187Y-111492809D01*
X191117093Y-111406649D01*
X191117086Y-111406645D01*
X190982379Y-111356403D01*
X190982372Y-111356401D01*
X190922844Y-111350000D01*
X190225000Y-111350000D01*
X190225000Y-112374722D01*
X190148694Y-112330667D01*
X190034244Y-112300000D01*
X189915756Y-112300000D01*
X189801306Y-112330667D01*
X189725000Y-112374722D01*
X189725000Y-111350000D01*
X189027155Y-111350000D01*
X188967627Y-111356401D01*
X188967620Y-111356403D01*
X188832913Y-111406645D01*
X188832906Y-111406649D01*
X188717812Y-111492809D01*
X188717809Y-111492812D01*
X188631649Y-111607906D01*
X188631645Y-111607913D01*
X188581403Y-111742620D01*
X188581401Y-111742627D01*
X188575000Y-111802155D01*
X188575000Y-112500000D01*
X189599722Y-112500000D01*
X189555667Y-112576306D01*
X189525000Y-112690756D01*
X189525000Y-112809244D01*
X189555667Y-112923694D01*
X189599722Y-113000000D01*
X188637729Y-113000000D01*
X188570690Y-112980315D01*
X188550048Y-112963681D01*
X188462367Y-112876000D01*
X188212368Y-112626000D01*
X188043421Y-112457052D01*
X188043414Y-112457046D01*
X187969729Y-112407812D01*
X187969729Y-112407813D01*
X187920491Y-112374913D01*
X187783917Y-112318343D01*
X187783907Y-112318340D01*
X187638920Y-112289500D01*
X187638918Y-112289500D01*
X186625801Y-112289500D01*
X186558762Y-112269815D01*
X186513007Y-112217011D01*
X186503063Y-112147853D01*
X186507870Y-112127183D01*
X186518475Y-112094542D01*
X186518475Y-112094538D01*
X186518477Y-112094534D01*
X186550500Y-111892352D01*
X186550500Y-111687648D01*
X186537870Y-111607906D01*
X186518477Y-111485465D01*
X186468065Y-111330315D01*
X186455220Y-111290781D01*
X186455218Y-111290778D01*
X186455218Y-111290776D01*
X186421503Y-111224607D01*
X186362287Y-111108390D01*
X186354556Y-111097749D01*
X186241971Y-110942786D01*
X186097213Y-110798028D01*
X185931614Y-110677715D01*
X185917316Y-110670430D01*
X185838917Y-110630483D01*
X185788123Y-110582511D01*
X185771328Y-110514690D01*
X185793865Y-110448555D01*
X185838917Y-110409516D01*
X185931610Y-110362287D01*
X186028390Y-110291973D01*
X186097213Y-110241971D01*
X186097215Y-110241968D01*
X186097219Y-110241966D01*
X186241966Y-110097219D01*
X186241968Y-110097215D01*
X186241971Y-110097213D01*
X186308611Y-110005489D01*
X186362287Y-109931610D01*
X186455220Y-109749219D01*
X186518477Y-109554534D01*
X186550500Y-109352352D01*
X186550500Y-109147648D01*
X186518477Y-108945466D01*
X186517643Y-108942900D01*
X186455218Y-108750776D01*
X186421503Y-108684607D01*
X186362287Y-108568390D01*
X186354556Y-108557749D01*
X186241971Y-108402786D01*
X186097213Y-108258028D01*
X185931611Y-108137713D01*
X185838369Y-108090203D01*
X185787574Y-108042229D01*
X185770779Y-107974407D01*
X185793317Y-107908273D01*
X185838371Y-107869234D01*
X185931346Y-107821861D01*
X185931347Y-107821861D01*
X185975921Y-107789474D01*
X185296447Y-107110000D01*
X185302661Y-107110000D01*
X185404394Y-107082741D01*
X185495606Y-107030080D01*
X185570080Y-106955606D01*
X185622741Y-106864394D01*
X185650000Y-106762661D01*
X185650000Y-106756447D01*
X186329474Y-107435921D01*
X186361859Y-107391349D01*
X186454755Y-107209031D01*
X186517990Y-107014417D01*
X186550000Y-106812317D01*
X186550000Y-106607682D01*
X186517990Y-106405582D01*
X186454755Y-106210968D01*
X186361859Y-106028650D01*
X186329474Y-105984077D01*
X186329474Y-105984076D01*
X185650000Y-106663551D01*
X185650000Y-106657339D01*
X185622741Y-106555606D01*
X185570080Y-106464394D01*
X185495606Y-106389920D01*
X185404394Y-106337259D01*
X185302661Y-106310000D01*
X185296446Y-106310000D01*
X185975922Y-105630524D01*
X185975921Y-105630523D01*
X185931359Y-105598147D01*
X185931350Y-105598141D01*
X185838369Y-105550765D01*
X185787573Y-105502790D01*
X185770778Y-105434969D01*
X185793315Y-105368835D01*
X185838370Y-105329795D01*
X185931610Y-105282287D01*
X185981144Y-105246298D01*
X186097213Y-105161971D01*
X186097215Y-105161968D01*
X186097219Y-105161966D01*
X186241966Y-105017219D01*
X186241968Y-105017215D01*
X186241971Y-105017213D01*
X186326774Y-104900490D01*
X186362287Y-104851610D01*
X186455220Y-104669219D01*
X186518477Y-104474534D01*
X186550500Y-104272352D01*
X186550500Y-104067648D01*
X186550500Y-104067647D01*
X186518477Y-103865465D01*
X186455218Y-103670776D01*
X186421503Y-103604607D01*
X186362287Y-103488390D01*
X186298432Y-103400500D01*
X186241971Y-103322786D01*
X186097217Y-103178032D01*
X186097212Y-103178028D01*
X185943050Y-103066024D01*
X185943047Y-103066022D01*
X185931610Y-103057713D01*
X185837856Y-103009943D01*
X185836879Y-103009422D01*
X185812723Y-102985745D01*
X185788123Y-102962511D01*
X185787835Y-102961349D01*
X185786982Y-102960513D01*
X185779464Y-102927545D01*
X185771328Y-102894690D01*
X185771713Y-102893557D01*
X185771448Y-102892392D01*
X185782952Y-102860579D01*
X185793865Y-102828555D01*
X185794837Y-102827712D01*
X185795208Y-102826687D01*
X185802099Y-102821419D01*
X185838917Y-102789516D01*
X185931610Y-102742287D01*
X185989811Y-102700002D01*
X186097213Y-102621971D01*
X186097215Y-102621968D01*
X186097219Y-102621966D01*
X186241966Y-102477219D01*
X186241968Y-102477215D01*
X186241971Y-102477213D01*
X186322325Y-102366613D01*
X186362287Y-102311610D01*
X186455220Y-102129219D01*
X186518477Y-101934534D01*
X186550500Y-101732352D01*
X186550500Y-101527648D01*
X186518477Y-101325466D01*
X186513582Y-101310402D01*
X186455218Y-101130776D01*
X186386093Y-100995112D01*
X186362287Y-100948390D01*
X186344551Y-100923978D01*
X186241971Y-100782786D01*
X186097213Y-100638028D01*
X185931614Y-100517715D01*
X185925006Y-100514348D01*
X185838917Y-100470483D01*
X185788123Y-100422511D01*
X185771328Y-100354690D01*
X185793865Y-100288555D01*
X185838917Y-100249516D01*
X185931610Y-100202287D01*
X186060482Y-100108657D01*
X186097213Y-100081971D01*
X186097215Y-100081968D01*
X186097219Y-100081966D01*
X186241966Y-99937219D01*
X186244650Y-99933524D01*
X186275100Y-99891615D01*
X186330429Y-99848949D01*
X186375418Y-99840500D01*
X195364950Y-99840500D01*
X195431989Y-99860185D01*
X195477744Y-99912989D01*
X195488685Y-99972610D01*
X195487453Y-99991400D01*
X196395011Y-100898958D01*
X196334610Y-100923978D01*
X196228149Y-100995112D01*
X196137612Y-101085649D01*
X196066478Y-101192110D01*
X196041458Y-101252511D01*
X195133900Y-100344953D01*
X195133899Y-100344953D01*
X195059323Y-100442143D01*
X194934785Y-100657847D01*
X194934783Y-100657851D01*
X194839473Y-100887950D01*
X194775008Y-101128536D01*
X194742500Y-101375466D01*
X194742500Y-101624533D01*
X194775008Y-101871463D01*
X194839473Y-102112049D01*
X194934783Y-102342148D01*
X194934788Y-102342159D01*
X195059313Y-102557841D01*
X195059319Y-102557849D01*
X195133900Y-102655045D01*
X196041458Y-101747487D01*
X196066478Y-101807890D01*
X196137612Y-101914351D01*
X196228149Y-102004888D01*
X196334610Y-102076022D01*
X196395011Y-102101041D01*
X195487453Y-103008598D01*
X195584650Y-103083180D01*
X195584658Y-103083186D01*
X195800340Y-103207711D01*
X195800351Y-103207716D01*
X196030450Y-103303026D01*
X196271036Y-103367491D01*
X196517966Y-103400000D01*
X196767034Y-103400000D01*
X197013963Y-103367491D01*
X197254549Y-103303026D01*
X197484648Y-103207716D01*
X197484659Y-103207711D01*
X197700355Y-103083178D01*
X197797545Y-103008600D01*
X197797545Y-103008597D01*
X196889988Y-102101041D01*
X196950390Y-102076022D01*
X197056851Y-102004888D01*
X197147388Y-101914351D01*
X197218522Y-101807890D01*
X197243541Y-101747489D01*
X198151097Y-102655045D01*
X198151100Y-102655045D01*
X198225678Y-102557855D01*
X198350211Y-102342159D01*
X198350216Y-102342148D01*
X198445526Y-102112049D01*
X198509991Y-101871463D01*
X198542500Y-101624533D01*
X198542500Y-101375466D01*
X198509991Y-101128536D01*
X198445526Y-100887950D01*
X198350216Y-100657851D01*
X198350211Y-100657840D01*
X198225686Y-100442158D01*
X198225680Y-100442150D01*
X198151098Y-100344953D01*
X197243541Y-101252510D01*
X197218522Y-101192110D01*
X197147388Y-101085649D01*
X197056851Y-100995112D01*
X196950390Y-100923978D01*
X196889987Y-100898957D01*
X197797545Y-99991400D01*
X197796314Y-99972610D01*
X197811572Y-99904426D01*
X197861271Y-99855316D01*
X197920049Y-99840500D01*
X198870270Y-99840500D01*
X198937309Y-99860185D01*
X198957951Y-99876819D01*
X199818465Y-100737333D01*
X199851950Y-100798656D01*
X199846966Y-100868348D01*
X199845347Y-100872462D01*
X199839002Y-100887779D01*
X199838999Y-100887790D01*
X199774517Y-101128438D01*
X199742001Y-101375424D01*
X199742000Y-101375441D01*
X199742000Y-101624558D01*
X199742001Y-101624575D01*
X199774517Y-101871561D01*
X199838998Y-102112207D01*
X199934330Y-102342361D01*
X199934337Y-102342376D01*
X200058900Y-102558126D01*
X200210560Y-102755774D01*
X200210566Y-102755781D01*
X200386718Y-102931933D01*
X200386725Y-102931939D01*
X200584373Y-103083599D01*
X200800123Y-103208162D01*
X200800138Y-103208169D01*
X200892000Y-103246219D01*
X201030293Y-103303502D01*
X201270935Y-103367982D01*
X201517935Y-103400500D01*
X201517942Y-103400500D01*
X201767058Y-103400500D01*
X201767065Y-103400500D01*
X202014065Y-103367982D01*
X202254707Y-103303502D01*
X202484873Y-103208164D01*
X202700627Y-103083599D01*
X202898276Y-102931938D01*
X203074438Y-102755776D01*
X203226099Y-102558127D01*
X203350664Y-102342373D01*
X203446002Y-102112207D01*
X203510482Y-101871565D01*
X203543000Y-101624565D01*
X203543000Y-101375435D01*
X203510482Y-101128435D01*
X203446002Y-100887793D01*
X203383679Y-100737333D01*
X203350669Y-100657638D01*
X203350662Y-100657623D01*
X203226099Y-100441873D01*
X203074439Y-100244225D01*
X203074433Y-100244218D01*
X202898281Y-100068066D01*
X202898274Y-100068060D01*
X202700626Y-99916400D01*
X202484876Y-99791837D01*
X202484861Y-99791830D01*
X202254707Y-99696498D01*
X202137849Y-99665186D01*
X202014065Y-99632018D01*
X202014064Y-99632017D01*
X202014061Y-99632017D01*
X201767075Y-99599501D01*
X201767070Y-99599500D01*
X201767065Y-99599500D01*
X201517935Y-99599500D01*
X201517929Y-99599500D01*
X201517924Y-99599501D01*
X201270938Y-99632017D01*
X201270931Y-99632019D01*
X201030293Y-99696498D01*
X201030291Y-99696498D01*
X201030290Y-99696499D01*
X201030279Y-99696502D01*
X201014962Y-99702847D01*
X200945492Y-99710313D01*
X200883014Y-99679035D01*
X200879833Y-99675965D01*
X200680390Y-99476522D01*
X200597581Y-99393713D01*
X212649500Y-99393713D01*
X212649500Y-99606287D01*
X212653576Y-99632019D01*
X212678093Y-99786819D01*
X212682754Y-99816243D01*
X212742796Y-100001033D01*
X212748444Y-100018414D01*
X212844951Y-100207820D01*
X212969890Y-100379786D01*
X213120213Y-100530109D01*
X213292179Y-100655048D01*
X213292181Y-100655049D01*
X213292184Y-100655051D01*
X213481588Y-100751557D01*
X213683757Y-100817246D01*
X213893713Y-100850500D01*
X213893714Y-100850500D01*
X214106286Y-100850500D01*
X214106287Y-100850500D01*
X214316243Y-100817246D01*
X214518412Y-100751557D01*
X214707816Y-100655051D01*
X214742807Y-100629629D01*
X214879786Y-100530109D01*
X214879788Y-100530106D01*
X214879792Y-100530104D01*
X215030104Y-100379792D01*
X215030106Y-100379788D01*
X215030109Y-100379786D01*
X215155048Y-100207820D01*
X215155047Y-100207820D01*
X215155051Y-100207816D01*
X215251557Y-100018412D01*
X215317246Y-99816243D01*
X215350500Y-99606287D01*
X215350500Y-99393713D01*
X215317246Y-99183757D01*
X215251557Y-98981588D01*
X215155051Y-98792184D01*
X215155049Y-98792181D01*
X215155048Y-98792179D01*
X215030109Y-98620213D01*
X214879786Y-98469890D01*
X214707820Y-98344951D01*
X214518414Y-98248444D01*
X214518413Y-98248443D01*
X214518412Y-98248443D01*
X214316243Y-98182754D01*
X214316241Y-98182753D01*
X214316240Y-98182753D01*
X214154957Y-98157208D01*
X214106287Y-98149500D01*
X213893713Y-98149500D01*
X213845042Y-98157208D01*
X213683760Y-98182753D01*
X213481585Y-98248444D01*
X213292179Y-98344951D01*
X213120213Y-98469890D01*
X212969890Y-98620213D01*
X212844951Y-98792179D01*
X212748444Y-98981585D01*
X212682753Y-99183760D01*
X212672575Y-99248025D01*
X212649500Y-99393713D01*
X200597581Y-99393713D01*
X199710921Y-98507052D01*
X199710914Y-98507046D01*
X199637229Y-98457812D01*
X199637229Y-98457813D01*
X199587991Y-98424913D01*
X199451417Y-98368343D01*
X199451407Y-98368340D01*
X199306420Y-98339500D01*
X199306418Y-98339500D01*
X186375418Y-98339500D01*
X186308379Y-98319815D01*
X186275100Y-98288385D01*
X186241971Y-98242787D01*
X186241967Y-98242782D01*
X186097213Y-98098028D01*
X185931613Y-97977715D01*
X185931612Y-97977714D01*
X185931610Y-97977713D01*
X185871898Y-97947288D01*
X185749223Y-97884781D01*
X185554534Y-97821522D01*
X185379995Y-97793878D01*
X185352352Y-97789500D01*
X185147648Y-97789500D01*
X185123329Y-97793351D01*
X184945465Y-97821522D01*
X184750776Y-97884781D01*
X184568386Y-97977715D01*
X184402786Y-98098028D01*
X184258028Y-98242786D01*
X184137715Y-98408386D01*
X184044781Y-98590776D01*
X183981522Y-98785465D01*
X183949500Y-98987648D01*
X183949500Y-99192351D01*
X183958318Y-99248025D01*
X183949364Y-99317318D01*
X183923526Y-99355104D01*
X179140933Y-104137697D01*
X179079610Y-104171182D01*
X179009918Y-104166198D01*
X178953985Y-104124326D01*
X178930779Y-104069414D01*
X178930500Y-104067652D01*
X178930500Y-104067648D01*
X178898477Y-103865466D01*
X178835220Y-103670781D01*
X178835218Y-103670778D01*
X178835218Y-103670776D01*
X178801503Y-103604607D01*
X178742287Y-103488390D01*
X178678432Y-103400500D01*
X178621971Y-103322786D01*
X178477213Y-103178028D01*
X178311614Y-103057715D01*
X178305006Y-103054348D01*
X178218917Y-103010483D01*
X178168123Y-102962511D01*
X178151328Y-102894690D01*
X178173865Y-102828555D01*
X178218917Y-102789516D01*
X178311610Y-102742287D01*
X178369811Y-102700002D01*
X178477213Y-102621971D01*
X178477215Y-102621968D01*
X178477219Y-102621966D01*
X178621966Y-102477219D01*
X178621968Y-102477215D01*
X178621971Y-102477213D01*
X178702325Y-102366613D01*
X178742287Y-102311610D01*
X178835220Y-102129219D01*
X178898477Y-101934534D01*
X178930500Y-101732352D01*
X178930500Y-101527648D01*
X178906396Y-101375466D01*
X178898477Y-101325465D01*
X178835218Y-101130776D01*
X178766093Y-100995112D01*
X178742287Y-100948390D01*
X178724551Y-100923978D01*
X178621971Y-100782786D01*
X178477219Y-100638034D01*
X178465650Y-100629629D01*
X178383547Y-100569978D01*
X178340882Y-100514649D01*
X178334903Y-100445036D01*
X178367508Y-100383240D01*
X178417426Y-100351955D01*
X178499334Y-100324814D01*
X178648656Y-100232712D01*
X178772712Y-100108656D01*
X178864814Y-99959334D01*
X178919999Y-99792797D01*
X178930500Y-99690009D01*
X178930499Y-98489992D01*
X178919999Y-98387203D01*
X178864814Y-98220666D01*
X178772712Y-98071344D01*
X178648656Y-97947288D01*
X178499334Y-97855186D01*
X178332797Y-97800001D01*
X178332795Y-97800000D01*
X178230010Y-97789500D01*
X177029998Y-97789500D01*
X177029981Y-97789501D01*
X176927203Y-97800000D01*
X176927200Y-97800001D01*
X176760668Y-97855185D01*
X176760663Y-97855187D01*
X176611342Y-97947289D01*
X176487289Y-98071342D01*
X176395187Y-98220663D01*
X176395185Y-98220668D01*
X176385981Y-98248444D01*
X176340001Y-98387203D01*
X176340001Y-98387204D01*
X176340000Y-98387204D01*
X176329500Y-98489983D01*
X176329500Y-99690001D01*
X176329501Y-99690018D01*
X176340000Y-99792796D01*
X176340001Y-99792799D01*
X176395185Y-99959331D01*
X176395187Y-99959336D01*
X176414964Y-99991399D01*
X176487288Y-100108656D01*
X176611344Y-100232712D01*
X176760666Y-100324814D01*
X176842570Y-100351954D01*
X176900015Y-100391727D01*
X176926838Y-100456243D01*
X176914523Y-100525018D01*
X176876451Y-100569978D01*
X176782787Y-100638028D01*
X176782782Y-100638032D01*
X176638028Y-100782786D01*
X176517715Y-100948386D01*
X176424781Y-101130776D01*
X176361522Y-101325465D01*
X176329220Y-101529415D01*
X176299291Y-101592550D01*
X176239979Y-101629481D01*
X176170117Y-101628483D01*
X176119066Y-101597698D01*
X172938421Y-98417052D01*
X172938420Y-98417051D01*
X172822355Y-98339500D01*
X172822354Y-98339499D01*
X172815491Y-98334913D01*
X172678917Y-98278343D01*
X172678907Y-98278340D01*
X172533920Y-98249500D01*
X172533918Y-98249500D01*
X159926082Y-98249500D01*
X159926080Y-98249500D01*
X159781092Y-98278340D01*
X159781082Y-98278343D01*
X159644508Y-98334913D01*
X159637646Y-98339499D01*
X159637645Y-98339500D01*
X159521579Y-98417051D01*
X159521578Y-98417052D01*
X158367048Y-99571583D01*
X158367046Y-99571585D01*
X158326671Y-99632015D01*
X158326669Y-99632018D01*
X158326342Y-99632508D01*
X158284917Y-99694503D01*
X158284913Y-99694510D01*
X158228344Y-99831081D01*
X158228341Y-99831091D01*
X158199501Y-99976078D01*
X158199501Y-100535916D01*
X158179816Y-100602955D01*
X158127012Y-100648710D01*
X158057854Y-100658654D01*
X157994298Y-100629629D01*
X157968114Y-100597917D01*
X157878181Y-100442151D01*
X157878180Y-100442150D01*
X157803598Y-100344953D01*
X156896041Y-101252510D01*
X156871022Y-101192110D01*
X156799888Y-101085649D01*
X156709351Y-100995112D01*
X156602890Y-100923978D01*
X156542487Y-100898957D01*
X157450045Y-99991400D01*
X157352849Y-99916819D01*
X157352841Y-99916813D01*
X157137159Y-99792288D01*
X157137148Y-99792283D01*
X156907049Y-99696973D01*
X156666463Y-99632508D01*
X156419534Y-99600000D01*
X156170466Y-99600000D01*
X155923536Y-99632508D01*
X155682950Y-99696973D01*
X155452851Y-99792283D01*
X155452847Y-99792285D01*
X155237143Y-99916823D01*
X155139953Y-99991399D01*
X155139953Y-99991400D01*
X156047511Y-100898958D01*
X155987110Y-100923978D01*
X155880649Y-100995112D01*
X155790112Y-101085649D01*
X155718978Y-101192110D01*
X155693958Y-101252511D01*
X154786400Y-100344953D01*
X154786399Y-100344953D01*
X154711823Y-100442143D01*
X154587285Y-100657847D01*
X154587283Y-100657851D01*
X154491973Y-100887950D01*
X154427508Y-101128536D01*
X154395000Y-101375466D01*
X154395000Y-101624533D01*
X154427508Y-101871463D01*
X154491973Y-102112049D01*
X154587283Y-102342148D01*
X154587288Y-102342159D01*
X154711813Y-102557841D01*
X154711819Y-102557849D01*
X154786400Y-102655045D01*
X155693958Y-101747487D01*
X155718978Y-101807890D01*
X155790112Y-101914351D01*
X155880649Y-102004888D01*
X155987110Y-102076022D01*
X156047511Y-102101041D01*
X155139953Y-103008598D01*
X155237150Y-103083180D01*
X155237158Y-103083186D01*
X155452840Y-103207711D01*
X155452851Y-103207716D01*
X155682950Y-103303026D01*
X155923536Y-103367491D01*
X156170466Y-103400000D01*
X156419534Y-103400000D01*
X156666463Y-103367491D01*
X156907049Y-103303026D01*
X157137148Y-103207716D01*
X157137159Y-103207711D01*
X157352855Y-103083178D01*
X157450045Y-103008600D01*
X157450045Y-103008597D01*
X156542488Y-102101041D01*
X156602890Y-102076022D01*
X156709351Y-102004888D01*
X156799888Y-101914351D01*
X156871022Y-101807890D01*
X156896041Y-101747489D01*
X157803597Y-102655045D01*
X157803600Y-102655045D01*
X157878178Y-102557855D01*
X157968114Y-102402083D01*
X158018681Y-102353867D01*
X158087288Y-102340645D01*
X158152153Y-102366613D01*
X158192681Y-102423527D01*
X158199501Y-102464083D01*
X158199501Y-109723919D01*
X158199501Y-109723921D01*
X158199500Y-109723921D01*
X158228341Y-109868908D01*
X158228344Y-109868918D01*
X158284913Y-110005489D01*
X158284921Y-110005503D01*
X158310224Y-110043371D01*
X158313326Y-110048013D01*
X158367049Y-110128417D01*
X158428194Y-110189561D01*
X158432344Y-110194704D01*
X158443305Y-110221115D01*
X158457011Y-110246216D01*
X158457254Y-110254726D01*
X158459126Y-110259237D01*
X158457621Y-110267605D01*
X158458318Y-110291972D01*
X158449500Y-110347647D01*
X158449500Y-110552351D01*
X158481522Y-110754534D01*
X158544781Y-110949223D01*
X158637715Y-111131613D01*
X158758028Y-111297213D01*
X158902786Y-111441971D01*
X159054486Y-111552185D01*
X159068390Y-111562287D01*
X159157936Y-111607913D01*
X159250776Y-111655218D01*
X159250778Y-111655218D01*
X159250781Y-111655220D01*
X159332457Y-111681758D01*
X159445465Y-111718477D01*
X159529564Y-111731797D01*
X159647648Y-111750500D01*
X159647649Y-111750500D01*
X159852351Y-111750500D01*
X159852352Y-111750500D01*
X160054534Y-111718477D01*
X160249219Y-111655220D01*
X160431610Y-111562287D01*
X160583264Y-111452105D01*
X160597213Y-111441971D01*
X160597215Y-111441968D01*
X160597219Y-111441966D01*
X160741966Y-111297219D01*
X160741968Y-111297215D01*
X160741971Y-111297213D01*
X160794732Y-111224590D01*
X160862287Y-111131610D01*
X160955220Y-110949219D01*
X161018477Y-110754534D01*
X161050500Y-110552352D01*
X161050500Y-110347648D01*
X161035782Y-110254726D01*
X161018477Y-110145465D01*
X160955218Y-109950776D01*
X160913509Y-109868918D01*
X160862287Y-109768390D01*
X160854556Y-109757749D01*
X160741971Y-109602786D01*
X160597213Y-109458028D01*
X160431613Y-109337715D01*
X160431612Y-109337714D01*
X160431610Y-109337713D01*
X160374653Y-109308691D01*
X160249223Y-109244781D01*
X160054534Y-109181522D01*
X159879995Y-109153878D01*
X159852352Y-109149500D01*
X159852351Y-109149500D01*
X159824501Y-109149500D01*
X159757462Y-109129815D01*
X159711707Y-109077011D01*
X159700501Y-109025500D01*
X159700501Y-102892578D01*
X159720186Y-102825539D01*
X159772990Y-102779784D01*
X159842148Y-102769840D01*
X159905704Y-102798865D01*
X159912182Y-102804897D01*
X160039218Y-102931933D01*
X160039225Y-102931939D01*
X160236873Y-103083599D01*
X160452623Y-103208162D01*
X160452624Y-103208162D01*
X160452627Y-103208164D01*
X160467354Y-103214264D01*
X160467950Y-103214511D01*
X160522354Y-103258351D01*
X160544421Y-103324644D01*
X160544500Y-103329073D01*
X160544500Y-104618918D01*
X160544500Y-104618920D01*
X160544499Y-104618920D01*
X160573340Y-104763907D01*
X160573343Y-104763917D01*
X160629913Y-104900490D01*
X160629914Y-104900491D01*
X160629916Y-104900495D01*
X160643282Y-104920498D01*
X160643283Y-104920501D01*
X160712046Y-105023414D01*
X160712052Y-105023421D01*
X161691584Y-106002952D01*
X161691586Y-106002954D01*
X161716965Y-106019910D01*
X161729656Y-106028390D01*
X161814505Y-106085084D01*
X161951087Y-106141658D01*
X161951091Y-106141658D01*
X161951092Y-106141659D01*
X162096079Y-106170500D01*
X162096082Y-106170500D01*
X162096083Y-106170500D01*
X162243918Y-106170500D01*
X176267197Y-106170500D01*
X176289014Y-106176906D01*
X176311675Y-106178752D01*
X176321895Y-106186561D01*
X176334236Y-106190185D01*
X176349123Y-106207366D01*
X176367193Y-106221173D01*
X176371569Y-106233269D01*
X176379991Y-106242989D01*
X176383226Y-106265493D01*
X176390962Y-106286875D01*
X176388776Y-106304088D01*
X176389935Y-106312147D01*
X176388097Y-106322053D01*
X176386855Y-106327500D01*
X176361523Y-106405466D01*
X176344284Y-106514300D01*
X176343359Y-106518362D01*
X176328260Y-106545375D01*
X176315002Y-106573343D01*
X176310140Y-106578490D01*
X173765104Y-109123526D01*
X173703781Y-109157011D01*
X173658025Y-109158318D01*
X173602352Y-109149500D01*
X173397648Y-109149500D01*
X173373329Y-109153351D01*
X173195465Y-109181522D01*
X173000776Y-109244781D01*
X172818386Y-109337715D01*
X172652786Y-109458028D01*
X172508028Y-109602786D01*
X172387715Y-109768386D01*
X172294781Y-109950776D01*
X172231522Y-110145465D01*
X172199500Y-110347648D01*
X172199500Y-110552351D01*
X172231522Y-110754534D01*
X172294781Y-110949223D01*
X172387715Y-111131613D01*
X172508028Y-111297213D01*
X172652786Y-111441971D01*
X172804486Y-111552185D01*
X172818390Y-111562287D01*
X172907936Y-111607913D01*
X173000776Y-111655218D01*
X173000778Y-111655218D01*
X173000781Y-111655220D01*
X173082457Y-111681758D01*
X173195465Y-111718477D01*
X173279564Y-111731797D01*
X173397648Y-111750500D01*
X173397649Y-111750500D01*
X173602351Y-111750500D01*
X173602352Y-111750500D01*
X173804534Y-111718477D01*
X173999219Y-111655220D01*
X174181610Y-111562287D01*
X174333264Y-111452105D01*
X174347213Y-111441971D01*
X174347215Y-111441968D01*
X174347219Y-111441966D01*
X174491966Y-111297219D01*
X174491968Y-111297215D01*
X174491971Y-111297213D01*
X174544732Y-111224590D01*
X174612287Y-111131610D01*
X174705220Y-110949219D01*
X174768477Y-110754534D01*
X174800500Y-110552352D01*
X174800500Y-110347648D01*
X174791681Y-110291971D01*
X174800635Y-110222680D01*
X174826470Y-110184896D01*
X176147303Y-108864063D01*
X176208624Y-108830580D01*
X176278316Y-108835564D01*
X176334249Y-108877436D01*
X176358666Y-108942900D01*
X176357455Y-108971143D01*
X176329500Y-109147647D01*
X176329500Y-109352351D01*
X176361522Y-109554534D01*
X176424781Y-109749223D01*
X176517715Y-109931613D01*
X176638028Y-110097213D01*
X176782786Y-110241971D01*
X176928241Y-110347648D01*
X176948390Y-110362287D01*
X177039840Y-110408883D01*
X177041080Y-110409515D01*
X177091876Y-110457490D01*
X177108671Y-110525311D01*
X177086134Y-110591446D01*
X177041080Y-110630485D01*
X176948386Y-110677715D01*
X176782786Y-110798028D01*
X176638028Y-110942786D01*
X176517715Y-111108386D01*
X176424781Y-111290776D01*
X176361522Y-111485465D01*
X176329500Y-111687648D01*
X176329500Y-111892351D01*
X176361523Y-112094535D01*
X176361524Y-112094542D01*
X176372130Y-112127183D01*
X176374125Y-112197024D01*
X176338044Y-112256857D01*
X176275343Y-112287684D01*
X176254199Y-112289500D01*
X166292229Y-112289500D01*
X166225190Y-112269815D01*
X166204548Y-112253181D01*
X164666473Y-110715106D01*
X164632988Y-110653783D01*
X164631681Y-110608028D01*
X164640500Y-110552352D01*
X164640500Y-110347648D01*
X164625782Y-110254726D01*
X164608477Y-110145465D01*
X164545218Y-109950776D01*
X164503509Y-109868918D01*
X164452287Y-109768390D01*
X164444556Y-109757749D01*
X164331971Y-109602786D01*
X164187213Y-109458028D01*
X164021613Y-109337715D01*
X164021612Y-109337714D01*
X164021610Y-109337713D01*
X163964653Y-109308691D01*
X163839223Y-109244781D01*
X163644534Y-109181522D01*
X163469995Y-109153878D01*
X163442352Y-109149500D01*
X163237648Y-109149500D01*
X163213329Y-109153351D01*
X163035465Y-109181522D01*
X162840776Y-109244781D01*
X162658386Y-109337715D01*
X162492786Y-109458028D01*
X162348028Y-109602786D01*
X162227715Y-109768386D01*
X162134781Y-109950776D01*
X162071522Y-110145465D01*
X162039500Y-110347648D01*
X162039500Y-110552351D01*
X162071522Y-110754534D01*
X162134781Y-110949223D01*
X162227715Y-111131613D01*
X162348028Y-111297213D01*
X162492786Y-111441971D01*
X162644486Y-111552185D01*
X162658390Y-111562287D01*
X162747936Y-111607913D01*
X162840776Y-111655218D01*
X162840778Y-111655218D01*
X162840781Y-111655220D01*
X162922457Y-111681758D01*
X163035465Y-111718477D01*
X163119564Y-111731797D01*
X163237648Y-111750500D01*
X163237649Y-111750500D01*
X163442350Y-111750500D01*
X163442352Y-111750500D01*
X163498027Y-111741681D01*
X163567319Y-111750635D01*
X163605106Y-111776473D01*
X165347049Y-113518416D01*
X165439683Y-113611050D01*
X165451585Y-113622952D01*
X165574498Y-113705080D01*
X165574511Y-113705087D01*
X165711082Y-113761656D01*
X165711087Y-113761658D01*
X165711091Y-113761658D01*
X165711092Y-113761659D01*
X165856079Y-113790500D01*
X165856082Y-113790500D01*
X165856083Y-113790500D01*
X166003917Y-113790500D01*
X172199574Y-113790500D01*
X172266613Y-113810185D01*
X172312368Y-113862989D01*
X172322312Y-113932147D01*
X172310058Y-113970796D01*
X172294782Y-114000774D01*
X172231522Y-114195465D01*
X172199500Y-114397648D01*
X172199500Y-114602351D01*
X172231522Y-114804534D01*
X172294781Y-114999223D01*
X172387715Y-115181613D01*
X172508028Y-115347213D01*
X172652786Y-115491971D01*
X172807749Y-115604556D01*
X172818390Y-115612287D01*
X172916960Y-115662511D01*
X173000776Y-115705218D01*
X173000778Y-115705218D01*
X173000781Y-115705220D01*
X173105137Y-115739127D01*
X173195465Y-115768477D01*
X173279564Y-115781797D01*
X173397648Y-115800500D01*
X173397649Y-115800500D01*
X173602351Y-115800500D01*
X173602352Y-115800500D01*
X173804534Y-115768477D01*
X173999219Y-115705220D01*
X174181610Y-115612287D01*
X174284560Y-115537490D01*
X174347213Y-115491971D01*
X174347215Y-115491968D01*
X174347219Y-115491966D01*
X174491966Y-115347219D01*
X174510310Y-115321971D01*
X174525100Y-115301615D01*
X174580429Y-115258949D01*
X174625418Y-115250500D01*
X176659953Y-115250500D01*
X176726992Y-115270185D01*
X176747634Y-115286819D01*
X176782786Y-115321971D01*
X176948385Y-115442284D01*
X176948387Y-115442285D01*
X176948390Y-115442287D01*
X177041080Y-115489515D01*
X177041630Y-115489795D01*
X177092426Y-115537770D01*
X177109221Y-115605591D01*
X177086684Y-115671725D01*
X177041630Y-115710765D01*
X176948644Y-115758143D01*
X176904077Y-115790523D01*
X176904077Y-115790524D01*
X177583554Y-116470000D01*
X177577339Y-116470000D01*
X177475606Y-116497259D01*
X177384394Y-116549920D01*
X177309920Y-116624394D01*
X177257259Y-116715606D01*
X177230000Y-116817339D01*
X177230000Y-116823553D01*
X176550524Y-116144077D01*
X176550523Y-116144077D01*
X176518143Y-116188644D01*
X176425244Y-116370968D01*
X176362009Y-116565582D01*
X176330000Y-116767682D01*
X176330000Y-116972317D01*
X176362010Y-117174418D01*
X176362011Y-117174425D01*
X176372655Y-117207183D01*
X176374650Y-117277024D01*
X176338569Y-117336857D01*
X176275868Y-117367684D01*
X176254724Y-117369500D01*
X153572229Y-117369500D01*
X153505190Y-117349815D01*
X153484548Y-117333181D01*
X150916473Y-114765106D01*
X150882988Y-114703783D01*
X150881681Y-114658028D01*
X150890500Y-114602352D01*
X150890500Y-114397648D01*
X158449500Y-114397648D01*
X158449500Y-114602351D01*
X158481522Y-114804534D01*
X158544781Y-114999223D01*
X158637715Y-115181613D01*
X158758028Y-115347213D01*
X158902786Y-115491971D01*
X159057749Y-115604556D01*
X159068390Y-115612287D01*
X159166960Y-115662511D01*
X159250776Y-115705218D01*
X159250778Y-115705218D01*
X159250781Y-115705220D01*
X159355137Y-115739127D01*
X159445465Y-115768477D01*
X159529564Y-115781797D01*
X159647648Y-115800500D01*
X159647649Y-115800500D01*
X159852351Y-115800500D01*
X159852352Y-115800500D01*
X160054534Y-115768477D01*
X160249219Y-115705220D01*
X160431610Y-115612287D01*
X160534560Y-115537490D01*
X160597213Y-115491971D01*
X160597215Y-115491968D01*
X160597219Y-115491966D01*
X160741966Y-115347219D01*
X160741968Y-115347215D01*
X160741971Y-115347213D01*
X160812236Y-115250500D01*
X160862287Y-115181610D01*
X160955220Y-114999219D01*
X161018477Y-114804534D01*
X161050500Y-114602352D01*
X161050500Y-114397648D01*
X162039500Y-114397648D01*
X162039500Y-114602351D01*
X162071522Y-114804534D01*
X162134781Y-114999223D01*
X162227715Y-115181613D01*
X162348028Y-115347213D01*
X162492786Y-115491971D01*
X162647749Y-115604556D01*
X162658390Y-115612287D01*
X162756960Y-115662511D01*
X162840776Y-115705218D01*
X162840778Y-115705218D01*
X162840781Y-115705220D01*
X162945137Y-115739127D01*
X163035465Y-115768477D01*
X163119564Y-115781797D01*
X163237648Y-115800500D01*
X163237649Y-115800500D01*
X163442351Y-115800500D01*
X163442352Y-115800500D01*
X163644534Y-115768477D01*
X163839219Y-115705220D01*
X164021610Y-115612287D01*
X164124560Y-115537490D01*
X164187213Y-115491971D01*
X164187215Y-115491968D01*
X164187219Y-115491966D01*
X164331966Y-115347219D01*
X164331968Y-115347215D01*
X164331971Y-115347213D01*
X164402236Y-115250500D01*
X164452287Y-115181610D01*
X164545220Y-114999219D01*
X164608477Y-114804534D01*
X164640500Y-114602352D01*
X164640500Y-114397648D01*
X164608477Y-114195466D01*
X164591623Y-114143596D01*
X164575297Y-114093350D01*
X164545220Y-114000781D01*
X164545218Y-114000778D01*
X164545218Y-114000776D01*
X164510249Y-113932147D01*
X164452287Y-113818390D01*
X164411070Y-113761659D01*
X164331971Y-113652786D01*
X164187213Y-113508028D01*
X164021613Y-113387715D01*
X164021612Y-113387714D01*
X164021610Y-113387713D01*
X163946613Y-113349500D01*
X163839223Y-113294781D01*
X163644534Y-113231522D01*
X163469995Y-113203878D01*
X163442352Y-113199500D01*
X163237648Y-113199500D01*
X163213329Y-113203351D01*
X163035465Y-113231522D01*
X162840776Y-113294781D01*
X162658386Y-113387715D01*
X162492786Y-113508028D01*
X162348028Y-113652786D01*
X162227715Y-113818386D01*
X162134781Y-114000776D01*
X162071522Y-114195465D01*
X162039500Y-114397648D01*
X161050500Y-114397648D01*
X161018477Y-114195466D01*
X161001623Y-114143596D01*
X160985297Y-114093350D01*
X160955220Y-114000781D01*
X160955218Y-114000778D01*
X160955218Y-114000776D01*
X160920249Y-113932147D01*
X160862287Y-113818390D01*
X160821070Y-113761659D01*
X160741971Y-113652786D01*
X160597213Y-113508028D01*
X160431613Y-113387715D01*
X160431612Y-113387714D01*
X160431610Y-113387713D01*
X160356613Y-113349500D01*
X160249223Y-113294781D01*
X160054534Y-113231522D01*
X159879995Y-113203878D01*
X159852352Y-113199500D01*
X159647648Y-113199500D01*
X159623329Y-113203351D01*
X159445465Y-113231522D01*
X159250776Y-113294781D01*
X159068386Y-113387715D01*
X158902786Y-113508028D01*
X158758028Y-113652786D01*
X158637715Y-113818386D01*
X158544781Y-114000776D01*
X158481522Y-114195465D01*
X158449500Y-114397648D01*
X150890500Y-114397648D01*
X150858477Y-114195466D01*
X150841623Y-114143596D01*
X150825297Y-114093350D01*
X150795220Y-114000781D01*
X150795218Y-114000778D01*
X150795218Y-114000776D01*
X150760249Y-113932147D01*
X150702287Y-113818390D01*
X150661070Y-113761659D01*
X150581971Y-113652786D01*
X150437213Y-113508028D01*
X150271613Y-113387715D01*
X150271612Y-113387714D01*
X150271610Y-113387713D01*
X150196613Y-113349500D01*
X150089223Y-113294781D01*
X149894534Y-113231522D01*
X149719995Y-113203878D01*
X149692352Y-113199500D01*
X149487648Y-113199500D01*
X149463329Y-113203351D01*
X149285465Y-113231522D01*
X149090776Y-113294781D01*
X148908386Y-113387715D01*
X148742786Y-113508028D01*
X148598028Y-113652786D01*
X148477715Y-113818386D01*
X148384781Y-114000776D01*
X148321522Y-114195465D01*
X148289500Y-114397648D01*
X147500500Y-114397648D01*
X147500500Y-110347648D01*
X148289500Y-110347648D01*
X148289500Y-110552351D01*
X148321522Y-110754534D01*
X148384781Y-110949223D01*
X148477715Y-111131613D01*
X148598028Y-111297213D01*
X148742786Y-111441971D01*
X148894486Y-111552185D01*
X148908390Y-111562287D01*
X148997936Y-111607913D01*
X149090776Y-111655218D01*
X149090778Y-111655218D01*
X149090781Y-111655220D01*
X149172457Y-111681758D01*
X149285465Y-111718477D01*
X149369564Y-111731797D01*
X149487648Y-111750500D01*
X149487649Y-111750500D01*
X149692351Y-111750500D01*
X149692352Y-111750500D01*
X149894534Y-111718477D01*
X150089219Y-111655220D01*
X150271610Y-111562287D01*
X150423264Y-111452105D01*
X150437213Y-111441971D01*
X150437215Y-111441968D01*
X150437219Y-111441966D01*
X150581966Y-111297219D01*
X150581968Y-111297215D01*
X150581971Y-111297213D01*
X150634732Y-111224590D01*
X150702287Y-111131610D01*
X150795220Y-110949219D01*
X150858477Y-110754534D01*
X150890500Y-110552352D01*
X150890500Y-110347648D01*
X150875782Y-110254726D01*
X150858477Y-110145465D01*
X150795218Y-109950776D01*
X150753509Y-109868918D01*
X150702287Y-109768390D01*
X150694556Y-109757749D01*
X150581971Y-109602786D01*
X150437213Y-109458028D01*
X150271613Y-109337715D01*
X150271612Y-109337714D01*
X150271610Y-109337713D01*
X150214653Y-109308691D01*
X150089223Y-109244781D01*
X149894534Y-109181522D01*
X149719995Y-109153878D01*
X149692352Y-109149500D01*
X149487648Y-109149500D01*
X149463329Y-109153351D01*
X149285465Y-109181522D01*
X149090776Y-109244781D01*
X148908386Y-109337715D01*
X148742786Y-109458028D01*
X148598028Y-109602786D01*
X148477715Y-109768386D01*
X148384781Y-109950776D01*
X148321522Y-110145465D01*
X148289500Y-110347648D01*
X147500500Y-110347648D01*
X147500500Y-99393713D01*
X148649500Y-99393713D01*
X148649500Y-99606287D01*
X148653576Y-99632019D01*
X148678093Y-99786819D01*
X148682754Y-99816243D01*
X148742796Y-100001033D01*
X148748444Y-100018414D01*
X148844951Y-100207820D01*
X148969890Y-100379786D01*
X149120213Y-100530109D01*
X149292179Y-100655048D01*
X149292181Y-100655049D01*
X149292184Y-100655051D01*
X149481588Y-100751557D01*
X149683757Y-100817246D01*
X149893713Y-100850500D01*
X149893714Y-100850500D01*
X150106286Y-100850500D01*
X150106287Y-100850500D01*
X150316243Y-100817246D01*
X150518412Y-100751557D01*
X150707816Y-100655051D01*
X150742807Y-100629629D01*
X150879786Y-100530109D01*
X150879788Y-100530106D01*
X150879792Y-100530104D01*
X151030104Y-100379792D01*
X151030106Y-100379788D01*
X151030109Y-100379786D01*
X151155048Y-100207820D01*
X151155047Y-100207820D01*
X151155051Y-100207816D01*
X151251557Y-100018412D01*
X151317246Y-99816243D01*
X151350500Y-99606287D01*
X151350500Y-99393713D01*
X151317246Y-99183757D01*
X151251557Y-98981588D01*
X151155051Y-98792184D01*
X151155049Y-98792181D01*
X151155048Y-98792179D01*
X151030109Y-98620213D01*
X150879786Y-98469890D01*
X150707820Y-98344951D01*
X150518414Y-98248444D01*
X150518413Y-98248443D01*
X150518412Y-98248443D01*
X150316243Y-98182754D01*
X150316241Y-98182753D01*
X150316240Y-98182753D01*
X150154957Y-98157208D01*
X150106287Y-98149500D01*
X149893713Y-98149500D01*
X149845042Y-98157208D01*
X149683760Y-98182753D01*
X149481585Y-98248444D01*
X149292179Y-98344951D01*
X149120213Y-98469890D01*
X148969890Y-98620213D01*
X148844951Y-98792179D01*
X148748444Y-98981585D01*
X148682753Y-99183760D01*
X148672575Y-99248025D01*
X148649500Y-99393713D01*
X147500500Y-99393713D01*
X147500500Y-99004066D01*
X147500765Y-98995956D01*
X147504819Y-98934108D01*
X147517075Y-98747102D01*
X147519190Y-98731048D01*
X147567045Y-98490462D01*
X147571243Y-98474797D01*
X147607379Y-98368343D01*
X147650093Y-98242512D01*
X147656291Y-98227547D01*
X147764790Y-98007533D01*
X147772897Y-97993493D01*
X147845536Y-97884781D01*
X147909177Y-97789534D01*
X147919039Y-97776681D01*
X148080786Y-97592244D01*
X148092244Y-97580786D01*
X148276681Y-97419039D01*
X148289534Y-97409177D01*
X148493493Y-97272897D01*
X148507533Y-97264790D01*
X148727547Y-97156291D01*
X148742512Y-97150093D01*
X148906762Y-97094337D01*
X148974797Y-97071243D01*
X148990464Y-97067045D01*
X149231048Y-97019190D01*
X149247102Y-97017075D01*
X149495957Y-97000765D01*
X149504067Y-97000500D01*
X149565892Y-97000500D01*
X214434108Y-97000500D01*
X214495933Y-97000500D01*
X214504043Y-97000765D01*
G37*
%TD.AperFunction*%
%TD*%
M02*
