%TF.GenerationSoftware,KiCad,Pcbnew,10.0.1*%
%TF.CreationDate,2026-09-09T16:12:35-03:00*%
%TF.ProjectId,cd4017_secuenciador,63643430-3137-45f7-9365-6375656e6369,rev?*%
%TF.SameCoordinates,Original*%
%TF.FileFunction,Soldermask,Bot*%
%TF.FilePolarity,Negative*%
%FSLAX46Y46*%
G04 Gerber Fmt 4.6, Leading zero omitted, Abs format (unit mm)*
G04 Created by KiCad (PCBNEW 10.0.1) date 2026-09-09 16:12:35*
%MOMM*%
%LPD*%
G01*
G04 APERTURE LIST*
G04 Aperture macros list*
%AMRoundRect*
0 Rectangle with rounded corners*
0 $1 Rounding radius*
0 $2 $3 $4 $5 $6 $7 $8 $9 X,Y pos of 4 corners*
0 Add a 4 corners polygon primitive as box body*
4,1,4,$2,$3,$4,$5,$6,$7,$8,$9,$2,$3,0*
0 Add four circle primitives for the rounded corners*
1,1,$1+$1,$2,$3*
1,1,$1+$1,$4,$5*
1,1,$1+$1,$6,$7*
1,1,$1+$1,$8,$9*
0 Add four rect primitives between the rounded corners*
20,1,$1+$1,$2,$3,$4,$5,0*
20,1,$1+$1,$4,$5,$6,$7,0*
20,1,$1+$1,$6,$7,$8,$9,0*
20,1,$1+$1,$8,$9,$2,$3,0*%
G04 Aperture macros list end*
%ADD10RoundRect,0.249999X-0.850001X-0.850001X0.850001X-0.850001X0.850001X0.850001X-0.850001X0.850001X0*%
%ADD11C,2.200000*%
%ADD12RoundRect,0.250001X-1.149999X-1.149999X1.149999X-1.149999X1.149999X1.149999X-1.149999X1.149999X0*%
%ADD13C,2.800000*%
%ADD14R,1.800000X1.800000*%
%ADD15C,1.800000*%
%ADD16C,1.600000*%
%ADD17RoundRect,0.250001X1.149999X1.149999X-1.149999X1.149999X-1.149999X-1.149999X1.149999X-1.149999X0*%
%ADD18RoundRect,0.250000X-0.550000X-0.550000X0.550000X-0.550000X0.550000X0.550000X-0.550000X0.550000X0*%
G04 APERTURE END LIST*
D10*
%TO.C,D5*%
X151090000Y-121750000D03*
D11*
X161250000Y-121750000D03*
%TD*%
D12*
%TO.C,RV4*%
X203000000Y-129717500D03*
D13*
X208000000Y-129717500D03*
X213000000Y-129717500D03*
%TD*%
D14*
%TO.C,D2*%
X197070000Y-112750000D03*
D15*
X199610000Y-112750000D03*
%TD*%
D11*
%TO.C,REF\u002A\u002A*%
X150000000Y-99500000D03*
%TD*%
D16*
%TO.C,R3*%
X163340000Y-110450000D03*
X173500000Y-110450000D03*
%TD*%
D14*
%TO.C,D3*%
X204165000Y-112750000D03*
D15*
X206705000Y-112750000D03*
%TD*%
D16*
%TO.C,R2*%
X149590000Y-114500000D03*
X159750000Y-114500000D03*
%TD*%
D17*
%TO.C,J1*%
X166295000Y-101500000D03*
D13*
X161295000Y-101500000D03*
X156295000Y-101500000D03*
%TD*%
D12*
%TO.C,RV2*%
X168750000Y-129717500D03*
D13*
X173750000Y-129717500D03*
X178750000Y-129717500D03*
%TD*%
D12*
%TO.C,RV1*%
X151500000Y-129717500D03*
D13*
X156500000Y-129717500D03*
X161500000Y-129717500D03*
%TD*%
D14*
%TO.C,D4*%
X211260000Y-112750000D03*
D15*
X213800000Y-112750000D03*
%TD*%
D17*
%TO.C,J2*%
X206642500Y-101500000D03*
D13*
X201642500Y-101500000D03*
X196642500Y-101500000D03*
%TD*%
D10*
%TO.C,D8*%
X202670000Y-121750000D03*
D11*
X212830000Y-121750000D03*
%TD*%
D18*
%TO.C,U1*%
X177630000Y-99090000D03*
D16*
X177630000Y-101630000D03*
X177630000Y-104170000D03*
X177630000Y-106710000D03*
X177630000Y-109250000D03*
X177630000Y-111790000D03*
X177630000Y-114330000D03*
X177630000Y-116870000D03*
X185250000Y-116870000D03*
X185250000Y-114330000D03*
X185250000Y-111790000D03*
X185250000Y-109250000D03*
X185250000Y-106710000D03*
X185250000Y-104170000D03*
X185250000Y-101630000D03*
X185250000Y-99090000D03*
%TD*%
%TO.C,R4*%
X163340000Y-114500000D03*
X173500000Y-114500000D03*
%TD*%
D12*
%TO.C,RV3*%
X185750000Y-129717500D03*
D13*
X190750000Y-129717500D03*
X195750000Y-129717500D03*
%TD*%
D14*
%TO.C,D1*%
X189975000Y-112750000D03*
D15*
X192515000Y-112750000D03*
%TD*%
D16*
%TO.C,R1*%
X149590000Y-110450000D03*
X159750000Y-110450000D03*
%TD*%
D10*
%TO.C,D6*%
X168590000Y-121750000D03*
D11*
X178750000Y-121750000D03*
%TD*%
%TO.C,REF\u002A\u002A*%
X214000000Y-99500000D03*
%TD*%
D10*
%TO.C,D7*%
X185340000Y-121750000D03*
D11*
X195500000Y-121750000D03*
%TD*%
M02*
