M48
; DRILL file KiCad 10.0.1 date 2026-09-09T16:12:37
; FORMAT={-:-/ absolute / metric / decimal}
; #@! TF.CreationDate,2026-09-09T16:12:37-03:00
; #@! TF.GenerationSoftware,Kicad,Pcbnew,10.0.1
; #@! TF.FileFunction,Plated,1,2,PTH
FMAT,2
METRIC
; #@! TA.AperFunction,Plated,PTH,ComponentDrill
T1C0.800
; #@! TA.AperFunction,Plated,PTH,ComponentDrill
T2C0.900
; #@! TA.AperFunction,Plated,PTH,ComponentDrill
T3C1.100
; #@! TA.AperFunction,Plated,PTH,ComponentDrill
T4C1.300
%
G90
G05
T1
X149.59Y-110.45
X149.59Y-114.5
X159.75Y-110.45
X159.75Y-114.5
X163.34Y-110.45
X163.34Y-114.5
X173.5Y-110.45
X173.5Y-114.5
X177.63Y-99.09
X177.63Y-101.63
X177.63Y-104.17
X177.63Y-106.71
X177.63Y-109.25
X177.63Y-111.79
X177.63Y-114.33
X177.63Y-116.87
X185.25Y-99.09
X185.25Y-101.63
X185.25Y-104.17
X185.25Y-106.71
X185.25Y-109.25
X185.25Y-111.79
X185.25Y-114.33
X185.25Y-116.87
T2
X189.975Y-112.75
X192.515Y-112.75
X197.07Y-112.75
X199.61Y-112.75
X204.165Y-112.75
X206.705Y-112.75
X211.26Y-112.75
X213.8Y-112.75
T3
X151.09Y-121.75
X161.25Y-121.75
X168.59Y-121.75
X178.75Y-121.75
X185.34Y-121.75
X195.5Y-121.75
X202.67Y-121.75
X212.83Y-121.75
T4
X151.5Y-129.718
X156.295Y-101.5
X156.5Y-129.718
X161.295Y-101.5
X161.5Y-129.718
X166.295Y-101.5
X168.75Y-129.718
X173.75Y-129.718
X178.75Y-129.718
X185.75Y-129.718
X190.75Y-129.718
X195.75Y-129.718
X196.642Y-101.5
X201.642Y-101.5
X203.0Y-129.718
X206.642Y-101.5
X208.0Y-129.718
X213.0Y-129.718
M30
