%TF.GenerationSoftware,KiCad,Pcbnew,10.0.1*%
%TF.CreationDate,2026-09-09T16:39:06-03:00*%
%TF.ProjectId,555_astable,3535355f-6173-4746-9162-6c652e6b6963,rev?*%
%TF.SameCoordinates,Original*%
%TF.FileFunction,Legend,Bot*%
%TF.FilePolarity,Positive*%
%FSLAX46Y46*%
G04 Gerber Fmt 4.6, Leading zero omitted, Abs format (unit mm)*
G04 Created by KiCad (PCBNEW 10.0.1) date 2026-09-09 16:39:06*
%MOMM*%
%LPD*%
G01*
G04 APERTURE LIST*
%ADD10C,0.000000*%
%ADD11C,0.250000*%
G04 APERTURE END LIST*
D10*
G36*
X100644193Y-60092318D02*
G01*
X100659086Y-60094323D01*
X100674038Y-60097523D01*
X100689099Y-60101967D01*
X100704336Y-60107715D01*
X100719801Y-60114819D01*
X100735565Y-60123336D01*
X100751674Y-60133323D01*
X100768196Y-60144832D01*
X100589996Y-60221019D01*
X100519936Y-60112497D01*
X100519933Y-60112497D01*
X100536514Y-60106968D01*
X100552677Y-60102189D01*
X100568484Y-60098211D01*
X100583987Y-60095094D01*
X100599252Y-60092891D01*
X100614335Y-60091653D01*
X100629295Y-60091448D01*
X100644193Y-60092318D01*
G37*
G36*
X104004789Y-59151533D02*
G01*
X104007077Y-59151751D01*
X104009491Y-59152151D01*
X104012027Y-59152722D01*
X104017425Y-59154332D01*
X104023175Y-59156513D01*
X104029194Y-59159183D01*
X104035396Y-59162266D01*
X104041691Y-59165690D01*
X104047995Y-59169372D01*
X104054217Y-59173240D01*
X104060277Y-59177216D01*
X104066080Y-59181224D01*
X104071548Y-59185189D01*
X104076587Y-59189031D01*
X104081114Y-59192674D01*
X104085045Y-59196045D01*
X104088286Y-59199066D01*
X104089502Y-59200580D01*
X104090291Y-59202291D01*
X104090676Y-59204186D01*
X104090676Y-59206244D01*
X104090308Y-59208456D01*
X104089607Y-59210802D01*
X104088581Y-59213269D01*
X104087257Y-59215841D01*
X104085655Y-59218505D01*
X104083801Y-59221242D01*
X104079399Y-59226878D01*
X104074233Y-59232632D01*
X104068461Y-59238370D01*
X104062259Y-59243975D01*
X104055796Y-59249331D01*
X104049242Y-59254306D01*
X104042770Y-59258778D01*
X104036541Y-59262630D01*
X104030733Y-59265732D01*
X104025516Y-59267966D01*
X104023178Y-59268718D01*
X104021053Y-59269206D01*
X104005887Y-59271297D01*
X103990028Y-59272362D01*
X103973607Y-59272367D01*
X103956744Y-59271273D01*
X103939569Y-59269044D01*
X103922204Y-59265646D01*
X103904777Y-59261039D01*
X103887416Y-59255182D01*
X103870239Y-59248046D01*
X103853376Y-59239589D01*
X103845101Y-59234856D01*
X103836952Y-59229776D01*
X103828945Y-59224351D01*
X103821096Y-59218570D01*
X103813417Y-59212435D01*
X103805926Y-59205937D01*
X103798642Y-59199068D01*
X103791575Y-59191832D01*
X103784748Y-59184217D01*
X103778167Y-59176226D01*
X103771855Y-59167846D01*
X103765825Y-59159080D01*
X104002646Y-59151505D01*
X104004789Y-59151533D01*
G37*
G36*
X104424502Y-59030222D02*
G01*
X104441198Y-59031286D01*
X104457717Y-59032981D01*
X104473758Y-59035279D01*
X104489033Y-59038145D01*
X104503242Y-59041551D01*
X104516087Y-59045476D01*
X104527272Y-59049875D01*
X104532152Y-59052248D01*
X104536505Y-59054730D01*
X104540296Y-59057318D01*
X104543491Y-59060011D01*
X104541007Y-59066873D01*
X104537767Y-59073522D01*
X104533811Y-59079959D01*
X104529178Y-59086176D01*
X104523916Y-59092169D01*
X104518068Y-59097936D01*
X104511674Y-59103468D01*
X104504778Y-59108770D01*
X104489642Y-59118659D01*
X104473014Y-59127561D01*
X104455232Y-59135448D01*
X104436634Y-59142292D01*
X104417568Y-59148058D01*
X104398377Y-59152720D01*
X104379398Y-59156244D01*
X104360975Y-59158604D01*
X104343455Y-59159762D01*
X104327174Y-59159693D01*
X104312474Y-59158368D01*
X104299702Y-59155749D01*
X104297799Y-59155103D01*
X104295721Y-59154184D01*
X104293490Y-59153010D01*
X104291127Y-59151601D01*
X104286061Y-59148140D01*
X104280682Y-59143944D01*
X104275140Y-59139142D01*
X104269574Y-59133878D01*
X104264141Y-59128294D01*
X104258994Y-59122524D01*
X104254275Y-59116712D01*
X104250136Y-59110988D01*
X104248331Y-59108208D01*
X104246728Y-59105497D01*
X104245341Y-59102886D01*
X104244196Y-59100380D01*
X104243307Y-59098002D01*
X104242697Y-59095769D01*
X104242378Y-59093697D01*
X104242372Y-59091806D01*
X104242702Y-59090109D01*
X104243382Y-59088627D01*
X104244427Y-59087377D01*
X104245861Y-59086375D01*
X104327482Y-59042869D01*
X104327482Y-59042833D01*
X104332058Y-59040645D01*
X104337146Y-59038673D01*
X104348698Y-59035349D01*
X104361850Y-59032829D01*
X104376301Y-59031085D01*
X104391759Y-59030092D01*
X104407924Y-59029810D01*
X104424502Y-59030222D01*
G37*
G36*
X100718071Y-59875942D02*
G01*
X100704446Y-60004169D01*
X100704113Y-60005570D01*
X100703419Y-60006939D01*
X100702394Y-60008280D01*
X100701054Y-60009590D01*
X100699421Y-60010871D01*
X100697517Y-60012112D01*
X100692981Y-60014501D01*
X100687609Y-60016739D01*
X100681578Y-60018826D01*
X100675052Y-60020750D01*
X100668199Y-60022502D01*
X100661196Y-60024073D01*
X100654205Y-60025454D01*
X100640938Y-60027615D01*
X100629761Y-60028910D01*
X100625380Y-60029210D01*
X100622026Y-60029271D01*
X100502216Y-60026437D01*
X100499682Y-60026032D01*
X100497178Y-60024960D01*
X100494714Y-60023272D01*
X100492298Y-60021005D01*
X100489937Y-60018206D01*
X100487649Y-60014914D01*
X100485424Y-60011173D01*
X100483288Y-60007026D01*
X100479296Y-59997688D01*
X100475741Y-59987242D01*
X100472688Y-59976036D01*
X100470212Y-59964407D01*
X100468375Y-59952700D01*
X100467251Y-59941259D01*
X100466909Y-59930426D01*
X100467417Y-59920545D01*
X100468012Y-59916067D01*
X100468843Y-59911961D01*
X100469924Y-59908259D01*
X100471261Y-59905013D01*
X100472860Y-59902262D01*
X100474732Y-59900050D01*
X100476888Y-59898416D01*
X100479335Y-59897407D01*
X100479335Y-59897372D01*
X100490950Y-59894623D01*
X100504220Y-59892011D01*
X100534674Y-59887241D01*
X100568621Y-59883148D01*
X100603983Y-59879826D01*
X100638687Y-59877355D01*
X100670651Y-59875820D01*
X100697804Y-59875325D01*
X100718071Y-59875942D01*
G37*
G36*
X104879651Y-59968316D02*
G01*
X104879565Y-59969968D01*
X104878925Y-59971773D01*
X104877768Y-59973707D01*
X104876125Y-59975756D01*
X104874026Y-59977896D01*
X104871512Y-59980106D01*
X104865351Y-59984664D01*
X104857917Y-59989263D01*
X104849466Y-59993753D01*
X104840274Y-59997971D01*
X104830599Y-60001758D01*
X104820715Y-60004949D01*
X104810882Y-60007392D01*
X104801369Y-60008922D01*
X104796814Y-60009297D01*
X104792441Y-60009382D01*
X104788281Y-60009162D01*
X104784366Y-60008610D01*
X104780729Y-60007710D01*
X104777409Y-60006451D01*
X104774432Y-60004799D01*
X104771840Y-60002741D01*
X104769653Y-60000251D01*
X104767919Y-59997318D01*
X104761428Y-59985280D01*
X104753864Y-59974018D01*
X104745329Y-59963504D01*
X104735927Y-59953696D01*
X104725771Y-59944563D01*
X104714960Y-59936066D01*
X104703614Y-59928177D01*
X104691827Y-59920855D01*
X104679717Y-59914065D01*
X104667385Y-59907771D01*
X104642487Y-59896542D01*
X104617998Y-59886879D01*
X104594770Y-59878506D01*
X104555544Y-59864494D01*
X104541260Y-59858295D01*
X104535824Y-59855273D01*
X104531673Y-59852255D01*
X104528906Y-59849209D01*
X104527642Y-59846098D01*
X104527973Y-59842886D01*
X104530020Y-59839540D01*
X104533887Y-59836021D01*
X104539677Y-59832297D01*
X104547496Y-59828333D01*
X104557457Y-59824092D01*
X104557498Y-59824055D01*
X104632690Y-59794205D01*
X104775189Y-59764859D01*
X104879651Y-59968316D01*
G37*
G36*
X101357366Y-60132686D02*
G01*
X101359195Y-60133209D01*
X101361124Y-60134092D01*
X101363135Y-60135311D01*
X101365207Y-60136834D01*
X101367341Y-60138652D01*
X101371709Y-60143048D01*
X101376123Y-60148300D01*
X101380470Y-60154220D01*
X101384649Y-60160610D01*
X101388535Y-60167286D01*
X101392024Y-60174041D01*
X101395000Y-60180695D01*
X101397349Y-60187052D01*
X101398255Y-60190054D01*
X101398963Y-60192913D01*
X101399463Y-60195600D01*
X101399733Y-60198092D01*
X101399762Y-60200362D01*
X101399540Y-60202392D01*
X101399047Y-60204153D01*
X101398273Y-60205621D01*
X101397206Y-60206775D01*
X101395826Y-60207587D01*
X101381330Y-60213692D01*
X101359189Y-60222796D01*
X101347591Y-60227331D01*
X101336885Y-60231241D01*
X101332160Y-60232821D01*
X101328012Y-60234073D01*
X101324549Y-60234942D01*
X101321898Y-60235367D01*
X101011106Y-60261999D01*
X101011106Y-60262000D01*
X101010454Y-60255761D01*
X101009940Y-60248401D01*
X101009576Y-60240130D01*
X101009367Y-60231155D01*
X101009331Y-60221691D01*
X101009474Y-60211944D01*
X101009809Y-60202120D01*
X101010346Y-60192434D01*
X101011096Y-60183091D01*
X101012066Y-60174302D01*
X101013270Y-60166277D01*
X101014716Y-60159223D01*
X101016417Y-60153348D01*
X101017369Y-60150921D01*
X101018387Y-60148865D01*
X101019475Y-60147209D01*
X101020631Y-60145981D01*
X101021860Y-60145205D01*
X101023160Y-60144909D01*
X101355646Y-60132549D01*
X101357366Y-60132686D01*
G37*
G36*
X103218745Y-59063034D02*
G01*
X103560263Y-59082087D01*
X103498350Y-59196350D01*
X103184383Y-59159731D01*
X103184423Y-59159731D01*
X103182887Y-59159351D01*
X103181142Y-59158555D01*
X103179205Y-59157374D01*
X103177102Y-59155834D01*
X103172459Y-59151789D01*
X103167377Y-59146637D01*
X103162012Y-59140598D01*
X103156526Y-59133886D01*
X103151072Y-59126728D01*
X103145818Y-59119336D01*
X103140914Y-59111931D01*
X103136522Y-59104729D01*
X103132805Y-59097957D01*
X103129919Y-59091826D01*
X103128833Y-59089069D01*
X103128019Y-59086556D01*
X103127491Y-59084313D01*
X103127270Y-59082369D01*
X103127377Y-59080748D01*
X103127828Y-59079479D01*
X103128649Y-59078590D01*
X103129854Y-59078110D01*
X103172638Y-59069093D01*
X103186035Y-59066576D01*
X103198765Y-59064532D01*
X103204611Y-59063781D01*
X103209960Y-59063256D01*
X103214711Y-59062993D01*
X103218745Y-59063034D01*
G37*
G36*
X101381131Y-59692155D02*
G01*
X101383508Y-59692522D01*
X101385610Y-59693515D01*
X101387441Y-59695077D01*
X101389014Y-59697177D01*
X101390329Y-59699772D01*
X101391404Y-59702815D01*
X101392238Y-59706277D01*
X101392842Y-59710103D01*
X101393227Y-59714262D01*
X101393396Y-59718704D01*
X101393122Y-59728297D01*
X101392084Y-59738548D01*
X101390345Y-59749134D01*
X101387968Y-59759724D01*
X101385008Y-59769990D01*
X101381535Y-59779599D01*
X101377612Y-59788231D01*
X101375502Y-59792076D01*
X101373296Y-59795554D01*
X101371013Y-59798620D01*
X101368654Y-59801237D01*
X101366229Y-59803360D01*
X101363745Y-59804953D01*
X101361210Y-59805972D01*
X101358634Y-59806376D01*
X100990059Y-59818083D01*
X101042904Y-59685495D01*
X101381131Y-59692155D01*
G37*
G36*
X102889929Y-59283327D02*
G01*
X102897587Y-59293188D01*
X102901810Y-59298947D01*
X102906148Y-59305106D01*
X102910503Y-59311542D01*
X102914759Y-59318149D01*
X102918813Y-59324801D01*
X102922555Y-59331389D01*
X102925879Y-59337792D01*
X102928678Y-59343897D01*
X102930843Y-59349587D01*
X102931657Y-59352239D01*
X102932273Y-59354743D01*
X102932674Y-59357088D01*
X102932850Y-59359253D01*
X102932788Y-59361230D01*
X102932473Y-59363002D01*
X102931893Y-59364552D01*
X102931034Y-59365866D01*
X102929883Y-59366936D01*
X102928426Y-59367740D01*
X102913109Y-59374325D01*
X102889658Y-59384193D01*
X102877371Y-59389064D01*
X102866034Y-59393203D01*
X102861028Y-59394836D01*
X102856638Y-59396089D01*
X102852976Y-59396903D01*
X102850175Y-59397202D01*
X102460481Y-59402026D01*
X102460500Y-59402003D01*
X102460511Y-59401995D01*
X102460521Y-59401986D01*
X102453940Y-59280725D01*
X102889929Y-59283327D01*
G37*
G36*
X104378603Y-58697985D02*
G01*
X104386695Y-58698804D01*
X104394863Y-58700023D01*
X104403080Y-58701608D01*
X104411313Y-58703550D01*
X104419537Y-58705826D01*
X104427717Y-58708419D01*
X104435835Y-58711305D01*
X104443856Y-58714473D01*
X104451751Y-58717896D01*
X104467057Y-58725437D01*
X104481525Y-58733779D01*
X104488375Y-58738200D01*
X104494931Y-58742766D01*
X104501164Y-58747451D01*
X104507046Y-58752244D01*
X104512551Y-58757117D01*
X104517650Y-58762064D01*
X104522311Y-58767050D01*
X104526507Y-58772065D01*
X104530214Y-58777081D01*
X104533401Y-58782091D01*
X104536037Y-58787073D01*
X104538098Y-58791999D01*
X104590209Y-58936835D01*
X104198147Y-58962128D01*
X104201358Y-58941598D01*
X104205223Y-58920965D01*
X104209741Y-58900377D01*
X104214906Y-58879987D01*
X104220716Y-58859934D01*
X104227167Y-58840380D01*
X104234256Y-58821466D01*
X104241984Y-58803344D01*
X104250345Y-58786166D01*
X104259336Y-58770078D01*
X104264067Y-58762491D01*
X104268957Y-58755231D01*
X104273999Y-58748319D01*
X104279202Y-58741773D01*
X104284556Y-58735612D01*
X104290069Y-58729855D01*
X104295738Y-58724521D01*
X104301555Y-58719624D01*
X104307529Y-58715191D01*
X104313657Y-58711234D01*
X104319938Y-58707773D01*
X104326374Y-58704831D01*
X104333159Y-58702365D01*
X104340217Y-58700431D01*
X104347518Y-58699004D01*
X104355038Y-58698064D01*
X104362739Y-58697592D01*
X104370607Y-58697574D01*
X104378603Y-58697985D01*
G37*
G36*
X104575023Y-59315812D02*
G01*
X104163937Y-59466197D01*
X103903810Y-59428735D01*
X103903810Y-59428696D01*
X103902468Y-59428227D01*
X103901031Y-59427225D01*
X103899505Y-59425726D01*
X103897906Y-59423761D01*
X103894541Y-59418587D01*
X103891021Y-59412000D01*
X103887459Y-59404289D01*
X103883946Y-59395743D01*
X103880578Y-59386661D01*
X103877460Y-59377326D01*
X103874684Y-59368031D01*
X103872347Y-59359069D01*
X103870556Y-59350731D01*
X103869398Y-59343308D01*
X103868980Y-59337092D01*
X103869076Y-59334529D01*
X103869394Y-59332376D01*
X103869946Y-59330667D01*
X103870742Y-59329444D01*
X103871796Y-59328741D01*
X103873118Y-59328591D01*
X104195239Y-59359973D01*
X104217342Y-59344701D01*
X104239543Y-59330157D01*
X104261860Y-59316343D01*
X104284305Y-59303260D01*
X104306905Y-59290911D01*
X104329669Y-59279295D01*
X104352619Y-59268424D01*
X104375780Y-59258290D01*
X104399158Y-59248902D01*
X104422780Y-59240260D01*
X104446660Y-59232364D01*
X104470819Y-59225220D01*
X104495271Y-59218828D01*
X104520037Y-59213192D01*
X104545136Y-59208316D01*
X104570583Y-59204195D01*
X104575023Y-59315812D01*
G37*
G36*
X105291071Y-59257297D02*
G01*
X105296510Y-59258270D01*
X105301527Y-59260252D01*
X105556796Y-59393340D01*
X105552414Y-59404853D01*
X105547551Y-59416136D01*
X105542236Y-59427174D01*
X105536490Y-59437956D01*
X105530344Y-59448462D01*
X105523829Y-59458682D01*
X105516972Y-59468605D01*
X105509792Y-59478208D01*
X105502328Y-59487481D01*
X105494600Y-59496408D01*
X105486643Y-59504980D01*
X105478478Y-59513177D01*
X105470136Y-59520985D01*
X105461644Y-59528396D01*
X105453026Y-59535389D01*
X105444319Y-59541954D01*
X105435543Y-59548071D01*
X105426730Y-59553729D01*
X105417903Y-59558912D01*
X105409092Y-59563611D01*
X105400331Y-59567809D01*
X105391635Y-59571488D01*
X105383043Y-59574638D01*
X105374574Y-59577244D01*
X105366264Y-59579287D01*
X105358137Y-59580760D01*
X105350220Y-59581643D01*
X105342542Y-59581923D01*
X105335131Y-59581592D01*
X105328009Y-59580625D01*
X105321213Y-59579016D01*
X105314765Y-59576745D01*
X105314729Y-59576783D01*
X105137175Y-59420353D01*
X105136014Y-59416934D01*
X105135668Y-59412860D01*
X105136102Y-59408186D01*
X105137277Y-59402967D01*
X105139145Y-59397257D01*
X105141667Y-59391116D01*
X105148516Y-59377752D01*
X105157486Y-59363318D01*
X105168247Y-59348253D01*
X105180473Y-59332999D01*
X105193825Y-59318005D01*
X105207974Y-59303706D01*
X105222592Y-59290542D01*
X105237341Y-59278963D01*
X105244665Y-59273903D01*
X105251898Y-59269406D01*
X105258996Y-59265525D01*
X105265921Y-59262313D01*
X105272640Y-59259830D01*
X105279095Y-59258129D01*
X105285251Y-59257264D01*
X105291071Y-59257297D01*
G37*
G36*
X105926018Y-59426057D02*
G01*
X105925311Y-59441045D01*
X105923792Y-59457460D01*
X105921487Y-59474970D01*
X105918428Y-59493252D01*
X105914643Y-59511975D01*
X105910165Y-59530814D01*
X105905022Y-59549442D01*
X105899249Y-59567538D01*
X105892872Y-59584769D01*
X105885925Y-59600807D01*
X105882242Y-59608277D01*
X105878434Y-59615331D01*
X105874494Y-59621923D01*
X105870430Y-59628012D01*
X105866248Y-59633560D01*
X105861946Y-59638524D01*
X105857533Y-59642864D01*
X105853014Y-59646539D01*
X105848384Y-59649508D01*
X105843658Y-59651730D01*
X105838830Y-59653165D01*
X105833911Y-59653772D01*
X105512061Y-59665480D01*
X105619089Y-59404591D01*
X105926018Y-59426057D01*
G37*
G36*
X103675107Y-58381166D02*
G01*
X103750436Y-58389612D01*
X103825281Y-58398840D01*
X103898952Y-58408805D01*
X103970761Y-58419488D01*
X104040021Y-58430837D01*
X104106044Y-58442832D01*
X104135468Y-58618506D01*
X104147907Y-58680226D01*
X104147967Y-58681523D01*
X104147658Y-58682869D01*
X104147001Y-58684269D01*
X104146016Y-58685702D01*
X104144729Y-58687173D01*
X104143156Y-58688668D01*
X104139239Y-58691709D01*
X104134446Y-58694774D01*
X104128949Y-58697805D01*
X104122914Y-58700747D01*
X104116522Y-58703550D01*
X104109942Y-58706155D01*
X104103341Y-58708506D01*
X104096898Y-58710549D01*
X104090786Y-58712235D01*
X104085171Y-58713497D01*
X104080230Y-58714292D01*
X104076135Y-58714561D01*
X104074457Y-58714481D01*
X104073057Y-58714244D01*
X103708846Y-58623518D01*
X103708846Y-58623480D01*
X103553412Y-58448339D01*
X103525750Y-58366756D01*
X103675107Y-58381166D01*
G37*
G36*
X106841374Y-59330414D02*
G01*
X106849511Y-59331657D01*
X107319411Y-59434321D01*
X107323958Y-59435585D01*
X107328506Y-59437367D01*
X107333043Y-59439648D01*
X107337560Y-59442398D01*
X107342037Y-59445593D01*
X107346460Y-59449204D01*
X107350824Y-59453202D01*
X107355103Y-59457564D01*
X107363388Y-59467266D01*
X107371203Y-59478092D01*
X107378442Y-59489829D01*
X107385000Y-59502262D01*
X107390771Y-59515171D01*
X107395653Y-59528344D01*
X107399532Y-59541568D01*
X107402305Y-59554624D01*
X107403867Y-59567291D01*
X107404163Y-59573416D01*
X107404113Y-59579362D01*
X107403710Y-59585108D01*
X107402937Y-59590621D01*
X107401778Y-59595877D01*
X107400224Y-59600854D01*
X107398444Y-59604944D01*
X107396173Y-59608798D01*
X107393447Y-59612414D01*
X107390281Y-59615798D01*
X107386711Y-59618955D01*
X107382756Y-59621884D01*
X107378451Y-59624595D01*
X107373820Y-59627085D01*
X107368888Y-59629367D01*
X107363683Y-59631437D01*
X107352563Y-59634968D01*
X107340672Y-59637715D01*
X107328228Y-59639706D01*
X107315441Y-59640972D01*
X107302531Y-59641548D01*
X107289713Y-59641465D01*
X107277198Y-59640753D01*
X107265206Y-59639446D01*
X107253951Y-59637575D01*
X107243642Y-59635171D01*
X107234499Y-59632266D01*
X107002461Y-59546286D01*
X107002461Y-59546287D01*
X106985780Y-59540389D01*
X106968689Y-59534893D01*
X106933238Y-59524998D01*
X106895993Y-59516384D01*
X106856849Y-59508853D01*
X106815703Y-59502183D01*
X106772439Y-59496167D01*
X106726962Y-59490595D01*
X106679155Y-59485253D01*
X106688530Y-59377690D01*
X106689143Y-59374550D01*
X106690401Y-59371498D01*
X106692268Y-59368526D01*
X106694710Y-59365643D01*
X106697688Y-59362847D01*
X106701170Y-59360144D01*
X106709494Y-59355024D01*
X106719397Y-59350311D01*
X106730581Y-59346021D01*
X106742757Y-59342183D01*
X106755645Y-59338817D01*
X106768953Y-59335947D01*
X106782385Y-59333592D01*
X106795662Y-59331781D01*
X106808485Y-59330535D01*
X106820571Y-59329878D01*
X106831632Y-59329829D01*
X106841374Y-59330414D01*
G37*
G36*
X101860351Y-59893732D02*
G01*
X101896964Y-59894844D01*
X101933339Y-59896898D01*
X101969460Y-59900007D01*
X102005283Y-59904289D01*
X102040789Y-59909843D01*
X102041332Y-59918425D01*
X102041755Y-59926712D01*
X102042038Y-59934674D01*
X102042172Y-59942275D01*
X102042129Y-59949476D01*
X102041893Y-59956249D01*
X102041444Y-59962561D01*
X102041132Y-59965526D01*
X102040763Y-59968365D01*
X102040332Y-59971073D01*
X102039831Y-59973641D01*
X102039270Y-59976068D01*
X102038636Y-59978353D01*
X102037928Y-59980480D01*
X102037149Y-59982459D01*
X102036293Y-59984276D01*
X102035356Y-59985927D01*
X102034340Y-59987411D01*
X102033241Y-59988728D01*
X102032056Y-59989865D01*
X102030781Y-59990823D01*
X102029416Y-59991597D01*
X102027957Y-59992180D01*
X102026404Y-59992572D01*
X102024754Y-59992765D01*
X101942027Y-59997357D01*
X101450353Y-60038264D01*
X101384531Y-60042982D01*
X101320459Y-60046056D01*
X101257141Y-60047612D01*
X101193585Y-60047774D01*
X101128797Y-60046663D01*
X101061787Y-60044409D01*
X100917126Y-60036966D01*
X100917087Y-60036966D01*
X100920218Y-60031007D01*
X100923488Y-60025192D01*
X100930429Y-60013986D01*
X100937832Y-60003372D01*
X100945625Y-59993371D01*
X100953740Y-59984009D01*
X100962102Y-59975311D01*
X100970643Y-59967301D01*
X100979294Y-59959997D01*
X100987980Y-59953429D01*
X100996630Y-59947618D01*
X101005175Y-59942588D01*
X101013541Y-59938365D01*
X101021664Y-59934972D01*
X101029462Y-59932432D01*
X101033223Y-59931492D01*
X101036873Y-59930768D01*
X101040410Y-59930276D01*
X101043826Y-59930012D01*
X101451768Y-59911605D01*
X101749479Y-59894927D01*
X101823548Y-59893448D01*
X101860351Y-59893732D01*
G37*
G36*
X103364416Y-58683706D02*
G01*
X103435000Y-58685093D01*
X103505629Y-58687723D01*
X103576098Y-58692094D01*
X103646201Y-58698705D01*
X103681045Y-58703005D01*
X103715725Y-58708055D01*
X103750202Y-58713909D01*
X103784460Y-58720635D01*
X104095596Y-58786070D01*
X104097646Y-58786589D01*
X104099789Y-58787309D01*
X104102005Y-58788210D01*
X104104295Y-58789288D01*
X104109058Y-58791927D01*
X104114016Y-58795136D01*
X104119101Y-58798841D01*
X104124253Y-58802944D01*
X104129406Y-58807368D01*
X104134501Y-58812031D01*
X104139473Y-58816845D01*
X104144261Y-58821729D01*
X104148796Y-58826598D01*
X104153024Y-58831368D01*
X104156872Y-58835951D01*
X104160284Y-58840267D01*
X104163196Y-58844223D01*
X104165546Y-58847752D01*
X104166323Y-58849444D01*
X104166603Y-58851203D01*
X104166417Y-58853019D01*
X104165786Y-58854883D01*
X104164738Y-58856788D01*
X104163299Y-58858723D01*
X104161497Y-58860680D01*
X104159355Y-58862653D01*
X104154157Y-58866604D01*
X104147924Y-58870512D01*
X104140850Y-58874297D01*
X104133151Y-58877905D01*
X104125041Y-58881261D01*
X104116722Y-58884289D01*
X104108401Y-58886929D01*
X104100295Y-58889110D01*
X104092606Y-58890764D01*
X104085540Y-58891822D01*
X104079313Y-58892214D01*
X104076578Y-58892140D01*
X104074129Y-58891873D01*
X103609663Y-58817907D01*
X103609931Y-58879818D01*
X104029932Y-58985506D01*
X104029912Y-58985488D01*
X104029900Y-58985479D01*
X104029891Y-58985471D01*
X104031841Y-58986130D01*
X104033929Y-58987150D01*
X104036135Y-58988498D01*
X104038442Y-58990155D01*
X104040835Y-58992100D01*
X104043296Y-58994304D01*
X104048363Y-58999396D01*
X104053509Y-59005238D01*
X104058601Y-59011638D01*
X104063504Y-59018399D01*
X104068084Y-59025332D01*
X104072210Y-59032241D01*
X104075751Y-59038929D01*
X104078571Y-59045208D01*
X104079673Y-59048133D01*
X104080541Y-59050882D01*
X104081166Y-59053430D01*
X104081522Y-59055753D01*
X104081604Y-59057833D01*
X104081388Y-59059634D01*
X104080857Y-59061143D01*
X104079998Y-59062333D01*
X104078798Y-59063172D01*
X104077231Y-59063642D01*
X104070596Y-59065030D01*
X104060785Y-59067392D01*
X104035891Y-59073444D01*
X104022930Y-59076333D01*
X104011041Y-59078587D01*
X104005832Y-59079355D01*
X104001286Y-59079814D01*
X103997540Y-59079911D01*
X103994727Y-59079602D01*
X103590226Y-58986348D01*
X103564933Y-58980894D01*
X103539525Y-58976123D01*
X103488325Y-58968348D01*
X103436584Y-58962479D01*
X103384247Y-58957976D01*
X103277625Y-58950878D01*
X103223240Y-58947193D01*
X103168084Y-58942688D01*
X103224220Y-58682675D01*
X103364416Y-58683706D01*
G37*
G36*
X106061127Y-58991764D02*
G01*
X106059798Y-59006259D01*
X106057705Y-59020175D01*
X106054870Y-59033507D01*
X106051318Y-59046289D01*
X106047084Y-59058520D01*
X106042181Y-59070221D01*
X106036640Y-59081398D01*
X106030483Y-59092070D01*
X106023746Y-59102249D01*
X106016442Y-59111950D01*
X106008598Y-59121184D01*
X106000242Y-59129961D01*
X105991399Y-59138302D01*
X105982093Y-59146212D01*
X105972351Y-59153709D01*
X105951658Y-59167523D01*
X105929517Y-59179840D01*
X105906135Y-59190767D01*
X105881708Y-59200415D01*
X105856444Y-59208883D01*
X105830539Y-59216287D01*
X105804200Y-59222719D01*
X105777624Y-59228300D01*
X105777623Y-59228339D01*
X105760446Y-59231226D01*
X105743405Y-59233187D01*
X105726536Y-59234250D01*
X105709853Y-59234435D01*
X105693385Y-59233772D01*
X105677156Y-59232287D01*
X105661185Y-59230000D01*
X105645499Y-59226943D01*
X105630119Y-59223134D01*
X105615069Y-59218604D01*
X105600375Y-59213376D01*
X105586056Y-59207478D01*
X105572139Y-59200932D01*
X105558647Y-59193762D01*
X105545599Y-59185997D01*
X105533027Y-59177663D01*
X105520950Y-59168780D01*
X105509388Y-59159380D01*
X105498366Y-59149480D01*
X105487909Y-59139116D01*
X105478042Y-59128309D01*
X105468788Y-59117076D01*
X105460167Y-59105457D01*
X105452204Y-59093462D01*
X105444924Y-59081126D01*
X105438350Y-59068476D01*
X105432503Y-59055531D01*
X105427410Y-59042320D01*
X105423089Y-59028865D01*
X105419569Y-59015192D01*
X105416875Y-59001333D01*
X105415021Y-58987308D01*
X105414932Y-58984973D01*
X105689423Y-58984973D01*
X105689479Y-58987162D01*
X105689643Y-58989322D01*
X105689915Y-58991449D01*
X105690290Y-58993544D01*
X105690764Y-58995603D01*
X105691340Y-58997620D01*
X105692010Y-58999596D01*
X105692775Y-59001527D01*
X105693625Y-59003411D01*
X105694569Y-59005242D01*
X105695595Y-59007024D01*
X105696707Y-59008749D01*
X105697893Y-59010415D01*
X105699160Y-59012019D01*
X105700500Y-59013562D01*
X105701912Y-59015038D01*
X105703393Y-59016446D01*
X105704940Y-59017780D01*
X105706549Y-59019043D01*
X105708222Y-59020230D01*
X105709950Y-59021336D01*
X105711735Y-59022358D01*
X105713573Y-59023293D01*
X105715460Y-59024147D01*
X105717399Y-59024906D01*
X105719377Y-59025574D01*
X105721402Y-59026149D01*
X105723462Y-59026623D01*
X105725561Y-59026995D01*
X105727693Y-59027266D01*
X105729856Y-59027430D01*
X105732047Y-59027484D01*
X105734246Y-59027430D01*
X105736408Y-59027266D01*
X105738539Y-59026995D01*
X105740639Y-59026623D01*
X105742701Y-59026149D01*
X105744724Y-59025574D01*
X105746701Y-59024906D01*
X105748637Y-59024147D01*
X105750527Y-59023293D01*
X105752364Y-59022358D01*
X105754150Y-59021336D01*
X105755880Y-59020230D01*
X105757551Y-59019043D01*
X105759161Y-59017780D01*
X105760708Y-59016446D01*
X105762188Y-59015038D01*
X105763598Y-59013562D01*
X105764943Y-59012019D01*
X105766206Y-59010415D01*
X105767396Y-59008749D01*
X105768503Y-59007024D01*
X105769531Y-59005242D01*
X105770473Y-59003411D01*
X105771325Y-59001527D01*
X105772087Y-58999596D01*
X105772760Y-58997620D01*
X105773333Y-58995603D01*
X105773809Y-58993544D01*
X105774187Y-58991449D01*
X105774455Y-58989322D01*
X105774620Y-58987162D01*
X105774677Y-58984973D01*
X105774620Y-58982784D01*
X105774455Y-58980622D01*
X105774187Y-58978496D01*
X105773809Y-58976400D01*
X105773333Y-58974342D01*
X105772760Y-58972322D01*
X105772087Y-58970349D01*
X105771325Y-58968418D01*
X105770473Y-58966534D01*
X105769531Y-58964701D01*
X105768503Y-58962921D01*
X105767396Y-58961195D01*
X105766206Y-58959529D01*
X105764943Y-58957922D01*
X105763598Y-58956381D01*
X105762188Y-58954904D01*
X105760708Y-58953497D01*
X105759161Y-58952162D01*
X105757551Y-58950900D01*
X105755880Y-58949714D01*
X105754150Y-58948611D01*
X105752364Y-58947588D01*
X105750527Y-58946647D01*
X105748637Y-58945798D01*
X105746701Y-58945036D01*
X105744724Y-58944370D01*
X105742701Y-58943798D01*
X105740639Y-58943322D01*
X105738539Y-58942948D01*
X105736408Y-58942678D01*
X105734246Y-58942514D01*
X105732047Y-58942460D01*
X105729856Y-58942514D01*
X105727693Y-58942680D01*
X105725561Y-58942948D01*
X105723462Y-58943324D01*
X105721402Y-58943800D01*
X105719377Y-58944374D01*
X105717399Y-58945039D01*
X105715460Y-58945803D01*
X105713573Y-58946655D01*
X105711735Y-58947596D01*
X105709950Y-58948618D01*
X105708222Y-58949726D01*
X105706549Y-58950913D01*
X105704940Y-58952173D01*
X105703393Y-58953509D01*
X105701912Y-58954919D01*
X105700500Y-58956393D01*
X105699160Y-58957940D01*
X105697893Y-58959544D01*
X105696707Y-58961214D01*
X105695595Y-58962941D01*
X105694569Y-58964718D01*
X105693625Y-58966549D01*
X105692775Y-58968431D01*
X105692010Y-58970363D01*
X105691340Y-58972336D01*
X105690764Y-58974355D01*
X105690290Y-58976409D01*
X105689915Y-58978504D01*
X105689643Y-58980628D01*
X105689479Y-58982786D01*
X105689423Y-58984973D01*
X105414932Y-58984973D01*
X105414631Y-58977021D01*
X105415330Y-58965319D01*
X105417037Y-58952424D01*
X105419666Y-58938560D01*
X105423141Y-58923958D01*
X105427377Y-58908848D01*
X105432289Y-58893452D01*
X105437802Y-58878001D01*
X105443834Y-58862719D01*
X105450296Y-58847838D01*
X105457114Y-58833579D01*
X105464199Y-58820172D01*
X105471474Y-58807844D01*
X105478856Y-58796821D01*
X105486265Y-58787330D01*
X105493620Y-58779603D01*
X105501736Y-58772474D01*
X105510344Y-58765673D01*
X105528912Y-58753074D01*
X105549102Y-58741819D01*
X105570688Y-58731926D01*
X105593444Y-58723409D01*
X105617146Y-58716284D01*
X105641576Y-58710567D01*
X105666498Y-58706277D01*
X105691690Y-58703426D01*
X105716934Y-58702033D01*
X105741996Y-58702115D01*
X105766656Y-58703683D01*
X105790692Y-58706762D01*
X105813879Y-58711360D01*
X105835989Y-58717497D01*
X105856794Y-58725189D01*
X105873698Y-58733021D01*
X105891059Y-58742440D01*
X105908660Y-58753325D01*
X105926290Y-58765571D01*
X105943732Y-58779053D01*
X105960771Y-58793666D01*
X105977193Y-58809291D01*
X105992780Y-58825816D01*
X106007318Y-58843127D01*
X106020596Y-58861105D01*
X106032393Y-58879641D01*
X106037667Y-58889085D01*
X106042496Y-58898620D01*
X106046844Y-58908239D01*
X106050691Y-58917924D01*
X106054005Y-58927666D01*
X106056760Y-58937446D01*
X106058931Y-58947250D01*
X106060491Y-58957062D01*
X106061412Y-58966876D01*
X106061668Y-58976667D01*
X106061369Y-58984973D01*
X106061127Y-58991764D01*
G37*
G36*
X101963843Y-59424498D02*
G01*
X101968046Y-59424840D01*
X101972482Y-59425502D01*
X101977128Y-59426467D01*
X101981958Y-59427717D01*
X101992088Y-59431018D01*
X102002690Y-59435271D01*
X102013583Y-59440348D01*
X102024587Y-59446127D01*
X102035516Y-59452471D01*
X102046191Y-59459253D01*
X102056435Y-59466351D01*
X102066060Y-59473630D01*
X102074884Y-59480967D01*
X102082732Y-59488229D01*
X102089412Y-59495291D01*
X102092263Y-59498702D01*
X102094755Y-59502018D01*
X102096861Y-59505219D01*
X102098568Y-59508287D01*
X102088255Y-59519059D01*
X102077563Y-59528558D01*
X102066506Y-59536865D01*
X102055107Y-59544066D01*
X102043381Y-59550236D01*
X102031337Y-59555460D01*
X102019007Y-59559820D01*
X102006397Y-59563391D01*
X101993530Y-59566260D01*
X101980428Y-59568505D01*
X101953567Y-59571451D01*
X101925962Y-59572879D01*
X101897746Y-59573436D01*
X101840060Y-59574528D01*
X101810866Y-59576362D01*
X101781629Y-59579918D01*
X101767038Y-59582549D01*
X101752488Y-59585850D01*
X101737997Y-59589906D01*
X101723585Y-59594800D01*
X101709266Y-59600609D01*
X101695059Y-59607413D01*
X101680980Y-59615300D01*
X101672499Y-59620808D01*
X101610726Y-59544717D01*
X101609830Y-59543233D01*
X101609329Y-59541489D01*
X101609199Y-59539518D01*
X101609423Y-59537329D01*
X101609972Y-59534943D01*
X101610839Y-59532381D01*
X101611993Y-59529660D01*
X101613422Y-59526804D01*
X101617008Y-59520747D01*
X101621436Y-59514368D01*
X101626542Y-59507819D01*
X101632162Y-59501252D01*
X101638139Y-59494823D01*
X101644307Y-59488683D01*
X101650506Y-59482987D01*
X101656569Y-59477892D01*
X101662344Y-59473543D01*
X101667660Y-59470099D01*
X101670096Y-59468765D01*
X101672356Y-59467713D01*
X101674423Y-59466965D01*
X101676274Y-59466541D01*
X101956220Y-59424832D01*
X101959894Y-59424489D01*
X101963843Y-59424498D01*
G37*
G36*
X101676672Y-59625955D02*
G01*
X101667052Y-59624348D01*
X101672499Y-59620808D01*
X101676672Y-59625955D01*
G37*
G36*
X102602850Y-59504615D02*
G01*
X102635761Y-59506601D01*
X102667485Y-59509472D01*
X102697726Y-59513131D01*
X102726194Y-59517471D01*
X102734768Y-59598326D01*
X102734741Y-59599601D01*
X102734401Y-59600879D01*
X102733764Y-59602156D01*
X102732853Y-59603428D01*
X102731675Y-59604699D01*
X102730259Y-59605956D01*
X102726761Y-59608434D01*
X102722510Y-59610843D01*
X102717637Y-59613156D01*
X102712288Y-59615362D01*
X102706603Y-59617425D01*
X102700727Y-59619332D01*
X102694796Y-59621056D01*
X102688956Y-59622575D01*
X102683346Y-59623871D01*
X102678108Y-59624916D01*
X102673385Y-59625691D01*
X102669314Y-59626172D01*
X102666042Y-59626340D01*
X102436910Y-59626452D01*
X102356743Y-59699807D01*
X102356706Y-59699846D01*
X102629997Y-59720812D01*
X102631858Y-59721146D01*
X102633823Y-59721852D01*
X102635876Y-59722913D01*
X102638007Y-59724302D01*
X102640199Y-59725995D01*
X102642438Y-59727970D01*
X102647002Y-59732680D01*
X102651587Y-59738232D01*
X102656081Y-59744452D01*
X102660371Y-59751142D01*
X102664342Y-59758129D01*
X102667892Y-59765214D01*
X102670897Y-59772215D01*
X102673251Y-59778943D01*
X102674149Y-59782152D01*
X102674837Y-59785217D01*
X102675311Y-59788130D01*
X102675546Y-59790848D01*
X102675537Y-59793363D01*
X102675268Y-59795652D01*
X102674721Y-59797679D01*
X102673884Y-59799434D01*
X102672744Y-59800884D01*
X102671284Y-59802013D01*
X102662838Y-59806563D01*
X102651143Y-59812183D01*
X102637223Y-59818339D01*
X102622085Y-59824485D01*
X102606753Y-59830083D01*
X102599331Y-59832505D01*
X102592238Y-59834590D01*
X102585606Y-59836265D01*
X102579558Y-59837467D01*
X102574222Y-59838125D01*
X102569730Y-59838173D01*
X102110469Y-59805878D01*
X101681899Y-59788852D01*
X101495046Y-59784334D01*
X101495720Y-59758971D01*
X101496191Y-59746941D01*
X101496546Y-59741256D01*
X101497014Y-59735847D01*
X101497619Y-59730768D01*
X101498390Y-59726063D01*
X101499341Y-59721784D01*
X101499899Y-59719818D01*
X101500511Y-59717969D01*
X101501181Y-59716252D01*
X101501914Y-59714671D01*
X101502713Y-59713230D01*
X101503579Y-59711938D01*
X101504515Y-59710792D01*
X101505529Y-59709809D01*
X101506621Y-59708990D01*
X101507790Y-59708339D01*
X101571849Y-59678720D01*
X101679219Y-59629089D01*
X101676672Y-59625955D01*
X102082382Y-59693798D01*
X102220826Y-59587725D01*
X102232786Y-59579089D01*
X102245353Y-59570996D01*
X102272179Y-59556390D01*
X102301012Y-59543810D01*
X102331561Y-59533147D01*
X102363535Y-59524303D01*
X102396643Y-59517173D01*
X102430596Y-59511655D01*
X102465101Y-59507645D01*
X102499872Y-59505037D01*
X102534614Y-59503735D01*
X102569035Y-59503628D01*
X102602850Y-59504615D01*
G37*
G36*
X109127775Y-59679263D02*
G01*
X109129914Y-59700681D01*
X109131319Y-59722120D01*
X109132009Y-59743513D01*
X109132009Y-59764808D01*
X109131336Y-59785928D01*
X109130011Y-59806817D01*
X109128050Y-59827404D01*
X109125475Y-59847630D01*
X109122303Y-59867432D01*
X109118555Y-59886744D01*
X109114251Y-59905497D01*
X109109408Y-59923636D01*
X109104048Y-59941091D01*
X109098188Y-59957796D01*
X109091852Y-59973692D01*
X109085052Y-59988718D01*
X109077815Y-60002800D01*
X109070153Y-60015877D01*
X109062091Y-60027893D01*
X109053648Y-60038772D01*
X109044841Y-60048459D01*
X109035692Y-60056884D01*
X109026219Y-60063988D01*
X109016439Y-60069708D01*
X109006374Y-60073970D01*
X108996044Y-60076719D01*
X108953466Y-60084042D01*
X108908873Y-60090441D01*
X108814700Y-60100720D01*
X108715671Y-60108077D01*
X108613930Y-60113029D01*
X108511627Y-60116092D01*
X108410898Y-60117782D01*
X108222779Y-60119118D01*
X108115429Y-60119326D01*
X108011291Y-60118311D01*
X107909568Y-60115468D01*
X107809472Y-60110194D01*
X107710219Y-60101879D01*
X107611016Y-60089918D01*
X107561185Y-60082386D01*
X107511072Y-60073714D01*
X107460579Y-60063826D01*
X107409602Y-60052649D01*
X106942229Y-59944627D01*
X106925256Y-59941196D01*
X106906285Y-59938235D01*
X106885587Y-59935744D01*
X106863452Y-59933696D01*
X106815978Y-59930922D01*
X106766114Y-59929825D01*
X106716097Y-59930312D01*
X106668172Y-59932299D01*
X106624585Y-59935696D01*
X106605124Y-59937898D01*
X106587587Y-59940418D01*
X106535468Y-59967064D01*
X106483840Y-59992150D01*
X106432553Y-60015771D01*
X106381467Y-60038026D01*
X106279311Y-60078853D01*
X106176211Y-60115439D01*
X106071008Y-60148598D01*
X105962537Y-60179130D01*
X105849645Y-60207845D01*
X105731172Y-60235557D01*
X105750142Y-60254194D01*
X105769258Y-60270767D01*
X105788557Y-60285440D01*
X105808077Y-60298377D01*
X105827847Y-60309742D01*
X105847919Y-60319695D01*
X105868315Y-60328407D01*
X105889085Y-60336034D01*
X105910263Y-60342746D01*
X105931885Y-60348702D01*
X105953985Y-60354071D01*
X105976606Y-60359012D01*
X106073033Y-60377790D01*
X106472598Y-60457115D01*
X106476746Y-60458866D01*
X106480716Y-60461472D01*
X106484502Y-60464869D01*
X106488093Y-60469014D01*
X106491489Y-60473836D01*
X106494680Y-60479280D01*
X106497664Y-60485294D01*
X106500434Y-60491811D01*
X106504749Y-60504526D01*
X106505295Y-60506136D01*
X106509230Y-60521786D01*
X106512182Y-60538307D01*
X106514107Y-60555227D01*
X106514957Y-60572083D01*
X106514686Y-60588408D01*
X106513240Y-60603738D01*
X106512063Y-60610884D01*
X106510581Y-60617610D01*
X106508778Y-60623856D01*
X106506649Y-60629557D01*
X106504196Y-60634666D01*
X106501409Y-60639117D01*
X106498281Y-60642854D01*
X106494808Y-60645821D01*
X106490980Y-60647956D01*
X106486793Y-60649206D01*
X106356590Y-60672626D01*
X106161921Y-60707640D01*
X106025726Y-60731342D01*
X105891714Y-60752454D01*
X105825539Y-60761743D01*
X105759937Y-60770026D01*
X105694907Y-60777183D01*
X105630456Y-60783094D01*
X105278302Y-60811910D01*
X105285701Y-60817688D01*
X105312121Y-60838311D01*
X105341213Y-60860306D01*
X105366881Y-60878759D01*
X105378839Y-60886929D01*
X105390432Y-60894536D01*
X105401820Y-60901689D01*
X105413170Y-60908494D01*
X105424643Y-60915055D01*
X105436400Y-60921490D01*
X105461429Y-60934392D01*
X105489563Y-60948055D01*
X105573134Y-60987816D01*
X105574240Y-60988582D01*
X105575137Y-60989724D01*
X105575847Y-60991206D01*
X105576373Y-60993016D01*
X105576717Y-60995120D01*
X105576895Y-60997498D01*
X105576777Y-61002977D01*
X105576091Y-61009252D01*
X105574905Y-61016133D01*
X105573283Y-61023420D01*
X105571301Y-61030919D01*
X105569026Y-61038432D01*
X105566530Y-61045766D01*
X105563871Y-61052722D01*
X105561128Y-61059110D01*
X105558368Y-61064727D01*
X105555660Y-61069385D01*
X105553072Y-61072883D01*
X105551842Y-61074134D01*
X105550675Y-61075021D01*
X105531208Y-61085512D01*
X105511197Y-61093470D01*
X105490621Y-61099073D01*
X105469437Y-61102490D01*
X105447629Y-61103895D01*
X105425161Y-61103467D01*
X105378142Y-61097779D01*
X105328151Y-61086807D01*
X105274957Y-61071935D01*
X105158050Y-61036008D01*
X105093880Y-61017709D01*
X105025601Y-61001038D01*
X104952972Y-60987363D01*
X104875771Y-60978073D01*
X104835382Y-60975499D01*
X104793769Y-60974545D01*
X104750893Y-60975372D01*
X104706735Y-60978161D01*
X104661261Y-60983077D01*
X104614443Y-60990298D01*
X104566259Y-60999999D01*
X104516668Y-61012346D01*
X104526810Y-61221926D01*
X104045507Y-61177154D01*
X103568758Y-61148835D01*
X103461692Y-61263248D01*
X103457621Y-61267112D01*
X103452583Y-61271094D01*
X103446695Y-61275128D01*
X103440096Y-61279151D01*
X103432904Y-61283091D01*
X103425247Y-61286892D01*
X103417255Y-61290481D01*
X103409049Y-61293792D01*
X103400758Y-61296762D01*
X103392512Y-61299322D01*
X103384430Y-61301410D01*
X103376639Y-61302955D01*
X103369273Y-61303900D01*
X103362449Y-61304169D01*
X103359286Y-61304035D01*
X103356303Y-61303702D01*
X103353521Y-61303170D01*
X103350952Y-61302432D01*
X103343608Y-61299482D01*
X103336839Y-61295926D01*
X103330576Y-61291813D01*
X103324769Y-61287192D01*
X103319355Y-61282100D01*
X103314278Y-61276586D01*
X103304888Y-61264462D01*
X103268914Y-61207976D01*
X103257965Y-61193637D01*
X103251866Y-61186681D01*
X103245279Y-61179928D01*
X103238141Y-61173421D01*
X103230396Y-61167203D01*
X103221979Y-61161322D01*
X103212838Y-61155822D01*
X103202908Y-61150746D01*
X103192134Y-61146141D01*
X103180456Y-61142046D01*
X103167814Y-61138511D01*
X103154152Y-61135580D01*
X103139406Y-61133295D01*
X103123520Y-61131707D01*
X103106439Y-61130851D01*
X102842369Y-61123852D01*
X102739331Y-60966381D01*
X102163238Y-60934665D01*
X101836409Y-60910406D01*
X103744126Y-60910406D01*
X103763262Y-60929464D01*
X103782394Y-60910406D01*
X103763262Y-60891348D01*
X103744126Y-60910406D01*
X101836409Y-60910406D01*
X101682243Y-60898963D01*
X101648389Y-60896765D01*
X101615093Y-60895226D01*
X101582402Y-60894331D01*
X101550362Y-60894067D01*
X101519035Y-60894416D01*
X101488463Y-60895363D01*
X101458699Y-60896900D01*
X101429792Y-60899005D01*
X101401800Y-60901666D01*
X101374764Y-60904868D01*
X101348742Y-60908595D01*
X101323782Y-60912838D01*
X101299935Y-60917576D01*
X101277252Y-60922795D01*
X101255785Y-60928483D01*
X101235579Y-60934623D01*
X101216693Y-60941201D01*
X101199177Y-60948201D01*
X101183077Y-60955612D01*
X101168439Y-60963414D01*
X101155330Y-60971595D01*
X101154391Y-60972289D01*
X101143784Y-60980143D01*
X101133864Y-60989038D01*
X101125615Y-60998271D01*
X101119088Y-61007823D01*
X101114334Y-61017679D01*
X101111405Y-61027827D01*
X101110353Y-61038247D01*
X101111223Y-61048935D01*
X101114075Y-61059867D01*
X101118949Y-61071025D01*
X101125903Y-61082409D01*
X101141135Y-61105049D01*
X101155842Y-61128532D01*
X101169968Y-61152762D01*
X101183450Y-61177629D01*
X101196215Y-61203036D01*
X101208207Y-61228881D01*
X101219356Y-61255055D01*
X101229602Y-61281462D01*
X101193985Y-61294531D01*
X101160034Y-61305559D01*
X101127661Y-61314662D01*
X101096784Y-61321955D01*
X101067319Y-61327553D01*
X101039184Y-61331566D01*
X101012292Y-61334111D01*
X100986563Y-61335301D01*
X100961911Y-61335251D01*
X100938251Y-61334076D01*
X100915499Y-61331883D01*
X100893578Y-61328795D01*
X100872396Y-61324920D01*
X100851876Y-61320373D01*
X100812467Y-61309721D01*
X100774689Y-61297755D01*
X100737870Y-61285375D01*
X100701337Y-61273505D01*
X100664425Y-61263049D01*
X100645615Y-61258638D01*
X100626458Y-61254920D01*
X100606870Y-61252013D01*
X100586767Y-61250031D01*
X100566067Y-61249084D01*
X100544685Y-61249287D01*
X100522535Y-61250758D01*
X100499539Y-61253605D01*
X99947294Y-61337866D01*
X99923789Y-61340009D01*
X99898205Y-61339772D01*
X99870843Y-61337375D01*
X99842009Y-61333044D01*
X99812006Y-61327000D01*
X99781137Y-61319468D01*
X99749701Y-61310668D01*
X99718009Y-61300832D01*
X99686355Y-61290175D01*
X99655053Y-61278914D01*
X99594695Y-61255509D01*
X99539360Y-61232398D01*
X99491477Y-61211362D01*
X99196872Y-61079579D01*
X98949679Y-60960609D01*
X98931641Y-60953048D01*
X98911378Y-60946505D01*
X98889171Y-60940888D01*
X98865299Y-60936100D01*
X98840038Y-60932039D01*
X98813667Y-60928604D01*
X98758719Y-60923230D01*
X98647816Y-60915720D01*
X98596327Y-60912004D01*
X98550455Y-60907269D01*
X98466988Y-60897372D01*
X98386578Y-60889925D01*
X98308313Y-60884995D01*
X98231290Y-60882658D01*
X98154608Y-60882988D01*
X98077357Y-60886061D01*
X97998640Y-60891947D01*
X97917546Y-60900724D01*
X97836899Y-60909357D01*
X97754471Y-60915670D01*
X97670706Y-60919914D01*
X97586064Y-60922340D01*
X97500992Y-60923193D01*
X97415924Y-60922716D01*
X97247637Y-60918786D01*
X96831197Y-60905201D01*
X96560929Y-60906157D01*
X96556620Y-60901033D01*
X96551883Y-60894242D01*
X96546835Y-60885981D01*
X96541585Y-60876459D01*
X96536258Y-60865873D01*
X96530965Y-60854424D01*
X96525821Y-60842314D01*
X96520951Y-60829742D01*
X96516464Y-60816911D01*
X96512478Y-60804018D01*
X96509109Y-60791270D01*
X96506472Y-60778863D01*
X96504688Y-60767001D01*
X96503868Y-60755879D01*
X96504132Y-60745707D01*
X96504710Y-60741040D01*
X96505595Y-60736681D01*
X96506829Y-60732417D01*
X96508418Y-60728022D01*
X96510344Y-60723505D01*
X96512585Y-60718884D01*
X96517952Y-60709368D01*
X96524378Y-60699574D01*
X96531709Y-60689600D01*
X96539816Y-60679553D01*
X96548546Y-60669525D01*
X96557757Y-60659625D01*
X96567305Y-60649946D01*
X96577048Y-60640587D01*
X96586843Y-60631656D01*
X96596543Y-60623250D01*
X96606003Y-60615467D01*
X96615084Y-60608403D01*
X96623644Y-60602169D01*
X96631530Y-60596861D01*
X96806592Y-60484512D01*
X96822560Y-60474836D01*
X96842126Y-60463934D01*
X96864156Y-60452378D01*
X96887549Y-60440750D01*
X96911174Y-60429634D01*
X96918443Y-60426427D01*
X99098301Y-60426427D01*
X99447053Y-60597664D01*
X99446627Y-60667536D01*
X99446480Y-60668763D01*
X99446061Y-60669924D01*
X99445385Y-60671022D01*
X99444467Y-60672053D01*
X99443324Y-60673031D01*
X99441972Y-60673940D01*
X99440422Y-60674793D01*
X99438698Y-60675591D01*
X99434777Y-60677014D01*
X99430326Y-60678218D01*
X99425474Y-60679224D01*
X99420344Y-60680029D01*
X99415066Y-60680647D01*
X99409758Y-60681089D01*
X99404548Y-60681366D01*
X99399561Y-60681484D01*
X99394923Y-60681454D01*
X99390752Y-60681286D01*
X99387183Y-60680996D01*
X99384334Y-60680584D01*
X99130632Y-60632522D01*
X99139133Y-60651891D01*
X99148447Y-60669986D01*
X99158571Y-60686915D01*
X99169487Y-60702779D01*
X99181193Y-60717681D01*
X99193677Y-60731722D01*
X99220931Y-60757624D01*
X99251169Y-60781308D01*
X99284315Y-60803588D01*
X99320289Y-60825280D01*
X99358998Y-60847206D01*
X99444344Y-60895012D01*
X99490807Y-60922527D01*
X99539692Y-60953542D01*
X99590919Y-60988868D01*
X99644407Y-61029326D01*
X99700076Y-61075732D01*
X99757842Y-61128901D01*
X99832114Y-61200685D01*
X99834392Y-61202487D01*
X99837097Y-61203923D01*
X99840191Y-61205007D01*
X99843640Y-61205755D01*
X99847405Y-61206177D01*
X99851457Y-61206293D01*
X99855758Y-61206115D01*
X99860273Y-61205655D01*
X99864972Y-61204927D01*
X99869810Y-61203947D01*
X99879785Y-61201283D01*
X99889922Y-61197781D01*
X99899935Y-61193541D01*
X99909547Y-61188684D01*
X99914118Y-61186055D01*
X99918479Y-61183319D01*
X99922606Y-61180479D01*
X99926454Y-61177554D01*
X99929992Y-61174562D01*
X99933186Y-61171510D01*
X99936000Y-61168414D01*
X99938400Y-61165292D01*
X99940347Y-61162154D01*
X99941814Y-61159017D01*
X99942758Y-61155892D01*
X99943151Y-61152791D01*
X99942952Y-61149736D01*
X99942126Y-61146730D01*
X99942135Y-61146723D01*
X99942145Y-61146710D01*
X99942165Y-61146691D01*
X99880824Y-60988198D01*
X100352638Y-60984756D01*
X100724575Y-61046822D01*
X100730183Y-61047526D01*
X100736726Y-61047958D01*
X100744061Y-61048134D01*
X100752056Y-61048073D01*
X100769466Y-61047345D01*
X100787844Y-61045957D01*
X100806083Y-61044082D01*
X100823075Y-61041908D01*
X100837717Y-61039612D01*
X100848898Y-61037372D01*
X100851819Y-61036353D01*
X100854546Y-61034747D01*
X100857087Y-61032596D01*
X100859439Y-61029932D01*
X100861602Y-61026803D01*
X100863573Y-61023240D01*
X100865356Y-61019284D01*
X100866950Y-61014974D01*
X100868359Y-61010346D01*
X100869577Y-61005435D01*
X100871444Y-60994940D01*
X100872559Y-60983789D01*
X100872922Y-60972289D01*
X100872529Y-60960753D01*
X100871388Y-60949481D01*
X100869494Y-60938784D01*
X100866852Y-60928967D01*
X100865246Y-60924482D01*
X100863459Y-60920331D01*
X100861480Y-60916557D01*
X100859314Y-60913195D01*
X100856963Y-60910282D01*
X100854423Y-60907859D01*
X100851697Y-60905958D01*
X100848783Y-60904629D01*
X100821124Y-60895775D01*
X100790612Y-60887305D01*
X100757647Y-60879316D01*
X100722625Y-60871895D01*
X100685953Y-60865134D01*
X100648025Y-60859122D01*
X100609240Y-60853949D01*
X100569998Y-60849711D01*
X100530698Y-60846496D01*
X100491741Y-60844393D01*
X100453523Y-60843489D01*
X100416443Y-60843880D01*
X100380903Y-60845657D01*
X100347304Y-60848909D01*
X100316039Y-60853728D01*
X100287509Y-60860203D01*
X100240586Y-60872569D01*
X100219106Y-60877844D01*
X100198720Y-60882460D01*
X100179260Y-60886413D01*
X100160554Y-60889659D01*
X100142433Y-60892178D01*
X100124725Y-60893938D01*
X100107261Y-60894913D01*
X100089867Y-60895074D01*
X100072380Y-60894395D01*
X100054621Y-60892849D01*
X100036428Y-60890405D01*
X100017627Y-60887037D01*
X99998048Y-60882718D01*
X99977523Y-60877421D01*
X99931508Y-60863592D01*
X99886920Y-60847812D01*
X99843810Y-60830056D01*
X99802224Y-60810297D01*
X99762218Y-60788508D01*
X99749570Y-60780648D01*
X103828466Y-60780648D01*
X104160494Y-60893034D01*
X104183161Y-60900421D01*
X104204998Y-60906860D01*
X104218974Y-60910406D01*
X104226056Y-60912202D01*
X104246378Y-60916307D01*
X104256280Y-60917852D01*
X104266013Y-60919036D01*
X104275589Y-60919838D01*
X104285009Y-60920245D01*
X104294278Y-60920235D01*
X104303408Y-60919789D01*
X104312399Y-60918898D01*
X104321261Y-60917536D01*
X104329996Y-60915690D01*
X104338611Y-60913340D01*
X104347116Y-60910467D01*
X104355509Y-60907059D01*
X104363802Y-60903095D01*
X104371999Y-60898552D01*
X104380108Y-60893420D01*
X104388129Y-60887676D01*
X104396071Y-60881308D01*
X104403945Y-60874294D01*
X104411747Y-60866621D01*
X104419492Y-60858263D01*
X104427181Y-60849211D01*
X104434818Y-60839444D01*
X104442413Y-60828942D01*
X104449973Y-60817688D01*
X104235876Y-60750000D01*
X103836769Y-60674002D01*
X103828466Y-60780648D01*
X99749570Y-60780648D01*
X99723844Y-60764661D01*
X99687157Y-60738726D01*
X99652204Y-60710680D01*
X99619038Y-60680495D01*
X99595601Y-60656286D01*
X100670161Y-60656286D01*
X101001106Y-60603020D01*
X104369652Y-60603020D01*
X104423126Y-60621185D01*
X104474574Y-60636867D01*
X104524280Y-60650210D01*
X104572538Y-60661339D01*
X104619632Y-60670402D01*
X104665858Y-60677532D01*
X104711499Y-60682866D01*
X104756842Y-60686537D01*
X104802188Y-60688690D01*
X104847812Y-60689456D01*
X104894014Y-60688970D01*
X104941074Y-60687378D01*
X105038936Y-60681405D01*
X105143722Y-60672626D01*
X105131301Y-60652524D01*
X105117748Y-60633984D01*
X105103092Y-60616960D01*
X105087381Y-60601412D01*
X105070640Y-60587305D01*
X105052913Y-60574597D01*
X105034246Y-60563244D01*
X105014663Y-60553209D01*
X104994211Y-60544448D01*
X104972921Y-60536927D01*
X104950834Y-60530605D01*
X104927989Y-60525437D01*
X104880171Y-60518408D01*
X104829768Y-60515522D01*
X104777081Y-60516459D01*
X104722413Y-60520895D01*
X104666063Y-60528514D01*
X104608334Y-60538986D01*
X104549525Y-60551997D01*
X104489943Y-60567216D01*
X104429883Y-60584334D01*
X104369652Y-60603020D01*
X101001106Y-60603020D01*
X101381017Y-60541873D01*
X101341874Y-60494463D01*
X101341874Y-60494426D01*
X101096360Y-60493775D01*
X101063193Y-60494142D01*
X101029520Y-60495474D01*
X100995636Y-60497838D01*
X100961838Y-60501310D01*
X100928416Y-60505967D01*
X100895673Y-60511876D01*
X100863894Y-60519118D01*
X100833383Y-60527764D01*
X100804428Y-60537881D01*
X100790629Y-60543518D01*
X100777329Y-60549557D01*
X100764567Y-60555994D01*
X100753327Y-60562316D01*
X100752378Y-60562852D01*
X100745332Y-60567282D01*
X100740798Y-60570131D01*
X100729868Y-60577847D01*
X100719621Y-60586006D01*
X100710097Y-60594614D01*
X100701330Y-60603684D01*
X100693360Y-60613227D01*
X100686221Y-60623250D01*
X100679950Y-60633761D01*
X100674585Y-60644768D01*
X100670161Y-60656286D01*
X99595601Y-60656286D01*
X99587715Y-60648140D01*
X99558281Y-60613596D01*
X99556982Y-60611859D01*
X99959693Y-60611859D01*
X99959731Y-60611858D01*
X100172218Y-60622917D01*
X100173575Y-60622802D01*
X100175160Y-60622339D01*
X100176951Y-60621557D01*
X100178931Y-60620471D01*
X100181076Y-60619111D01*
X100183368Y-60617498D01*
X100188305Y-60613594D01*
X100193592Y-60608942D01*
X100199050Y-60603728D01*
X100204529Y-60598132D01*
X100209865Y-60592334D01*
X100214893Y-60586519D01*
X100219446Y-60580866D01*
X100223373Y-60575555D01*
X100226505Y-60570777D01*
X100227720Y-60568636D01*
X100228396Y-60567282D01*
X100380303Y-60567282D01*
X100405367Y-60569463D01*
X100431309Y-60569463D01*
X100456374Y-60567282D01*
X100431309Y-60565098D01*
X100405367Y-60565098D01*
X100380303Y-60567282D01*
X100228396Y-60567282D01*
X100228685Y-60566702D01*
X100229359Y-60564984D01*
X100229741Y-60563515D01*
X100229798Y-60562316D01*
X100229517Y-60561405D01*
X100228878Y-60560809D01*
X100227854Y-60560547D01*
X100221377Y-60559849D01*
X100212298Y-60558610D01*
X100189803Y-60555528D01*
X100178142Y-60554192D01*
X100167375Y-60553330D01*
X100162598Y-60553155D01*
X100158374Y-60553197D01*
X100154809Y-60553479D01*
X100152010Y-60554043D01*
X99959693Y-60611859D01*
X99556982Y-60611859D01*
X99530792Y-60576825D01*
X99505296Y-60537808D01*
X99481851Y-60496511D01*
X99464994Y-60462083D01*
X99759693Y-60462083D01*
X99759696Y-60464372D01*
X99759855Y-60466809D01*
X99760165Y-60469370D01*
X99760616Y-60472035D01*
X99761907Y-60477591D01*
X99763666Y-60483315D01*
X99765821Y-60489039D01*
X99768304Y-60494610D01*
X99771057Y-60499847D01*
X99774010Y-60504594D01*
X99775536Y-60506732D01*
X99777091Y-60508688D01*
X99778659Y-60510433D01*
X99780242Y-60511956D01*
X99781816Y-60513234D01*
X99783383Y-60514243D01*
X99784937Y-60514967D01*
X99786464Y-60515379D01*
X99787958Y-60515464D01*
X99789410Y-60515203D01*
X99860736Y-60492971D01*
X99867016Y-60491019D01*
X101378030Y-60491019D01*
X101378070Y-60491019D01*
X101405992Y-60541873D01*
X101408262Y-60546006D01*
X101759499Y-60455200D01*
X101744614Y-60442437D01*
X101729931Y-60431080D01*
X101715445Y-60421082D01*
X101701158Y-60412387D01*
X101687065Y-60404943D01*
X101673172Y-60398703D01*
X101659475Y-60393613D01*
X101645971Y-60389628D01*
X101632660Y-60386692D01*
X101619545Y-60384749D01*
X101606620Y-60383757D01*
X101593889Y-60383659D01*
X101581343Y-60384404D01*
X101568988Y-60385947D01*
X101556822Y-60388232D01*
X101544845Y-60391201D01*
X101533054Y-60394817D01*
X101521446Y-60399016D01*
X101510027Y-60403757D01*
X101498793Y-60408987D01*
X101476872Y-60420693D01*
X101455679Y-60433732D01*
X101435205Y-60447693D01*
X101415444Y-60462165D01*
X101378030Y-60491019D01*
X99867016Y-60491019D01*
X100120451Y-60412250D01*
X100095724Y-60405968D01*
X100070846Y-60400929D01*
X100045980Y-60397135D01*
X100021203Y-60394569D01*
X99996608Y-60393207D01*
X99972289Y-60393034D01*
X99948328Y-60394029D01*
X99924816Y-60396177D01*
X99901841Y-60399455D01*
X99879491Y-60403848D01*
X99857854Y-60409333D01*
X99837018Y-60415896D01*
X99817073Y-60423511D01*
X99798107Y-60432168D01*
X99780209Y-60441849D01*
X99763467Y-60452525D01*
X99762346Y-60453512D01*
X99761436Y-60454776D01*
X99760719Y-60456280D01*
X99760199Y-60458015D01*
X99759860Y-60459955D01*
X99759693Y-60462083D01*
X99464994Y-60462083D01*
X99460504Y-60452912D01*
X99441310Y-60406989D01*
X99208734Y-60368952D01*
X99205241Y-60368570D01*
X99201586Y-60368573D01*
X99197701Y-60368993D01*
X99193526Y-60369855D01*
X99189002Y-60371195D01*
X99184069Y-60373042D01*
X99178650Y-60375432D01*
X99172700Y-60378389D01*
X99166153Y-60381951D01*
X99158940Y-60386150D01*
X99142283Y-60396573D01*
X99122236Y-60409913D01*
X99098301Y-60426427D01*
X96918443Y-60426427D01*
X96933923Y-60419598D01*
X96954678Y-60411235D01*
X96963957Y-60407854D01*
X96972318Y-60405113D01*
X97067714Y-60375915D01*
X97069237Y-60375215D01*
X97070315Y-60374212D01*
X97070965Y-60372912D01*
X97071217Y-60371349D01*
X97071090Y-60369541D01*
X97070600Y-60367508D01*
X97069779Y-60365273D01*
X97068643Y-60362859D01*
X97065526Y-60357565D01*
X97061427Y-60351797D01*
X97056523Y-60345733D01*
X97050993Y-60339539D01*
X97045015Y-60333384D01*
X97038772Y-60327436D01*
X97032438Y-60321865D01*
X97026193Y-60316847D01*
X97020217Y-60312549D01*
X97014686Y-60309135D01*
X97012146Y-60307817D01*
X97009786Y-60306785D01*
X97007623Y-60306060D01*
X97005687Y-60305662D01*
X96584385Y-60253465D01*
X96153401Y-60129718D01*
X95704357Y-59941528D01*
X95696451Y-59936926D01*
X95689209Y-59930121D01*
X95682641Y-59921265D01*
X95676745Y-59910490D01*
X95671520Y-59897942D01*
X95666968Y-59883772D01*
X95659890Y-59851107D01*
X95655520Y-59813638D01*
X95653859Y-59772513D01*
X95654918Y-59728866D01*
X95655524Y-59721655D01*
X95841194Y-59721655D01*
X95885739Y-59753941D01*
X95930684Y-59783780D01*
X95975963Y-59811291D01*
X96021525Y-59836588D01*
X96067301Y-59859792D01*
X96113245Y-59881018D01*
X96205374Y-59918007D01*
X96297437Y-59948489D01*
X96388963Y-59973416D01*
X96479475Y-59993713D01*
X96568505Y-60010325D01*
X96740210Y-60036252D01*
X96900296Y-60058697D01*
X96974794Y-60070965D01*
X97044970Y-60085184D01*
X97110349Y-60102285D01*
X97170457Y-60123211D01*
X97433171Y-60229364D01*
X97396184Y-60002525D01*
X97050688Y-60003479D01*
X97002559Y-60003291D01*
X96953436Y-60002133D01*
X96904135Y-59999514D01*
X96879671Y-59997504D01*
X96855473Y-59994944D01*
X96831641Y-59991770D01*
X96808280Y-59987920D01*
X96785486Y-59983335D01*
X96763367Y-59977959D01*
X96742025Y-59971718D01*
X96721561Y-59964558D01*
X96702079Y-59956418D01*
X96683682Y-59947229D01*
X96681890Y-59940009D01*
X96679656Y-59931873D01*
X96677019Y-59923007D01*
X96674014Y-59913599D01*
X96670678Y-59903829D01*
X96667051Y-59893884D01*
X96663168Y-59883950D01*
X96659073Y-59874214D01*
X96654797Y-59864858D01*
X96650383Y-59856071D01*
X96645868Y-59848037D01*
X96641284Y-59840935D01*
X96638981Y-59837797D01*
X96636673Y-59834962D01*
X96634375Y-59832453D01*
X96632077Y-59830293D01*
X96629798Y-59828510D01*
X96627533Y-59827119D01*
X96625287Y-59826151D01*
X96623070Y-59825623D01*
X96078096Y-59751654D01*
X96039354Y-59693990D01*
X96458757Y-59693990D01*
X96890353Y-59717178D01*
X96877303Y-59813263D01*
X96877269Y-59815049D01*
X96877648Y-59816786D01*
X96878414Y-59818469D01*
X96879546Y-59820100D01*
X96881023Y-59821681D01*
X96882821Y-59823212D01*
X96884915Y-59824688D01*
X96887287Y-59826114D01*
X96892759Y-59828809D01*
X96899064Y-59831297D01*
X96906014Y-59833569D01*
X96913425Y-59835633D01*
X96921120Y-59837484D01*
X96928916Y-59839122D01*
X96944073Y-59841743D01*
X96957441Y-59843498D01*
X96967570Y-59844372D01*
X97329678Y-59863659D01*
X97355312Y-59864625D01*
X97379872Y-59864680D01*
X97403425Y-59863762D01*
X97426049Y-59861796D01*
X97447819Y-59858719D01*
X97468810Y-59854465D01*
X97489096Y-59848966D01*
X97498999Y-59845727D01*
X97508756Y-59842152D01*
X97518379Y-59838234D01*
X97527866Y-59833959D01*
X97537237Y-59829329D01*
X97546498Y-59824325D01*
X97555659Y-59818941D01*
X97564727Y-59813173D01*
X97573713Y-59807007D01*
X97582628Y-59800441D01*
X97600280Y-59786062D01*
X97617754Y-59769969D01*
X97635134Y-59752091D01*
X97652482Y-59732371D01*
X98089740Y-59703708D01*
X98460493Y-59670687D01*
X98461777Y-59670702D01*
X98463185Y-59670951D01*
X98464698Y-59671427D01*
X98466310Y-59672110D01*
X98468010Y-59672986D01*
X98469786Y-59674049D01*
X98473505Y-59676674D01*
X98477380Y-59679870D01*
X98481319Y-59683531D01*
X98485221Y-59687552D01*
X98488998Y-59691834D01*
X98492547Y-59696262D01*
X98495784Y-59700731D01*
X98498599Y-59705143D01*
X98500920Y-59709381D01*
X98501862Y-59711404D01*
X98502637Y-59713349D01*
X98503238Y-59715192D01*
X98503659Y-59716934D01*
X98503878Y-59718549D01*
X98503889Y-59720032D01*
X98503677Y-59721363D01*
X98503234Y-59722536D01*
X98501704Y-59725137D01*
X98499427Y-59728511D01*
X98496494Y-59732526D01*
X98493005Y-59737060D01*
X98489057Y-59741982D01*
X98484741Y-59747170D01*
X98480153Y-59752491D01*
X98475388Y-59757820D01*
X98470539Y-59763036D01*
X98465707Y-59768002D01*
X98460981Y-59772599D01*
X98456463Y-59776695D01*
X98452240Y-59780168D01*
X98448411Y-59782885D01*
X98446676Y-59783924D01*
X98445073Y-59784724D01*
X98443616Y-59785276D01*
X98442314Y-59785558D01*
X97821272Y-59858262D01*
X97818218Y-59860074D01*
X97815117Y-59862302D01*
X97811970Y-59864931D01*
X97808800Y-59867923D01*
X97802428Y-59874927D01*
X97796095Y-59883109D01*
X97789907Y-59892281D01*
X97783961Y-59902239D01*
X97778358Y-59912792D01*
X97773204Y-59923734D01*
X97768595Y-59934872D01*
X97764638Y-59946010D01*
X97761421Y-59956949D01*
X97759062Y-59967487D01*
X97757647Y-59977431D01*
X97757329Y-59982119D01*
X97757287Y-59986584D01*
X97757533Y-59990801D01*
X97758077Y-59994748D01*
X97758939Y-59998392D01*
X97760122Y-60001722D01*
X97819204Y-60139857D01*
X97445736Y-60181454D01*
X97462256Y-60191760D01*
X97478593Y-60200961D01*
X97494791Y-60209097D01*
X97510913Y-60216208D01*
X97527015Y-60222334D01*
X97543147Y-60227519D01*
X97550129Y-60229364D01*
X97559374Y-60231805D01*
X97575746Y-60235232D01*
X97592321Y-60237846D01*
X97609157Y-60239683D01*
X97626307Y-60240788D01*
X97643830Y-60241202D01*
X97661776Y-60240967D01*
X97680212Y-60240125D01*
X97699185Y-60238719D01*
X97718757Y-60236785D01*
X98382009Y-60164118D01*
X98386591Y-60164595D01*
X98390945Y-60164447D01*
X98395061Y-60163721D01*
X98398941Y-60162456D01*
X98402569Y-60160701D01*
X98405947Y-60158503D01*
X98409065Y-60155897D01*
X98411923Y-60152938D01*
X98414504Y-60149663D01*
X98416812Y-60146119D01*
X98418837Y-60142351D01*
X98420572Y-60138401D01*
X98422013Y-60134317D01*
X98423152Y-60130138D01*
X98423982Y-60125914D01*
X98424499Y-60121685D01*
X98424699Y-60117501D01*
X98424574Y-60113399D01*
X98424115Y-60109427D01*
X98423320Y-60105634D01*
X98422178Y-60102057D01*
X98420688Y-60098741D01*
X98418844Y-60095736D01*
X98416638Y-60093085D01*
X98414064Y-60090825D01*
X98411113Y-60089007D01*
X98407787Y-60087675D01*
X98404071Y-60086871D01*
X98399964Y-60086645D01*
X98395456Y-60087035D01*
X98390545Y-60088084D01*
X98385225Y-60089844D01*
X97976780Y-60113800D01*
X97980425Y-60104611D01*
X97984546Y-60095410D01*
X97989101Y-60086262D01*
X97994021Y-60077251D01*
X97999259Y-60068439D01*
X98004758Y-60059913D01*
X98010464Y-60051736D01*
X98016324Y-60043988D01*
X98022280Y-60036739D01*
X98028284Y-60030070D01*
X98034272Y-60024043D01*
X98034716Y-60023646D01*
X98613707Y-60023646D01*
X98662266Y-60065930D01*
X98671647Y-60055073D01*
X98679669Y-60044775D01*
X98686262Y-60035143D01*
X98689001Y-60030614D01*
X98691366Y-60026299D01*
X98693343Y-60022207D01*
X98694918Y-60018355D01*
X98696095Y-60014757D01*
X98696858Y-60011430D01*
X98697202Y-60008383D01*
X98697119Y-60005636D01*
X98696603Y-60003203D01*
X98695641Y-60001092D01*
X98694231Y-59999328D01*
X98692365Y-59997913D01*
X98690028Y-59996874D01*
X98687219Y-59996218D01*
X98683930Y-59995962D01*
X98680150Y-59996121D01*
X98675874Y-59996704D01*
X98671091Y-59997733D01*
X98665796Y-59999220D01*
X98659981Y-60001179D01*
X98653633Y-60003623D01*
X98646751Y-60006567D01*
X98639327Y-60010028D01*
X98631350Y-60014019D01*
X98622812Y-60018554D01*
X98613707Y-60023646D01*
X98034716Y-60023646D01*
X98040197Y-60018741D01*
X98043120Y-60016385D01*
X98046002Y-60014237D01*
X98048843Y-60012306D01*
X98051631Y-60010598D01*
X98054364Y-60009132D01*
X98057033Y-60007907D01*
X98059634Y-60006941D01*
X98062152Y-60006233D01*
X98346808Y-59940648D01*
X98648949Y-59870890D01*
X98650248Y-59870688D01*
X98651799Y-59870621D01*
X98655596Y-59870848D01*
X98660183Y-59871536D01*
X98665393Y-59872633D01*
X98671069Y-59874093D01*
X98677058Y-59875874D01*
X98683195Y-59877926D01*
X98689319Y-59880210D01*
X98695274Y-59882670D01*
X98700898Y-59885267D01*
X98706035Y-59887953D01*
X98710519Y-59890682D01*
X98712471Y-59892049D01*
X98714197Y-59893407D01*
X98715681Y-59894760D01*
X98716906Y-59896090D01*
X98717850Y-59897397D01*
X98718490Y-59898677D01*
X98718807Y-59899915D01*
X98718783Y-59901118D01*
X98703325Y-59991157D01*
X98703342Y-59991168D01*
X98703362Y-59991178D01*
X98703400Y-59991196D01*
X98712454Y-60008383D01*
X98724522Y-60031298D01*
X98864307Y-60019400D01*
X98868094Y-60018832D01*
X98871779Y-60017803D01*
X98875375Y-60016332D01*
X98878884Y-60014444D01*
X98882303Y-60012156D01*
X98885638Y-60009500D01*
X98888902Y-60006487D01*
X98892088Y-60003146D01*
X98898249Y-59995566D01*
X98904162Y-59986937D01*
X98909852Y-59977437D01*
X98915353Y-59967244D01*
X98925897Y-59945508D01*
X98936037Y-59923146D01*
X98946016Y-59901597D01*
X98951014Y-59891576D01*
X98956068Y-59882294D01*
X98957782Y-59879598D01*
X98959836Y-59876859D01*
X98964895Y-59871267D01*
X98971088Y-59865542D01*
X98978254Y-59859712D01*
X98986239Y-59853804D01*
X98994887Y-59847843D01*
X99013532Y-59835872D01*
X99051839Y-59812485D01*
X99068985Y-59801495D01*
X99076505Y-59796271D01*
X99083106Y-59791261D01*
X99105074Y-59774527D01*
X99127910Y-59758854D01*
X99151529Y-59744248D01*
X99175845Y-59730716D01*
X99200768Y-59718263D01*
X99226220Y-59706898D01*
X99252104Y-59696633D01*
X99278340Y-59687472D01*
X99304838Y-59679420D01*
X99331516Y-59672488D01*
X99358285Y-59666682D01*
X99385060Y-59662008D01*
X99411750Y-59658477D01*
X99438273Y-59656095D01*
X99464545Y-59654869D01*
X99490471Y-59654808D01*
X99515973Y-59655913D01*
X99540959Y-59658201D01*
X99565343Y-59661675D01*
X99589045Y-59666342D01*
X99611969Y-59672213D01*
X99634037Y-59679291D01*
X99655154Y-59687584D01*
X99675241Y-59697101D01*
X99694207Y-59707852D01*
X99711970Y-59719839D01*
X99728439Y-59733073D01*
X99743529Y-59747557D01*
X99757154Y-59763309D01*
X99769230Y-59780328D01*
X99779663Y-59798622D01*
X99788378Y-59818198D01*
X99789197Y-59820800D01*
X99789615Y-59823321D01*
X99789651Y-59825762D01*
X99789318Y-59828124D01*
X99788630Y-59830410D01*
X99787609Y-59832616D01*
X99786265Y-59834749D01*
X99784611Y-59836805D01*
X99782669Y-59838789D01*
X99780448Y-59840701D01*
X99775236Y-59844317D01*
X99769102Y-59847657D01*
X99762165Y-59850733D01*
X99754549Y-59853559D01*
X99746375Y-59856135D01*
X99737762Y-59858481D01*
X99728842Y-59860599D01*
X99719726Y-59862505D01*
X99710537Y-59864204D01*
X99692445Y-59867027D01*
X99378175Y-59910684D01*
X99376086Y-59911181D01*
X99373706Y-59912114D01*
X99371064Y-59913450D01*
X99368191Y-59915168D01*
X99361844Y-59919631D01*
X99354879Y-59925282D01*
X99347518Y-59931898D01*
X99339970Y-59939261D01*
X99332453Y-59947146D01*
X99325176Y-59955334D01*
X99318359Y-59963606D01*
X99312219Y-59971742D01*
X99306967Y-59979513D01*
X99302817Y-59986704D01*
X99301223Y-59990011D01*
X99299990Y-59993093D01*
X99299134Y-59995918D01*
X99298693Y-59998459D01*
X99298688Y-60000692D01*
X99299147Y-60002584D01*
X99300098Y-60004106D01*
X99301566Y-60005241D01*
X99312703Y-60010779D01*
X99326878Y-60017144D01*
X99343116Y-60023835D01*
X99360455Y-60030363D01*
X99377924Y-60036235D01*
X99386400Y-60038768D01*
X99394552Y-60040952D01*
X99402247Y-60042727D01*
X99409372Y-60044028D01*
X99415799Y-60044790D01*
X99421411Y-60044960D01*
X99694129Y-60037154D01*
X100110952Y-59999080D01*
X100116238Y-59998870D01*
X100122400Y-59999094D01*
X100129311Y-59999709D01*
X100136837Y-60000692D01*
X100144856Y-60001997D01*
X100153222Y-60003596D01*
X100161820Y-60005450D01*
X100170507Y-60007527D01*
X100179155Y-60009784D01*
X100187642Y-60012198D01*
X100195818Y-60014726D01*
X100203567Y-60017331D01*
X100210753Y-60019982D01*
X100217246Y-60022644D01*
X100222914Y-60025280D01*
X100227626Y-60027855D01*
X100229689Y-60029287D01*
X100231680Y-60031047D01*
X100233602Y-60033107D01*
X100235447Y-60035449D01*
X100237213Y-60038047D01*
X100238897Y-60040885D01*
X100241994Y-60047188D01*
X100244704Y-60054184D01*
X100247001Y-60061707D01*
X100248855Y-60069586D01*
X100250229Y-60077648D01*
X100251095Y-60085720D01*
X100251423Y-60093641D01*
X100251182Y-60101230D01*
X100250332Y-60108321D01*
X100249675Y-60111627D01*
X100248854Y-60114745D01*
X100247862Y-60117656D01*
X100246703Y-60120330D01*
X100245372Y-60122755D01*
X100243861Y-60124906D01*
X100242169Y-60126762D01*
X100240292Y-60128301D01*
X100085777Y-60235900D01*
X100118822Y-60247650D01*
X100157288Y-60259642D01*
X100199507Y-60271146D01*
X100243795Y-60281460D01*
X100266196Y-60285939D01*
X100288484Y-60289853D01*
X100310450Y-60293103D01*
X100331888Y-60295611D01*
X100352589Y-60297281D01*
X100372339Y-60298021D01*
X100390933Y-60297746D01*
X100408163Y-60296362D01*
X100832065Y-60245698D01*
X100865964Y-60342395D01*
X100866381Y-60344022D01*
X100866482Y-60345584D01*
X100866275Y-60347077D01*
X100865786Y-60348511D01*
X100865024Y-60349881D01*
X100864005Y-60351189D01*
X100862745Y-60352445D01*
X100861259Y-60353641D01*
X100859568Y-60354786D01*
X100857681Y-60355875D01*
X100853394Y-60357909D01*
X100848516Y-60359753D01*
X100843181Y-60361427D01*
X100837507Y-60362942D01*
X100831627Y-60364312D01*
X100819733Y-60366679D01*
X100798927Y-60370330D01*
X100574806Y-60412230D01*
X100574856Y-60412250D01*
X100591888Y-60419882D01*
X100608428Y-60426599D01*
X100624447Y-60432423D01*
X100639973Y-60437395D01*
X100655029Y-60441554D01*
X100669648Y-60444946D01*
X100683854Y-60447603D01*
X100697667Y-60449574D01*
X100711116Y-60450896D01*
X100724230Y-60451614D01*
X100737027Y-60451765D01*
X100749544Y-60451388D01*
X100761795Y-60450530D01*
X100773814Y-60449229D01*
X100797252Y-60445465D01*
X100820060Y-60440413D01*
X100842445Y-60434412D01*
X100886779Y-60420862D01*
X100909135Y-60413965D01*
X100931898Y-60407426D01*
X100955271Y-60401573D01*
X100979460Y-60396733D01*
X101493787Y-60308528D01*
X101565075Y-60142766D01*
X101610004Y-60133053D01*
X101652872Y-60124961D01*
X101693708Y-60118411D01*
X101732526Y-60113314D01*
X101769345Y-60109588D01*
X101804192Y-60107146D01*
X101837088Y-60105900D01*
X101868051Y-60105769D01*
X101897101Y-60106668D01*
X101924261Y-60108507D01*
X101949553Y-60111207D01*
X101972999Y-60114678D01*
X101994616Y-60118839D01*
X102014426Y-60123603D01*
X102032452Y-60128882D01*
X102048714Y-60134595D01*
X102063236Y-60140658D01*
X102076034Y-60146978D01*
X102087129Y-60153478D01*
X102096544Y-60160073D01*
X102104302Y-60166672D01*
X102110421Y-60173196D01*
X102114927Y-60179554D01*
X102117833Y-60185661D01*
X102119165Y-60191439D01*
X102119248Y-60194176D01*
X102118943Y-60196800D01*
X102118259Y-60199294D01*
X102117192Y-60201652D01*
X102115746Y-60203865D01*
X102113925Y-60205920D01*
X102109171Y-60209510D01*
X102102947Y-60212345D01*
X102095272Y-60214331D01*
X102086169Y-60215392D01*
X102019895Y-60219218D01*
X101669653Y-60239309D01*
X101849958Y-60319666D01*
X101869661Y-60328033D01*
X101894267Y-60337699D01*
X101922282Y-60347893D01*
X101952202Y-60357845D01*
X101982514Y-60366780D01*
X101997356Y-60370624D01*
X102011731Y-60373926D01*
X102025457Y-60376590D01*
X102038337Y-60378518D01*
X102050195Y-60379616D01*
X102060840Y-60379780D01*
X102486696Y-60365700D01*
X102502537Y-60364878D01*
X102518713Y-60363480D01*
X102535141Y-60361534D01*
X102551740Y-60359073D01*
X102568434Y-60356136D01*
X102585140Y-60352760D01*
X102601775Y-60348971D01*
X102618259Y-60344814D01*
X102634516Y-60340319D01*
X102650458Y-60335516D01*
X102666012Y-60330451D01*
X102681088Y-60325146D01*
X102695617Y-60319647D01*
X102709509Y-60313980D01*
X102722691Y-60308183D01*
X102735076Y-60302292D01*
X102713928Y-60290002D01*
X102693128Y-60279300D01*
X102672651Y-60270103D01*
X102652477Y-60262341D01*
X102632590Y-60255926D01*
X102612973Y-60250777D01*
X102593614Y-60246819D01*
X102574488Y-60243970D01*
X102555581Y-60242150D01*
X102536877Y-60241282D01*
X102518355Y-60241282D01*
X102500000Y-60242071D01*
X102463713Y-60245698D01*
X102427880Y-60251528D01*
X102392362Y-60258922D01*
X102357019Y-60267237D01*
X102286296Y-60284079D01*
X102250632Y-60291327D01*
X102214583Y-60296944D01*
X102178017Y-60300290D01*
X102159487Y-60300911D01*
X102140774Y-60300724D01*
X102138962Y-60300335D01*
X102137486Y-60299327D01*
X102136329Y-60297741D01*
X102135488Y-60295615D01*
X102134937Y-60292992D01*
X102134666Y-60289911D01*
X102134664Y-60286416D01*
X102134910Y-60282541D01*
X102136106Y-60273841D01*
X102138137Y-60264128D01*
X102140891Y-60253736D01*
X102144256Y-60242986D01*
X102148111Y-60232210D01*
X102152347Y-60221730D01*
X102156853Y-60211880D01*
X102161509Y-60202976D01*
X102166205Y-60195356D01*
X102168532Y-60192131D01*
X102170826Y-60189342D01*
X102173073Y-60187039D01*
X102175255Y-60185261D01*
X102177368Y-60184047D01*
X102179387Y-60183442D01*
X102698034Y-60106528D01*
X102686877Y-60099348D01*
X102675668Y-60092944D01*
X102664398Y-60087259D01*
X102653070Y-60082243D01*
X102630202Y-60074000D01*
X102607044Y-60067793D01*
X102583568Y-60063192D01*
X102559738Y-60059777D01*
X102510925Y-60054797D01*
X102460380Y-60049453D01*
X102434388Y-60045584D01*
X102407876Y-60040346D01*
X102380821Y-60033318D01*
X102353191Y-60024075D01*
X102339151Y-60018490D01*
X102324956Y-60012193D01*
X102310606Y-60005126D01*
X102296097Y-59997242D01*
X102294822Y-59996265D01*
X102294070Y-59995104D01*
X102293817Y-59993774D01*
X102293864Y-59993454D01*
X103011272Y-59993454D01*
X103018564Y-59997318D01*
X103025778Y-60000806D01*
X103032907Y-60003913D01*
X103039939Y-60006637D01*
X103046875Y-60008970D01*
X103053703Y-60010918D01*
X103060413Y-60012466D01*
X103067008Y-60013614D01*
X103073471Y-60014356D01*
X103079798Y-60014695D01*
X103085983Y-60014622D01*
X103092020Y-60014131D01*
X103097897Y-60013223D01*
X103103605Y-60011893D01*
X103109151Y-60010127D01*
X103114517Y-60007935D01*
X103119696Y-60005309D01*
X103124683Y-60002244D01*
X103129467Y-59998731D01*
X103134047Y-59994776D01*
X103138411Y-59990371D01*
X103142556Y-59985506D01*
X103146470Y-59980180D01*
X103150151Y-59974395D01*
X103153591Y-59968142D01*
X103156776Y-59961419D01*
X103159710Y-59954217D01*
X103162376Y-59946538D01*
X103164771Y-59938376D01*
X103166892Y-59929730D01*
X103168723Y-59920587D01*
X103170266Y-59910955D01*
X103011272Y-59993454D01*
X102293864Y-59993454D01*
X102294035Y-59992292D01*
X102294690Y-59990669D01*
X102295756Y-59988920D01*
X102297212Y-59987055D01*
X102299018Y-59985096D01*
X102303594Y-59980929D01*
X102309253Y-59976534D01*
X102315774Y-59972022D01*
X102322933Y-59967501D01*
X102330505Y-59963083D01*
X102338264Y-59958879D01*
X102345984Y-59955001D01*
X102353440Y-59951554D01*
X102360411Y-59948659D01*
X102366667Y-59946422D01*
X102371989Y-59944952D01*
X102376146Y-59944358D01*
X102629270Y-59936171D01*
X102893264Y-59816975D01*
X102891844Y-59798189D01*
X102941785Y-59798189D01*
X103099550Y-59859525D01*
X103189857Y-59905901D01*
X103192275Y-59906851D01*
X103194703Y-59907230D01*
X103197129Y-59907074D01*
X103199556Y-59906411D01*
X103201975Y-59905269D01*
X103204385Y-59903677D01*
X103206777Y-59901669D01*
X103209145Y-59899268D01*
X103213798Y-59893420D01*
X103218307Y-59886375D01*
X103222641Y-59878363D01*
X103226749Y-59869622D01*
X103230600Y-59860393D01*
X103234155Y-59850912D01*
X103237377Y-59841413D01*
X103240228Y-59832134D01*
X103242666Y-59823315D01*
X103244655Y-59815190D01*
X103246160Y-59807996D01*
X103247139Y-59801974D01*
X103247259Y-59799296D01*
X103246930Y-59796625D01*
X103246173Y-59793967D01*
X103245021Y-59791328D01*
X103243490Y-59788714D01*
X103241603Y-59786138D01*
X103239388Y-59783595D01*
X103236865Y-59781097D01*
X103234062Y-59778656D01*
X103231003Y-59776266D01*
X103224206Y-59771692D01*
X103216660Y-59767418D01*
X103208568Y-59763508D01*
X103200110Y-59760006D01*
X103191484Y-59756961D01*
X103182875Y-59754422D01*
X103174473Y-59752446D01*
X103166476Y-59751083D01*
X103159072Y-59750378D01*
X103152452Y-59750387D01*
X103149499Y-59750672D01*
X103146810Y-59751158D01*
X102941785Y-59798189D01*
X102891844Y-59798189D01*
X102879907Y-59640227D01*
X102834181Y-59502894D01*
X103034308Y-59468033D01*
X103047918Y-59465254D01*
X103061190Y-59461724D01*
X103074157Y-59457457D01*
X103086863Y-59452464D01*
X103099337Y-59446738D01*
X103111621Y-59440309D01*
X103123753Y-59433169D01*
X103135765Y-59425333D01*
X103147695Y-59416809D01*
X103159583Y-59407604D01*
X103171462Y-59397731D01*
X103183368Y-59387195D01*
X103195342Y-59376000D01*
X103207421Y-59364164D01*
X103219635Y-59351688D01*
X103232025Y-59338582D01*
X103239746Y-59331055D01*
X103248294Y-59324126D01*
X103257610Y-59317797D01*
X103267652Y-59312058D01*
X103278354Y-59306915D01*
X103289665Y-59302358D01*
X103301529Y-59298392D01*
X103313891Y-59295005D01*
X103326694Y-59292202D01*
X103339889Y-59289977D01*
X103367216Y-59287251D01*
X103395443Y-59286815D01*
X103424113Y-59288641D01*
X103452799Y-59292709D01*
X103481050Y-59299002D01*
X103508432Y-59307494D01*
X103521658Y-59312562D01*
X103534503Y-59318170D01*
X103546906Y-59324322D01*
X103558821Y-59331010D01*
X103570183Y-59338231D01*
X103580948Y-59345985D01*
X103591051Y-59354270D01*
X103600442Y-59363084D01*
X103609062Y-59372419D01*
X103616861Y-59382280D01*
X103608826Y-59392288D01*
X103600112Y-59400673D01*
X103590767Y-59407561D01*
X103580840Y-59413085D01*
X103570384Y-59417369D01*
X103559441Y-59420544D01*
X103548059Y-59422736D01*
X103536287Y-59424076D01*
X103524174Y-59424688D01*
X103511770Y-59424704D01*
X103486270Y-59423467D01*
X103433871Y-59419469D01*
X103407737Y-59418769D01*
X103394857Y-59419192D01*
X103382166Y-59420299D01*
X103369708Y-59422225D01*
X103357535Y-59425091D01*
X103345692Y-59429031D01*
X103334231Y-59434170D01*
X103323197Y-59440635D01*
X103312639Y-59448560D01*
X103302604Y-59458071D01*
X103293146Y-59469294D01*
X103284303Y-59482358D01*
X103276136Y-59497393D01*
X103268676Y-59514526D01*
X103261987Y-59533887D01*
X103026351Y-59613668D01*
X103259270Y-59679792D01*
X103405560Y-59544793D01*
X103777381Y-59513225D01*
X103779313Y-59513306D01*
X103781262Y-59513867D01*
X103783226Y-59514865D01*
X103785199Y-59516277D01*
X103787165Y-59518070D01*
X103789117Y-59520211D01*
X103791049Y-59522672D01*
X103792945Y-59525426D01*
X103796600Y-59531677D01*
X103800007Y-59538720D01*
X103803095Y-59546313D01*
X103805784Y-59554208D01*
X103807999Y-59562170D01*
X103809664Y-59569949D01*
X103810702Y-59577299D01*
X103811035Y-59583977D01*
X103810918Y-59586991D01*
X103810590Y-59589747D01*
X103810053Y-59592213D01*
X103809294Y-59594357D01*
X103808298Y-59596150D01*
X103807064Y-59597568D01*
X103805573Y-59598565D01*
X103803827Y-59599128D01*
X103704412Y-59616655D01*
X103477268Y-59656679D01*
X103484429Y-59688237D01*
X103489232Y-59717870D01*
X103491836Y-59745686D01*
X103492386Y-59771789D01*
X103491040Y-59796276D01*
X103490632Y-59799296D01*
X103487948Y-59819255D01*
X103483264Y-59840826D01*
X103477142Y-59861094D01*
X103469733Y-59880164D01*
X103461193Y-59898132D01*
X103454004Y-59910955D01*
X103451674Y-59915111D01*
X103441333Y-59931195D01*
X103430312Y-59946488D01*
X103418774Y-59961100D01*
X103394750Y-59988679D01*
X103347192Y-60040153D01*
X103326107Y-60065690D01*
X103316775Y-60078773D01*
X103308453Y-60092200D01*
X103301292Y-60106081D01*
X103295451Y-60120506D01*
X103291082Y-60135587D01*
X103288331Y-60151427D01*
X103287355Y-60168129D01*
X103288313Y-60185791D01*
X103291345Y-60204521D01*
X103296619Y-60224424D01*
X103298042Y-60231244D01*
X103299706Y-60237743D01*
X103301601Y-60243905D01*
X103303696Y-60249723D01*
X103305984Y-60255184D01*
X103308435Y-60260277D01*
X103311040Y-60264995D01*
X103313773Y-60269322D01*
X103316620Y-60273250D01*
X103319559Y-60276766D01*
X103322573Y-60279867D01*
X103325643Y-60282532D01*
X103328747Y-60284756D01*
X103331871Y-60286529D01*
X103334993Y-60287836D01*
X103338098Y-60288670D01*
X103341162Y-60289020D01*
X103344169Y-60288874D01*
X103347101Y-60288225D01*
X103349935Y-60287054D01*
X103352656Y-60285357D01*
X103355248Y-60283123D01*
X103357682Y-60280339D01*
X103359954Y-60276997D01*
X103362031Y-60273084D01*
X103363900Y-60268584D01*
X103365547Y-60263502D01*
X103366944Y-60257813D01*
X103368076Y-60251514D01*
X103368929Y-60244585D01*
X103369480Y-60237028D01*
X103369706Y-60228825D01*
X103382938Y-60201487D01*
X103397262Y-60176229D01*
X103412636Y-60152916D01*
X103429029Y-60131429D01*
X103446404Y-60111644D01*
X103464721Y-60093440D01*
X103483947Y-60076688D01*
X103504049Y-60061270D01*
X103524987Y-60047058D01*
X103546728Y-60033931D01*
X103569230Y-60021764D01*
X103592462Y-60010438D01*
X103616391Y-59999825D01*
X103640977Y-59989800D01*
X103666181Y-59980243D01*
X103691975Y-59971030D01*
X104075279Y-59837526D01*
X104054766Y-59833274D01*
X104031933Y-59829927D01*
X104007111Y-59827420D01*
X103980620Y-59825692D01*
X103952799Y-59824681D01*
X103923964Y-59824329D01*
X103864588Y-59825340D01*
X103805121Y-59828233D01*
X103748185Y-59832511D01*
X103696405Y-59837686D01*
X103652408Y-59843262D01*
X103650394Y-59843356D01*
X103648202Y-59843101D01*
X103645852Y-59842517D01*
X103643363Y-59841625D01*
X103640745Y-59840441D01*
X103638031Y-59838984D01*
X103635232Y-59837281D01*
X103632366Y-59835347D01*
X103626507Y-59830862D01*
X103620615Y-59825690D01*
X103614828Y-59819995D01*
X103609298Y-59813931D01*
X103604175Y-59807658D01*
X103599609Y-59801331D01*
X103595748Y-59795115D01*
X103594127Y-59792095D01*
X103592738Y-59789162D01*
X103591600Y-59786334D01*
X103590734Y-59783631D01*
X103590151Y-59781075D01*
X103589876Y-59778684D01*
X103589927Y-59776477D01*
X103590324Y-59774478D01*
X103591078Y-59772702D01*
X103592217Y-59771172D01*
X103601670Y-59761945D01*
X103611688Y-59753519D01*
X103622249Y-59745867D01*
X103633329Y-59738972D01*
X103644912Y-59732805D01*
X103656977Y-59727342D01*
X103669501Y-59722574D01*
X103682463Y-59718471D01*
X103709621Y-59712161D01*
X103738289Y-59708246D01*
X103768298Y-59706539D01*
X103799483Y-59706863D01*
X103831686Y-59709048D01*
X103864733Y-59712907D01*
X103898461Y-59718260D01*
X103932706Y-59724937D01*
X103967296Y-59732755D01*
X104002078Y-59741533D01*
X104071527Y-59761258D01*
X104316391Y-59716067D01*
X104435660Y-59694181D01*
X104438020Y-59693415D01*
X104440098Y-59692069D01*
X104441902Y-59690181D01*
X104443440Y-59687788D01*
X104444721Y-59684937D01*
X104445749Y-59681661D01*
X104446542Y-59678006D01*
X104447097Y-59674008D01*
X104447430Y-59669713D01*
X104447550Y-59665153D01*
X104447172Y-59655418D01*
X104446033Y-59645123D01*
X104444195Y-59634598D01*
X104441725Y-59624157D01*
X104438699Y-59614125D01*
X104435171Y-59604826D01*
X104431216Y-59596586D01*
X104429100Y-59592958D01*
X104426896Y-59589718D01*
X104424624Y-59586903D01*
X104422284Y-59584554D01*
X104419887Y-59582707D01*
X104417440Y-59581408D01*
X104414953Y-59580696D01*
X104412431Y-59580609D01*
X104396682Y-59582502D01*
X104381369Y-59585097D01*
X104366477Y-59588311D01*
X104351984Y-59592068D01*
X104337885Y-59596295D01*
X104324153Y-59600912D01*
X104297742Y-59611006D01*
X104272625Y-59621724D01*
X104248670Y-59632453D01*
X104225747Y-59642569D01*
X104203726Y-59651453D01*
X104193012Y-59655243D01*
X104182478Y-59658489D01*
X104172101Y-59661117D01*
X104161870Y-59663050D01*
X104151762Y-59664210D01*
X104141776Y-59664517D01*
X104131878Y-59663901D01*
X104122061Y-59662278D01*
X104112310Y-59659572D01*
X104102604Y-59655704D01*
X104092924Y-59650602D01*
X104083265Y-59644181D01*
X104073600Y-59636368D01*
X104063918Y-59627084D01*
X104054204Y-59616256D01*
X104044437Y-59603798D01*
X104263849Y-59534461D01*
X104301370Y-59509610D01*
X104338507Y-59486649D01*
X104357029Y-59475883D01*
X104375571Y-59465605D01*
X104394163Y-59455813D01*
X104412849Y-59446514D01*
X104431667Y-59437711D01*
X104450652Y-59429405D01*
X104469844Y-59421604D01*
X104489279Y-59414309D01*
X104508993Y-59407523D01*
X104529025Y-59401257D01*
X104549421Y-59395503D01*
X104570202Y-59390277D01*
X104568209Y-59547164D01*
X104623661Y-59678683D01*
X104367588Y-59801935D01*
X104131643Y-59871886D01*
X104147712Y-59995138D01*
X103941733Y-60013580D01*
X103938729Y-60014074D01*
X103935002Y-60015047D01*
X103930652Y-60016444D01*
X103925779Y-60018200D01*
X103914912Y-60022539D01*
X103903256Y-60027569D01*
X103865815Y-60044653D01*
X103864245Y-60045565D01*
X103863035Y-60046787D01*
X103862171Y-60048298D01*
X103861627Y-60050072D01*
X103861393Y-60052086D01*
X103861455Y-60054315D01*
X103861788Y-60056742D01*
X103862383Y-60059343D01*
X103863219Y-60062099D01*
X103864276Y-60064982D01*
X103865543Y-60067972D01*
X103867001Y-60071049D01*
X103870426Y-60077366D01*
X103874409Y-60083756D01*
X103878823Y-60090038D01*
X103883527Y-60096033D01*
X103888384Y-60101573D01*
X103893273Y-60106467D01*
X103895682Y-60108617D01*
X103898049Y-60110540D01*
X103900351Y-60112211D01*
X103902577Y-60113615D01*
X103904707Y-60114721D01*
X103906723Y-60115511D01*
X103908611Y-60115966D01*
X103910357Y-60116055D01*
X103937025Y-60106195D01*
X103962577Y-60097754D01*
X103987020Y-60090666D01*
X104010375Y-60084854D01*
X104032652Y-60080251D01*
X104053853Y-60076790D01*
X104074000Y-60074394D01*
X104093102Y-60072996D01*
X104111170Y-60072526D01*
X104128215Y-60072911D01*
X104144256Y-60074088D01*
X104159298Y-60075979D01*
X104173356Y-60078515D01*
X104186437Y-60081627D01*
X104198561Y-60085247D01*
X104209733Y-60089296D01*
X104219969Y-60093716D01*
X104229282Y-60098429D01*
X104237677Y-60103365D01*
X104245179Y-60108457D01*
X104251783Y-60113630D01*
X104257516Y-60118819D01*
X104262385Y-60123947D01*
X104266397Y-60128946D01*
X104269571Y-60133752D01*
X104271918Y-60138290D01*
X104273441Y-60142485D01*
X104274163Y-60146275D01*
X104274094Y-60149580D01*
X104273242Y-60152340D01*
X104271621Y-60154480D01*
X104269246Y-60155927D01*
X104198950Y-60183558D01*
X103932625Y-60254462D01*
X103744398Y-60194424D01*
X103741365Y-60193773D01*
X103738120Y-60193665D01*
X103734681Y-60194080D01*
X103731070Y-60194979D01*
X103727307Y-60196344D01*
X103723417Y-60198138D01*
X103719419Y-60200339D01*
X103715338Y-60202915D01*
X103707008Y-60209085D01*
X103698601Y-60216427D01*
X103690287Y-60224711D01*
X103682248Y-60233714D01*
X103674646Y-60243208D01*
X103667667Y-60252976D01*
X103661479Y-60262786D01*
X103656258Y-60272417D01*
X103652174Y-60281640D01*
X103650612Y-60286030D01*
X103649406Y-60290236D01*
X103648567Y-60294224D01*
X103648125Y-60297974D01*
X103648097Y-60301447D01*
X103648505Y-60304628D01*
X103650537Y-60312578D01*
X103653397Y-60321221D01*
X103656998Y-60330421D01*
X103661260Y-60340036D01*
X103666100Y-60349923D01*
X103671436Y-60359951D01*
X103677181Y-60369970D01*
X103683255Y-60379847D01*
X103689578Y-60389441D01*
X103696059Y-60398606D01*
X103702624Y-60407211D01*
X103709187Y-60415113D01*
X103715665Y-60422166D01*
X103721976Y-60428238D01*
X103725043Y-60430863D01*
X103728033Y-60433186D01*
X103730945Y-60435195D01*
X103733760Y-60436871D01*
X104013403Y-60371708D01*
X104070251Y-60355102D01*
X105147969Y-60355102D01*
X105224781Y-60455200D01*
X105299687Y-60552818D01*
X105299689Y-60552818D01*
X105303627Y-60557117D01*
X105309152Y-60561931D01*
X105316059Y-60567146D01*
X105324128Y-60572636D01*
X105333160Y-60578276D01*
X105342934Y-60583943D01*
X105353246Y-60589510D01*
X105363882Y-60594862D01*
X105374627Y-60599863D01*
X105385277Y-60604406D01*
X105395621Y-60608353D01*
X105405438Y-60611588D01*
X105414528Y-60613985D01*
X105422675Y-60615425D01*
X105426331Y-60615743D01*
X105429672Y-60615776D01*
X105432670Y-60615508D01*
X105435304Y-60614922D01*
X105794080Y-60504526D01*
X105755937Y-60466221D01*
X105718299Y-60431377D01*
X105680994Y-60400083D01*
X105643846Y-60372424D01*
X105606683Y-60348477D01*
X105569338Y-60328341D01*
X105550544Y-60319725D01*
X105531638Y-60312090D01*
X105512599Y-60305454D01*
X105493410Y-60299820D01*
X105474043Y-60295200D01*
X105454481Y-60291612D01*
X105434702Y-60289056D01*
X105414683Y-60287553D01*
X105394400Y-60287104D01*
X105373838Y-60287724D01*
X105352971Y-60289427D01*
X105331783Y-60292217D01*
X105310243Y-60296111D01*
X105288335Y-60301113D01*
X105266039Y-60307242D01*
X105243332Y-60314506D01*
X105220194Y-60322910D01*
X105196604Y-60332470D01*
X105147969Y-60355102D01*
X104070251Y-60355102D01*
X104432979Y-60249145D01*
X104434127Y-60240559D01*
X104435116Y-60230897D01*
X104435913Y-60220356D01*
X104436477Y-60209142D01*
X104436782Y-60197449D01*
X104436788Y-60185488D01*
X104436458Y-60173458D01*
X104435756Y-60161554D01*
X104434651Y-60149984D01*
X104433106Y-60138944D01*
X104431084Y-60128642D01*
X104428549Y-60119275D01*
X104427077Y-60115008D01*
X104425468Y-60111046D01*
X104423708Y-60107421D01*
X104421803Y-60104156D01*
X104419741Y-60101278D01*
X104417521Y-60098810D01*
X104415137Y-60096774D01*
X104412587Y-60095201D01*
X104284130Y-60030264D01*
X104286682Y-60025338D01*
X104289530Y-60020095D01*
X104292662Y-60014602D01*
X104296046Y-60008926D01*
X104299658Y-60003129D01*
X104303479Y-59997270D01*
X104307480Y-59991413D01*
X104311638Y-59985629D01*
X104315926Y-59979975D01*
X104320325Y-59974522D01*
X104324807Y-59969328D01*
X104329348Y-59964453D01*
X104333921Y-59959972D01*
X104338506Y-59955940D01*
X104343081Y-59952423D01*
X104345351Y-59950876D01*
X104347614Y-59949488D01*
X104350060Y-59948242D01*
X104352883Y-59947134D01*
X104359548Y-59945321D01*
X104367394Y-59944031D01*
X104376209Y-59943248D01*
X104385778Y-59942972D01*
X104395897Y-59943174D01*
X104406350Y-59943854D01*
X104416926Y-59944992D01*
X104427412Y-59946575D01*
X104437601Y-59948592D01*
X104447275Y-59951032D01*
X104456229Y-59953881D01*
X104464247Y-59957119D01*
X104467841Y-59958882D01*
X104471119Y-59960742D01*
X104474063Y-59962693D01*
X104476635Y-59964730D01*
X104478819Y-59966860D01*
X104480585Y-59969079D01*
X104624117Y-60178811D01*
X105003325Y-60118812D01*
X105540570Y-59992193D01*
X105590627Y-59982054D01*
X105643705Y-59973846D01*
X105757335Y-59959668D01*
X105817092Y-59951894D01*
X105878277Y-59942477D01*
X105940491Y-59930514D01*
X106003333Y-59915113D01*
X106066405Y-59895370D01*
X106129304Y-59870399D01*
X106160567Y-59855671D01*
X106191638Y-59839298D01*
X106222467Y-59821166D01*
X106253003Y-59801168D01*
X106283196Y-59779188D01*
X106312997Y-59755121D01*
X106342360Y-59728845D01*
X106371227Y-59700254D01*
X106399557Y-59669234D01*
X106427291Y-59635672D01*
X106454383Y-59599458D01*
X106480788Y-59560481D01*
X106507679Y-59563568D01*
X106535761Y-59568403D01*
X106564878Y-59574746D01*
X106594872Y-59582379D01*
X106656849Y-59600588D01*
X106720446Y-59621189D01*
X106784398Y-59642340D01*
X106847453Y-59662221D01*
X106878253Y-59671110D01*
X106908352Y-59678993D01*
X106937598Y-59685636D01*
X106965840Y-59690813D01*
X107678644Y-59803313D01*
X108378595Y-59905712D01*
X108420473Y-59910645D01*
X108463265Y-59913299D01*
X108506554Y-59913579D01*
X108549924Y-59911389D01*
X108571510Y-59909336D01*
X108592955Y-59906633D01*
X108614217Y-59903266D01*
X108635237Y-59899222D01*
X108655965Y-59894488D01*
X108676348Y-59889055D01*
X108696334Y-59882909D01*
X108715871Y-59876043D01*
X108734908Y-59868435D01*
X108753391Y-59860085D01*
X108771268Y-59850972D01*
X108788491Y-59841088D01*
X108805003Y-59830425D01*
X108820753Y-59818962D01*
X108835695Y-59806694D01*
X108849765Y-59793608D01*
X108862921Y-59779690D01*
X108875106Y-59764932D01*
X108886270Y-59749319D01*
X108896363Y-59732839D01*
X108905328Y-59715481D01*
X108913115Y-59697232D01*
X108919671Y-59678082D01*
X108924947Y-59658020D01*
X108896184Y-59637741D01*
X108867210Y-59618593D01*
X108838002Y-59600534D01*
X108808549Y-59583528D01*
X108778818Y-59567545D01*
X108748798Y-59552547D01*
X108718467Y-59538498D01*
X108687808Y-59525366D01*
X108656793Y-59513119D01*
X108625410Y-59501720D01*
X108593640Y-59491132D01*
X108561454Y-59481322D01*
X108528841Y-59472255D01*
X108495781Y-59463897D01*
X108462247Y-59456213D01*
X108428227Y-59449168D01*
X107816132Y-59328901D01*
X107111747Y-59197461D01*
X107076715Y-59190453D01*
X107044880Y-59183119D01*
X107016055Y-59175438D01*
X106990058Y-59167388D01*
X106966692Y-59158948D01*
X106945777Y-59150105D01*
X106927125Y-59140840D01*
X106910549Y-59131132D01*
X106895863Y-59120960D01*
X106882878Y-59110308D01*
X106871408Y-59099156D01*
X106861269Y-59087484D01*
X106852267Y-59075276D01*
X106844222Y-59062509D01*
X106830250Y-59035223D01*
X106817858Y-59005482D01*
X106805545Y-58973129D01*
X106791817Y-58938015D01*
X106775189Y-58899981D01*
X106754152Y-58858884D01*
X106741518Y-58837137D01*
X106727223Y-58814567D01*
X106711079Y-58791153D01*
X106692902Y-58766876D01*
X106672498Y-58741719D01*
X106649690Y-58715658D01*
X106588192Y-58654003D01*
X106522187Y-58599040D01*
X106451984Y-58550380D01*
X106377895Y-58507630D01*
X106300228Y-58470401D01*
X106219299Y-58438308D01*
X106135411Y-58410956D01*
X106048883Y-58387954D01*
X105960022Y-58368916D01*
X105869131Y-58353453D01*
X105776529Y-58341170D01*
X105682528Y-58331680D01*
X105491552Y-58319515D01*
X105298695Y-58313834D01*
X105282507Y-58335482D01*
X105267290Y-58357881D01*
X105253006Y-58380968D01*
X105239623Y-58404667D01*
X105227106Y-58428909D01*
X105215429Y-58453626D01*
X105204555Y-58478747D01*
X105194454Y-58504201D01*
X105185084Y-58529918D01*
X105176427Y-58555828D01*
X105168441Y-58581863D01*
X105161092Y-58607949D01*
X105148185Y-58659996D01*
X105137447Y-58711414D01*
X105104425Y-58883953D01*
X105238007Y-59183072D01*
X105235021Y-59186928D01*
X105231457Y-59190726D01*
X105227352Y-59194459D01*
X105222739Y-59198122D01*
X105212134Y-59205197D01*
X105199941Y-59211905D01*
X105186451Y-59218183D01*
X105171948Y-59223989D01*
X105156732Y-59229263D01*
X105141086Y-59233955D01*
X105125302Y-59238006D01*
X105109679Y-59241371D01*
X105094499Y-59243985D01*
X105080057Y-59245803D01*
X105066642Y-59246770D01*
X105054546Y-59246835D01*
X105044057Y-59245936D01*
X105039505Y-59245114D01*
X105035469Y-59244027D01*
X105038302Y-59145114D01*
X105038182Y-59142831D01*
X105037711Y-59140431D01*
X105036905Y-59137929D01*
X105035786Y-59135326D01*
X105034369Y-59132636D01*
X105032678Y-59129867D01*
X105028533Y-59124121D01*
X105023510Y-59118166D01*
X105017761Y-59112068D01*
X105011430Y-59105901D01*
X105004676Y-59099738D01*
X104997646Y-59093651D01*
X104990500Y-59087706D01*
X104976443Y-59076547D01*
X104953542Y-59059131D01*
X104951157Y-59057050D01*
X104949142Y-59054751D01*
X104947478Y-59052239D01*
X104946159Y-59049522D01*
X104945181Y-59046610D01*
X104944524Y-59043507D01*
X104944179Y-59040225D01*
X104944139Y-59036767D01*
X104944396Y-59033147D01*
X104944932Y-59029373D01*
X104946811Y-59021384D01*
X104949689Y-59012862D01*
X104953491Y-59003876D01*
X104958123Y-58994487D01*
X104963509Y-58984762D01*
X104969560Y-58974760D01*
X104976190Y-58964552D01*
X104983320Y-58954199D01*
X104990864Y-58943763D01*
X105006849Y-58922904D01*
X104940835Y-58805851D01*
X105029883Y-58721323D01*
X105031565Y-58719455D01*
X105033026Y-58717270D01*
X105034282Y-58714792D01*
X105035327Y-58712038D01*
X105036181Y-58709030D01*
X105036845Y-58705790D01*
X105037648Y-58698692D01*
X105037792Y-58690905D01*
X105037347Y-58682597D01*
X105036368Y-58673932D01*
X105034924Y-58665074D01*
X105033072Y-58656186D01*
X105030883Y-58647435D01*
X105028414Y-58638985D01*
X105025728Y-58630997D01*
X105022890Y-58623640D01*
X105019957Y-58617076D01*
X105017001Y-58611470D01*
X105014080Y-58606986D01*
X104944743Y-58514040D01*
X104940451Y-58509958D01*
X104934922Y-58507401D01*
X104928229Y-58506245D01*
X104920449Y-58506381D01*
X104911660Y-58507685D01*
X104901940Y-58510042D01*
X104880010Y-58517433D01*
X104855271Y-58527616D01*
X104828345Y-58539652D01*
X104770378Y-58565492D01*
X104740569Y-58577413D01*
X104711029Y-58587411D01*
X104696553Y-58591396D01*
X104682375Y-58594543D01*
X104668571Y-58596734D01*
X104655221Y-58597860D01*
X104642397Y-58597796D01*
X104630182Y-58596427D01*
X104618647Y-58593638D01*
X104607874Y-58589298D01*
X104597937Y-58583306D01*
X104588913Y-58575531D01*
X104580881Y-58565864D01*
X104573915Y-58554179D01*
X104562688Y-58532564D01*
X104551268Y-58512056D01*
X104539580Y-58492668D01*
X104527537Y-58474420D01*
X104515072Y-58457324D01*
X104502097Y-58441391D01*
X104488533Y-58426630D01*
X104474304Y-58413057D01*
X104459330Y-58400691D01*
X104443533Y-58389537D01*
X104435302Y-58384419D01*
X104426836Y-58379607D01*
X104418119Y-58375110D01*
X104409152Y-58370924D01*
X104399917Y-58367050D01*
X104390408Y-58363493D01*
X104380613Y-58360251D01*
X104370528Y-58357328D01*
X104360135Y-58354724D01*
X104349425Y-58352440D01*
X104327025Y-58348851D01*
X103588429Y-58254754D01*
X103255978Y-58234131D01*
X102828403Y-58247561D01*
X102482674Y-58232639D01*
X102281715Y-58225952D01*
X102083242Y-58223382D01*
X101884364Y-58224894D01*
X101682205Y-58230457D01*
X100914142Y-58258847D01*
X100340279Y-58286132D01*
X100267886Y-58290452D01*
X100195470Y-58296508D01*
X100123079Y-58304244D01*
X100050759Y-58313617D01*
X99978577Y-58324572D01*
X99906567Y-58337064D01*
X99763309Y-58366441D01*
X99621405Y-58401357D01*
X99481273Y-58441409D01*
X99343334Y-58486194D01*
X99208009Y-58535314D01*
X98680330Y-58736932D01*
X98644288Y-58751227D01*
X98610461Y-58765663D01*
X98578754Y-58780218D01*
X98549083Y-58794862D01*
X98521362Y-58809559D01*
X98495495Y-58824282D01*
X98471400Y-58839004D01*
X98448983Y-58853691D01*
X98428161Y-58868311D01*
X98408840Y-58882836D01*
X98390937Y-58897237D01*
X98374358Y-58911482D01*
X98359017Y-58925539D01*
X98344828Y-58939378D01*
X98331697Y-58952973D01*
X98319538Y-58966290D01*
X98297785Y-58991967D01*
X98278858Y-59016170D01*
X98246650Y-59059186D01*
X98231956Y-59077512D01*
X98224649Y-59085771D01*
X98217250Y-59093391D01*
X98209673Y-59100333D01*
X98201829Y-59106580D01*
X98193628Y-59112088D01*
X98184983Y-59116835D01*
X97830953Y-59290138D01*
X97539140Y-59431185D01*
X97523099Y-59438596D01*
X97505343Y-59446196D01*
X97465589Y-59461665D01*
X97421712Y-59477024D01*
X97375556Y-59491704D01*
X97328954Y-59505140D01*
X97283746Y-59516759D01*
X97241767Y-59525996D01*
X97222561Y-59529543D01*
X97204854Y-59532281D01*
X96897051Y-59574408D01*
X96840662Y-59581260D01*
X96785839Y-59587192D01*
X96732029Y-59593819D01*
X96705331Y-59597899D01*
X96678677Y-59602760D01*
X96652001Y-59608603D01*
X96625228Y-59615632D01*
X96598293Y-59624045D01*
X96571128Y-59634050D01*
X96543661Y-59645843D01*
X96515822Y-59659631D01*
X96487546Y-59675612D01*
X96458757Y-59693990D01*
X96039354Y-59693990D01*
X95995443Y-59628632D01*
X95993235Y-59626063D01*
X95990537Y-59624139D01*
X95987379Y-59622835D01*
X95983795Y-59622119D01*
X95979819Y-59621969D01*
X95975480Y-59622347D01*
X95970812Y-59623226D01*
X95965848Y-59624577D01*
X95960618Y-59626369D01*
X95955152Y-59628573D01*
X95943656Y-59634103D01*
X95931609Y-59640930D01*
X95919277Y-59648814D01*
X95906921Y-59657521D01*
X95894785Y-59666815D01*
X95883136Y-59676459D01*
X95872232Y-59686215D01*
X95862329Y-59695852D01*
X95853683Y-59705129D01*
X95846554Y-59713806D01*
X95841194Y-59721655D01*
X95655524Y-59721655D01*
X95658704Y-59683847D01*
X95665227Y-59638592D01*
X95674492Y-59594243D01*
X95686505Y-59551949D01*
X95701274Y-59512845D01*
X95709699Y-59494848D01*
X95718812Y-59478078D01*
X95728619Y-59462679D01*
X95739120Y-59448786D01*
X95750316Y-59436554D01*
X95762207Y-59426119D01*
X95774796Y-59417621D01*
X95788082Y-59411210D01*
X95822362Y-59399281D01*
X95856346Y-59390209D01*
X95890098Y-59383727D01*
X95923669Y-59379562D01*
X95957104Y-59377455D01*
X95990464Y-59377133D01*
X96023798Y-59378334D01*
X96057160Y-59380789D01*
X96124175Y-59388389D01*
X96191937Y-59397801D01*
X96260862Y-59406885D01*
X96295895Y-59410635D01*
X96331373Y-59413506D01*
X96387101Y-59416319D01*
X96443399Y-59417529D01*
X96500162Y-59417158D01*
X96557284Y-59415243D01*
X96614657Y-59411818D01*
X96672176Y-59406908D01*
X96729732Y-59400555D01*
X96787219Y-59392781D01*
X96844530Y-59383621D01*
X96901555Y-59373110D01*
X96958190Y-59361274D01*
X97014326Y-59348153D01*
X97069861Y-59333773D01*
X97124681Y-59318164D01*
X97178682Y-59301364D01*
X97231758Y-59283402D01*
X97259669Y-59273075D01*
X97287479Y-59261871D01*
X97315189Y-59249889D01*
X97342794Y-59237226D01*
X97397697Y-59210249D01*
X97452174Y-59181725D01*
X97559819Y-59123132D01*
X97612963Y-59094632D01*
X97665646Y-59067702D01*
X97720562Y-59040206D01*
X97774440Y-59012008D01*
X97800887Y-58997483D01*
X97826953Y-58982579D01*
X97852601Y-58967238D01*
X97877784Y-58951390D01*
X97902467Y-58934967D01*
X97926611Y-58917909D01*
X97950174Y-58900144D01*
X97973116Y-58881608D01*
X97995395Y-58862235D01*
X98016972Y-58841959D01*
X98037810Y-58820709D01*
X98057865Y-58798427D01*
X98092913Y-58759430D01*
X98129322Y-58722195D01*
X98167041Y-58686666D01*
X98206001Y-58652772D01*
X98246142Y-58620462D01*
X98287415Y-58589679D01*
X98329749Y-58560355D01*
X98373090Y-58532434D01*
X98417378Y-58505851D01*
X98462555Y-58480555D01*
X98508559Y-58456478D01*
X98555329Y-58433564D01*
X98602807Y-58411756D01*
X98650936Y-58390983D01*
X98699652Y-58371199D01*
X98748899Y-58352333D01*
X99048976Y-58240635D01*
X99290589Y-58180455D01*
X99528487Y-58122639D01*
X99647326Y-58095321D01*
X99766778Y-58069436D01*
X99887345Y-58045268D01*
X100009549Y-58023097D01*
X100248261Y-57987256D01*
X100492274Y-57959956D01*
X100740005Y-57940624D01*
X100989872Y-57928674D01*
X101240297Y-57923521D01*
X101489693Y-57924585D01*
X101736474Y-57931287D01*
X101979063Y-57943043D01*
X103018622Y-58004078D01*
X104080979Y-58095419D01*
X104119706Y-58099674D01*
X104159163Y-58105628D01*
X104199237Y-58112939D01*
X104239829Y-58121272D01*
X104405153Y-58158196D01*
X104446687Y-58166653D01*
X104488090Y-58174134D01*
X104529252Y-58180299D01*
X104570062Y-58184825D01*
X104610417Y-58187371D01*
X104650207Y-58187598D01*
X104689326Y-58185187D01*
X104727663Y-58179792D01*
X104768631Y-58171459D01*
X104809229Y-58161810D01*
X104849503Y-58151089D01*
X104889508Y-58139532D01*
X105047882Y-58089753D01*
X105126808Y-58066095D01*
X105166394Y-58055406D01*
X105206130Y-58045805D01*
X105246065Y-58037525D01*
X105286257Y-58030808D01*
X105326756Y-58025894D01*
X105367614Y-58023019D01*
X105485857Y-58020804D01*
X105605724Y-58024360D01*
X105726444Y-58033800D01*
X105847257Y-58049246D01*
X105967389Y-58070813D01*
X106086078Y-58098622D01*
X106202553Y-58132799D01*
X106316052Y-58173456D01*
X106425805Y-58220711D01*
X106479035Y-58246852D01*
X106531041Y-58274688D01*
X106581728Y-58304234D01*
X106630999Y-58335501D01*
X106678758Y-58368512D01*
X106724913Y-58403275D01*
X106769362Y-58439803D01*
X106812015Y-58478120D01*
X106852768Y-58518237D01*
X106891534Y-58560162D01*
X106928211Y-58603919D01*
X106962707Y-58649521D01*
X106994925Y-58696980D01*
X107024767Y-58746312D01*
X107044824Y-58779659D01*
X107064904Y-58809331D01*
X107085161Y-58835600D01*
X107105745Y-58858747D01*
X107126810Y-58879057D01*
X107148508Y-58896814D01*
X107170994Y-58912297D01*
X107194415Y-58925792D01*
X107218929Y-58937574D01*
X107244683Y-58947924D01*
X107271836Y-58957131D01*
X107300534Y-58965479D01*
X107330935Y-58973234D01*
X107363190Y-58980696D01*
X107433862Y-58995838D01*
X107832205Y-59079945D01*
X108112729Y-59126324D01*
X108519639Y-59198034D01*
X108550604Y-59204929D01*
X108584272Y-59215056D01*
X108620212Y-59228168D01*
X108657996Y-59244004D01*
X108697196Y-59262316D01*
X108737379Y-59282851D01*
X108778110Y-59305353D01*
X108818966Y-59329577D01*
X108859511Y-59355262D01*
X108899319Y-59382157D01*
X108937956Y-59410012D01*
X108974993Y-59438571D01*
X109009995Y-59467584D01*
X109042540Y-59496798D01*
X109072190Y-59525963D01*
X109098520Y-59554818D01*
X109105450Y-59574755D01*
X109111530Y-59595101D01*
X109116785Y-59615788D01*
X109121234Y-59636752D01*
X109124890Y-59657934D01*
X109124901Y-59658020D01*
X109127775Y-59679263D01*
G37*
D11*
G36*
X108916128Y-48009316D02*
G01*
X108916128Y-47725444D01*
X109060048Y-47725444D01*
X109060048Y-48009316D01*
X108916128Y-48009316D01*
G37*
G36*
X108920036Y-48150000D02*
G01*
X108636104Y-48150000D01*
X108636104Y-48006140D01*
X108920036Y-48006140D01*
X108920036Y-48150000D01*
G37*
G36*
X108920036Y-47731184D02*
G01*
X108776116Y-47731184D01*
X108776116Y-47587264D01*
X108920036Y-47587264D01*
X108920036Y-47731184D01*
G37*
G36*
X108780024Y-47590500D02*
G01*
X108496153Y-47590500D01*
X108496153Y-47446580D01*
X108780024Y-47446580D01*
X108780024Y-47590500D01*
G37*
G36*
X108640012Y-48009316D02*
G01*
X108496153Y-48009316D01*
X108496153Y-47865457D01*
X108640012Y-47865457D01*
X108640012Y-48009316D01*
G37*
G36*
X108500061Y-48150000D02*
G01*
X108356140Y-48150000D01*
X108356140Y-48006140D01*
X108500061Y-48006140D01*
X108500061Y-48150000D01*
G37*
G36*
X108500061Y-47870647D02*
G01*
X108356140Y-47870647D01*
X108356140Y-47587264D01*
X108500061Y-47587264D01*
X108500061Y-47870647D01*
G37*
G36*
X108360048Y-47590500D02*
G01*
X108216128Y-47590500D01*
X108216128Y-47446580D01*
X108360048Y-47446580D01*
X108360048Y-47590500D01*
G37*
G36*
X107796214Y-48009316D02*
G01*
X107796214Y-47725444D01*
X107940134Y-47725444D01*
X107940134Y-48009316D01*
X107796214Y-48009316D01*
G37*
G36*
X108080146Y-48430024D02*
G01*
X107936226Y-48430024D01*
X107936226Y-48006140D01*
X108080146Y-48006140D01*
X108080146Y-48430024D01*
G37*
G36*
X107940134Y-47590500D02*
G01*
X107796214Y-47590500D01*
X107796214Y-47446580D01*
X107940134Y-47446580D01*
X107940134Y-47590500D01*
G37*
G36*
X107800122Y-48150000D02*
G01*
X107516250Y-48150000D01*
X107516250Y-48006140D01*
X107800122Y-48006140D01*
X107800122Y-48150000D01*
G37*
G36*
X107800122Y-47731184D02*
G01*
X107656202Y-47731184D01*
X107656202Y-47587264D01*
X107800122Y-47587264D01*
X107800122Y-47731184D01*
G37*
G36*
X107660109Y-47590500D02*
G01*
X107376238Y-47590500D01*
X107376238Y-47446580D01*
X107660109Y-47446580D01*
X107660109Y-47590500D01*
G37*
G36*
X107520158Y-48009316D02*
G01*
X107376238Y-48009316D01*
X107376238Y-47865457D01*
X107520158Y-47865457D01*
X107520158Y-48009316D01*
G37*
G36*
X107380146Y-47869364D02*
G01*
X107236226Y-47869364D01*
X107236226Y-47587264D01*
X107380146Y-47587264D01*
X107380146Y-47869364D01*
G37*
G36*
X106960232Y-47726055D02*
G01*
X106960232Y-48150000D01*
X106676299Y-48150000D01*
X106676299Y-48006140D01*
X106816311Y-48006140D01*
X106816311Y-47726055D01*
X106960232Y-47726055D01*
G37*
G36*
X106820219Y-47730512D02*
G01*
X106676299Y-47730512D01*
X106676299Y-47446580D01*
X106820219Y-47446580D01*
X106820219Y-47730512D01*
G37*
G36*
X106820219Y-47309804D02*
G01*
X106680207Y-47309804D01*
X106680207Y-47449877D01*
X106536348Y-47449877D01*
X106536348Y-47165945D01*
X106820219Y-47165945D01*
X106820219Y-47309804D01*
G37*
G36*
X106680207Y-48009316D02*
G01*
X106536348Y-48009316D01*
X106536348Y-47865457D01*
X106680207Y-47865457D01*
X106680207Y-48009316D01*
G37*
G36*
X105980329Y-47865457D02*
G01*
X105980329Y-48150000D01*
X105696397Y-48150000D01*
X105696397Y-48006140D01*
X105836409Y-48006140D01*
X105836409Y-47865457D01*
X105980329Y-47865457D01*
G37*
G36*
X105840317Y-47868632D02*
G01*
X105696397Y-47868632D01*
X105696397Y-47724773D01*
X105840317Y-47724773D01*
X105840317Y-47868632D01*
G37*
G36*
X105840317Y-47590500D02*
G01*
X105700305Y-47590500D01*
X105700305Y-47728681D01*
X105556446Y-47728681D01*
X105556446Y-47446580D01*
X105840317Y-47446580D01*
X105840317Y-47590500D01*
G37*
G36*
X105700305Y-48009316D02*
G01*
X105556446Y-48009316D01*
X105556446Y-47865457D01*
X105700305Y-47865457D01*
X105700305Y-48009316D01*
G37*
G36*
X105560354Y-47309804D02*
G01*
X105416434Y-47309804D01*
X105416434Y-47165945D01*
X105560354Y-47165945D01*
X105560354Y-47309804D01*
G37*
G36*
X104436531Y-47587264D02*
G01*
X104580451Y-47587264D01*
X104580451Y-47731184D01*
X104436531Y-47731184D01*
X104436531Y-47587264D01*
G37*
G36*
X105140439Y-48009316D02*
G01*
X104996519Y-48009316D01*
X104996519Y-47727276D01*
X105140439Y-47727276D01*
X105140439Y-48009316D01*
G37*
G36*
X105000427Y-48150000D02*
G01*
X104716495Y-48150000D01*
X104716495Y-48006140D01*
X105000427Y-48006140D01*
X105000427Y-48150000D01*
G37*
G36*
X105000427Y-47731184D02*
G01*
X104856507Y-47731184D01*
X104856507Y-47587264D01*
X105000427Y-47587264D01*
X105000427Y-47731184D01*
G37*
G36*
X104860415Y-47590500D02*
G01*
X104576543Y-47590500D01*
X104576543Y-47446580D01*
X104860415Y-47446580D01*
X104860415Y-47590500D01*
G37*
G36*
X104720403Y-48009316D02*
G01*
X104576543Y-48009316D01*
X104576543Y-47865457D01*
X104720403Y-47865457D01*
X104720403Y-48009316D01*
G37*
G36*
X104016617Y-48009316D02*
G01*
X104016617Y-47725444D01*
X104160537Y-47725444D01*
X104160537Y-48009316D01*
X104016617Y-48009316D01*
G37*
G36*
X104020525Y-48150000D02*
G01*
X103736592Y-48150000D01*
X103736592Y-48006140D01*
X104020525Y-48006140D01*
X104020525Y-48150000D01*
G37*
G36*
X104020525Y-47731184D02*
G01*
X103876605Y-47731184D01*
X103876605Y-47587264D01*
X104020525Y-47587264D01*
X104020525Y-47731184D01*
G37*
G36*
X103880512Y-47590500D02*
G01*
X103596641Y-47590500D01*
X103596641Y-47446580D01*
X103880512Y-47446580D01*
X103880512Y-47590500D01*
G37*
G36*
X103740500Y-48009316D02*
G01*
X103596641Y-48009316D01*
X103596641Y-47865457D01*
X103740500Y-47865457D01*
X103740500Y-48009316D01*
G37*
G36*
X103600549Y-48150000D02*
G01*
X103456629Y-48150000D01*
X103456629Y-48006140D01*
X103600549Y-48006140D01*
X103600549Y-48150000D01*
G37*
G36*
X103600549Y-47870647D02*
G01*
X103456629Y-47870647D01*
X103456629Y-47587264D01*
X103600549Y-47587264D01*
X103600549Y-47870647D01*
G37*
G36*
X103460537Y-47590500D02*
G01*
X103316617Y-47590500D01*
X103316617Y-47446580D01*
X103460537Y-47446580D01*
X103460537Y-47590500D01*
G37*
G36*
X102476727Y-47587264D02*
G01*
X102620647Y-47587264D01*
X102620647Y-47731184D01*
X102476727Y-47731184D01*
X102476727Y-47587264D01*
G37*
G36*
X103180635Y-48009316D02*
G01*
X103036714Y-48009316D01*
X103036714Y-47727276D01*
X103180635Y-47727276D01*
X103180635Y-48009316D01*
G37*
G36*
X103040622Y-48150000D02*
G01*
X102756690Y-48150000D01*
X102756690Y-48006140D01*
X103040622Y-48006140D01*
X103040622Y-48150000D01*
G37*
G36*
X103040622Y-47731184D02*
G01*
X102896702Y-47731184D01*
X102896702Y-47587264D01*
X103040622Y-47587264D01*
X103040622Y-47731184D01*
G37*
G36*
X102900610Y-47590500D02*
G01*
X102616739Y-47590500D01*
X102616739Y-47446580D01*
X102900610Y-47446580D01*
X102900610Y-47590500D01*
G37*
G36*
X102760598Y-48009316D02*
G01*
X102616739Y-48009316D01*
X102616739Y-47865457D01*
X102760598Y-47865457D01*
X102760598Y-48009316D01*
G37*
G36*
X102060720Y-47865457D02*
G01*
X102060720Y-48150000D01*
X101776788Y-48150000D01*
X101776788Y-48006140D01*
X101916800Y-48006140D01*
X101916800Y-47865457D01*
X102060720Y-47865457D01*
G37*
G36*
X101920708Y-47868632D02*
G01*
X101776788Y-47868632D01*
X101776788Y-47724773D01*
X101920708Y-47724773D01*
X101920708Y-47868632D01*
G37*
G36*
X101920708Y-47590500D02*
G01*
X101780696Y-47590500D01*
X101780696Y-47728681D01*
X101636837Y-47728681D01*
X101636837Y-47446580D01*
X101920708Y-47446580D01*
X101920708Y-47590500D01*
G37*
G36*
X101780696Y-48009316D02*
G01*
X101636837Y-48009316D01*
X101636837Y-47865457D01*
X101780696Y-47865457D01*
X101780696Y-48009316D01*
G37*
G36*
X101640744Y-47309804D02*
G01*
X101496824Y-47309804D01*
X101496824Y-47165945D01*
X101640744Y-47165945D01*
X101640744Y-47309804D01*
G37*
G36*
X100936898Y-47587264D02*
G01*
X101080818Y-47587264D01*
X101080818Y-47731184D01*
X100936898Y-47731184D01*
X100936898Y-47587264D01*
G37*
G36*
X101220830Y-48009316D02*
G01*
X101076910Y-48009316D01*
X101076910Y-47725444D01*
X101220830Y-47725444D01*
X101220830Y-48009316D01*
G37*
G36*
X101080818Y-48150000D02*
G01*
X100796885Y-48150000D01*
X100796885Y-48006140D01*
X101080818Y-48006140D01*
X101080818Y-48150000D01*
G37*
G36*
X100940806Y-47590500D02*
G01*
X100656934Y-47590500D01*
X100656934Y-47446580D01*
X100940806Y-47446580D01*
X100940806Y-47590500D01*
G37*
G36*
X100800793Y-48009316D02*
G01*
X100656934Y-48009316D01*
X100656934Y-47865457D01*
X100800793Y-47865457D01*
X100800793Y-48009316D01*
G37*
G36*
X100660842Y-47869364D02*
G01*
X100516922Y-47869364D01*
X100516922Y-47587264D01*
X100660842Y-47587264D01*
X100660842Y-47869364D01*
G37*
G36*
X99956995Y-47870036D02*
G01*
X99956995Y-47731184D01*
X99816983Y-47731184D01*
X99816983Y-47587264D01*
X99956995Y-47587264D01*
X99956995Y-47446580D01*
X100100915Y-47446580D01*
X100100915Y-47870036D01*
X99956995Y-47870036D01*
G37*
G36*
X100240928Y-48150000D02*
G01*
X100097008Y-48150000D01*
X100097008Y-47866128D01*
X100240928Y-47866128D01*
X100240928Y-48150000D01*
G37*
G36*
X99820891Y-48150000D02*
G01*
X99677032Y-48150000D01*
X99677032Y-47866128D01*
X99820891Y-47866128D01*
X99820891Y-48150000D01*
G37*
G36*
X99820891Y-47590500D02*
G01*
X99677032Y-47590500D01*
X99677032Y-47446580D01*
X99820891Y-47446580D01*
X99820891Y-47590500D01*
G37*
G36*
X99680940Y-47871196D02*
G01*
X99537020Y-47871196D01*
X99537020Y-47587264D01*
X99680940Y-47587264D01*
X99680940Y-47871196D01*
G37*
G36*
X99121013Y-48150000D02*
G01*
X98837081Y-48150000D01*
X98837081Y-48006140D01*
X99121013Y-48006140D01*
X99121013Y-48150000D01*
G37*
G36*
X99261025Y-48010048D02*
G01*
X99117105Y-48010048D01*
X99117105Y-47868632D01*
X98697130Y-47868632D01*
X98697130Y-47724773D01*
X98977093Y-47724773D01*
X98977093Y-47587264D01*
X99121013Y-47587264D01*
X99121013Y-47724773D01*
X99261025Y-47724773D01*
X99261025Y-48010048D01*
G37*
G36*
X98981001Y-47590500D02*
G01*
X98697130Y-47590500D01*
X98697130Y-47446580D01*
X98981001Y-47446580D01*
X98981001Y-47590500D01*
G37*
G36*
X98701038Y-47731184D02*
G01*
X98557117Y-47731184D01*
X98557117Y-47587264D01*
X98701038Y-47587264D01*
X98701038Y-47731184D01*
G37*
G36*
X97721135Y-47731184D02*
G01*
X97577215Y-47731184D01*
X97577215Y-47587264D01*
X97721135Y-47587264D01*
X97721135Y-47731184D01*
G37*
G36*
X98281123Y-48009316D02*
G01*
X98137203Y-48009316D01*
X98137203Y-47865457D01*
X98281123Y-47865457D01*
X98281123Y-48009316D01*
G37*
G36*
X98141111Y-48150000D02*
G01*
X97857178Y-48150000D01*
X97857178Y-48006140D01*
X98141111Y-48006140D01*
X98141111Y-48150000D01*
G37*
G36*
X98141111Y-47731184D02*
G01*
X97997191Y-47731184D01*
X97997191Y-47587264D01*
X98141111Y-47587264D01*
X98141111Y-47731184D01*
G37*
G36*
X98001099Y-47868632D02*
G01*
X97857178Y-47868632D01*
X97857178Y-47724773D01*
X98001099Y-47724773D01*
X98001099Y-47868632D01*
G37*
G36*
X98001099Y-47590500D02*
G01*
X97717227Y-47590500D01*
X97717227Y-47446580D01*
X98001099Y-47446580D01*
X98001099Y-47590500D01*
G37*
G36*
X97861086Y-48009316D02*
G01*
X97717227Y-48009316D01*
X97717227Y-47865457D01*
X97861086Y-47865457D01*
X97861086Y-48009316D01*
G37*
G36*
X108920036Y-49126580D02*
G01*
X108920036Y-49270500D01*
X108780024Y-49270500D01*
X108780024Y-49410329D01*
X108636104Y-49410329D01*
X108636104Y-49270500D01*
X108356140Y-49270500D01*
X108356140Y-49126580D01*
X108636104Y-49126580D01*
X108636104Y-48985896D01*
X108780024Y-48985896D01*
X108780024Y-49126580D01*
X108920036Y-49126580D01*
G37*
G36*
X108920036Y-49830000D02*
G01*
X108636104Y-49830000D01*
X108636104Y-49686140D01*
X108776116Y-49686140D01*
X108776116Y-49406421D01*
X108920036Y-49406421D01*
X108920036Y-49830000D01*
G37*
G36*
X108640012Y-49689316D02*
G01*
X108496153Y-49689316D01*
X108496153Y-49545457D01*
X108640012Y-49545457D01*
X108640012Y-49689316D01*
G37*
G36*
X108640012Y-48989804D02*
G01*
X108496153Y-48989804D01*
X108496153Y-48845945D01*
X108640012Y-48845945D01*
X108640012Y-48989804D01*
G37*
G36*
X107940134Y-49830000D02*
G01*
X107656202Y-49830000D01*
X107656202Y-49686140D01*
X107940134Y-49686140D01*
X107940134Y-49830000D01*
G37*
G36*
X108080146Y-49690048D02*
G01*
X107936226Y-49690048D01*
X107936226Y-49548632D01*
X107516250Y-49548632D01*
X107516250Y-49404773D01*
X107796214Y-49404773D01*
X107796214Y-49267264D01*
X107940134Y-49267264D01*
X107940134Y-49404773D01*
X108080146Y-49404773D01*
X108080146Y-49690048D01*
G37*
G36*
X107800122Y-49270500D02*
G01*
X107516250Y-49270500D01*
X107516250Y-49126580D01*
X107800122Y-49126580D01*
X107800122Y-49270500D01*
G37*
G36*
X107520158Y-49411184D02*
G01*
X107376238Y-49411184D01*
X107376238Y-49267264D01*
X107520158Y-49267264D01*
X107520158Y-49411184D01*
G37*
G36*
X106396336Y-49267264D02*
G01*
X106540256Y-49267264D01*
X106540256Y-49411184D01*
X106396336Y-49411184D01*
X106396336Y-49267264D01*
G37*
G36*
X107100244Y-49689316D02*
G01*
X106956324Y-49689316D01*
X106956324Y-49407276D01*
X107100244Y-49407276D01*
X107100244Y-49689316D01*
G37*
G36*
X106960232Y-49830000D02*
G01*
X106676299Y-49830000D01*
X106676299Y-49686140D01*
X106960232Y-49686140D01*
X106960232Y-49830000D01*
G37*
G36*
X106960232Y-49411184D02*
G01*
X106816311Y-49411184D01*
X106816311Y-49267264D01*
X106960232Y-49267264D01*
X106960232Y-49411184D01*
G37*
G36*
X106820219Y-49270500D02*
G01*
X106536348Y-49270500D01*
X106536348Y-49126580D01*
X106820219Y-49126580D01*
X106820219Y-49270500D01*
G37*
G36*
X106680207Y-49689316D02*
G01*
X106536348Y-49689316D01*
X106536348Y-49545457D01*
X106680207Y-49545457D01*
X106680207Y-49689316D01*
G37*
G36*
X105836409Y-49550036D02*
G01*
X105836409Y-49411184D01*
X105696397Y-49411184D01*
X105696397Y-49267264D01*
X105836409Y-49267264D01*
X105836409Y-49126580D01*
X105980329Y-49126580D01*
X105980329Y-49550036D01*
X105836409Y-49550036D01*
G37*
G36*
X106120341Y-49830000D02*
G01*
X105976421Y-49830000D01*
X105976421Y-49546128D01*
X106120341Y-49546128D01*
X106120341Y-49830000D01*
G37*
G36*
X105700305Y-49830000D02*
G01*
X105556446Y-49830000D01*
X105556446Y-49546128D01*
X105700305Y-49546128D01*
X105700305Y-49830000D01*
G37*
G36*
X105700305Y-49270500D02*
G01*
X105556446Y-49270500D01*
X105556446Y-49126580D01*
X105700305Y-49126580D01*
X105700305Y-49270500D01*
G37*
G36*
X105560354Y-49551196D02*
G01*
X105416434Y-49551196D01*
X105416434Y-49267264D01*
X105560354Y-49267264D01*
X105560354Y-49551196D01*
G37*
G36*
X104856507Y-49267264D02*
G01*
X105000427Y-49267264D01*
X105000427Y-49411184D01*
X104856507Y-49411184D01*
X104856507Y-49267264D01*
G37*
G36*
X105140439Y-49689316D02*
G01*
X104996519Y-49689316D01*
X104996519Y-49405444D01*
X105140439Y-49405444D01*
X105140439Y-49689316D01*
G37*
G36*
X105000427Y-49830000D02*
G01*
X104716495Y-49830000D01*
X104716495Y-49686140D01*
X105000427Y-49686140D01*
X105000427Y-49830000D01*
G37*
G36*
X104860415Y-49270500D02*
G01*
X104576543Y-49270500D01*
X104576543Y-49126580D01*
X104860415Y-49126580D01*
X104860415Y-49270500D01*
G37*
G36*
X104720403Y-49689316D02*
G01*
X104576543Y-49689316D01*
X104576543Y-49545457D01*
X104720403Y-49545457D01*
X104720403Y-49689316D01*
G37*
G36*
X104580451Y-49549364D02*
G01*
X104436531Y-49549364D01*
X104436531Y-49267264D01*
X104580451Y-49267264D01*
X104580451Y-49549364D01*
G37*
G36*
X104020525Y-49406055D02*
G01*
X104020525Y-49830000D01*
X103736592Y-49830000D01*
X103736592Y-49686140D01*
X103876605Y-49686140D01*
X103876605Y-49406055D01*
X104020525Y-49406055D01*
G37*
G36*
X103880512Y-49410512D02*
G01*
X103736592Y-49410512D01*
X103736592Y-49126580D01*
X103880512Y-49126580D01*
X103880512Y-49410512D01*
G37*
G36*
X103880512Y-48989804D02*
G01*
X103740500Y-48989804D01*
X103740500Y-49129877D01*
X103596641Y-49129877D01*
X103596641Y-48845945D01*
X103880512Y-48845945D01*
X103880512Y-48989804D01*
G37*
G36*
X103740500Y-49689316D02*
G01*
X103596641Y-49689316D01*
X103596641Y-49545457D01*
X103740500Y-49545457D01*
X103740500Y-49689316D01*
G37*
G36*
X102760598Y-48845945D02*
G01*
X102760598Y-48989804D01*
X102616739Y-48989804D01*
X102616739Y-48845945D01*
X102760598Y-48845945D01*
G37*
G36*
X103180635Y-49689316D02*
G01*
X103036714Y-49689316D01*
X103036714Y-49405566D01*
X103180635Y-49405566D01*
X103180635Y-49689316D01*
G37*
G36*
X103040622Y-49830000D02*
G01*
X102756690Y-49830000D01*
X102756690Y-49686140D01*
X103040622Y-49686140D01*
X103040622Y-49830000D01*
G37*
G36*
X103040622Y-49411184D02*
G01*
X102896702Y-49411184D01*
X102896702Y-49267264D01*
X103040622Y-49267264D01*
X103040622Y-49411184D01*
G37*
G36*
X102900610Y-49270500D02*
G01*
X102616739Y-49270500D01*
X102616739Y-49126580D01*
X102900610Y-49126580D01*
X102900610Y-49270500D01*
G37*
G36*
X102760598Y-49689316D02*
G01*
X102616739Y-49689316D01*
X102616739Y-49545457D01*
X102760598Y-49545457D01*
X102760598Y-49689316D01*
G37*
G36*
X102620647Y-49549364D02*
G01*
X102476727Y-49549364D01*
X102476727Y-49267264D01*
X102620647Y-49267264D01*
X102620647Y-49549364D01*
G37*
G36*
X102620647Y-48849120D02*
G01*
X102476727Y-48849120D01*
X102476727Y-48705261D01*
X102620647Y-48705261D01*
X102620647Y-48849120D01*
G37*
G36*
X101781001Y-49830000D02*
G01*
X101781001Y-49970012D01*
X101637081Y-49970012D01*
X101637081Y-49830000D01*
X101497130Y-49830000D01*
X101497130Y-49545457D01*
X101640989Y-49545457D01*
X101640989Y-49686140D01*
X101921013Y-49686140D01*
X101921013Y-49830000D01*
X101781001Y-49830000D01*
G37*
G36*
X102200976Y-49970012D02*
G01*
X102057117Y-49970012D01*
X102057117Y-49826092D01*
X102200976Y-49826092D01*
X102200976Y-49970012D01*
G37*
G36*
X102061025Y-50110696D02*
G01*
X101777093Y-50110696D01*
X101777093Y-49966775D01*
X102061025Y-49966775D01*
X102061025Y-50110696D01*
G37*
G36*
X102061025Y-49689316D02*
G01*
X101917105Y-49689316D01*
X101917105Y-49405444D01*
X102061025Y-49405444D01*
X102061025Y-49689316D01*
G37*
G36*
X101921013Y-49411184D02*
G01*
X101777093Y-49411184D01*
X101777093Y-49267264D01*
X101921013Y-49267264D01*
X101921013Y-49411184D01*
G37*
G36*
X101781001Y-49270500D02*
G01*
X101497130Y-49270500D01*
X101497130Y-49126580D01*
X101781001Y-49126580D01*
X101781001Y-49270500D01*
G37*
G36*
X101501038Y-49550525D02*
G01*
X101357117Y-49550525D01*
X101357117Y-49267264D01*
X101501038Y-49267264D01*
X101501038Y-49550525D01*
G37*
G36*
X101361025Y-49270500D02*
G01*
X101217105Y-49270500D01*
X101217105Y-49126580D01*
X101361025Y-49126580D01*
X101361025Y-49270500D01*
G37*
G36*
X100941111Y-49545457D02*
G01*
X100941111Y-49830000D01*
X100657178Y-49830000D01*
X100657178Y-49686140D01*
X100797191Y-49686140D01*
X100797191Y-49545457D01*
X100941111Y-49545457D01*
G37*
G36*
X100801099Y-49548632D02*
G01*
X100657178Y-49548632D01*
X100657178Y-49404773D01*
X100801099Y-49404773D01*
X100801099Y-49548632D01*
G37*
G36*
X100801099Y-49270500D02*
G01*
X100661086Y-49270500D01*
X100661086Y-49408681D01*
X100517227Y-49408681D01*
X100517227Y-49126580D01*
X100801099Y-49126580D01*
X100801099Y-49270500D01*
G37*
G36*
X100661086Y-49689316D02*
G01*
X100517227Y-49689316D01*
X100517227Y-49545457D01*
X100661086Y-49545457D01*
X100661086Y-49689316D01*
G37*
G36*
X100521135Y-48989804D02*
G01*
X100377215Y-48989804D01*
X100377215Y-48845945D01*
X100521135Y-48845945D01*
X100521135Y-48989804D01*
G37*
G36*
X99397313Y-49267264D02*
G01*
X99541233Y-49267264D01*
X99541233Y-49411184D01*
X99397313Y-49411184D01*
X99397313Y-49267264D01*
G37*
G36*
X100101221Y-49689316D02*
G01*
X99957301Y-49689316D01*
X99957301Y-49407276D01*
X100101221Y-49407276D01*
X100101221Y-49689316D01*
G37*
G36*
X99961209Y-49830000D02*
G01*
X99677276Y-49830000D01*
X99677276Y-49686140D01*
X99961209Y-49686140D01*
X99961209Y-49830000D01*
G37*
G36*
X99961209Y-49411184D02*
G01*
X99817288Y-49411184D01*
X99817288Y-49267264D01*
X99961209Y-49267264D01*
X99961209Y-49411184D01*
G37*
G36*
X99821196Y-49270500D02*
G01*
X99537325Y-49270500D01*
X99537325Y-49126580D01*
X99821196Y-49126580D01*
X99821196Y-49270500D01*
G37*
G36*
X99681184Y-49689316D02*
G01*
X99537325Y-49689316D01*
X99537325Y-49545457D01*
X99681184Y-49545457D01*
X99681184Y-49689316D01*
G37*
G36*
X98977398Y-49689316D02*
G01*
X98977398Y-49405444D01*
X99121318Y-49405444D01*
X99121318Y-49689316D01*
X98977398Y-49689316D01*
G37*
G36*
X98981306Y-49830000D02*
G01*
X98697374Y-49830000D01*
X98697374Y-49686140D01*
X98981306Y-49686140D01*
X98981306Y-49830000D01*
G37*
G36*
X98981306Y-49411184D02*
G01*
X98837386Y-49411184D01*
X98837386Y-49267264D01*
X98981306Y-49267264D01*
X98981306Y-49411184D01*
G37*
G36*
X98841294Y-49270500D02*
G01*
X98557423Y-49270500D01*
X98557423Y-49126580D01*
X98841294Y-49126580D01*
X98841294Y-49270500D01*
G37*
G36*
X98701282Y-49689316D02*
G01*
X98557423Y-49689316D01*
X98557423Y-49545457D01*
X98701282Y-49545457D01*
X98701282Y-49689316D01*
G37*
G36*
X98561331Y-49830000D02*
G01*
X98417411Y-49830000D01*
X98417411Y-49686140D01*
X98561331Y-49686140D01*
X98561331Y-49830000D01*
G37*
G36*
X98561331Y-49550647D02*
G01*
X98417411Y-49550647D01*
X98417411Y-49267264D01*
X98561331Y-49267264D01*
X98561331Y-49550647D01*
G37*
G36*
X98421318Y-49270500D02*
G01*
X98277398Y-49270500D01*
X98277398Y-49126580D01*
X98421318Y-49126580D01*
X98421318Y-49270500D01*
G37*
G36*
X97581428Y-49411184D02*
G01*
X97437508Y-49411184D01*
X97437508Y-49267264D01*
X97581428Y-49267264D01*
X97581428Y-49411184D01*
G37*
G36*
X98141416Y-49689316D02*
G01*
X97997496Y-49689316D01*
X97997496Y-49545457D01*
X98141416Y-49545457D01*
X98141416Y-49689316D01*
G37*
G36*
X98001404Y-49830000D02*
G01*
X97717472Y-49830000D01*
X97717472Y-49686140D01*
X98001404Y-49686140D01*
X98001404Y-49830000D01*
G37*
G36*
X98001404Y-49411184D02*
G01*
X97857484Y-49411184D01*
X97857484Y-49267264D01*
X98001404Y-49267264D01*
X98001404Y-49411184D01*
G37*
G36*
X97861392Y-49548632D02*
G01*
X97717472Y-49548632D01*
X97717472Y-49404773D01*
X97861392Y-49404773D01*
X97861392Y-49548632D01*
G37*
G36*
X97861392Y-49270500D02*
G01*
X97577520Y-49270500D01*
X97577520Y-49126580D01*
X97861392Y-49126580D01*
X97861392Y-49270500D01*
G37*
G36*
X97721379Y-49689316D02*
G01*
X97577520Y-49689316D01*
X97577520Y-49545457D01*
X97721379Y-49545457D01*
X97721379Y-49689316D01*
G37*
G36*
X95761575Y-49828656D02*
G01*
X95617716Y-49828656D01*
X95617716Y-49548632D01*
X95477704Y-49548632D01*
X95477704Y-49265127D01*
X95621624Y-49265127D01*
X95621624Y-49404773D01*
X96037691Y-49404773D01*
X96037691Y-49265127D01*
X96181612Y-49265127D01*
X96181612Y-49548632D01*
X95761575Y-49548632D01*
X95761575Y-49828656D01*
G37*
G36*
X96321563Y-49830000D02*
G01*
X96177704Y-49830000D01*
X96177704Y-49546128D01*
X96321563Y-49546128D01*
X96321563Y-49830000D01*
G37*
G36*
X96041599Y-49269829D02*
G01*
X95897679Y-49269829D01*
X95897679Y-48985896D01*
X96041599Y-48985896D01*
X96041599Y-49269829D01*
G37*
G36*
X95901587Y-48989804D02*
G01*
X95477704Y-48989804D01*
X95477704Y-48845945D01*
X95901587Y-48845945D01*
X95901587Y-48989804D01*
G37*
G36*
X95481612Y-49269829D02*
G01*
X95337691Y-49269829D01*
X95337691Y-48985896D01*
X95481612Y-48985896D01*
X95481612Y-49269829D01*
G37*
G36*
X72363513Y-58642556D02*
G01*
X71742959Y-58642556D01*
X71742959Y-58484244D01*
X71895696Y-58484244D01*
X71895696Y-58330230D01*
X72054009Y-58330230D01*
X72054009Y-58484244D01*
X72361968Y-58484244D01*
X72363513Y-58642556D01*
G37*
G36*
X71435000Y-58796569D02*
G01*
X71435000Y-58638257D01*
X71747258Y-58638257D01*
X71747258Y-58796569D01*
X71435000Y-58796569D01*
G37*
G36*
X72359214Y-58488542D02*
G01*
X72359214Y-58330230D01*
X72517459Y-58330230D01*
X72517459Y-58488542D01*
X72359214Y-58488542D01*
G37*
G36*
X71435000Y-58334529D02*
G01*
X71435000Y-58176284D01*
X71747258Y-58176284D01*
X71747258Y-58334529D01*
X71435000Y-58334529D01*
G37*
G36*
X72050449Y-58334529D02*
G01*
X72050449Y-58176284D01*
X72208761Y-58176284D01*
X72208761Y-58334529D01*
X72050449Y-58334529D01*
G37*
G36*
X71741683Y-58180583D02*
G01*
X71741683Y-58022271D01*
X72054009Y-58022271D01*
X72054009Y-58180583D01*
X71741683Y-58180583D01*
G37*
G36*
X71435000Y-57564663D02*
G01*
X71435000Y-57252338D01*
X71593244Y-57252338D01*
X71593244Y-57564663D01*
X71435000Y-57564663D01*
G37*
G36*
X71588946Y-57718677D02*
G01*
X71588946Y-57560365D01*
X71744504Y-57560365D01*
X71744504Y-57098391D01*
X71902749Y-57098391D01*
X71902749Y-57406351D01*
X72054009Y-57406351D01*
X72054009Y-57564663D01*
X71902749Y-57564663D01*
X71902749Y-57718677D01*
X71588946Y-57718677D01*
G37*
G36*
X72050449Y-57410650D02*
G01*
X72050449Y-57098391D01*
X72208761Y-57098391D01*
X72208761Y-57410650D01*
X72050449Y-57410650D01*
G37*
G36*
X71895696Y-57102690D02*
G01*
X71895696Y-56944378D01*
X72054009Y-56944378D01*
X72054009Y-57102690D01*
X71895696Y-57102690D01*
G37*
G36*
X72054009Y-55866485D02*
G01*
X72054009Y-56024798D01*
X71895696Y-56024798D01*
X71895696Y-55866485D01*
X72054009Y-55866485D01*
G37*
G36*
X71589752Y-56640784D02*
G01*
X71589752Y-56482472D01*
X71899995Y-56482472D01*
X71899995Y-56640784D01*
X71589752Y-56640784D01*
G37*
G36*
X71435000Y-56486771D02*
G01*
X71435000Y-56174445D01*
X71593244Y-56174445D01*
X71593244Y-56486771D01*
X71435000Y-56486771D01*
G37*
G36*
X71895696Y-56486771D02*
G01*
X71895696Y-56328459D01*
X72054009Y-56328459D01*
X72054009Y-56486771D01*
X71895696Y-56486771D01*
G37*
G36*
X72050449Y-56332757D02*
G01*
X72050449Y-56020499D01*
X72208761Y-56020499D01*
X72208761Y-56332757D01*
X72050449Y-56332757D01*
G37*
G36*
X71589752Y-56178744D02*
G01*
X71589752Y-56020499D01*
X71747997Y-56020499D01*
X71747997Y-56178744D01*
X71589752Y-56178744D01*
G37*
G36*
X72363513Y-55408878D02*
G01*
X71742959Y-55408878D01*
X71742959Y-55250566D01*
X71895696Y-55250566D01*
X71895696Y-55096553D01*
X72054009Y-55096553D01*
X72054009Y-55250566D01*
X72361968Y-55250566D01*
X72363513Y-55408878D01*
G37*
G36*
X71435000Y-55562892D02*
G01*
X71435000Y-55404580D01*
X71747258Y-55404580D01*
X71747258Y-55562892D01*
X71435000Y-55562892D01*
G37*
G36*
X72359214Y-55254865D02*
G01*
X72359214Y-55096553D01*
X72517459Y-55096553D01*
X72517459Y-55254865D01*
X72359214Y-55254865D01*
G37*
G36*
X71435000Y-55100851D02*
G01*
X71435000Y-54942606D01*
X71747258Y-54942606D01*
X71747258Y-55100851D01*
X71435000Y-55100851D01*
G37*
G36*
X72050449Y-55100851D02*
G01*
X72050449Y-54942606D01*
X72208761Y-54942606D01*
X72208761Y-55100851D01*
X72050449Y-55100851D01*
G37*
G36*
X71741683Y-54946905D02*
G01*
X71741683Y-54788593D01*
X72054009Y-54788593D01*
X72054009Y-54946905D01*
X71741683Y-54946905D01*
G37*
G36*
X72054009Y-54172674D02*
G01*
X72054009Y-54330986D01*
X71895696Y-54330986D01*
X71895696Y-54172674D01*
X72054009Y-54172674D01*
G37*
G36*
X71589752Y-54484999D02*
G01*
X71589752Y-54326687D01*
X71902010Y-54326687D01*
X71902010Y-54484999D01*
X71589752Y-54484999D01*
G37*
G36*
X71435000Y-54330986D02*
G01*
X71435000Y-54018660D01*
X71593244Y-54018660D01*
X71593244Y-54330986D01*
X71435000Y-54330986D01*
G37*
G36*
X72050449Y-54176972D02*
G01*
X72050449Y-53864714D01*
X72208761Y-53864714D01*
X72208761Y-54176972D01*
X72050449Y-54176972D01*
G37*
G36*
X71589752Y-54022959D02*
G01*
X71589752Y-53864714D01*
X71747997Y-53864714D01*
X71747997Y-54022959D01*
X71589752Y-54022959D01*
G37*
G36*
X71743698Y-53869013D02*
G01*
X71743698Y-53710700D01*
X72054009Y-53710700D01*
X72054009Y-53869013D01*
X71743698Y-53869013D01*
G37*
G36*
X71589752Y-52016888D02*
G01*
X71902010Y-52016888D01*
X71902010Y-52175201D01*
X71589752Y-52175201D01*
X71589752Y-52016888D01*
G37*
G36*
X71126973Y-52329214D02*
G01*
X71126973Y-52170902D01*
X71593244Y-52170902D01*
X71593244Y-52329214D01*
X71126973Y-52329214D01*
G37*
G36*
X72050449Y-52175201D02*
G01*
X72050449Y-52016888D01*
X72208761Y-52016888D01*
X72208761Y-52175201D01*
X72050449Y-52175201D01*
G37*
G36*
X71435000Y-52021187D02*
G01*
X71435000Y-51708929D01*
X71593244Y-51708929D01*
X71593244Y-52021187D01*
X71435000Y-52021187D01*
G37*
G36*
X71895696Y-52021187D02*
G01*
X71895696Y-51862875D01*
X72054009Y-51862875D01*
X72054009Y-52021187D01*
X71895696Y-52021187D01*
G37*
G36*
X72050449Y-51867174D02*
G01*
X72050449Y-51554915D01*
X72208761Y-51554915D01*
X72208761Y-51867174D01*
X72050449Y-51867174D01*
G37*
G36*
X71589752Y-51713227D02*
G01*
X71589752Y-51554915D01*
X71747997Y-51554915D01*
X71747997Y-51713227D01*
X71589752Y-51713227D01*
G37*
G36*
X71743698Y-51559214D02*
G01*
X71743698Y-51400902D01*
X72054009Y-51400902D01*
X72054009Y-51559214D01*
X71743698Y-51559214D01*
G37*
G36*
X72054009Y-50938996D02*
G01*
X72054009Y-51097308D01*
X71895696Y-51097308D01*
X71895696Y-50938996D01*
X72054009Y-50938996D01*
G37*
G36*
X71589752Y-51251322D02*
G01*
X71589752Y-51093009D01*
X71902010Y-51093009D01*
X71902010Y-51251322D01*
X71589752Y-51251322D01*
G37*
G36*
X71435000Y-51097308D02*
G01*
X71435000Y-50784983D01*
X71593244Y-50784983D01*
X71593244Y-51097308D01*
X71435000Y-51097308D01*
G37*
G36*
X72050449Y-50943295D02*
G01*
X72050449Y-50631036D01*
X72208761Y-50631036D01*
X72208761Y-50943295D01*
X72050449Y-50943295D01*
G37*
G36*
X71589752Y-50789281D02*
G01*
X71589752Y-50631036D01*
X71747997Y-50631036D01*
X71747997Y-50789281D01*
X71589752Y-50789281D01*
G37*
G36*
X71743698Y-50635335D02*
G01*
X71743698Y-50477023D01*
X72054009Y-50477023D01*
X72054009Y-50635335D01*
X71743698Y-50635335D01*
G37*
G36*
X71747258Y-50015117D02*
G01*
X71747258Y-50173429D01*
X71435000Y-50173429D01*
X71435000Y-50015117D01*
X71747258Y-50015117D01*
G37*
G36*
X71742959Y-50019416D02*
G01*
X71742959Y-49861103D01*
X71895696Y-49861103D01*
X71895696Y-49707090D01*
X72054009Y-49707090D01*
X72054009Y-49861103D01*
X72208761Y-49861103D01*
X72208761Y-50019416D01*
X71742959Y-50019416D01*
G37*
G36*
X72050449Y-49711389D02*
G01*
X72050449Y-49553144D01*
X72208761Y-49553144D01*
X72208761Y-49711389D01*
X72050449Y-49711389D01*
G37*
G36*
X71895696Y-49557442D02*
G01*
X71895696Y-49399130D01*
X72054009Y-49399130D01*
X72054009Y-49557442D01*
X71895696Y-49557442D01*
G37*
G36*
X69893683Y-59023190D02*
G01*
X70206009Y-59023190D01*
X70206009Y-59181502D01*
X69893683Y-59181502D01*
X69893683Y-59023190D01*
G37*
G36*
X69587000Y-59335515D02*
G01*
X69587000Y-59177203D01*
X69899258Y-59177203D01*
X69899258Y-59335515D01*
X69587000Y-59335515D01*
G37*
G36*
X70202449Y-59335515D02*
G01*
X70202449Y-59177203D01*
X70360761Y-59177203D01*
X70360761Y-59335515D01*
X70202449Y-59335515D01*
G37*
G36*
X69587000Y-59027488D02*
G01*
X69587000Y-58869176D01*
X69899258Y-58869176D01*
X69899258Y-59027488D01*
X69587000Y-59027488D01*
G37*
G36*
X70202449Y-59027488D02*
G01*
X70202449Y-58869176D01*
X70360761Y-58869176D01*
X70360761Y-59027488D01*
X70202449Y-59027488D01*
G37*
G36*
X69893683Y-58873475D02*
G01*
X69893683Y-58715230D01*
X70206009Y-58715230D01*
X70206009Y-58873475D01*
X69893683Y-58873475D01*
G37*
G36*
X69587000Y-58719529D02*
G01*
X69587000Y-58561217D01*
X69899258Y-58561217D01*
X69899258Y-58719529D01*
X69587000Y-58719529D01*
G37*
G36*
X70202449Y-58719529D02*
G01*
X70202449Y-58561217D01*
X70360761Y-58561217D01*
X70360761Y-58719529D01*
X70202449Y-58719529D01*
G37*
G36*
X69893683Y-58565515D02*
G01*
X69893683Y-58407203D01*
X70206009Y-58407203D01*
X70206009Y-58565515D01*
X69893683Y-58565515D01*
G37*
G36*
X69741752Y-58099311D02*
G01*
X70054010Y-58099311D01*
X70054010Y-58257623D01*
X69741752Y-58257623D01*
X69741752Y-58099311D01*
G37*
G36*
X69587000Y-58103609D02*
G01*
X69587000Y-57791284D01*
X69745244Y-57791284D01*
X69745244Y-58103609D01*
X69587000Y-58103609D01*
G37*
G36*
X70047696Y-58103609D02*
G01*
X70047696Y-57945297D01*
X70206009Y-57945297D01*
X70206009Y-58103609D01*
X70047696Y-58103609D01*
G37*
G36*
X70202449Y-57949596D02*
G01*
X70202449Y-57637337D01*
X70360761Y-57637337D01*
X70360761Y-57949596D01*
X70202449Y-57949596D01*
G37*
G36*
X69741752Y-57795582D02*
G01*
X69741752Y-57637337D01*
X69899997Y-57637337D01*
X69899997Y-57795582D01*
X69741752Y-57795582D01*
G37*
G36*
X69587000Y-57641636D02*
G01*
X69587000Y-57483324D01*
X69745244Y-57483324D01*
X69745244Y-57641636D01*
X69587000Y-57641636D01*
G37*
G36*
X69894288Y-57641636D02*
G01*
X69894288Y-57483324D01*
X70206009Y-57483324D01*
X70206009Y-57641636D01*
X69894288Y-57641636D01*
G37*
G36*
X70202449Y-57487623D02*
G01*
X70202449Y-57329311D01*
X70360761Y-57329311D01*
X70360761Y-57487623D01*
X70202449Y-57487623D01*
G37*
G36*
X70360761Y-57025717D02*
G01*
X70202449Y-57025717D01*
X70202449Y-56871703D01*
X70048637Y-56871703D01*
X70048637Y-56713391D01*
X70202449Y-56713391D01*
X70202449Y-56405431D01*
X70360761Y-56405431D01*
X70360761Y-56713391D01*
X70515513Y-56713391D01*
X70515513Y-56871703D01*
X70360761Y-56871703D01*
X70360761Y-57025717D01*
G37*
G36*
X69587000Y-57025717D02*
G01*
X69587000Y-56713391D01*
X69745244Y-56713391D01*
X69745244Y-56867405D01*
X70052935Y-56867405D01*
X70052935Y-57025717D01*
X69587000Y-57025717D01*
G37*
G36*
X69741752Y-56717690D02*
G01*
X69741752Y-56559445D01*
X69899997Y-56559445D01*
X69899997Y-56717690D01*
X69741752Y-56717690D01*
G37*
G36*
X70511214Y-56717690D02*
G01*
X70511214Y-56559445D01*
X70669459Y-56559445D01*
X70669459Y-56717690D01*
X70511214Y-56717690D01*
G37*
G36*
X69587000Y-55947824D02*
G01*
X69587000Y-55635499D01*
X69745244Y-55635499D01*
X69745244Y-55947824D01*
X69587000Y-55947824D01*
G37*
G36*
X69740946Y-56101838D02*
G01*
X69740946Y-55943526D01*
X69896504Y-55943526D01*
X69896504Y-55481552D01*
X70054749Y-55481552D01*
X70054749Y-55789512D01*
X70206009Y-55789512D01*
X70206009Y-55947824D01*
X70054749Y-55947824D01*
X70054749Y-56101838D01*
X69740946Y-56101838D01*
G37*
G36*
X70202449Y-55793811D02*
G01*
X70202449Y-55481552D01*
X70360761Y-55481552D01*
X70360761Y-55793811D01*
X70202449Y-55793811D01*
G37*
G36*
X70047696Y-55485851D02*
G01*
X70047696Y-55327539D01*
X70206009Y-55327539D01*
X70206009Y-55485851D01*
X70047696Y-55485851D01*
G37*
G36*
X70206009Y-54711620D02*
G01*
X70206009Y-54869932D01*
X70047696Y-54869932D01*
X70047696Y-54711620D01*
X70206009Y-54711620D01*
G37*
G36*
X69741752Y-55023945D02*
G01*
X69741752Y-54865633D01*
X70054010Y-54865633D01*
X70054010Y-55023945D01*
X69741752Y-55023945D01*
G37*
G36*
X69587000Y-54869932D02*
G01*
X69587000Y-54557606D01*
X69745244Y-54557606D01*
X69745244Y-54869932D01*
X69587000Y-54869932D01*
G37*
G36*
X70202449Y-54715918D02*
G01*
X70202449Y-54403660D01*
X70360761Y-54403660D01*
X70360761Y-54715918D01*
X70202449Y-54715918D01*
G37*
G36*
X69741752Y-54561905D02*
G01*
X69741752Y-54403660D01*
X69899997Y-54403660D01*
X69899997Y-54561905D01*
X69741752Y-54561905D01*
G37*
G36*
X69895698Y-54407959D02*
G01*
X69895698Y-54249646D01*
X70206009Y-54249646D01*
X70206009Y-54407959D01*
X69895698Y-54407959D01*
G37*
G36*
X69741752Y-52709848D02*
G01*
X70054010Y-52709848D01*
X70054010Y-52868160D01*
X69741752Y-52868160D01*
X69741752Y-52709848D01*
G37*
G36*
X69587000Y-52714147D02*
G01*
X69587000Y-52401821D01*
X69745244Y-52401821D01*
X69745244Y-52714147D01*
X69587000Y-52714147D01*
G37*
G36*
X70047696Y-52714147D02*
G01*
X70047696Y-52555834D01*
X70206009Y-52555834D01*
X70206009Y-52714147D01*
X70047696Y-52714147D01*
G37*
G36*
X70202449Y-52560133D02*
G01*
X70202449Y-52247875D01*
X70360761Y-52247875D01*
X70360761Y-52560133D01*
X70202449Y-52560133D01*
G37*
G36*
X69741752Y-52406120D02*
G01*
X69741752Y-52247875D01*
X69899997Y-52247875D01*
X69899997Y-52406120D01*
X69741752Y-52406120D01*
G37*
G36*
X69587000Y-52252173D02*
G01*
X69587000Y-52093861D01*
X69745244Y-52093861D01*
X69745244Y-52252173D01*
X69587000Y-52252173D01*
G37*
G36*
X69894288Y-52252173D02*
G01*
X69894288Y-52093861D01*
X70206009Y-52093861D01*
X70206009Y-52252173D01*
X69894288Y-52252173D01*
G37*
G36*
X70202449Y-52098160D02*
G01*
X70202449Y-51939848D01*
X70360761Y-51939848D01*
X70360761Y-52098160D01*
X70202449Y-52098160D01*
G37*
G36*
X69899258Y-51631955D02*
G01*
X69899258Y-51790268D01*
X69587000Y-51790268D01*
X69587000Y-51631955D01*
X69899258Y-51631955D01*
G37*
G36*
X69894959Y-51636254D02*
G01*
X69894959Y-51477942D01*
X70047696Y-51477942D01*
X70047696Y-51323929D01*
X70206009Y-51323929D01*
X70206009Y-51477942D01*
X70360761Y-51477942D01*
X70360761Y-51636254D01*
X69894959Y-51636254D01*
G37*
G36*
X70202449Y-51328227D02*
G01*
X70202449Y-51169982D01*
X70360761Y-51169982D01*
X70360761Y-51328227D01*
X70202449Y-51328227D01*
G37*
G36*
X70047696Y-51174281D02*
G01*
X70047696Y-51015969D01*
X70206009Y-51015969D01*
X70206009Y-51174281D01*
X70047696Y-51174281D01*
G37*
G36*
X70206009Y-49938076D02*
G01*
X70206009Y-50096388D01*
X70047696Y-50096388D01*
X70047696Y-49938076D01*
X70206009Y-49938076D01*
G37*
G36*
X69741752Y-50712375D02*
G01*
X69741752Y-50554063D01*
X70051995Y-50554063D01*
X70051995Y-50712375D01*
X69741752Y-50712375D01*
G37*
G36*
X69587000Y-50558362D02*
G01*
X69587000Y-50246036D01*
X69745244Y-50246036D01*
X69745244Y-50558362D01*
X69587000Y-50558362D01*
G37*
G36*
X70047696Y-50558362D02*
G01*
X70047696Y-50400049D01*
X70206009Y-50400049D01*
X70206009Y-50558362D01*
X70047696Y-50558362D01*
G37*
G36*
X70202449Y-50404348D02*
G01*
X70202449Y-50092090D01*
X70360761Y-50092090D01*
X70360761Y-50404348D01*
X70202449Y-50404348D01*
G37*
G36*
X69741752Y-50250335D02*
G01*
X69741752Y-50092090D01*
X69899997Y-50092090D01*
X69899997Y-50250335D01*
X69741752Y-50250335D01*
G37*
G36*
X69587000Y-49480469D02*
G01*
X69587000Y-49168143D01*
X69745244Y-49168143D01*
X69745244Y-49480469D01*
X69587000Y-49480469D01*
G37*
G36*
X69740946Y-49634482D02*
G01*
X69740946Y-49476170D01*
X69896504Y-49476170D01*
X69896504Y-49014197D01*
X70054749Y-49014197D01*
X70054749Y-49322157D01*
X70206009Y-49322157D01*
X70206009Y-49480469D01*
X70054749Y-49480469D01*
X70054749Y-49634482D01*
X69740946Y-49634482D01*
G37*
G36*
X70202449Y-49326456D02*
G01*
X70202449Y-49014197D01*
X70360761Y-49014197D01*
X70360761Y-49326456D01*
X70202449Y-49326456D01*
G37*
G36*
X70047696Y-49018496D02*
G01*
X70047696Y-48860184D01*
X70206009Y-48860184D01*
X70206009Y-49018496D01*
X70047696Y-49018496D01*
G37*
M02*
