%TF.GenerationSoftware,KiCad,Pcbnew,10.0.1*%
%TF.CreationDate,2026-09-08T17:56:25-03:00*%
%TF.ProjectId,555_astable,3535355f-6173-4746-9162-6c652e6b6963,rev?*%
%TF.SameCoordinates,Original*%
%TF.FileFunction,Legend,Top*%
%TF.FilePolarity,Positive*%
%FSLAX46Y46*%
G04 Gerber Fmt 4.6, Leading zero omitted, Abs format (unit mm)*
G04 Created by KiCad (PCBNEW 10.0.1) date 2026-09-08 17:56:25*
%MOMM*%
%LPD*%
G01*
G04 APERTURE LIST*
%ADD10C,0.250000*%
%ADD11C,0.150000*%
%ADD12C,0.120000*%
%ADD13C,0.159949*%
G04 APERTURE END LIST*
D10*
G36*
X70039238Y-55246552D02*
G01*
X70039238Y-55554579D01*
X69885292Y-55554579D01*
X69885292Y-55712891D01*
X70197550Y-55712891D01*
X70197550Y-55246552D01*
X70039238Y-55246552D01*
G37*
G36*
X70658247Y-55866838D02*
G01*
X70658247Y-55708593D01*
X70500002Y-55708593D01*
X70500002Y-55866838D01*
X70658247Y-55866838D01*
G37*
G36*
X70813000Y-55712891D02*
G01*
X70813000Y-55400566D01*
X70654755Y-55400566D01*
X70654755Y-55712891D01*
X70813000Y-55712891D01*
G37*
G36*
X69888785Y-55558878D02*
G01*
X69888785Y-54938593D01*
X69730540Y-54938593D01*
X69730540Y-55558878D01*
X69888785Y-55558878D01*
G37*
G36*
X70658247Y-55404864D02*
G01*
X70658247Y-55246552D01*
X70500002Y-55246552D01*
X70500002Y-55404864D01*
X70658247Y-55404864D01*
G37*
G36*
X70506316Y-55250851D02*
G01*
X70506316Y-55092606D01*
X70193990Y-55092606D01*
X70193990Y-55250851D01*
X70506316Y-55250851D01*
G37*
G36*
X70039238Y-54168660D02*
G01*
X70039238Y-54476687D01*
X69885292Y-54476687D01*
X69885292Y-54634999D01*
X70197550Y-54634999D01*
X70197550Y-54168660D01*
X70039238Y-54168660D01*
G37*
G36*
X70658247Y-54788945D02*
G01*
X70658247Y-54630700D01*
X70500002Y-54630700D01*
X70500002Y-54788945D01*
X70658247Y-54788945D01*
G37*
G36*
X70813000Y-54634999D02*
G01*
X70813000Y-54322673D01*
X70654755Y-54322673D01*
X70654755Y-54634999D01*
X70813000Y-54634999D01*
G37*
G36*
X69888785Y-54480985D02*
G01*
X69888785Y-53860700D01*
X69730540Y-53860700D01*
X69730540Y-54480985D01*
X69888785Y-54480985D01*
G37*
G36*
X70658247Y-54326972D02*
G01*
X70658247Y-54168660D01*
X70500002Y-54168660D01*
X70500002Y-54326972D01*
X70658247Y-54326972D01*
G37*
G36*
X70506316Y-54172958D02*
G01*
X70506316Y-54014713D01*
X70193990Y-54014713D01*
X70193990Y-54172958D01*
X70506316Y-54172958D01*
G37*
G36*
X70039238Y-53090767D02*
G01*
X70039238Y-53398794D01*
X69885292Y-53398794D01*
X69885292Y-53557106D01*
X70197550Y-53557106D01*
X70197550Y-53090767D01*
X70039238Y-53090767D01*
G37*
G36*
X70658247Y-53711052D02*
G01*
X70658247Y-53552807D01*
X70500002Y-53552807D01*
X70500002Y-53711052D01*
X70658247Y-53711052D01*
G37*
G36*
X70813000Y-53557106D02*
G01*
X70813000Y-53244781D01*
X70654755Y-53244781D01*
X70654755Y-53557106D01*
X70813000Y-53557106D01*
G37*
G36*
X69888785Y-53403093D02*
G01*
X69888785Y-52782807D01*
X69730540Y-52782807D01*
X69730540Y-53403093D01*
X69888785Y-53403093D01*
G37*
G36*
X70658247Y-53249079D02*
G01*
X70658247Y-53090767D01*
X70500002Y-53090767D01*
X70500002Y-53249079D01*
X70658247Y-53249079D01*
G37*
G36*
X70506316Y-53095066D02*
G01*
X70506316Y-52936821D01*
X70193990Y-52936821D01*
X70193990Y-53095066D01*
X70506316Y-53095066D01*
G37*
G36*
X72158247Y-57960364D02*
G01*
X71845989Y-57960364D01*
X71845989Y-58118676D01*
X72158247Y-58118676D01*
X72158247Y-57960364D01*
G37*
G36*
X72313000Y-57964663D02*
G01*
X72313000Y-57652337D01*
X72154755Y-57652337D01*
X72154755Y-57964663D01*
X72313000Y-57964663D01*
G37*
G36*
X71852303Y-57964663D02*
G01*
X71852303Y-57806351D01*
X71693990Y-57806351D01*
X71693990Y-57964663D01*
X71852303Y-57964663D01*
G37*
G36*
X71697550Y-57810649D02*
G01*
X71697550Y-57498391D01*
X71539238Y-57498391D01*
X71539238Y-57810649D01*
X71697550Y-57810649D01*
G37*
G36*
X72158247Y-57656636D02*
G01*
X72158247Y-57498391D01*
X72000002Y-57498391D01*
X72000002Y-57656636D01*
X72158247Y-57656636D01*
G37*
G36*
X72313000Y-57502690D02*
G01*
X72313000Y-57344378D01*
X72154755Y-57344378D01*
X72154755Y-57502690D01*
X72313000Y-57502690D01*
G37*
G36*
X72005711Y-57502690D02*
G01*
X72005711Y-57344378D01*
X71693990Y-57344378D01*
X71693990Y-57502690D01*
X72005711Y-57502690D01*
G37*
G36*
X71697550Y-57348676D02*
G01*
X71697550Y-57190364D01*
X71539238Y-57190364D01*
X71539238Y-57348676D01*
X71697550Y-57348676D01*
G37*
G36*
X71852303Y-56424797D02*
G01*
X71852303Y-56266485D01*
X71693990Y-56266485D01*
X71693990Y-56424797D01*
X71852303Y-56424797D01*
G37*
G36*
X72158247Y-57040784D02*
G01*
X72158247Y-56882472D01*
X72000002Y-56882472D01*
X72000002Y-57040784D01*
X72158247Y-57040784D01*
G37*
G36*
X72313000Y-56886770D02*
G01*
X72313000Y-56574445D01*
X72154755Y-56574445D01*
X72154755Y-56886770D01*
X72313000Y-56886770D01*
G37*
G36*
X71852303Y-56886770D02*
G01*
X71852303Y-56728458D01*
X71693990Y-56728458D01*
X71693990Y-56886770D01*
X71852303Y-56886770D01*
G37*
G36*
X72003495Y-56732757D02*
G01*
X72003495Y-56574445D01*
X71845250Y-56574445D01*
X71845250Y-56732757D01*
X72003495Y-56732757D01*
G37*
G36*
X71697550Y-56732757D02*
G01*
X71697550Y-56420498D01*
X71539238Y-56420498D01*
X71539238Y-56732757D01*
X71697550Y-56732757D01*
G37*
G36*
X72158247Y-56578743D02*
G01*
X72158247Y-56420498D01*
X72000002Y-56420498D01*
X72000002Y-56578743D01*
X72158247Y-56578743D01*
G37*
G36*
X71539238Y-55808878D02*
G01*
X71697550Y-55808878D01*
X71697550Y-55654864D01*
X71851362Y-55654864D01*
X71851362Y-55496552D01*
X71697550Y-55496552D01*
X71697550Y-55188592D01*
X71539238Y-55188592D01*
X71539238Y-55496552D01*
X71384486Y-55496552D01*
X71384486Y-55654864D01*
X71539238Y-55654864D01*
X71539238Y-55808878D01*
G37*
G36*
X72313000Y-55808878D02*
G01*
X72313000Y-55496552D01*
X72154755Y-55496552D01*
X72154755Y-55650566D01*
X71847064Y-55650566D01*
X71847064Y-55808878D01*
X72313000Y-55808878D01*
G37*
G36*
X72158247Y-55500851D02*
G01*
X72158247Y-55342606D01*
X72000002Y-55342606D01*
X72000002Y-55500851D01*
X72158247Y-55500851D01*
G37*
G36*
X71388785Y-55500851D02*
G01*
X71388785Y-55342606D01*
X71230540Y-55342606D01*
X71230540Y-55500851D01*
X71388785Y-55500851D01*
G37*
G36*
X72158247Y-54726687D02*
G01*
X71845989Y-54726687D01*
X71845989Y-54884999D01*
X72158247Y-54884999D01*
X72158247Y-54726687D01*
G37*
G36*
X72313000Y-54730985D02*
G01*
X72313000Y-54418660D01*
X72154755Y-54418660D01*
X72154755Y-54730985D01*
X72313000Y-54730985D01*
G37*
G36*
X71852303Y-54730985D02*
G01*
X71852303Y-54572673D01*
X71693990Y-54572673D01*
X71693990Y-54730985D01*
X71852303Y-54730985D01*
G37*
G36*
X71697550Y-54576972D02*
G01*
X71697550Y-54264713D01*
X71539238Y-54264713D01*
X71539238Y-54576972D01*
X71697550Y-54576972D01*
G37*
G36*
X72158247Y-54422958D02*
G01*
X72158247Y-54264713D01*
X72000002Y-54264713D01*
X72000002Y-54422958D01*
X72158247Y-54422958D01*
G37*
G36*
X72313000Y-54269012D02*
G01*
X72313000Y-54110700D01*
X72154755Y-54110700D01*
X72154755Y-54269012D01*
X72313000Y-54269012D01*
G37*
G36*
X72005711Y-54269012D02*
G01*
X72005711Y-54110700D01*
X71693990Y-54110700D01*
X71693990Y-54269012D01*
X72005711Y-54269012D01*
G37*
G36*
X71697550Y-54114999D02*
G01*
X71697550Y-53956687D01*
X71539238Y-53956687D01*
X71539238Y-54114999D01*
X71697550Y-54114999D01*
G37*
G36*
X71697550Y-53186821D02*
G01*
X71539238Y-53186821D01*
X71539238Y-53494781D01*
X71385292Y-53494781D01*
X71385292Y-53653093D01*
X71852303Y-53653093D01*
X71852303Y-53494781D01*
X71697550Y-53494781D01*
X71697550Y-53186821D01*
G37*
G36*
X72158247Y-53807106D02*
G01*
X72158247Y-53648794D01*
X71845989Y-53648794D01*
X71845989Y-53807106D01*
X72158247Y-53807106D01*
G37*
G36*
X72313000Y-53653093D02*
G01*
X72313000Y-53340767D01*
X72154755Y-53340767D01*
X72154755Y-53653093D01*
X72313000Y-53653093D01*
G37*
G36*
X71388785Y-53499079D02*
G01*
X71388785Y-53340767D01*
X71230540Y-53340767D01*
X71230540Y-53499079D01*
X71388785Y-53499079D01*
G37*
G36*
X72158247Y-53345066D02*
G01*
X72158247Y-53186821D01*
X72000002Y-53186821D01*
X72000002Y-53345066D01*
X72158247Y-53345066D01*
G37*
G36*
X72006316Y-53191120D02*
G01*
X72006316Y-53032807D01*
X71693990Y-53032807D01*
X71693990Y-53191120D01*
X72006316Y-53191120D01*
G37*
G36*
X71846661Y-52575200D02*
G01*
X72313000Y-52575200D01*
X72313000Y-52262875D01*
X72154755Y-52262875D01*
X72154755Y-52416888D01*
X71846661Y-52416888D01*
X71846661Y-52575200D01*
G37*
G36*
X71851564Y-52421187D02*
G01*
X71851564Y-52262875D01*
X71539238Y-52262875D01*
X71539238Y-52421187D01*
X71851564Y-52421187D01*
G37*
G36*
X71388785Y-52421187D02*
G01*
X71388785Y-52267173D01*
X71542865Y-52267173D01*
X71542865Y-52108928D01*
X71230540Y-52108928D01*
X71230540Y-52421187D01*
X71388785Y-52421187D01*
G37*
G36*
X72158247Y-52267173D02*
G01*
X72158247Y-52108928D01*
X72000002Y-52108928D01*
X72000002Y-52267173D01*
X72158247Y-52267173D01*
G37*
G36*
X72313000Y-51497308D02*
G01*
X72313000Y-51184982D01*
X72154755Y-51184982D01*
X72154755Y-51497308D01*
X72313000Y-51497308D01*
G37*
G36*
X72159053Y-51651321D02*
G01*
X72159053Y-51493009D01*
X72003495Y-51493009D01*
X72003495Y-51031036D01*
X71845250Y-51031036D01*
X71845250Y-51338995D01*
X71693990Y-51338995D01*
X71693990Y-51497308D01*
X71845250Y-51497308D01*
X71845250Y-51651321D01*
X72159053Y-51651321D01*
G37*
G36*
X71697550Y-51343294D02*
G01*
X71697550Y-51031036D01*
X71539238Y-51031036D01*
X71539238Y-51343294D01*
X71697550Y-51343294D01*
G37*
G36*
X71852303Y-51035334D02*
G01*
X71852303Y-50877022D01*
X71693990Y-50877022D01*
X71693990Y-51035334D01*
X71852303Y-51035334D01*
G37*
D11*
X74725066Y-46628519D02*
X74725066Y-47342804D01*
X74725066Y-47342804D02*
X74677447Y-47485661D01*
X74677447Y-47485661D02*
X74582209Y-47580900D01*
X74582209Y-47580900D02*
X74439352Y-47628519D01*
X74439352Y-47628519D02*
X74344114Y-47628519D01*
X75725066Y-47628519D02*
X75153638Y-47628519D01*
X75439352Y-47628519D02*
X75439352Y-46628519D01*
X75439352Y-46628519D02*
X75344114Y-46771376D01*
X75344114Y-46771376D02*
X75248876Y-46866614D01*
X75248876Y-46866614D02*
X75153638Y-46914233D01*
X101166666Y-60487319D02*
X101166666Y-61201604D01*
X101166666Y-61201604D02*
X101119047Y-61344461D01*
X101119047Y-61344461D02*
X101023809Y-61439700D01*
X101023809Y-61439700D02*
X100880952Y-61487319D01*
X100880952Y-61487319D02*
X100785714Y-61487319D01*
X101547619Y-60487319D02*
X102166666Y-60487319D01*
X102166666Y-60487319D02*
X101833333Y-60868271D01*
X101833333Y-60868271D02*
X101976190Y-60868271D01*
X101976190Y-60868271D02*
X102071428Y-60915890D01*
X102071428Y-60915890D02*
X102119047Y-60963509D01*
X102119047Y-60963509D02*
X102166666Y-61058747D01*
X102166666Y-61058747D02*
X102166666Y-61296842D01*
X102166666Y-61296842D02*
X102119047Y-61392080D01*
X102119047Y-61392080D02*
X102071428Y-61439700D01*
X102071428Y-61439700D02*
X101976190Y-61487319D01*
X101976190Y-61487319D02*
X101690476Y-61487319D01*
X101690476Y-61487319D02*
X101595238Y-61439700D01*
X101595238Y-61439700D02*
X101547619Y-61392080D01*
X81109580Y-54166666D02*
X81157200Y-54214285D01*
X81157200Y-54214285D02*
X81204819Y-54357142D01*
X81204819Y-54357142D02*
X81204819Y-54452380D01*
X81204819Y-54452380D02*
X81157200Y-54595237D01*
X81157200Y-54595237D02*
X81061961Y-54690475D01*
X81061961Y-54690475D02*
X80966723Y-54738094D01*
X80966723Y-54738094D02*
X80776247Y-54785713D01*
X80776247Y-54785713D02*
X80633390Y-54785713D01*
X80633390Y-54785713D02*
X80442914Y-54738094D01*
X80442914Y-54738094D02*
X80347676Y-54690475D01*
X80347676Y-54690475D02*
X80252438Y-54595237D01*
X80252438Y-54595237D02*
X80204819Y-54452380D01*
X80204819Y-54452380D02*
X80204819Y-54357142D01*
X80204819Y-54357142D02*
X80252438Y-54214285D01*
X80252438Y-54214285D02*
X80300057Y-54166666D01*
X80300057Y-53785713D02*
X80252438Y-53738094D01*
X80252438Y-53738094D02*
X80204819Y-53642856D01*
X80204819Y-53642856D02*
X80204819Y-53404761D01*
X80204819Y-53404761D02*
X80252438Y-53309523D01*
X80252438Y-53309523D02*
X80300057Y-53261904D01*
X80300057Y-53261904D02*
X80395295Y-53214285D01*
X80395295Y-53214285D02*
X80490533Y-53214285D01*
X80490533Y-53214285D02*
X80633390Y-53261904D01*
X80633390Y-53261904D02*
X81204819Y-53833332D01*
X81204819Y-53833332D02*
X81204819Y-53214285D01*
X99954819Y-54988094D02*
X98954819Y-54988094D01*
X98954819Y-54988094D02*
X98954819Y-54749999D01*
X98954819Y-54749999D02*
X99002438Y-54607142D01*
X99002438Y-54607142D02*
X99097676Y-54511904D01*
X99097676Y-54511904D02*
X99192914Y-54464285D01*
X99192914Y-54464285D02*
X99383390Y-54416666D01*
X99383390Y-54416666D02*
X99526247Y-54416666D01*
X99526247Y-54416666D02*
X99716723Y-54464285D01*
X99716723Y-54464285D02*
X99811961Y-54511904D01*
X99811961Y-54511904D02*
X99907200Y-54607142D01*
X99907200Y-54607142D02*
X99954819Y-54749999D01*
X99954819Y-54749999D02*
X99954819Y-54988094D01*
X99954819Y-53464285D02*
X99954819Y-54035713D01*
X99954819Y-53749999D02*
X98954819Y-53749999D01*
X98954819Y-53749999D02*
X99097676Y-53845237D01*
X99097676Y-53845237D02*
X99192914Y-53940475D01*
X99192914Y-53940475D02*
X99240533Y-54035713D01*
X101166666Y-49107319D02*
X101166666Y-49821604D01*
X101166666Y-49821604D02*
X101119047Y-49964461D01*
X101119047Y-49964461D02*
X101023809Y-50059700D01*
X101023809Y-50059700D02*
X100880952Y-50107319D01*
X100880952Y-50107319D02*
X100785714Y-50107319D01*
X101595238Y-49202557D02*
X101642857Y-49154938D01*
X101642857Y-49154938D02*
X101738095Y-49107319D01*
X101738095Y-49107319D02*
X101976190Y-49107319D01*
X101976190Y-49107319D02*
X102071428Y-49154938D01*
X102071428Y-49154938D02*
X102119047Y-49202557D01*
X102119047Y-49202557D02*
X102166666Y-49297795D01*
X102166666Y-49297795D02*
X102166666Y-49393033D01*
X102166666Y-49393033D02*
X102119047Y-49535890D01*
X102119047Y-49535890D02*
X101547619Y-50107319D01*
X101547619Y-50107319D02*
X102166666Y-50107319D01*
X87738095Y-51954819D02*
X87738095Y-52764342D01*
X87738095Y-52764342D02*
X87785714Y-52859580D01*
X87785714Y-52859580D02*
X87833333Y-52907200D01*
X87833333Y-52907200D02*
X87928571Y-52954819D01*
X87928571Y-52954819D02*
X88119047Y-52954819D01*
X88119047Y-52954819D02*
X88214285Y-52907200D01*
X88214285Y-52907200D02*
X88261904Y-52859580D01*
X88261904Y-52859580D02*
X88309523Y-52764342D01*
X88309523Y-52764342D02*
X88309523Y-51954819D01*
X89309523Y-52954819D02*
X88738095Y-52954819D01*
X89023809Y-52954819D02*
X89023809Y-51954819D01*
X89023809Y-51954819D02*
X88928571Y-52097676D01*
X88928571Y-52097676D02*
X88833333Y-52192914D01*
X88833333Y-52192914D02*
X88738095Y-52240533D01*
X74654761Y-61454819D02*
X74321428Y-60978628D01*
X74083333Y-61454819D02*
X74083333Y-60454819D01*
X74083333Y-60454819D02*
X74464285Y-60454819D01*
X74464285Y-60454819D02*
X74559523Y-60502438D01*
X74559523Y-60502438D02*
X74607142Y-60550057D01*
X74607142Y-60550057D02*
X74654761Y-60645295D01*
X74654761Y-60645295D02*
X74654761Y-60788152D01*
X74654761Y-60788152D02*
X74607142Y-60883390D01*
X74607142Y-60883390D02*
X74559523Y-60931009D01*
X74559523Y-60931009D02*
X74464285Y-60978628D01*
X74464285Y-60978628D02*
X74083333Y-60978628D01*
X74940476Y-60454819D02*
X75273809Y-61454819D01*
X75273809Y-61454819D02*
X75607142Y-60454819D01*
X76464285Y-61454819D02*
X75892857Y-61454819D01*
X76178571Y-61454819D02*
X76178571Y-60454819D01*
X76178571Y-60454819D02*
X76083333Y-60597676D01*
X76083333Y-60597676D02*
X75988095Y-60692914D01*
X75988095Y-60692914D02*
X75892857Y-60740533D01*
X87166667Y-45607200D02*
X87309524Y-45654819D01*
X87309524Y-45654819D02*
X87547619Y-45654819D01*
X87547619Y-45654819D02*
X87642857Y-45607200D01*
X87642857Y-45607200D02*
X87690476Y-45559580D01*
X87690476Y-45559580D02*
X87738095Y-45464342D01*
X87738095Y-45464342D02*
X87738095Y-45369104D01*
X87738095Y-45369104D02*
X87690476Y-45273866D01*
X87690476Y-45273866D02*
X87642857Y-45226247D01*
X87642857Y-45226247D02*
X87547619Y-45178628D01*
X87547619Y-45178628D02*
X87357143Y-45131009D01*
X87357143Y-45131009D02*
X87261905Y-45083390D01*
X87261905Y-45083390D02*
X87214286Y-45035771D01*
X87214286Y-45035771D02*
X87166667Y-44940533D01*
X87166667Y-44940533D02*
X87166667Y-44845295D01*
X87166667Y-44845295D02*
X87214286Y-44750057D01*
X87214286Y-44750057D02*
X87261905Y-44702438D01*
X87261905Y-44702438D02*
X87357143Y-44654819D01*
X87357143Y-44654819D02*
X87595238Y-44654819D01*
X87595238Y-44654819D02*
X87738095Y-44702438D01*
X88071429Y-44654819D02*
X88309524Y-45654819D01*
X88309524Y-45654819D02*
X88500000Y-44940533D01*
X88500000Y-44940533D02*
X88690476Y-45654819D01*
X88690476Y-45654819D02*
X88928572Y-44654819D01*
X89833333Y-45654819D02*
X89261905Y-45654819D01*
X89547619Y-45654819D02*
X89547619Y-44654819D01*
X89547619Y-44654819D02*
X89452381Y-44797676D01*
X89452381Y-44797676D02*
X89357143Y-44892914D01*
X89357143Y-44892914D02*
X89261905Y-44940533D01*
X97109580Y-54416666D02*
X97157200Y-54464285D01*
X97157200Y-54464285D02*
X97204819Y-54607142D01*
X97204819Y-54607142D02*
X97204819Y-54702380D01*
X97204819Y-54702380D02*
X97157200Y-54845237D01*
X97157200Y-54845237D02*
X97061961Y-54940475D01*
X97061961Y-54940475D02*
X96966723Y-54988094D01*
X96966723Y-54988094D02*
X96776247Y-55035713D01*
X96776247Y-55035713D02*
X96633390Y-55035713D01*
X96633390Y-55035713D02*
X96442914Y-54988094D01*
X96442914Y-54988094D02*
X96347676Y-54940475D01*
X96347676Y-54940475D02*
X96252438Y-54845237D01*
X96252438Y-54845237D02*
X96204819Y-54702380D01*
X96204819Y-54702380D02*
X96204819Y-54607142D01*
X96204819Y-54607142D02*
X96252438Y-54464285D01*
X96252438Y-54464285D02*
X96300057Y-54416666D01*
X97204819Y-53464285D02*
X97204819Y-54035713D01*
X97204819Y-53749999D02*
X96204819Y-53749999D01*
X96204819Y-53749999D02*
X96347676Y-53845237D01*
X96347676Y-53845237D02*
X96442914Y-53940475D01*
X96442914Y-53940475D02*
X96490533Y-54035713D01*
X88208333Y-61704819D02*
X87875000Y-61228628D01*
X87636905Y-61704819D02*
X87636905Y-60704819D01*
X87636905Y-60704819D02*
X88017857Y-60704819D01*
X88017857Y-60704819D02*
X88113095Y-60752438D01*
X88113095Y-60752438D02*
X88160714Y-60800057D01*
X88160714Y-60800057D02*
X88208333Y-60895295D01*
X88208333Y-60895295D02*
X88208333Y-61038152D01*
X88208333Y-61038152D02*
X88160714Y-61133390D01*
X88160714Y-61133390D02*
X88113095Y-61181009D01*
X88113095Y-61181009D02*
X88017857Y-61228628D01*
X88017857Y-61228628D02*
X87636905Y-61228628D01*
X89160714Y-61704819D02*
X88589286Y-61704819D01*
X88875000Y-61704819D02*
X88875000Y-60704819D01*
X88875000Y-60704819D02*
X88779762Y-60847676D01*
X88779762Y-60847676D02*
X88684524Y-60942914D01*
X88684524Y-60942914D02*
X88589286Y-60990533D01*
X88208333Y-66454819D02*
X87875000Y-65978628D01*
X87636905Y-66454819D02*
X87636905Y-65454819D01*
X87636905Y-65454819D02*
X88017857Y-65454819D01*
X88017857Y-65454819D02*
X88113095Y-65502438D01*
X88113095Y-65502438D02*
X88160714Y-65550057D01*
X88160714Y-65550057D02*
X88208333Y-65645295D01*
X88208333Y-65645295D02*
X88208333Y-65788152D01*
X88208333Y-65788152D02*
X88160714Y-65883390D01*
X88160714Y-65883390D02*
X88113095Y-65931009D01*
X88113095Y-65931009D02*
X88017857Y-65978628D01*
X88017857Y-65978628D02*
X87636905Y-65978628D01*
X88589286Y-65550057D02*
X88636905Y-65502438D01*
X88636905Y-65502438D02*
X88732143Y-65454819D01*
X88732143Y-65454819D02*
X88970238Y-65454819D01*
X88970238Y-65454819D02*
X89065476Y-65502438D01*
X89065476Y-65502438D02*
X89113095Y-65550057D01*
X89113095Y-65550057D02*
X89160714Y-65645295D01*
X89160714Y-65645295D02*
X89160714Y-65740533D01*
X89160714Y-65740533D02*
X89113095Y-65883390D01*
X89113095Y-65883390D02*
X88541667Y-66454819D01*
X88541667Y-66454819D02*
X89160714Y-66454819D01*
%TO.C,J1*%
D12*
X69880000Y-40612500D02*
X77200000Y-40612500D01*
X69880000Y-48652500D02*
X69880000Y-40612500D01*
X70688000Y-44032500D02*
X69880000Y-44032500D01*
X70688000Y-45032500D02*
X69880000Y-45032500D01*
X71957000Y-42732500D02*
X69880000Y-42732500D01*
X75620000Y-42732500D02*
X73043000Y-42732500D01*
X75620000Y-44032500D02*
X74312000Y-44032500D01*
X75620000Y-45032500D02*
X74312000Y-45032500D01*
X77800000Y-40612500D02*
X80620000Y-40612500D01*
X80620000Y-40612500D02*
X80620000Y-48652500D01*
X80620000Y-42732500D02*
X79380000Y-42732500D01*
X80620000Y-44032500D02*
X79380000Y-44032500D01*
X80620000Y-45032500D02*
X79380000Y-45032500D01*
X80620000Y-48652500D02*
X69880000Y-48652500D01*
X77500000Y-40612500D02*
X77060000Y-40002500D01*
X77940000Y-40002500D01*
X77500000Y-40612500D01*
G36*
X77500000Y-40612500D02*
G01*
X77060000Y-40002500D01*
X77940000Y-40002500D01*
X77500000Y-40612500D01*
G37*
%TO.C,J3*%
X96130000Y-59847500D02*
X106870000Y-59847500D01*
X96130000Y-63467500D02*
X97370000Y-63467500D01*
X96130000Y-64467500D02*
X97370000Y-64467500D01*
X96130000Y-65767500D02*
X97370000Y-65767500D01*
X96130000Y-67887500D02*
X96130000Y-59847500D01*
X98950000Y-67887500D02*
X96130000Y-67887500D01*
X101130000Y-63467500D02*
X102438000Y-63467500D01*
X101130000Y-64467500D02*
X102438000Y-64467500D01*
X101130000Y-65767500D02*
X103707000Y-65767500D01*
X104793000Y-65767500D02*
X106870000Y-65767500D01*
X106062000Y-63467500D02*
X106870000Y-63467500D01*
X106062000Y-64467500D02*
X106870000Y-64467500D01*
X106870000Y-59847500D02*
X106870000Y-67887500D01*
X106870000Y-67887500D02*
X99550000Y-67887500D01*
X99690000Y-68497500D02*
X98810000Y-68497500D01*
X99250000Y-67887500D01*
X99690000Y-68497500D01*
G36*
X99690000Y-68497500D02*
G01*
X98810000Y-68497500D01*
X99250000Y-67887500D01*
X99690000Y-68497500D01*
G37*
%TO.C,C2*%
X75960000Y-54240000D02*
X74431000Y-54240000D01*
X75960000Y-54280000D02*
X74435000Y-54280000D01*
X75960000Y-54320000D02*
X74440000Y-54320000D01*
X75960000Y-54360000D02*
X74445000Y-54360000D01*
X75960000Y-54400000D02*
X74451000Y-54400000D01*
X75960000Y-54440000D02*
X74457000Y-54440000D01*
X75960000Y-54480000D02*
X74464000Y-54480000D01*
X75960000Y-54520000D02*
X74472000Y-54520000D01*
X75960000Y-54560000D02*
X74481000Y-54560000D01*
X75960000Y-54600000D02*
X74490000Y-54600000D01*
X75960000Y-54640000D02*
X74499000Y-54640000D01*
X75960000Y-54680000D02*
X74510000Y-54680000D01*
X75960000Y-54720000D02*
X74521000Y-54720000D01*
X75960000Y-54760000D02*
X74533000Y-54760000D01*
X75960000Y-54800000D02*
X74545000Y-54800000D01*
X75960000Y-54840000D02*
X74558000Y-54840000D01*
X75960000Y-54880000D02*
X74572000Y-54880000D01*
X75960000Y-54920000D02*
X74587000Y-54920000D01*
X75960000Y-54960000D02*
X74602000Y-54960000D01*
X75960000Y-55000000D02*
X74618000Y-55000000D01*
X75960000Y-55040000D02*
X74635000Y-55040000D01*
X75960000Y-55080000D02*
X74653000Y-55080000D01*
X75960000Y-55120000D02*
X74671000Y-55120000D01*
X75960000Y-55160000D02*
X74691000Y-55160000D01*
X75960000Y-55200000D02*
X74711000Y-55200000D01*
X75960000Y-55240000D02*
X74732000Y-55240000D01*
X75960000Y-55280000D02*
X74754000Y-55280000D01*
X75960000Y-55320000D02*
X74777000Y-55320000D01*
X75960000Y-55360000D02*
X74801000Y-55360000D01*
X75960000Y-55400000D02*
X74825000Y-55400000D01*
X75960000Y-55440000D02*
X74851000Y-55440000D01*
X75960000Y-55480000D02*
X74878000Y-55480000D01*
X75960000Y-55520000D02*
X74906000Y-55520000D01*
X75960000Y-55560000D02*
X74935000Y-55560000D01*
X75960000Y-55600000D02*
X74965000Y-55600000D01*
X75960000Y-55640000D02*
X74997000Y-55640000D01*
X75960000Y-55680000D02*
X75030000Y-55680000D01*
X75960000Y-55720000D02*
X75064000Y-55720000D01*
X75960000Y-55760000D02*
X75099000Y-55760000D01*
X75960000Y-55800000D02*
X75136000Y-55800000D01*
X75960000Y-55840000D02*
X75175000Y-55840000D01*
X75960000Y-55880000D02*
X75215000Y-55880000D01*
X75960000Y-55920000D02*
X75257000Y-55920000D01*
X75960000Y-55960000D02*
X75301000Y-55960000D01*
X75960000Y-56000000D02*
X75348000Y-56000000D01*
X75960000Y-56040000D02*
X75396000Y-56040000D01*
X75960000Y-56080000D02*
X75447000Y-56080000D01*
X75960000Y-56120000D02*
X75501000Y-56120000D01*
X75960000Y-56160000D02*
X75557000Y-56160000D01*
X75960000Y-56200000D02*
X75617000Y-56200000D01*
X75960000Y-56240000D02*
X75681000Y-56240000D01*
X75960000Y-56280000D02*
X75749000Y-56280000D01*
X77283000Y-56600000D02*
X76717000Y-56600000D01*
X77517000Y-56560000D02*
X76483000Y-56560000D01*
X77677000Y-56520000D02*
X76323000Y-56520000D01*
X77805000Y-56480000D02*
X76195000Y-56480000D01*
X77914000Y-56440000D02*
X76086000Y-56440000D01*
X78011000Y-56400000D02*
X75989000Y-56400000D01*
X78098000Y-56360000D02*
X75902000Y-56360000D01*
X78177000Y-56320000D02*
X75823000Y-56320000D01*
X78251000Y-56280000D02*
X78040000Y-56280000D01*
X78319000Y-56240000D02*
X78040000Y-56240000D01*
X78383000Y-56200000D02*
X78040000Y-56200000D01*
X78443000Y-56160000D02*
X78040000Y-56160000D01*
X78475000Y-51195225D02*
X78475000Y-51695225D01*
X78499000Y-56120000D02*
X78040000Y-56120000D01*
X78553000Y-56080000D02*
X78040000Y-56080000D01*
X78604000Y-56040000D02*
X78040000Y-56040000D01*
X78652000Y-56000000D02*
X78040000Y-56000000D01*
X78699000Y-55960000D02*
X78040000Y-55960000D01*
X78725000Y-51445225D02*
X78225000Y-51445225D01*
X78743000Y-55920000D02*
X78040000Y-55920000D01*
X78785000Y-55880000D02*
X78040000Y-55880000D01*
X78825000Y-55840000D02*
X78040000Y-55840000D01*
X78864000Y-55800000D02*
X78040000Y-55800000D01*
X78901000Y-55760000D02*
X78040000Y-55760000D01*
X78936000Y-55720000D02*
X78040000Y-55720000D01*
X78970000Y-55680000D02*
X78040000Y-55680000D01*
X79003000Y-55640000D02*
X78040000Y-55640000D01*
X79035000Y-55600000D02*
X78040000Y-55600000D01*
X79065000Y-55560000D02*
X78040000Y-55560000D01*
X79094000Y-55520000D02*
X78040000Y-55520000D01*
X79122000Y-55480000D02*
X78040000Y-55480000D01*
X79149000Y-55440000D02*
X78040000Y-55440000D01*
X79175000Y-55400000D02*
X78040000Y-55400000D01*
X79199000Y-55360000D02*
X78040000Y-55360000D01*
X79223000Y-55320000D02*
X78040000Y-55320000D01*
X79246000Y-55280000D02*
X78040000Y-55280000D01*
X79268000Y-55240000D02*
X78040000Y-55240000D01*
X79289000Y-55200000D02*
X78040000Y-55200000D01*
X79309000Y-55160000D02*
X78040000Y-55160000D01*
X79329000Y-55120000D02*
X78040000Y-55120000D01*
X79347000Y-55080000D02*
X78040000Y-55080000D01*
X79365000Y-55040000D02*
X78040000Y-55040000D01*
X79382000Y-55000000D02*
X78040000Y-55000000D01*
X79398000Y-54960000D02*
X78040000Y-54960000D01*
X79413000Y-54920000D02*
X78040000Y-54920000D01*
X79428000Y-54880000D02*
X78040000Y-54880000D01*
X79442000Y-54840000D02*
X78040000Y-54840000D01*
X79455000Y-54800000D02*
X78040000Y-54800000D01*
X79467000Y-54760000D02*
X78040000Y-54760000D01*
X79479000Y-54720000D02*
X78040000Y-54720000D01*
X79490000Y-54680000D02*
X78040000Y-54680000D01*
X79501000Y-54640000D02*
X78040000Y-54640000D01*
X79510000Y-54600000D02*
X78040000Y-54600000D01*
X79519000Y-54560000D02*
X78040000Y-54560000D01*
X79528000Y-54520000D02*
X78040000Y-54520000D01*
X79536000Y-54480000D02*
X78040000Y-54480000D01*
X79543000Y-54440000D02*
X78040000Y-54440000D01*
X79549000Y-54400000D02*
X78040000Y-54400000D01*
X79555000Y-54360000D02*
X78040000Y-54360000D01*
X79560000Y-54320000D02*
X78040000Y-54320000D01*
X79565000Y-54280000D02*
X78040000Y-54280000D01*
X79569000Y-54240000D02*
X78040000Y-54240000D01*
X79572000Y-54200000D02*
X74428000Y-54200000D01*
X79575000Y-54160000D02*
X74425000Y-54160000D01*
X79577000Y-54120000D02*
X74423000Y-54120000D01*
X79579000Y-54080000D02*
X74421000Y-54080000D01*
X79580000Y-54000000D02*
X74420000Y-54000000D01*
X79580000Y-54040000D02*
X74420000Y-54040000D01*
X79620000Y-54000000D02*
G75*
G02*
X74380000Y-54000000I-2620000J0D01*
G01*
X74380000Y-54000000D02*
G75*
G02*
X79620000Y-54000000I2620000J0D01*
G01*
%TO.C,D1*%
X102455000Y-57040000D02*
X105545000Y-57040000D01*
X102455170Y-57040000D02*
G75*
G02*
X104000000Y-51490000I1544830J2560000D01*
G01*
X104000000Y-51490000D02*
G75*
G02*
X105544830Y-57040000I0J-2990000D01*
G01*
X106500000Y-54480000D02*
G75*
G02*
X101500000Y-54480000I-2500000J0D01*
G01*
X101500000Y-54480000D02*
G75*
G02*
X106500000Y-54480000I2500000J0D01*
G01*
%TO.C,J2*%
X96130000Y-40612500D02*
X103450000Y-40612500D01*
X96130000Y-48652500D02*
X96130000Y-40612500D01*
X96938000Y-44032500D02*
X96130000Y-44032500D01*
X96938000Y-45032500D02*
X96130000Y-45032500D01*
X98207000Y-42732500D02*
X96130000Y-42732500D01*
X101870000Y-42732500D02*
X99293000Y-42732500D01*
X101870000Y-44032500D02*
X100562000Y-44032500D01*
X101870000Y-45032500D02*
X100562000Y-45032500D01*
X104050000Y-40612500D02*
X106870000Y-40612500D01*
X106870000Y-40612500D02*
X106870000Y-48652500D01*
X106870000Y-42732500D02*
X105630000Y-42732500D01*
X106870000Y-44032500D02*
X105630000Y-44032500D01*
X106870000Y-45032500D02*
X105630000Y-45032500D01*
X106870000Y-48652500D02*
X96130000Y-48652500D01*
X103750000Y-40612500D02*
X103310000Y-40002500D01*
X104190000Y-40002500D01*
X103750000Y-40612500D01*
G36*
X103750000Y-40612500D02*
G01*
X103310000Y-40002500D01*
X104190000Y-40002500D01*
X103750000Y-40612500D01*
G37*
%TO.C,U1*%
X85850000Y-47360000D02*
X85850000Y-57640000D01*
X85850000Y-57640000D02*
X91150000Y-57640000D01*
X87500000Y-47360000D02*
X85850000Y-47360000D01*
X91150000Y-47360000D02*
X89500000Y-47360000D01*
X91150000Y-57640000D02*
X91150000Y-47360000D01*
X83360000Y-47300000D02*
X93640000Y-47300000D01*
X93640000Y-57700000D01*
X83360000Y-57700000D01*
X83360000Y-47300000D01*
X89500000Y-47360000D02*
G75*
G02*
X87500000Y-47360000I-1000000J0D01*
G01*
%TO.C,RV1*%
X69880000Y-59880000D02*
X80620000Y-59880000D01*
X69880000Y-63500000D02*
X71120000Y-63500000D01*
X69880000Y-64500000D02*
X71120000Y-64500000D01*
X69880000Y-65800000D02*
X71120000Y-65800000D01*
X69880000Y-67920000D02*
X69880000Y-59880000D01*
X72700000Y-67920000D02*
X69880000Y-67920000D01*
X74880000Y-63500000D02*
X76188000Y-63500000D01*
X74880000Y-64500000D02*
X76188000Y-64500000D01*
X74880000Y-65800000D02*
X77457000Y-65800000D01*
X78543000Y-65800000D02*
X80620000Y-65800000D01*
X79812000Y-63500000D02*
X80620000Y-63500000D01*
X79812000Y-64500000D02*
X80620000Y-64500000D01*
X80620000Y-59880000D02*
X80620000Y-67920000D01*
X80620000Y-67920000D02*
X73300000Y-67920000D01*
X73440000Y-68530000D02*
X72560000Y-68530000D01*
X73000000Y-67920000D01*
X73440000Y-68530000D01*
G36*
X73440000Y-68530000D02*
G01*
X72560000Y-68530000D01*
X73000000Y-67920000D01*
X73440000Y-68530000D01*
G37*
%TO.C,SW1*%
D11*
X84182000Y-40472000D02*
X92818000Y-40472000D01*
X84182000Y-44028000D02*
X84182000Y-40472000D01*
X86900000Y-41350000D02*
X90100000Y-41350000D01*
D13*
X86900000Y-42250000D02*
X86900000Y-41437458D01*
X86900000Y-43062542D02*
X86900000Y-42250000D01*
D11*
X89500000Y-43012000D02*
X89500000Y-41488000D01*
X90100000Y-41350000D02*
X90100000Y-42250000D01*
X90100000Y-42250000D02*
X90100000Y-43150000D01*
X90100000Y-43150000D02*
X86900000Y-43150000D01*
X92818000Y-40472000D02*
X92818000Y-44028000D01*
X92818000Y-44028000D02*
X84182000Y-44028000D01*
%TO.C,C1*%
D12*
X95380000Y-51630000D02*
X95717000Y-51630000D01*
X95380000Y-56870000D02*
X95380000Y-51630000D01*
X95717000Y-56870000D02*
X95380000Y-56870000D01*
X97783000Y-51630000D02*
X98120000Y-51630000D01*
X98120000Y-51630000D02*
X98120000Y-56870000D01*
X98120000Y-56870000D02*
X97783000Y-56870000D01*
%TO.C,R1*%
X84335000Y-61250000D02*
X85105000Y-61250000D01*
X92415000Y-61250000D02*
X91645000Y-61250000D01*
X85105000Y-59880000D02*
X91645000Y-59880000D01*
X91645000Y-62620000D01*
X85105000Y-62620000D01*
X85105000Y-59880000D01*
%TO.C,R2*%
X84335000Y-66000000D02*
X85105000Y-66000000D01*
X92415000Y-66000000D02*
X91645000Y-66000000D01*
X85105000Y-64630000D02*
X91645000Y-64630000D01*
X91645000Y-67370000D01*
X85105000Y-67370000D01*
X85105000Y-64630000D01*
%TD*%
M02*
