%TF.GenerationSoftware,KiCad,Pcbnew,10.0.1*%
%TF.CreationDate,2026-09-08T17:56:25-03:00*%
%TF.ProjectId,555_astable,3535355f-6173-4746-9162-6c652e6b6963,rev?*%
%TF.SameCoordinates,Original*%
%TF.FileFunction,Copper,L1,Top*%
%TF.FilePolarity,Positive*%
%FSLAX46Y46*%
G04 Gerber Fmt 4.6, Leading zero omitted, Abs format (unit mm)*
G04 Created by KiCad (PCBNEW 10.0.1) date 2026-09-08 17:56:25*
%MOMM*%
%LPD*%
G01*
G04 APERTURE LIST*
G04 Aperture macros list*
%AMRoundRect*
0 Rectangle with rounded corners*
0 $1 Rounding radius*
0 $2 $3 $4 $5 $6 $7 $8 $9 X,Y pos of 4 corners*
0 Add a 4 corners polygon primitive as box body*
4,1,4,$2,$3,$4,$5,$6,$7,$8,$9,$2,$3,0*
0 Add four circle primitives for the rounded corners*
1,1,$1+$1,$2,$3*
1,1,$1+$1,$4,$5*
1,1,$1+$1,$6,$7*
1,1,$1+$1,$8,$9*
0 Add four rect primitives between the rounded corners*
20,1,$1+$1,$2,$3,$4,$5,0*
20,1,$1+$1,$4,$5,$6,$7,0*
20,1,$1+$1,$6,$7,$8,$9,0*
20,1,$1+$1,$8,$9,$2,$3,0*%
G04 Aperture macros list end*
%TA.AperFunction,ComponentPad*%
%ADD10RoundRect,0.250001X1.149999X1.149999X-1.149999X1.149999X-1.149999X-1.149999X1.149999X-1.149999X0*%
%TD*%
%TA.AperFunction,ComponentPad*%
%ADD11C,2.800000*%
%TD*%
%TA.AperFunction,ComponentPad*%
%ADD12RoundRect,0.250001X-1.149999X-1.149999X1.149999X-1.149999X1.149999X1.149999X-1.149999X1.149999X0*%
%TD*%
%TA.AperFunction,ComponentPad*%
%ADD13RoundRect,0.250000X-0.550000X0.550000X-0.550000X-0.550000X0.550000X-0.550000X0.550000X0.550000X0*%
%TD*%
%TA.AperFunction,ComponentPad*%
%ADD14C,1.600000*%
%TD*%
%TA.AperFunction,ComponentPad*%
%ADD15R,1.800000X1.800000*%
%TD*%
%TA.AperFunction,ComponentPad*%
%ADD16C,1.800000*%
%TD*%
%TA.AperFunction,ComponentPad*%
%ADD17RoundRect,0.250000X-0.550000X-0.550000X0.550000X-0.550000X0.550000X0.550000X-0.550000X0.550000X0*%
%TD*%
%TA.AperFunction,ComponentPad*%
%ADD18R,1.500000X1.500000*%
%TD*%
%TA.AperFunction,Conductor*%
%ADD19C,0.500000*%
%TD*%
G04 APERTURE END LIST*
D10*
%TO.P,J1,1,Pin_1_1*%
%TO.N,Net-(J1-Pin_1)*%
X77500000Y-44532500D03*
D11*
%TO.P,J1,2,Pin_2_2*%
%TO.N,GND*%
X72500000Y-44532500D03*
%TD*%
D12*
%TO.P,J3,1,Pin_1_1*%
%TO.N,Net-(J3-Pin_1)*%
X99250000Y-63967500D03*
D11*
%TO.P,J3,2,Pin_2_2*%
%TO.N,GND*%
X104250000Y-63967500D03*
%TD*%
D13*
%TO.P,C2,1*%
%TO.N,Net-(U1-THRES)*%
X77000000Y-52750000D03*
D14*
%TO.P,C2,2*%
%TO.N,GND*%
X77000000Y-55250000D03*
%TD*%
D15*
%TO.P,D1,1,K_1*%
%TO.N,GND*%
X104000000Y-55750000D03*
D16*
%TO.P,D1,2,A_2*%
%TO.N,Net-(D1-A)*%
X104000000Y-53210000D03*
%TD*%
D10*
%TO.P,J2,1,Pin_1_1*%
%TO.N,VCC*%
X103750000Y-44532500D03*
D11*
%TO.P,J2,2,Pin_2_2*%
%TO.N,GND*%
X98750000Y-44532500D03*
%TD*%
D17*
%TO.P,U1,1,GND_1*%
%TO.N,GND*%
X84690000Y-48690000D03*
D14*
%TO.P,U1,2,TRIG_2*%
%TO.N,Net-(U1-THRES)*%
X84690000Y-51230000D03*
%TO.P,U1,3,OUT_3*%
%TO.N,Net-(J3-Pin_1)*%
X84690000Y-53770000D03*
%TO.P,U1,4,~{RST}_4*%
%TO.N,VCC*%
X84690000Y-56310000D03*
%TO.P,U1,5,CONT_5*%
%TO.N,Net-(U1-CONT)*%
X92310000Y-56310000D03*
%TO.P,U1,6,THRES_6*%
%TO.N,Net-(U1-THRES)*%
X92310000Y-53770000D03*
%TO.P,U1,7,DISCH_7*%
%TO.N,Net-(U1-DISCH)*%
X92310000Y-51230000D03*
%TO.P,U1,8,VCC_8*%
%TO.N,VCC*%
X92310000Y-48690000D03*
%TD*%
D12*
%TO.P,RV1,1,1_1*%
%TO.N,Net-(U1-THRES)*%
X73000000Y-64000000D03*
D11*
%TO.P,RV1,2,2_2*%
%TO.N,Net-(U1-DISCH)*%
X78000000Y-64000000D03*
%TD*%
D18*
%TO.P,SW1,1,A_1*%
%TO.N,unconnected-(SW1-A-Pad1)*%
X91040000Y-42250000D03*
%TO.P,SW1,2,B_2*%
%TO.N,VCC*%
X88500000Y-42250000D03*
%TO.P,SW1,3,C_3*%
%TO.N,Net-(J1-Pin_1)*%
X85960000Y-42250000D03*
%TD*%
D14*
%TO.P,C1,1*%
%TO.N,GND*%
X96750000Y-51750000D03*
%TO.P,C1,2*%
%TO.N,Net-(U1-CONT)*%
X96750000Y-56750000D03*
%TD*%
%TO.P,R1,1*%
%TO.N,Net-(U1-DISCH)*%
X93455000Y-61250000D03*
%TO.P,R1,2*%
%TO.N,VCC*%
X83295000Y-61250000D03*
%TD*%
%TO.P,R2,1*%
%TO.N,Net-(D1-A)*%
X93455000Y-66000000D03*
%TO.P,R2,2*%
%TO.N,Net-(J3-Pin_1)*%
X83295000Y-66000000D03*
%TD*%
%TO.N,Net-(J1-Pin_1)*%
D19*
X79782500Y-42250000D02*
X77500000Y-44532500D01*
X85960000Y-42250000D02*
X79782500Y-42250000D01*
%TO.N,Net-(J3-Pin_1)*%
X85327500Y-63967500D02*
X83295000Y-66000000D01*
X83295000Y-66000000D02*
X86500000Y-62795000D01*
X86500000Y-62795000D02*
X86500000Y-55580000D01*
X99250000Y-63967500D02*
X85327500Y-63967500D01*
X86500000Y-55580000D02*
X84690000Y-53770000D01*
%TO.N,Net-(U1-THRES)*%
X89520000Y-53770000D02*
X92310000Y-53770000D01*
X73000000Y-64000000D02*
X73000000Y-55000000D01*
X75250000Y-52750000D02*
X77000000Y-52750000D01*
X73000000Y-55000000D02*
X75250000Y-52750000D01*
X84690000Y-51230000D02*
X86980000Y-51230000D01*
X86980000Y-51230000D02*
X89520000Y-53770000D01*
X81770000Y-51230000D02*
X84690000Y-51230000D01*
X80250000Y-52750000D02*
X81770000Y-51230000D01*
X77000000Y-52750000D02*
X80250000Y-52750000D01*
%TO.N,Net-(D1-A)*%
X107500000Y-66750000D02*
X107500000Y-56710000D01*
X94205000Y-66750000D02*
X107500000Y-66750000D01*
X107500000Y-56710000D02*
X104000000Y-53210000D01*
X93455000Y-66000000D02*
X94205000Y-66750000D01*
%TO.N,Net-(U1-DISCH)*%
X94254999Y-53174999D02*
X92310000Y-51230000D01*
X78000000Y-64000000D02*
X78000000Y-58692233D01*
X87280050Y-52520000D02*
X89230051Y-54470000D01*
X89230051Y-54470000D02*
X89230051Y-57230051D01*
X78000000Y-58692233D02*
X84172233Y-52520000D01*
X93250000Y-61250000D02*
X93455000Y-61250000D01*
X84172233Y-52520000D02*
X87280050Y-52520000D01*
X94254999Y-60450001D02*
X94254999Y-53174999D01*
X93455000Y-61250000D02*
X94254999Y-60450001D01*
X89230051Y-57230051D02*
X93250000Y-61250000D01*
%TD*%
%TA.AperFunction,Conductor*%
%TO.N,GND*%
G36*
X110942539Y-40020185D02*
G01*
X110988294Y-40072989D01*
X110999500Y-40124500D01*
X110999500Y-68375500D01*
X110979815Y-68442539D01*
X110927011Y-68488294D01*
X110875500Y-68499500D01*
X66124500Y-68499500D01*
X66057461Y-68479815D01*
X66011706Y-68427011D01*
X66000500Y-68375500D01*
X66000500Y-62799984D01*
X71099500Y-62799984D01*
X71099500Y-65200015D01*
X71110000Y-65302795D01*
X71110001Y-65302796D01*
X71165186Y-65469335D01*
X71165187Y-65469337D01*
X71257286Y-65618651D01*
X71257289Y-65618655D01*
X71381344Y-65742710D01*
X71381348Y-65742713D01*
X71530662Y-65834812D01*
X71530664Y-65834813D01*
X71530666Y-65834814D01*
X71697203Y-65889999D01*
X71799992Y-65900500D01*
X71799997Y-65900500D01*
X74200003Y-65900500D01*
X74200008Y-65900500D01*
X74302797Y-65889999D01*
X74469334Y-65834814D01*
X74618655Y-65742711D01*
X74742711Y-65618655D01*
X74834814Y-65469334D01*
X74889999Y-65302797D01*
X74900500Y-65200008D01*
X74900500Y-62799992D01*
X74889999Y-62697203D01*
X74834814Y-62530666D01*
X74815780Y-62499808D01*
X74742713Y-62381348D01*
X74742710Y-62381344D01*
X74618655Y-62257289D01*
X74618651Y-62257286D01*
X74469337Y-62165187D01*
X74469335Y-62165186D01*
X74371259Y-62132687D01*
X74302797Y-62110001D01*
X74302795Y-62110000D01*
X74200015Y-62099500D01*
X74200008Y-62099500D01*
X73874500Y-62099500D01*
X73807461Y-62079815D01*
X73761706Y-62027011D01*
X73750500Y-61975500D01*
X73750500Y-55362229D01*
X73770185Y-55295190D01*
X73786819Y-55274548D01*
X75524548Y-53536819D01*
X75551475Y-53522115D01*
X75577294Y-53505523D01*
X75583494Y-53504631D01*
X75585871Y-53503334D01*
X75612229Y-53500500D01*
X75636267Y-53500500D01*
X75703306Y-53520185D01*
X75749061Y-53572989D01*
X75753972Y-53585494D01*
X75765186Y-53619334D01*
X75857288Y-53768656D01*
X75981344Y-53892712D01*
X76130666Y-53984814D01*
X76192440Y-54005284D01*
X76249884Y-54045055D01*
X76276707Y-54109571D01*
X76277053Y-54132719D01*
X76274077Y-54170524D01*
X76953554Y-54850000D01*
X76947339Y-54850000D01*
X76845606Y-54877259D01*
X76754394Y-54929920D01*
X76679920Y-55004394D01*
X76627259Y-55095606D01*
X76600000Y-55197339D01*
X76600000Y-55203553D01*
X75920524Y-54524077D01*
X75920523Y-54524077D01*
X75888143Y-54568644D01*
X75795244Y-54750968D01*
X75732009Y-54945582D01*
X75700000Y-55147682D01*
X75700000Y-55352317D01*
X75732009Y-55554417D01*
X75795244Y-55749031D01*
X75888141Y-55931350D01*
X75888147Y-55931359D01*
X75920523Y-55975921D01*
X75920524Y-55975922D01*
X76600000Y-55296446D01*
X76600000Y-55302661D01*
X76627259Y-55404394D01*
X76679920Y-55495606D01*
X76754394Y-55570080D01*
X76845606Y-55622741D01*
X76947339Y-55650000D01*
X76953553Y-55650000D01*
X76274076Y-56329474D01*
X76318650Y-56361859D01*
X76500968Y-56454755D01*
X76695582Y-56517990D01*
X76897683Y-56550000D01*
X77102317Y-56550000D01*
X77304417Y-56517990D01*
X77499031Y-56454755D01*
X77681349Y-56361859D01*
X77725921Y-56329474D01*
X77046447Y-55650000D01*
X77052661Y-55650000D01*
X77154394Y-55622741D01*
X77245606Y-55570080D01*
X77320080Y-55495606D01*
X77372741Y-55404394D01*
X77400000Y-55302661D01*
X77400000Y-55296447D01*
X78079474Y-55975921D01*
X78111859Y-55931349D01*
X78204755Y-55749031D01*
X78267990Y-55554417D01*
X78300000Y-55352317D01*
X78300000Y-55147682D01*
X78267990Y-54945582D01*
X78204755Y-54750968D01*
X78111859Y-54568650D01*
X78079474Y-54524077D01*
X78079474Y-54524076D01*
X77400000Y-55203551D01*
X77400000Y-55197339D01*
X77372741Y-55095606D01*
X77320080Y-55004394D01*
X77245606Y-54929920D01*
X77154394Y-54877259D01*
X77052661Y-54850000D01*
X77046446Y-54850000D01*
X77725921Y-54170525D01*
X77722946Y-54132719D01*
X77737310Y-54064341D01*
X77786361Y-54014584D01*
X77807555Y-54005285D01*
X77869334Y-53984814D01*
X78018656Y-53892712D01*
X78142712Y-53768656D01*
X78234814Y-53619334D01*
X78246028Y-53585494D01*
X78285801Y-53528050D01*
X78350317Y-53501228D01*
X78363733Y-53500500D01*
X80323920Y-53500500D01*
X80421462Y-53481096D01*
X80468913Y-53471658D01*
X80605495Y-53415084D01*
X80654729Y-53382186D01*
X80728416Y-53332952D01*
X82044548Y-52016818D01*
X82105871Y-51983334D01*
X82132229Y-51980500D01*
X83351003Y-51980500D01*
X83418042Y-52000185D01*
X83463797Y-52052989D01*
X83473741Y-52122147D01*
X83444716Y-52185703D01*
X83438684Y-52192181D01*
X77417050Y-58213813D01*
X77417044Y-58213821D01*
X77367812Y-58287501D01*
X77367813Y-58287502D01*
X77334921Y-58336729D01*
X77334914Y-58336741D01*
X77278342Y-58473319D01*
X77278340Y-58473325D01*
X77249500Y-58618312D01*
X77249500Y-62170926D01*
X77229815Y-62237965D01*
X77177011Y-62283720D01*
X77172958Y-62285485D01*
X77157628Y-62291835D01*
X77157616Y-62291841D01*
X76941873Y-62416400D01*
X76744225Y-62568060D01*
X76744218Y-62568066D01*
X76568066Y-62744218D01*
X76568060Y-62744225D01*
X76416400Y-62941873D01*
X76291837Y-63157623D01*
X76291830Y-63157638D01*
X76196498Y-63387792D01*
X76132017Y-63628438D01*
X76099501Y-63875424D01*
X76099500Y-63875435D01*
X76099500Y-64124558D01*
X76099501Y-64124575D01*
X76132017Y-64371561D01*
X76196498Y-64612207D01*
X76291830Y-64842361D01*
X76291837Y-64842376D01*
X76416400Y-65058126D01*
X76568060Y-65255774D01*
X76568066Y-65255781D01*
X76744218Y-65431933D01*
X76744225Y-65431939D01*
X76941873Y-65583599D01*
X77157623Y-65708162D01*
X77157638Y-65708169D01*
X77256825Y-65749253D01*
X77387793Y-65803502D01*
X77628435Y-65867982D01*
X77875435Y-65900500D01*
X77875442Y-65900500D01*
X78124558Y-65900500D01*
X78124565Y-65900500D01*
X78371565Y-65867982D01*
X78612207Y-65803502D01*
X78842373Y-65708164D01*
X79058127Y-65583599D01*
X79255776Y-65431938D01*
X79431938Y-65255776D01*
X79583599Y-65058127D01*
X79708164Y-64842373D01*
X79803502Y-64612207D01*
X79867982Y-64371565D01*
X79900500Y-64124565D01*
X79900500Y-63875435D01*
X79867982Y-63628435D01*
X79803502Y-63387793D01*
X79732757Y-63217000D01*
X79708169Y-63157638D01*
X79708162Y-63157623D01*
X79583599Y-62941873D01*
X79431939Y-62744225D01*
X79431933Y-62744218D01*
X79255781Y-62568066D01*
X79255774Y-62568060D01*
X79058126Y-62416400D01*
X78842383Y-62291841D01*
X78842371Y-62291835D01*
X78827042Y-62285485D01*
X78772641Y-62241641D01*
X78750579Y-62175346D01*
X78750500Y-62170926D01*
X78750500Y-61147648D01*
X81994500Y-61147648D01*
X81994500Y-61352351D01*
X82026522Y-61554534D01*
X82089781Y-61749223D01*
X82182715Y-61931613D01*
X82303028Y-62097213D01*
X82447786Y-62241971D01*
X82594893Y-62348848D01*
X82613390Y-62362287D01*
X82719593Y-62416400D01*
X82795776Y-62455218D01*
X82795778Y-62455218D01*
X82795781Y-62455220D01*
X82884763Y-62484132D01*
X82990465Y-62518477D01*
X83067398Y-62530662D01*
X83192648Y-62550500D01*
X83192649Y-62550500D01*
X83397351Y-62550500D01*
X83397352Y-62550500D01*
X83599534Y-62518477D01*
X83794219Y-62455220D01*
X83976610Y-62362287D01*
X84084749Y-62283720D01*
X84142213Y-62241971D01*
X84142215Y-62241968D01*
X84142219Y-62241966D01*
X84286966Y-62097219D01*
X84286968Y-62097215D01*
X84286971Y-62097213D01*
X84375399Y-61975500D01*
X84407287Y-61931610D01*
X84500220Y-61749219D01*
X84563477Y-61554534D01*
X84595500Y-61352352D01*
X84595500Y-61147648D01*
X84563477Y-60945466D01*
X84557937Y-60928417D01*
X84500218Y-60750776D01*
X84458508Y-60668916D01*
X84407287Y-60568390D01*
X84374977Y-60523919D01*
X84286971Y-60402786D01*
X84142213Y-60258028D01*
X83976613Y-60137715D01*
X83976612Y-60137714D01*
X83976610Y-60137713D01*
X83919653Y-60108691D01*
X83794223Y-60044781D01*
X83599534Y-59981522D01*
X83424995Y-59953878D01*
X83397352Y-59949500D01*
X83192648Y-59949500D01*
X83168329Y-59953351D01*
X82990465Y-59981522D01*
X82795776Y-60044781D01*
X82613386Y-60137715D01*
X82447786Y-60258028D01*
X82303028Y-60402786D01*
X82182715Y-60568386D01*
X82089781Y-60750776D01*
X82026522Y-60945465D01*
X81994500Y-61147648D01*
X78750500Y-61147648D01*
X78750500Y-59054462D01*
X78770185Y-58987423D01*
X78786819Y-58966781D01*
X81055773Y-56697827D01*
X83363964Y-54389635D01*
X83425285Y-54356152D01*
X83494977Y-54361136D01*
X83550910Y-54403008D01*
X83562127Y-54421022D01*
X83577713Y-54451611D01*
X83698028Y-54617213D01*
X83842786Y-54761971D01*
X83963950Y-54850000D01*
X84008390Y-54882287D01*
X84099840Y-54928883D01*
X84101080Y-54929515D01*
X84151876Y-54977490D01*
X84168671Y-55045311D01*
X84146134Y-55111446D01*
X84101080Y-55150485D01*
X84008386Y-55197715D01*
X83842786Y-55318028D01*
X83698028Y-55462786D01*
X83577715Y-55628386D01*
X83484781Y-55810776D01*
X83421522Y-56005465D01*
X83389500Y-56207648D01*
X83389500Y-56412351D01*
X83421522Y-56614534D01*
X83484781Y-56809223D01*
X83577715Y-56991613D01*
X83698028Y-57157213D01*
X83842786Y-57301971D01*
X83997749Y-57414556D01*
X84008390Y-57422287D01*
X84124607Y-57481503D01*
X84190776Y-57515218D01*
X84190778Y-57515218D01*
X84190781Y-57515220D01*
X84295137Y-57549127D01*
X84385465Y-57578477D01*
X84430097Y-57585546D01*
X84587648Y-57610500D01*
X84587649Y-57610500D01*
X84792351Y-57610500D01*
X84792352Y-57610500D01*
X84994534Y-57578477D01*
X85189219Y-57515220D01*
X85371610Y-57422287D01*
X85464590Y-57354732D01*
X85537213Y-57301971D01*
X85537215Y-57301968D01*
X85537219Y-57301966D01*
X85537819Y-57301366D01*
X85538103Y-57301210D01*
X85540915Y-57298809D01*
X85541419Y-57299399D01*
X85599142Y-57267881D01*
X85668834Y-57272865D01*
X85724767Y-57314737D01*
X85749184Y-57380201D01*
X85749500Y-57389047D01*
X85749500Y-62432769D01*
X85729815Y-62499808D01*
X85713181Y-62520450D01*
X84842014Y-63391617D01*
X84358197Y-63875435D01*
X83560105Y-64673526D01*
X83498782Y-64707011D01*
X83453026Y-64708318D01*
X83397352Y-64699500D01*
X83192648Y-64699500D01*
X83168329Y-64703351D01*
X82990465Y-64731522D01*
X82795776Y-64794781D01*
X82613386Y-64887715D01*
X82447786Y-65008028D01*
X82303028Y-65152786D01*
X82182715Y-65318386D01*
X82089781Y-65500776D01*
X82026522Y-65695465D01*
X81994500Y-65897648D01*
X81994500Y-66102351D01*
X82026522Y-66304534D01*
X82089781Y-66499223D01*
X82182715Y-66681613D01*
X82303028Y-66847213D01*
X82447786Y-66991971D01*
X82602749Y-67104556D01*
X82613390Y-67112287D01*
X82729607Y-67171503D01*
X82795776Y-67205218D01*
X82795778Y-67205218D01*
X82795781Y-67205220D01*
X82900137Y-67239127D01*
X82990465Y-67268477D01*
X83074564Y-67281797D01*
X83192648Y-67300500D01*
X83192649Y-67300500D01*
X83397351Y-67300500D01*
X83397352Y-67300500D01*
X83599534Y-67268477D01*
X83794219Y-67205220D01*
X83976610Y-67112287D01*
X84069590Y-67044732D01*
X84142213Y-66991971D01*
X84142215Y-66991968D01*
X84142219Y-66991966D01*
X84286966Y-66847219D01*
X84286968Y-66847215D01*
X84286971Y-66847213D01*
X84339732Y-66774590D01*
X84407287Y-66681610D01*
X84500220Y-66499219D01*
X84563477Y-66304534D01*
X84595500Y-66102352D01*
X84595500Y-65897648D01*
X84586681Y-65841971D01*
X84595635Y-65772679D01*
X84621470Y-65734895D01*
X85404872Y-64951496D01*
X85602049Y-64754319D01*
X85663372Y-64720834D01*
X85689730Y-64718000D01*
X92625346Y-64718000D01*
X92692385Y-64737685D01*
X92738140Y-64790489D01*
X92748084Y-64859647D01*
X92719059Y-64923203D01*
X92698231Y-64942319D01*
X92607780Y-65008034D01*
X92463028Y-65152786D01*
X92342715Y-65318386D01*
X92249781Y-65500776D01*
X92186522Y-65695465D01*
X92154500Y-65897648D01*
X92154500Y-66102351D01*
X92186522Y-66304534D01*
X92249781Y-66499223D01*
X92342715Y-66681613D01*
X92463028Y-66847213D01*
X92607786Y-66991971D01*
X92762749Y-67104556D01*
X92773390Y-67112287D01*
X92889607Y-67171503D01*
X92955776Y-67205218D01*
X92955778Y-67205218D01*
X92955781Y-67205220D01*
X93060137Y-67239127D01*
X93150465Y-67268477D01*
X93234564Y-67281797D01*
X93352648Y-67300500D01*
X93352649Y-67300500D01*
X93557350Y-67300500D01*
X93557352Y-67300500D01*
X93613026Y-67291681D01*
X93682318Y-67300635D01*
X93720105Y-67326473D01*
X93726580Y-67332948D01*
X93726584Y-67332951D01*
X93849498Y-67415080D01*
X93849511Y-67415087D01*
X93986082Y-67471656D01*
X93986087Y-67471658D01*
X93986091Y-67471658D01*
X93986092Y-67471659D01*
X94131079Y-67500500D01*
X94131082Y-67500500D01*
X107573920Y-67500500D01*
X107671462Y-67481096D01*
X107718913Y-67471658D01*
X107855495Y-67415084D01*
X107978416Y-67332951D01*
X108082951Y-67228416D01*
X108165084Y-67105495D01*
X108221658Y-66968913D01*
X108245865Y-66847219D01*
X108250500Y-66823920D01*
X108250500Y-56636079D01*
X108221659Y-56491092D01*
X108221658Y-56491091D01*
X108221658Y-56491087D01*
X108189045Y-56412351D01*
X108165087Y-56354511D01*
X108165080Y-56354498D01*
X108082952Y-56231585D01*
X108051367Y-56200000D01*
X107978416Y-56127049D01*
X106701367Y-54850000D01*
X105413876Y-53562508D01*
X105380391Y-53501185D01*
X105379084Y-53455434D01*
X105400500Y-53320222D01*
X105400500Y-53099778D01*
X105366015Y-52882049D01*
X105305756Y-52696588D01*
X105297896Y-52672396D01*
X105297895Y-52672393D01*
X105243062Y-52564780D01*
X105197815Y-52475978D01*
X105165390Y-52431349D01*
X105068247Y-52297641D01*
X105068243Y-52297636D01*
X104912363Y-52141756D01*
X104912358Y-52141752D01*
X104734025Y-52012187D01*
X104734024Y-52012186D01*
X104734022Y-52012185D01*
X104655057Y-51971950D01*
X104537606Y-51912104D01*
X104537603Y-51912103D01*
X104327952Y-51843985D01*
X104219086Y-51826742D01*
X104110222Y-51809500D01*
X103889778Y-51809500D01*
X103817201Y-51820995D01*
X103672047Y-51843985D01*
X103462396Y-51912103D01*
X103462393Y-51912104D01*
X103265974Y-52012187D01*
X103087641Y-52141752D01*
X103087636Y-52141756D01*
X102931756Y-52297636D01*
X102931752Y-52297641D01*
X102802187Y-52475974D01*
X102702104Y-52672393D01*
X102702103Y-52672396D01*
X102633985Y-52882047D01*
X102599500Y-53099778D01*
X102599500Y-53320221D01*
X102633985Y-53537952D01*
X102702103Y-53747603D01*
X102702104Y-53747606D01*
X102802187Y-53944025D01*
X102931752Y-54122358D01*
X102931756Y-54122363D01*
X102982316Y-54172923D01*
X103015801Y-54234246D01*
X103010817Y-54303938D01*
X102968945Y-54359871D01*
X102937969Y-54376785D01*
X102857918Y-54406643D01*
X102857906Y-54406649D01*
X102742812Y-54492809D01*
X102742809Y-54492812D01*
X102656649Y-54607906D01*
X102656645Y-54607913D01*
X102606403Y-54742620D01*
X102606401Y-54742627D01*
X102600000Y-54802155D01*
X102600000Y-55500000D01*
X103624722Y-55500000D01*
X103580667Y-55576306D01*
X103550000Y-55690756D01*
X103550000Y-55809244D01*
X103580667Y-55923694D01*
X103624722Y-56000000D01*
X102600000Y-56000000D01*
X102600000Y-56697844D01*
X102606401Y-56757372D01*
X102606403Y-56757379D01*
X102656645Y-56892086D01*
X102656649Y-56892093D01*
X102742809Y-57007187D01*
X102742812Y-57007190D01*
X102857906Y-57093350D01*
X102857913Y-57093354D01*
X102992620Y-57143596D01*
X102992627Y-57143598D01*
X103052155Y-57149999D01*
X103052172Y-57150000D01*
X103750000Y-57150000D01*
X103750000Y-56125277D01*
X103826306Y-56169333D01*
X103940756Y-56200000D01*
X104059244Y-56200000D01*
X104173694Y-56169333D01*
X104250000Y-56125277D01*
X104250000Y-57150000D01*
X104947828Y-57150000D01*
X104947844Y-57149999D01*
X105007372Y-57143598D01*
X105007379Y-57143596D01*
X105142086Y-57093354D01*
X105142093Y-57093350D01*
X105257187Y-57007190D01*
X105257190Y-57007187D01*
X105343350Y-56892093D01*
X105343354Y-56892086D01*
X105393596Y-56757379D01*
X105393598Y-56757372D01*
X105399999Y-56697844D01*
X105400000Y-56697827D01*
X105400000Y-55970729D01*
X105419685Y-55903690D01*
X105472489Y-55857935D01*
X105541647Y-55847991D01*
X105605203Y-55877016D01*
X105611681Y-55883048D01*
X106713181Y-56984548D01*
X106746666Y-57045871D01*
X106749500Y-57072229D01*
X106749500Y-65875500D01*
X106729815Y-65942539D01*
X106677011Y-65988294D01*
X106625500Y-65999500D01*
X104932649Y-65999500D01*
X104865610Y-65979815D01*
X104819855Y-65927011D01*
X104809911Y-65857853D01*
X104838936Y-65794297D01*
X104885196Y-65760939D01*
X105092148Y-65675216D01*
X105092159Y-65675211D01*
X105307855Y-65550678D01*
X105405045Y-65476100D01*
X105405045Y-65476097D01*
X104497488Y-64568541D01*
X104557890Y-64543522D01*
X104664351Y-64472388D01*
X104754888Y-64381851D01*
X104826022Y-64275390D01*
X104851041Y-64214989D01*
X105758597Y-65122545D01*
X105758600Y-65122545D01*
X105833178Y-65025355D01*
X105957711Y-64809659D01*
X105957716Y-64809648D01*
X106053026Y-64579549D01*
X106117491Y-64338963D01*
X106150000Y-64092033D01*
X106150000Y-63842966D01*
X106117491Y-63596036D01*
X106053026Y-63355450D01*
X105957716Y-63125351D01*
X105957711Y-63125340D01*
X105833186Y-62909658D01*
X105833180Y-62909650D01*
X105758598Y-62812453D01*
X104851041Y-63720010D01*
X104826022Y-63659610D01*
X104754888Y-63553149D01*
X104664351Y-63462612D01*
X104557890Y-63391478D01*
X104497487Y-63366457D01*
X105405045Y-62458900D01*
X105307849Y-62384319D01*
X105307841Y-62384313D01*
X105092159Y-62259788D01*
X105092148Y-62259783D01*
X104862049Y-62164473D01*
X104621463Y-62100008D01*
X104374534Y-62067500D01*
X104125466Y-62067500D01*
X103878536Y-62100008D01*
X103637950Y-62164473D01*
X103407851Y-62259783D01*
X103407847Y-62259785D01*
X103192143Y-62384323D01*
X103094953Y-62458899D01*
X103094953Y-62458900D01*
X104002511Y-63366458D01*
X103942110Y-63391478D01*
X103835649Y-63462612D01*
X103745112Y-63553149D01*
X103673978Y-63659610D01*
X103648958Y-63720011D01*
X102741400Y-62812453D01*
X102741399Y-62812453D01*
X102666823Y-62909643D01*
X102542285Y-63125347D01*
X102542283Y-63125351D01*
X102446973Y-63355450D01*
X102382508Y-63596036D01*
X102350000Y-63842966D01*
X102350000Y-64092033D01*
X102382508Y-64338963D01*
X102446973Y-64579549D01*
X102542283Y-64809648D01*
X102542288Y-64809659D01*
X102666813Y-65025341D01*
X102666819Y-65025349D01*
X102741400Y-65122545D01*
X103648958Y-64214987D01*
X103673978Y-64275390D01*
X103745112Y-64381851D01*
X103835649Y-64472388D01*
X103942110Y-64543522D01*
X104002511Y-64568541D01*
X103094953Y-65476098D01*
X103192150Y-65550680D01*
X103192158Y-65550686D01*
X103407840Y-65675211D01*
X103407851Y-65675216D01*
X103614804Y-65760939D01*
X103669207Y-65804780D01*
X103691272Y-65871074D01*
X103673993Y-65938773D01*
X103622856Y-65986384D01*
X103567351Y-65999500D01*
X100836882Y-65999500D01*
X100769843Y-65979815D01*
X100724088Y-65927011D01*
X100714144Y-65857853D01*
X100743169Y-65794297D01*
X100771785Y-65769962D01*
X100828641Y-65734892D01*
X100868655Y-65710211D01*
X100992711Y-65586155D01*
X101084814Y-65436834D01*
X101139999Y-65270297D01*
X101150500Y-65167508D01*
X101150500Y-62767492D01*
X101139999Y-62664703D01*
X101084814Y-62498166D01*
X101060594Y-62458900D01*
X100992713Y-62348848D01*
X100992710Y-62348844D01*
X100868655Y-62224789D01*
X100868651Y-62224786D01*
X100719337Y-62132687D01*
X100719335Y-62132686D01*
X100636065Y-62105093D01*
X100552797Y-62077501D01*
X100552795Y-62077500D01*
X100450015Y-62067000D01*
X100450008Y-62067000D01*
X98049992Y-62067000D01*
X98049984Y-62067000D01*
X97947204Y-62077500D01*
X97947203Y-62077501D01*
X97780664Y-62132686D01*
X97780662Y-62132687D01*
X97631348Y-62224786D01*
X97631344Y-62224789D01*
X97507289Y-62348844D01*
X97507286Y-62348848D01*
X97415187Y-62498162D01*
X97415186Y-62498164D01*
X97360001Y-62664703D01*
X97360000Y-62664704D01*
X97349500Y-62767484D01*
X97349500Y-63093000D01*
X97329815Y-63160039D01*
X97277011Y-63205794D01*
X97225500Y-63217000D01*
X87323116Y-63217000D01*
X87297046Y-63209345D01*
X87270201Y-63205143D01*
X87264014Y-63199645D01*
X87256077Y-63197315D01*
X87238288Y-63176785D01*
X87217972Y-63158733D01*
X87215739Y-63150763D01*
X87210322Y-63144511D01*
X87206455Y-63117617D01*
X87199126Y-63091453D01*
X87201224Y-63081237D01*
X87200378Y-63075353D01*
X87204584Y-63056583D01*
X87206308Y-63050970D01*
X87221658Y-63013913D01*
X87227707Y-62983504D01*
X87250500Y-62868918D01*
X87250500Y-55506082D01*
X87250500Y-55506079D01*
X87239633Y-55451452D01*
X87238172Y-55444106D01*
X87221659Y-55361088D01*
X87165609Y-55225774D01*
X87165298Y-55224825D01*
X87105335Y-55135083D01*
X87105335Y-55135084D01*
X87082950Y-55101582D01*
X87082947Y-55101579D01*
X86016473Y-54035106D01*
X85982988Y-53973783D01*
X85981681Y-53928028D01*
X85990500Y-53872352D01*
X85990500Y-53667648D01*
X85958477Y-53465466D01*
X85958475Y-53465462D01*
X85958475Y-53465457D01*
X85947870Y-53432817D01*
X85945875Y-53362976D01*
X85981956Y-53303143D01*
X86044657Y-53272316D01*
X86065801Y-53270500D01*
X86917821Y-53270500D01*
X86984860Y-53290185D01*
X87005502Y-53306819D01*
X88443232Y-54744549D01*
X88476717Y-54805872D01*
X88479551Y-54832230D01*
X88479551Y-57303969D01*
X88479551Y-57303971D01*
X88479550Y-57303971D01*
X88508391Y-57448958D01*
X88508394Y-57448968D01*
X88564964Y-57585541D01*
X88564969Y-57585550D01*
X88572767Y-57597220D01*
X88572769Y-57597222D01*
X88647102Y-57708471D01*
X88647103Y-57708472D01*
X92118181Y-61179548D01*
X92151666Y-61240871D01*
X92154500Y-61267229D01*
X92154500Y-61352351D01*
X92186522Y-61554534D01*
X92249781Y-61749223D01*
X92342715Y-61931613D01*
X92463028Y-62097213D01*
X92607786Y-62241971D01*
X92754893Y-62348848D01*
X92773390Y-62362287D01*
X92879593Y-62416400D01*
X92955776Y-62455218D01*
X92955778Y-62455218D01*
X92955781Y-62455220D01*
X93044763Y-62484132D01*
X93150465Y-62518477D01*
X93227398Y-62530662D01*
X93352648Y-62550500D01*
X93352649Y-62550500D01*
X93557351Y-62550500D01*
X93557352Y-62550500D01*
X93759534Y-62518477D01*
X93954219Y-62455220D01*
X94136610Y-62362287D01*
X94244749Y-62283720D01*
X94302213Y-62241971D01*
X94302215Y-62241968D01*
X94302219Y-62241966D01*
X94446966Y-62097219D01*
X94446968Y-62097215D01*
X94446971Y-62097213D01*
X94535399Y-61975500D01*
X94567287Y-61931610D01*
X94660220Y-61749219D01*
X94723477Y-61554534D01*
X94755500Y-61352352D01*
X94755500Y-61147648D01*
X94746681Y-61091971D01*
X94755635Y-61022680D01*
X94781469Y-60984896D01*
X94837950Y-60928417D01*
X94920083Y-60805496D01*
X94976657Y-60668914D01*
X94977028Y-60667049D01*
X95005499Y-60523919D01*
X95005499Y-56647648D01*
X95449500Y-56647648D01*
X95449500Y-56852351D01*
X95481522Y-57054534D01*
X95544781Y-57249223D01*
X95578163Y-57314737D01*
X95632961Y-57422284D01*
X95637715Y-57431613D01*
X95758028Y-57597213D01*
X95902786Y-57741971D01*
X96057749Y-57854556D01*
X96068390Y-57862287D01*
X96184607Y-57921503D01*
X96250776Y-57955218D01*
X96250778Y-57955218D01*
X96250781Y-57955220D01*
X96355137Y-57989127D01*
X96445465Y-58018477D01*
X96546557Y-58034488D01*
X96647648Y-58050500D01*
X96647649Y-58050500D01*
X96852351Y-58050500D01*
X96852352Y-58050500D01*
X97054534Y-58018477D01*
X97249219Y-57955220D01*
X97431610Y-57862287D01*
X97524590Y-57794732D01*
X97597213Y-57741971D01*
X97597215Y-57741968D01*
X97597219Y-57741966D01*
X97741966Y-57597219D01*
X97741968Y-57597215D01*
X97741971Y-57597213D01*
X97801543Y-57515218D01*
X97862287Y-57431610D01*
X97955220Y-57249219D01*
X98018477Y-57054534D01*
X98050500Y-56852352D01*
X98050500Y-56647648D01*
X98018477Y-56445466D01*
X97955220Y-56250781D01*
X97955218Y-56250778D01*
X97955218Y-56250776D01*
X97913720Y-56169333D01*
X97862287Y-56068390D01*
X97855958Y-56059679D01*
X97828239Y-56021526D01*
X97828236Y-56021523D01*
X97816569Y-56005465D01*
X97741966Y-55902781D01*
X97597219Y-55758034D01*
X97597213Y-55758028D01*
X97431613Y-55637715D01*
X97431612Y-55637714D01*
X97431610Y-55637713D01*
X97364567Y-55603553D01*
X97249223Y-55544781D01*
X97054534Y-55481522D01*
X96864676Y-55451452D01*
X96852352Y-55449500D01*
X96647648Y-55449500D01*
X96635324Y-55451452D01*
X96445465Y-55481522D01*
X96250776Y-55544781D01*
X96068386Y-55637715D01*
X95902786Y-55758028D01*
X95758028Y-55902786D01*
X95637715Y-56068386D01*
X95544781Y-56250776D01*
X95481522Y-56445465D01*
X95449500Y-56647648D01*
X95005499Y-56647648D01*
X95005499Y-53101081D01*
X95005499Y-53101078D01*
X94976658Y-52956091D01*
X94976657Y-52956090D01*
X94976657Y-52956086D01*
X94920083Y-52819504D01*
X94887185Y-52770269D01*
X94871238Y-52746402D01*
X94837955Y-52696588D01*
X94837951Y-52696583D01*
X93789050Y-51647682D01*
X95450000Y-51647682D01*
X95450000Y-51852317D01*
X95482009Y-52054417D01*
X95545244Y-52249031D01*
X95638141Y-52431350D01*
X95638147Y-52431359D01*
X95670523Y-52475921D01*
X95670524Y-52475922D01*
X96350000Y-51796446D01*
X96350000Y-51802661D01*
X96377259Y-51904394D01*
X96429920Y-51995606D01*
X96504394Y-52070080D01*
X96595606Y-52122741D01*
X96697339Y-52150000D01*
X96703553Y-52150000D01*
X96024076Y-52829474D01*
X96068650Y-52861859D01*
X96250968Y-52954755D01*
X96445582Y-53017990D01*
X96647683Y-53050000D01*
X96852317Y-53050000D01*
X97054417Y-53017990D01*
X97249031Y-52954755D01*
X97431349Y-52861859D01*
X97475921Y-52829474D01*
X96796447Y-52150000D01*
X96802661Y-52150000D01*
X96904394Y-52122741D01*
X96995606Y-52070080D01*
X97070080Y-51995606D01*
X97122741Y-51904394D01*
X97150000Y-51802661D01*
X97150000Y-51796447D01*
X97829474Y-52475921D01*
X97861859Y-52431349D01*
X97954755Y-52249031D01*
X98017990Y-52054417D01*
X98050000Y-51852317D01*
X98050000Y-51647682D01*
X98017990Y-51445582D01*
X97954755Y-51250968D01*
X97861859Y-51068650D01*
X97829474Y-51024077D01*
X97829474Y-51024076D01*
X97150000Y-51703551D01*
X97150000Y-51697339D01*
X97122741Y-51595606D01*
X97070080Y-51504394D01*
X96995606Y-51429920D01*
X96904394Y-51377259D01*
X96802661Y-51350000D01*
X96796446Y-51350000D01*
X97475922Y-50670524D01*
X97475921Y-50670523D01*
X97431359Y-50638147D01*
X97431350Y-50638141D01*
X97249031Y-50545244D01*
X97054417Y-50482009D01*
X96852317Y-50450000D01*
X96647683Y-50450000D01*
X96445582Y-50482009D01*
X96250968Y-50545244D01*
X96068644Y-50638143D01*
X96024077Y-50670523D01*
X96024077Y-50670524D01*
X96703554Y-51350000D01*
X96697339Y-51350000D01*
X96595606Y-51377259D01*
X96504394Y-51429920D01*
X96429920Y-51504394D01*
X96377259Y-51595606D01*
X96350000Y-51697339D01*
X96350000Y-51703553D01*
X95670524Y-51024077D01*
X95670523Y-51024077D01*
X95638143Y-51068644D01*
X95545244Y-51250968D01*
X95482009Y-51445582D01*
X95450000Y-51647682D01*
X93789050Y-51647682D01*
X93636473Y-51495105D01*
X93602988Y-51433782D01*
X93601681Y-51388027D01*
X93610500Y-51332352D01*
X93610500Y-51127648D01*
X93578477Y-50925466D01*
X93578476Y-50925462D01*
X93578476Y-50925461D01*
X93523447Y-50756101D01*
X93523086Y-50754990D01*
X93515220Y-50730781D01*
X93422287Y-50548390D01*
X93414556Y-50537749D01*
X93301971Y-50382786D01*
X93157213Y-50238028D01*
X92991614Y-50117715D01*
X92984884Y-50114286D01*
X92898917Y-50070483D01*
X92848123Y-50022511D01*
X92831328Y-49954690D01*
X92853865Y-49888555D01*
X92898917Y-49849516D01*
X92991610Y-49802287D01*
X93012770Y-49786913D01*
X93157213Y-49681971D01*
X93157215Y-49681968D01*
X93157219Y-49681966D01*
X93301966Y-49537219D01*
X93301968Y-49537215D01*
X93301971Y-49537213D01*
X93354732Y-49464590D01*
X93422287Y-49371610D01*
X93515220Y-49189219D01*
X93578477Y-48994534D01*
X93610500Y-48792352D01*
X93610500Y-48587648D01*
X93602257Y-48535606D01*
X93578477Y-48385465D01*
X93515218Y-48190776D01*
X93481503Y-48124607D01*
X93422287Y-48008390D01*
X93406966Y-47987302D01*
X93301971Y-47842786D01*
X93157213Y-47698028D01*
X92991613Y-47577715D01*
X92991612Y-47577714D01*
X92991610Y-47577713D01*
X92932675Y-47547684D01*
X92809223Y-47484781D01*
X92614534Y-47421522D01*
X92439995Y-47393878D01*
X92412352Y-47389500D01*
X92207648Y-47389500D01*
X92183329Y-47393351D01*
X92005465Y-47421522D01*
X91810776Y-47484781D01*
X91628386Y-47577715D01*
X91462786Y-47698028D01*
X91318028Y-47842786D01*
X91197715Y-48008386D01*
X91104781Y-48190776D01*
X91041522Y-48385465D01*
X91009500Y-48587648D01*
X91009500Y-48792351D01*
X91041522Y-48994534D01*
X91104781Y-49189223D01*
X91197715Y-49371613D01*
X91318028Y-49537213D01*
X91462786Y-49681971D01*
X91617749Y-49794556D01*
X91628390Y-49802287D01*
X91719840Y-49848883D01*
X91721080Y-49849515D01*
X91771876Y-49897490D01*
X91788671Y-49965311D01*
X91766134Y-50031446D01*
X91721080Y-50070485D01*
X91628386Y-50117715D01*
X91462786Y-50238028D01*
X91318028Y-50382786D01*
X91197715Y-50548386D01*
X91104781Y-50730776D01*
X91041522Y-50925465D01*
X91009500Y-51127648D01*
X91009500Y-51332351D01*
X91041522Y-51534534D01*
X91104781Y-51729223D01*
X91145685Y-51809500D01*
X91194036Y-51904394D01*
X91197715Y-51911613D01*
X91318028Y-52077213D01*
X91462786Y-52221971D01*
X91617749Y-52334556D01*
X91628390Y-52342287D01*
X91719840Y-52388883D01*
X91721080Y-52389515D01*
X91771876Y-52437490D01*
X91788671Y-52505311D01*
X91766134Y-52571446D01*
X91721080Y-52610485D01*
X91628386Y-52657715D01*
X91462786Y-52778028D01*
X91318032Y-52922782D01*
X91318028Y-52922787D01*
X91284900Y-52968385D01*
X91229571Y-53011051D01*
X91184582Y-53019500D01*
X89882229Y-53019500D01*
X89815190Y-52999815D01*
X89794548Y-52983181D01*
X87458421Y-50647052D01*
X87458414Y-50647046D01*
X87384729Y-50597812D01*
X87384729Y-50597813D01*
X87335491Y-50564913D01*
X87198917Y-50508343D01*
X87198907Y-50508340D01*
X87053920Y-50479500D01*
X87053918Y-50479500D01*
X85815418Y-50479500D01*
X85748379Y-50459815D01*
X85715100Y-50428385D01*
X85681971Y-50382787D01*
X85681967Y-50382782D01*
X85537217Y-50238032D01*
X85537212Y-50238028D01*
X85443051Y-50169616D01*
X85400385Y-50114286D01*
X85394406Y-50044673D01*
X85427012Y-49982878D01*
X85476933Y-49951592D01*
X85559117Y-49924359D01*
X85559124Y-49924356D01*
X85708345Y-49832315D01*
X85832315Y-49708345D01*
X85924356Y-49559124D01*
X85924358Y-49559119D01*
X85979505Y-49392697D01*
X85979506Y-49392690D01*
X85989999Y-49289986D01*
X85990000Y-49289973D01*
X85990000Y-48940000D01*
X85005686Y-48940000D01*
X85010080Y-48935606D01*
X85062741Y-48844394D01*
X85090000Y-48742661D01*
X85090000Y-48637339D01*
X85062741Y-48535606D01*
X85010080Y-48444394D01*
X85005686Y-48440000D01*
X85989999Y-48440000D01*
X85989999Y-48090028D01*
X85989998Y-48090013D01*
X85979505Y-47987302D01*
X85924358Y-47820880D01*
X85924356Y-47820875D01*
X85832315Y-47671654D01*
X85708345Y-47547684D01*
X85559124Y-47455643D01*
X85559119Y-47455641D01*
X85392697Y-47400494D01*
X85392690Y-47400493D01*
X85289986Y-47390000D01*
X84940000Y-47390000D01*
X84940000Y-48374314D01*
X84935606Y-48369920D01*
X84844394Y-48317259D01*
X84742661Y-48290000D01*
X84637339Y-48290000D01*
X84535606Y-48317259D01*
X84444394Y-48369920D01*
X84440000Y-48374314D01*
X84440000Y-47390000D01*
X84090028Y-47390000D01*
X84090012Y-47390001D01*
X83987302Y-47400494D01*
X83820880Y-47455641D01*
X83820875Y-47455643D01*
X83671654Y-47547684D01*
X83547684Y-47671654D01*
X83455643Y-47820875D01*
X83455641Y-47820880D01*
X83400494Y-47987302D01*
X83400493Y-47987309D01*
X83390000Y-48090013D01*
X83390000Y-48440000D01*
X84374314Y-48440000D01*
X84369920Y-48444394D01*
X84317259Y-48535606D01*
X84290000Y-48637339D01*
X84290000Y-48742661D01*
X84317259Y-48844394D01*
X84369920Y-48935606D01*
X84374314Y-48940000D01*
X83390001Y-48940000D01*
X83390001Y-49289986D01*
X83400494Y-49392697D01*
X83455641Y-49559119D01*
X83455643Y-49559124D01*
X83547684Y-49708345D01*
X83671654Y-49832315D01*
X83820875Y-49924356D01*
X83820882Y-49924359D01*
X83903067Y-49951592D01*
X83960512Y-49991364D01*
X83987336Y-50055880D01*
X83975021Y-50124656D01*
X83936949Y-50169616D01*
X83842787Y-50238028D01*
X83842782Y-50238032D01*
X83698032Y-50382782D01*
X83698028Y-50382787D01*
X83664900Y-50428385D01*
X83609571Y-50471051D01*
X83564582Y-50479500D01*
X81696076Y-50479500D01*
X81667242Y-50485234D01*
X81667243Y-50485235D01*
X81551093Y-50508339D01*
X81551083Y-50508342D01*
X81471081Y-50541479D01*
X81471082Y-50541480D01*
X81414505Y-50564915D01*
X81332372Y-50619795D01*
X81291585Y-50647047D01*
X81291581Y-50647050D01*
X79975451Y-51963181D01*
X79914128Y-51996666D01*
X79887770Y-51999500D01*
X78363733Y-51999500D01*
X78296694Y-51979815D01*
X78250939Y-51927011D01*
X78246028Y-51914506D01*
X78241495Y-51900829D01*
X78234814Y-51880666D01*
X78142712Y-51731344D01*
X78018656Y-51607288D01*
X77869334Y-51515186D01*
X77702797Y-51460001D01*
X77702795Y-51460000D01*
X77600010Y-51449500D01*
X76399998Y-51449500D01*
X76399981Y-51449501D01*
X76297203Y-51460000D01*
X76297200Y-51460001D01*
X76130668Y-51515185D01*
X76130663Y-51515187D01*
X75981342Y-51607289D01*
X75857289Y-51731342D01*
X75765187Y-51880663D01*
X75765184Y-51880671D01*
X75753972Y-51914506D01*
X75714199Y-51971950D01*
X75649683Y-51998772D01*
X75636267Y-51999500D01*
X75176076Y-51999500D01*
X75147242Y-52005234D01*
X75147243Y-52005235D01*
X75031093Y-52028339D01*
X75031083Y-52028342D01*
X74951081Y-52061479D01*
X74951082Y-52061480D01*
X74913087Y-52077219D01*
X74894505Y-52084916D01*
X74866613Y-52103553D01*
X74826284Y-52130500D01*
X74771582Y-52167049D01*
X72417045Y-54521586D01*
X72400531Y-54546304D01*
X72386026Y-54568013D01*
X72369409Y-54592882D01*
X72334914Y-54644507D01*
X72278343Y-54781082D01*
X72278340Y-54781092D01*
X72249500Y-54926079D01*
X72249500Y-61975500D01*
X72229815Y-62042539D01*
X72177011Y-62088294D01*
X72125500Y-62099500D01*
X71799984Y-62099500D01*
X71697204Y-62110000D01*
X71697203Y-62110001D01*
X71530664Y-62165186D01*
X71530662Y-62165187D01*
X71381348Y-62257286D01*
X71381344Y-62257289D01*
X71257289Y-62381344D01*
X71257286Y-62381348D01*
X71165187Y-62530662D01*
X71165186Y-62530664D01*
X71110001Y-62697203D01*
X71110000Y-62697204D01*
X71099500Y-62799984D01*
X66000500Y-62799984D01*
X66000500Y-44407966D01*
X70600000Y-44407966D01*
X70600000Y-44657033D01*
X70632508Y-44903963D01*
X70696973Y-45144549D01*
X70792283Y-45374648D01*
X70792288Y-45374659D01*
X70916813Y-45590341D01*
X70916819Y-45590349D01*
X70991400Y-45687545D01*
X71898958Y-44779987D01*
X71923978Y-44840390D01*
X71995112Y-44946851D01*
X72085649Y-45037388D01*
X72192110Y-45108522D01*
X72252511Y-45133541D01*
X71344953Y-46041098D01*
X71442150Y-46115680D01*
X71442158Y-46115686D01*
X71657840Y-46240211D01*
X71657851Y-46240216D01*
X71887950Y-46335526D01*
X72128536Y-46399991D01*
X72375466Y-46432500D01*
X72624534Y-46432500D01*
X72871463Y-46399991D01*
X73112049Y-46335526D01*
X73342148Y-46240216D01*
X73342159Y-46240211D01*
X73557855Y-46115678D01*
X73655045Y-46041100D01*
X73655045Y-46041097D01*
X72747488Y-45133541D01*
X72807890Y-45108522D01*
X72914351Y-45037388D01*
X73004888Y-44946851D01*
X73076022Y-44840390D01*
X73101041Y-44779989D01*
X74008597Y-45687545D01*
X74008600Y-45687545D01*
X74083178Y-45590355D01*
X74207711Y-45374659D01*
X74207716Y-45374648D01*
X74303026Y-45144549D01*
X74367491Y-44903963D01*
X74400000Y-44657033D01*
X74400000Y-44407966D01*
X74367491Y-44161036D01*
X74303026Y-43920450D01*
X74207716Y-43690351D01*
X74207711Y-43690340D01*
X74083186Y-43474658D01*
X74083174Y-43474640D01*
X74029600Y-43404822D01*
X74029599Y-43404821D01*
X74008598Y-43377453D01*
X73101041Y-44285010D01*
X73076022Y-44224610D01*
X73004888Y-44118149D01*
X72914351Y-44027612D01*
X72807890Y-43956478D01*
X72747487Y-43931457D01*
X73346461Y-43332484D01*
X75599500Y-43332484D01*
X75599500Y-45732515D01*
X75610000Y-45835295D01*
X75610001Y-45835296D01*
X75665186Y-46001835D01*
X75665187Y-46001837D01*
X75757286Y-46151151D01*
X75757289Y-46151155D01*
X75881344Y-46275210D01*
X75881348Y-46275213D01*
X76030662Y-46367312D01*
X76030664Y-46367313D01*
X76030666Y-46367314D01*
X76197203Y-46422499D01*
X76299992Y-46433000D01*
X76299997Y-46433000D01*
X78700003Y-46433000D01*
X78700008Y-46433000D01*
X78802797Y-46422499D01*
X78969334Y-46367314D01*
X79118655Y-46275211D01*
X79242711Y-46151155D01*
X79334814Y-46001834D01*
X79389999Y-45835297D01*
X79400500Y-45732508D01*
X79400500Y-44407966D01*
X96850000Y-44407966D01*
X96850000Y-44657033D01*
X96882508Y-44903963D01*
X96946973Y-45144549D01*
X97042283Y-45374648D01*
X97042288Y-45374659D01*
X97166813Y-45590341D01*
X97166819Y-45590349D01*
X97241400Y-45687545D01*
X98148958Y-44779987D01*
X98173978Y-44840390D01*
X98245112Y-44946851D01*
X98335649Y-45037388D01*
X98442110Y-45108522D01*
X98502511Y-45133541D01*
X97594953Y-46041098D01*
X97692150Y-46115680D01*
X97692158Y-46115686D01*
X97907840Y-46240211D01*
X97907851Y-46240216D01*
X98137950Y-46335526D01*
X98378536Y-46399991D01*
X98625466Y-46432500D01*
X98874534Y-46432500D01*
X99121463Y-46399991D01*
X99362049Y-46335526D01*
X99592148Y-46240216D01*
X99592159Y-46240211D01*
X99807855Y-46115678D01*
X99905045Y-46041100D01*
X99905045Y-46041097D01*
X98997488Y-45133541D01*
X99057890Y-45108522D01*
X99164351Y-45037388D01*
X99254888Y-44946851D01*
X99326022Y-44840390D01*
X99351041Y-44779988D01*
X100258597Y-45687545D01*
X100258600Y-45687545D01*
X100333178Y-45590355D01*
X100457711Y-45374659D01*
X100457716Y-45374648D01*
X100553026Y-45144549D01*
X100617491Y-44903963D01*
X100650000Y-44657033D01*
X100650000Y-44407966D01*
X100617491Y-44161036D01*
X100553026Y-43920450D01*
X100457716Y-43690351D01*
X100457711Y-43690340D01*
X100333186Y-43474658D01*
X100333174Y-43474640D01*
X100279600Y-43404822D01*
X100279599Y-43404821D01*
X100258598Y-43377453D01*
X99351041Y-44285010D01*
X99326022Y-44224610D01*
X99254888Y-44118149D01*
X99164351Y-44027612D01*
X99057890Y-43956478D01*
X98997487Y-43931457D01*
X99596461Y-43332484D01*
X101849500Y-43332484D01*
X101849500Y-45732515D01*
X101860000Y-45835295D01*
X101860001Y-45835296D01*
X101915186Y-46001835D01*
X101915187Y-46001837D01*
X102007286Y-46151151D01*
X102007289Y-46151155D01*
X102131344Y-46275210D01*
X102131348Y-46275213D01*
X102280662Y-46367312D01*
X102280664Y-46367313D01*
X102280666Y-46367314D01*
X102447203Y-46422499D01*
X102549992Y-46433000D01*
X102549997Y-46433000D01*
X104950003Y-46433000D01*
X104950008Y-46433000D01*
X105052797Y-46422499D01*
X105219334Y-46367314D01*
X105368655Y-46275211D01*
X105492711Y-46151155D01*
X105584814Y-46001834D01*
X105639999Y-45835297D01*
X105650500Y-45732508D01*
X105650500Y-43332492D01*
X105639999Y-43229703D01*
X105584814Y-43063166D01*
X105581996Y-43058598D01*
X105492713Y-42913848D01*
X105492710Y-42913844D01*
X105368655Y-42789789D01*
X105368651Y-42789786D01*
X105219337Y-42697687D01*
X105219335Y-42697686D01*
X105136065Y-42670093D01*
X105052797Y-42642501D01*
X105052795Y-42642500D01*
X104950015Y-42632000D01*
X104950008Y-42632000D01*
X102549992Y-42632000D01*
X102549984Y-42632000D01*
X102447204Y-42642500D01*
X102447203Y-42642501D01*
X102280664Y-42697686D01*
X102280662Y-42697687D01*
X102131348Y-42789786D01*
X102131344Y-42789789D01*
X102007289Y-42913844D01*
X102007286Y-42913848D01*
X101915187Y-43063162D01*
X101915186Y-43063164D01*
X101860001Y-43229703D01*
X101860000Y-43229704D01*
X101849500Y-43332484D01*
X99596461Y-43332484D01*
X99905045Y-43023900D01*
X99807849Y-42949319D01*
X99807841Y-42949313D01*
X99592159Y-42824788D01*
X99592148Y-42824783D01*
X99362049Y-42729473D01*
X99121463Y-42665008D01*
X98874534Y-42632500D01*
X98625466Y-42632500D01*
X98378536Y-42665008D01*
X98137950Y-42729473D01*
X97907851Y-42824783D01*
X97907847Y-42824785D01*
X97692143Y-42949323D01*
X97594953Y-43023899D01*
X97594953Y-43023900D01*
X98502511Y-43931458D01*
X98442110Y-43956478D01*
X98335649Y-44027612D01*
X98245112Y-44118149D01*
X98173978Y-44224610D01*
X98148958Y-44285011D01*
X97241400Y-43377453D01*
X97241399Y-43377453D01*
X97166823Y-43474643D01*
X97042285Y-43690347D01*
X97042283Y-43690351D01*
X96946973Y-43920450D01*
X96882508Y-44161036D01*
X96850000Y-44407966D01*
X79400500Y-44407966D01*
X79400500Y-43744729D01*
X79420185Y-43677690D01*
X79436819Y-43657048D01*
X80057048Y-43036819D01*
X80118371Y-43003334D01*
X80144729Y-43000500D01*
X84593023Y-43000500D01*
X84660062Y-43020185D01*
X84705817Y-43072989D01*
X84713266Y-43100134D01*
X84714124Y-43099932D01*
X84715907Y-43107479D01*
X84766202Y-43242328D01*
X84766206Y-43242335D01*
X84852452Y-43357544D01*
X84852455Y-43357547D01*
X84967664Y-43443793D01*
X84967671Y-43443797D01*
X85102517Y-43494091D01*
X85102516Y-43494091D01*
X85109444Y-43494835D01*
X85162127Y-43500500D01*
X86757872Y-43500499D01*
X86817483Y-43494091D01*
X86952331Y-43443796D01*
X87067546Y-43357546D01*
X87130734Y-43273136D01*
X87186667Y-43231267D01*
X87256359Y-43226283D01*
X87317682Y-43259768D01*
X87329260Y-43273130D01*
X87392454Y-43357546D01*
X87438643Y-43392123D01*
X87507664Y-43443793D01*
X87507671Y-43443797D01*
X87642517Y-43494091D01*
X87642516Y-43494091D01*
X87649444Y-43494835D01*
X87702127Y-43500500D01*
X89297872Y-43500499D01*
X89357483Y-43494091D01*
X89492331Y-43443796D01*
X89607546Y-43357546D01*
X89670734Y-43273136D01*
X89726667Y-43231267D01*
X89796359Y-43226283D01*
X89857682Y-43259768D01*
X89869260Y-43273130D01*
X89932454Y-43357546D01*
X89978643Y-43392123D01*
X90047664Y-43443793D01*
X90047671Y-43443797D01*
X90182517Y-43494091D01*
X90182516Y-43494091D01*
X90189444Y-43494835D01*
X90242127Y-43500500D01*
X91837872Y-43500499D01*
X91897483Y-43494091D01*
X92032331Y-43443796D01*
X92147546Y-43357546D01*
X92233796Y-43242331D01*
X92284091Y-43107483D01*
X92290500Y-43047873D01*
X92290499Y-41452128D01*
X92284091Y-41392517D01*
X92233796Y-41257669D01*
X92233795Y-41257668D01*
X92233793Y-41257664D01*
X92147547Y-41142455D01*
X92147544Y-41142452D01*
X92032335Y-41056206D01*
X92032328Y-41056202D01*
X91897482Y-41005908D01*
X91897483Y-41005908D01*
X91837883Y-40999501D01*
X91837881Y-40999500D01*
X91837873Y-40999500D01*
X91837864Y-40999500D01*
X90242129Y-40999500D01*
X90242123Y-40999501D01*
X90182516Y-41005908D01*
X90047671Y-41056202D01*
X90047664Y-41056206D01*
X89932455Y-41142452D01*
X89932452Y-41142455D01*
X89869266Y-41226861D01*
X89813332Y-41268732D01*
X89743641Y-41273716D01*
X89682318Y-41240230D01*
X89670734Y-41226861D01*
X89607547Y-41142455D01*
X89607544Y-41142452D01*
X89492335Y-41056206D01*
X89492328Y-41056202D01*
X89357482Y-41005908D01*
X89357483Y-41005908D01*
X89297883Y-40999501D01*
X89297881Y-40999500D01*
X89297873Y-40999500D01*
X89297864Y-40999500D01*
X87702129Y-40999500D01*
X87702123Y-40999501D01*
X87642516Y-41005908D01*
X87507671Y-41056202D01*
X87507664Y-41056206D01*
X87392455Y-41142452D01*
X87392452Y-41142455D01*
X87329266Y-41226861D01*
X87273332Y-41268732D01*
X87203641Y-41273716D01*
X87142318Y-41240230D01*
X87130734Y-41226861D01*
X87067547Y-41142455D01*
X87067544Y-41142452D01*
X86952335Y-41056206D01*
X86952328Y-41056202D01*
X86817482Y-41005908D01*
X86817483Y-41005908D01*
X86757883Y-40999501D01*
X86757881Y-40999500D01*
X86757873Y-40999500D01*
X86757864Y-40999500D01*
X85162129Y-40999500D01*
X85162123Y-40999501D01*
X85102516Y-41005908D01*
X84967671Y-41056202D01*
X84967664Y-41056206D01*
X84852455Y-41142452D01*
X84852452Y-41142455D01*
X84766206Y-41257664D01*
X84766202Y-41257671D01*
X84715908Y-41392517D01*
X84714126Y-41400062D01*
X84711853Y-41399525D01*
X84689571Y-41453312D01*
X84632177Y-41493157D01*
X84593024Y-41499500D01*
X79708580Y-41499500D01*
X79563592Y-41528340D01*
X79563582Y-41528343D01*
X79427011Y-41584912D01*
X79426998Y-41584919D01*
X79304084Y-41667048D01*
X79304080Y-41667051D01*
X78375452Y-42595681D01*
X78314129Y-42629166D01*
X78287771Y-42632000D01*
X76299984Y-42632000D01*
X76197204Y-42642500D01*
X76197203Y-42642501D01*
X76030664Y-42697686D01*
X76030662Y-42697687D01*
X75881348Y-42789786D01*
X75881344Y-42789789D01*
X75757289Y-42913844D01*
X75757286Y-42913848D01*
X75665187Y-43063162D01*
X75665186Y-43063164D01*
X75610001Y-43229703D01*
X75610000Y-43229704D01*
X75599500Y-43332484D01*
X73346461Y-43332484D01*
X73655045Y-43023900D01*
X73557849Y-42949319D01*
X73557841Y-42949313D01*
X73342159Y-42824788D01*
X73342148Y-42824783D01*
X73112049Y-42729473D01*
X72871463Y-42665008D01*
X72624534Y-42632500D01*
X72375466Y-42632500D01*
X72128536Y-42665008D01*
X71887950Y-42729473D01*
X71657851Y-42824783D01*
X71657847Y-42824785D01*
X71442143Y-42949323D01*
X71344953Y-43023899D01*
X71344953Y-43023900D01*
X72252511Y-43931458D01*
X72192110Y-43956478D01*
X72085649Y-44027612D01*
X71995112Y-44118149D01*
X71923978Y-44224610D01*
X71898958Y-44285011D01*
X70991400Y-43377453D01*
X70991399Y-43377453D01*
X70916823Y-43474643D01*
X70792285Y-43690347D01*
X70792283Y-43690351D01*
X70696973Y-43920450D01*
X70632508Y-44161036D01*
X70600000Y-44407966D01*
X66000500Y-44407966D01*
X66000500Y-40124500D01*
X66020185Y-40057461D01*
X66072989Y-40011706D01*
X66124500Y-40000500D01*
X110875500Y-40000500D01*
X110942539Y-40020185D01*
G37*
%TD.AperFunction*%
%TD*%
M02*
