%TF.GenerationSoftware,KiCad,Pcbnew,10.0.1*%
%TF.CreationDate,2026-09-08T17:56:25-03:00*%
%TF.ProjectId,555_astable,3535355f-6173-4746-9162-6c652e6b6963,rev?*%
%TF.SameCoordinates,Original*%
%TF.FileFunction,Legend,Bot*%
%TF.FilePolarity,Positive*%
%FSLAX46Y46*%
G04 Gerber Fmt 4.6, Leading zero omitted, Abs format (unit mm)*
G04 Created by KiCad (PCBNEW 10.0.1) date 2026-09-08 17:56:25*
%MOMM*%
%LPD*%
G01*
G04 APERTURE LIST*
%ADD10C,0.250000*%
G04 APERTURE END LIST*
D10*
G36*
X107036486Y-50207443D02*
G01*
X107657040Y-50207443D01*
X107657040Y-50365755D01*
X107504303Y-50365755D01*
X107504303Y-50519769D01*
X107345990Y-50519769D01*
X107345990Y-50365755D01*
X107038031Y-50365755D01*
X107036486Y-50207443D01*
G37*
G36*
X107965000Y-50053430D02*
G01*
X107965000Y-50211742D01*
X107652741Y-50211742D01*
X107652741Y-50053430D01*
X107965000Y-50053430D01*
G37*
G36*
X107040785Y-50361457D02*
G01*
X107040785Y-50519769D01*
X106882540Y-50519769D01*
X106882540Y-50361457D01*
X107040785Y-50361457D01*
G37*
G36*
X107965000Y-50515470D02*
G01*
X107965000Y-50673715D01*
X107652741Y-50673715D01*
X107652741Y-50515470D01*
X107965000Y-50515470D01*
G37*
G36*
X107349550Y-50515470D02*
G01*
X107349550Y-50673715D01*
X107191238Y-50673715D01*
X107191238Y-50515470D01*
X107349550Y-50515470D01*
G37*
G36*
X107658316Y-50669416D02*
G01*
X107658316Y-50827728D01*
X107345990Y-50827728D01*
X107345990Y-50669416D01*
X107658316Y-50669416D01*
G37*
G36*
X107965000Y-51285336D02*
G01*
X107965000Y-51597661D01*
X107806755Y-51597661D01*
X107806755Y-51285336D01*
X107965000Y-51285336D01*
G37*
G36*
X107811053Y-51131322D02*
G01*
X107811053Y-51289634D01*
X107655495Y-51289634D01*
X107655495Y-51751608D01*
X107497250Y-51751608D01*
X107497250Y-51443648D01*
X107345990Y-51443648D01*
X107345990Y-51285336D01*
X107497250Y-51285336D01*
X107497250Y-51131322D01*
X107811053Y-51131322D01*
G37*
G36*
X107349550Y-51439349D02*
G01*
X107349550Y-51751608D01*
X107191238Y-51751608D01*
X107191238Y-51439349D01*
X107349550Y-51439349D01*
G37*
G36*
X107504303Y-51747309D02*
G01*
X107504303Y-51905621D01*
X107345990Y-51905621D01*
X107345990Y-51747309D01*
X107504303Y-51747309D01*
G37*
G36*
X107345990Y-52983514D02*
G01*
X107345990Y-52825201D01*
X107504303Y-52825201D01*
X107504303Y-52983514D01*
X107345990Y-52983514D01*
G37*
G36*
X107810247Y-52209215D02*
G01*
X107810247Y-52367527D01*
X107500004Y-52367527D01*
X107500004Y-52209215D01*
X107810247Y-52209215D01*
G37*
G36*
X107965000Y-52363228D02*
G01*
X107965000Y-52675554D01*
X107806755Y-52675554D01*
X107806755Y-52363228D01*
X107965000Y-52363228D01*
G37*
G36*
X107504303Y-52363228D02*
G01*
X107504303Y-52521540D01*
X107345990Y-52521540D01*
X107345990Y-52363228D01*
X107504303Y-52363228D01*
G37*
G36*
X107349550Y-52517242D02*
G01*
X107349550Y-52829500D01*
X107191238Y-52829500D01*
X107191238Y-52517242D01*
X107349550Y-52517242D01*
G37*
G36*
X107810247Y-52671255D02*
G01*
X107810247Y-52829500D01*
X107652002Y-52829500D01*
X107652002Y-52671255D01*
X107810247Y-52671255D01*
G37*
G36*
X107036486Y-53441121D02*
G01*
X107657040Y-53441121D01*
X107657040Y-53599433D01*
X107504303Y-53599433D01*
X107504303Y-53753446D01*
X107345990Y-53753446D01*
X107345990Y-53599433D01*
X107038031Y-53599433D01*
X107036486Y-53441121D01*
G37*
G36*
X107965000Y-53287107D02*
G01*
X107965000Y-53445419D01*
X107652741Y-53445419D01*
X107652741Y-53287107D01*
X107965000Y-53287107D01*
G37*
G36*
X107040785Y-53595134D02*
G01*
X107040785Y-53753446D01*
X106882540Y-53753446D01*
X106882540Y-53595134D01*
X107040785Y-53595134D01*
G37*
G36*
X107965000Y-53749148D02*
G01*
X107965000Y-53907393D01*
X107652741Y-53907393D01*
X107652741Y-53749148D01*
X107965000Y-53749148D01*
G37*
G36*
X107349550Y-53749148D02*
G01*
X107349550Y-53907393D01*
X107191238Y-53907393D01*
X107191238Y-53749148D01*
X107349550Y-53749148D01*
G37*
G36*
X107658316Y-53903094D02*
G01*
X107658316Y-54061406D01*
X107345990Y-54061406D01*
X107345990Y-53903094D01*
X107658316Y-53903094D01*
G37*
G36*
X107345990Y-54677325D02*
G01*
X107345990Y-54519013D01*
X107504303Y-54519013D01*
X107504303Y-54677325D01*
X107345990Y-54677325D01*
G37*
G36*
X107810247Y-54365000D02*
G01*
X107810247Y-54523312D01*
X107497989Y-54523312D01*
X107497989Y-54365000D01*
X107810247Y-54365000D01*
G37*
G36*
X107965000Y-54519013D02*
G01*
X107965000Y-54831339D01*
X107806755Y-54831339D01*
X107806755Y-54519013D01*
X107965000Y-54519013D01*
G37*
G36*
X107349550Y-54673027D02*
G01*
X107349550Y-54985285D01*
X107191238Y-54985285D01*
X107191238Y-54673027D01*
X107349550Y-54673027D01*
G37*
G36*
X107810247Y-54827040D02*
G01*
X107810247Y-54985285D01*
X107652002Y-54985285D01*
X107652002Y-54827040D01*
X107810247Y-54827040D01*
G37*
G36*
X107656301Y-54980986D02*
G01*
X107656301Y-55139299D01*
X107345990Y-55139299D01*
X107345990Y-54980986D01*
X107656301Y-54980986D01*
G37*
G36*
X107810247Y-56833111D02*
G01*
X107497989Y-56833111D01*
X107497989Y-56674798D01*
X107810247Y-56674798D01*
X107810247Y-56833111D01*
G37*
G36*
X108273026Y-56520785D02*
G01*
X108273026Y-56679097D01*
X107806755Y-56679097D01*
X107806755Y-56520785D01*
X108273026Y-56520785D01*
G37*
G36*
X107349550Y-56674798D02*
G01*
X107349550Y-56833111D01*
X107191238Y-56833111D01*
X107191238Y-56674798D01*
X107349550Y-56674798D01*
G37*
G36*
X107965000Y-56828812D02*
G01*
X107965000Y-57141070D01*
X107806755Y-57141070D01*
X107806755Y-56828812D01*
X107965000Y-56828812D01*
G37*
G36*
X107504303Y-56828812D02*
G01*
X107504303Y-56987124D01*
X107345990Y-56987124D01*
X107345990Y-56828812D01*
X107504303Y-56828812D01*
G37*
G36*
X107349550Y-56982825D02*
G01*
X107349550Y-57295084D01*
X107191238Y-57295084D01*
X107191238Y-56982825D01*
X107349550Y-56982825D01*
G37*
G36*
X107810247Y-57136772D02*
G01*
X107810247Y-57295084D01*
X107652002Y-57295084D01*
X107652002Y-57136772D01*
X107810247Y-57136772D01*
G37*
G36*
X107656301Y-57290785D02*
G01*
X107656301Y-57449097D01*
X107345990Y-57449097D01*
X107345990Y-57290785D01*
X107656301Y-57290785D01*
G37*
G36*
X107345990Y-57911003D02*
G01*
X107345990Y-57752691D01*
X107504303Y-57752691D01*
X107504303Y-57911003D01*
X107345990Y-57911003D01*
G37*
G36*
X107810247Y-57598677D02*
G01*
X107810247Y-57756990D01*
X107497989Y-57756990D01*
X107497989Y-57598677D01*
X107810247Y-57598677D01*
G37*
G36*
X107965000Y-57752691D02*
G01*
X107965000Y-58065016D01*
X107806755Y-58065016D01*
X107806755Y-57752691D01*
X107965000Y-57752691D01*
G37*
G36*
X107349550Y-57906704D02*
G01*
X107349550Y-58218963D01*
X107191238Y-58218963D01*
X107191238Y-57906704D01*
X107349550Y-57906704D01*
G37*
G36*
X107810247Y-58060718D02*
G01*
X107810247Y-58218963D01*
X107652002Y-58218963D01*
X107652002Y-58060718D01*
X107810247Y-58060718D01*
G37*
G36*
X107656301Y-58214664D02*
G01*
X107656301Y-58372976D01*
X107345990Y-58372976D01*
X107345990Y-58214664D01*
X107656301Y-58214664D01*
G37*
G36*
X107652741Y-58834882D02*
G01*
X107652741Y-58676570D01*
X107965000Y-58676570D01*
X107965000Y-58834882D01*
X107652741Y-58834882D01*
G37*
G36*
X107657040Y-58830583D02*
G01*
X107657040Y-58988896D01*
X107504303Y-58988896D01*
X107504303Y-59142909D01*
X107345990Y-59142909D01*
X107345990Y-58988896D01*
X107191238Y-58988896D01*
X107191238Y-58830583D01*
X107657040Y-58830583D01*
G37*
G36*
X107349550Y-59138610D02*
G01*
X107349550Y-59296855D01*
X107191238Y-59296855D01*
X107191238Y-59138610D01*
X107349550Y-59138610D01*
G37*
G36*
X107504303Y-59292557D02*
G01*
X107504303Y-59450869D01*
X107345990Y-59450869D01*
X107345990Y-59292557D01*
X107504303Y-59292557D01*
G37*
G36*
X109506316Y-49826809D02*
G01*
X109193990Y-49826809D01*
X109193990Y-49668497D01*
X109506316Y-49668497D01*
X109506316Y-49826809D01*
G37*
G36*
X109813000Y-49514484D02*
G01*
X109813000Y-49672796D01*
X109500741Y-49672796D01*
X109500741Y-49514484D01*
X109813000Y-49514484D01*
G37*
G36*
X109197550Y-49514484D02*
G01*
X109197550Y-49672796D01*
X109039238Y-49672796D01*
X109039238Y-49514484D01*
X109197550Y-49514484D01*
G37*
G36*
X109813000Y-49822511D02*
G01*
X109813000Y-49980823D01*
X109500741Y-49980823D01*
X109500741Y-49822511D01*
X109813000Y-49822511D01*
G37*
G36*
X109197550Y-49822511D02*
G01*
X109197550Y-49980823D01*
X109039238Y-49980823D01*
X109039238Y-49822511D01*
X109197550Y-49822511D01*
G37*
G36*
X109506316Y-49976524D02*
G01*
X109506316Y-50134769D01*
X109193990Y-50134769D01*
X109193990Y-49976524D01*
X109506316Y-49976524D01*
G37*
G36*
X109813000Y-50130470D02*
G01*
X109813000Y-50288782D01*
X109500741Y-50288782D01*
X109500741Y-50130470D01*
X109813000Y-50130470D01*
G37*
G36*
X109197550Y-50130470D02*
G01*
X109197550Y-50288782D01*
X109039238Y-50288782D01*
X109039238Y-50130470D01*
X109197550Y-50130470D01*
G37*
G36*
X109506316Y-50284484D02*
G01*
X109506316Y-50442796D01*
X109193990Y-50442796D01*
X109193990Y-50284484D01*
X109506316Y-50284484D01*
G37*
G36*
X109658247Y-50750688D02*
G01*
X109345989Y-50750688D01*
X109345989Y-50592376D01*
X109658247Y-50592376D01*
X109658247Y-50750688D01*
G37*
G36*
X109813000Y-50746390D02*
G01*
X109813000Y-51058715D01*
X109654755Y-51058715D01*
X109654755Y-50746390D01*
X109813000Y-50746390D01*
G37*
G36*
X109352303Y-50746390D02*
G01*
X109352303Y-50904702D01*
X109193990Y-50904702D01*
X109193990Y-50746390D01*
X109352303Y-50746390D01*
G37*
G36*
X109197550Y-50900403D02*
G01*
X109197550Y-51212662D01*
X109039238Y-51212662D01*
X109039238Y-50900403D01*
X109197550Y-50900403D01*
G37*
G36*
X109658247Y-51054417D02*
G01*
X109658247Y-51212662D01*
X109500002Y-51212662D01*
X109500002Y-51054417D01*
X109658247Y-51054417D01*
G37*
G36*
X109813000Y-51208363D02*
G01*
X109813000Y-51366675D01*
X109654755Y-51366675D01*
X109654755Y-51208363D01*
X109813000Y-51208363D01*
G37*
G36*
X109505711Y-51208363D02*
G01*
X109505711Y-51366675D01*
X109193990Y-51366675D01*
X109193990Y-51208363D01*
X109505711Y-51208363D01*
G37*
G36*
X109197550Y-51362376D02*
G01*
X109197550Y-51520688D01*
X109039238Y-51520688D01*
X109039238Y-51362376D01*
X109197550Y-51362376D01*
G37*
G36*
X109039238Y-51824282D02*
G01*
X109197550Y-51824282D01*
X109197550Y-51978296D01*
X109351362Y-51978296D01*
X109351362Y-52136608D01*
X109197550Y-52136608D01*
X109197550Y-52444568D01*
X109039238Y-52444568D01*
X109039238Y-52136608D01*
X108884486Y-52136608D01*
X108884486Y-51978296D01*
X109039238Y-51978296D01*
X109039238Y-51824282D01*
G37*
G36*
X109813000Y-51824282D02*
G01*
X109813000Y-52136608D01*
X109654755Y-52136608D01*
X109654755Y-51982594D01*
X109347064Y-51982594D01*
X109347064Y-51824282D01*
X109813000Y-51824282D01*
G37*
G36*
X109658247Y-52132309D02*
G01*
X109658247Y-52290554D01*
X109500002Y-52290554D01*
X109500002Y-52132309D01*
X109658247Y-52132309D01*
G37*
G36*
X108888785Y-52132309D02*
G01*
X108888785Y-52290554D01*
X108730540Y-52290554D01*
X108730540Y-52132309D01*
X108888785Y-52132309D01*
G37*
G36*
X109813000Y-52902175D02*
G01*
X109813000Y-53214500D01*
X109654755Y-53214500D01*
X109654755Y-52902175D01*
X109813000Y-52902175D01*
G37*
G36*
X109659053Y-52748161D02*
G01*
X109659053Y-52906473D01*
X109503495Y-52906473D01*
X109503495Y-53368447D01*
X109345250Y-53368447D01*
X109345250Y-53060487D01*
X109193990Y-53060487D01*
X109193990Y-52902175D01*
X109345250Y-52902175D01*
X109345250Y-52748161D01*
X109659053Y-52748161D01*
G37*
G36*
X109197550Y-53056188D02*
G01*
X109197550Y-53368447D01*
X109039238Y-53368447D01*
X109039238Y-53056188D01*
X109197550Y-53056188D01*
G37*
G36*
X109352303Y-53364148D02*
G01*
X109352303Y-53522460D01*
X109193990Y-53522460D01*
X109193990Y-53364148D01*
X109352303Y-53364148D01*
G37*
G36*
X109193990Y-54138379D02*
G01*
X109193990Y-53980067D01*
X109352303Y-53980067D01*
X109352303Y-54138379D01*
X109193990Y-54138379D01*
G37*
G36*
X109658247Y-53826054D02*
G01*
X109658247Y-53984366D01*
X109345989Y-53984366D01*
X109345989Y-53826054D01*
X109658247Y-53826054D01*
G37*
G36*
X109813000Y-53980067D02*
G01*
X109813000Y-54292393D01*
X109654755Y-54292393D01*
X109654755Y-53980067D01*
X109813000Y-53980067D01*
G37*
G36*
X109197550Y-54134081D02*
G01*
X109197550Y-54446339D01*
X109039238Y-54446339D01*
X109039238Y-54134081D01*
X109197550Y-54134081D01*
G37*
G36*
X109658247Y-54288094D02*
G01*
X109658247Y-54446339D01*
X109500002Y-54446339D01*
X109500002Y-54288094D01*
X109658247Y-54288094D01*
G37*
G36*
X109504301Y-54442040D02*
G01*
X109504301Y-54600353D01*
X109193990Y-54600353D01*
X109193990Y-54442040D01*
X109504301Y-54442040D01*
G37*
G36*
X109658247Y-56140151D02*
G01*
X109345989Y-56140151D01*
X109345989Y-55981839D01*
X109658247Y-55981839D01*
X109658247Y-56140151D01*
G37*
G36*
X109813000Y-56135852D02*
G01*
X109813000Y-56448178D01*
X109654755Y-56448178D01*
X109654755Y-56135852D01*
X109813000Y-56135852D01*
G37*
G36*
X109352303Y-56135852D02*
G01*
X109352303Y-56294165D01*
X109193990Y-56294165D01*
X109193990Y-56135852D01*
X109352303Y-56135852D01*
G37*
G36*
X109197550Y-56289866D02*
G01*
X109197550Y-56602124D01*
X109039238Y-56602124D01*
X109039238Y-56289866D01*
X109197550Y-56289866D01*
G37*
G36*
X109658247Y-56443879D02*
G01*
X109658247Y-56602124D01*
X109500002Y-56602124D01*
X109500002Y-56443879D01*
X109658247Y-56443879D01*
G37*
G36*
X109813000Y-56597826D02*
G01*
X109813000Y-56756138D01*
X109654755Y-56756138D01*
X109654755Y-56597826D01*
X109813000Y-56597826D01*
G37*
G36*
X109505711Y-56597826D02*
G01*
X109505711Y-56756138D01*
X109193990Y-56756138D01*
X109193990Y-56597826D01*
X109505711Y-56597826D01*
G37*
G36*
X109197550Y-56751839D02*
G01*
X109197550Y-56910151D01*
X109039238Y-56910151D01*
X109039238Y-56751839D01*
X109197550Y-56751839D01*
G37*
G36*
X109500741Y-57218044D02*
G01*
X109500741Y-57059731D01*
X109813000Y-57059731D01*
X109813000Y-57218044D01*
X109500741Y-57218044D01*
G37*
G36*
X109505040Y-57213745D02*
G01*
X109505040Y-57372057D01*
X109352303Y-57372057D01*
X109352303Y-57526070D01*
X109193990Y-57526070D01*
X109193990Y-57372057D01*
X109039238Y-57372057D01*
X109039238Y-57213745D01*
X109505040Y-57213745D01*
G37*
G36*
X109197550Y-57521772D02*
G01*
X109197550Y-57680017D01*
X109039238Y-57680017D01*
X109039238Y-57521772D01*
X109197550Y-57521772D01*
G37*
G36*
X109352303Y-57675718D02*
G01*
X109352303Y-57834030D01*
X109193990Y-57834030D01*
X109193990Y-57675718D01*
X109352303Y-57675718D01*
G37*
G36*
X109193990Y-58911923D02*
G01*
X109193990Y-58753611D01*
X109352303Y-58753611D01*
X109352303Y-58911923D01*
X109193990Y-58911923D01*
G37*
G36*
X109658247Y-58137624D02*
G01*
X109658247Y-58295936D01*
X109348004Y-58295936D01*
X109348004Y-58137624D01*
X109658247Y-58137624D01*
G37*
G36*
X109813000Y-58291637D02*
G01*
X109813000Y-58603963D01*
X109654755Y-58603963D01*
X109654755Y-58291637D01*
X109813000Y-58291637D01*
G37*
G36*
X109352303Y-58291637D02*
G01*
X109352303Y-58449950D01*
X109193990Y-58449950D01*
X109193990Y-58291637D01*
X109352303Y-58291637D01*
G37*
G36*
X109197550Y-58445651D02*
G01*
X109197550Y-58757909D01*
X109039238Y-58757909D01*
X109039238Y-58445651D01*
X109197550Y-58445651D01*
G37*
G36*
X109658247Y-58599664D02*
G01*
X109658247Y-58757909D01*
X109500002Y-58757909D01*
X109500002Y-58599664D01*
X109658247Y-58599664D01*
G37*
G36*
X109813000Y-59369530D02*
G01*
X109813000Y-59681856D01*
X109654755Y-59681856D01*
X109654755Y-59369530D01*
X109813000Y-59369530D01*
G37*
G36*
X109659053Y-59215517D02*
G01*
X109659053Y-59373829D01*
X109503495Y-59373829D01*
X109503495Y-59835802D01*
X109345250Y-59835802D01*
X109345250Y-59527842D01*
X109193990Y-59527842D01*
X109193990Y-59369530D01*
X109345250Y-59369530D01*
X109345250Y-59215517D01*
X109659053Y-59215517D01*
G37*
G36*
X109197550Y-59523543D02*
G01*
X109197550Y-59835802D01*
X109039238Y-59835802D01*
X109039238Y-59523543D01*
X109197550Y-59523543D01*
G37*
G36*
X109352303Y-59831503D02*
G01*
X109352303Y-59989815D01*
X109193990Y-59989815D01*
X109193990Y-59831503D01*
X109352303Y-59831503D01*
G37*
M02*
